<?xml version="1.0" encoding="UTF-8"?>
<svg id="_레이어_2" data-name="레이어 2" xmlns="http://www.w3.org/2000/svg" viewBox="0 0 250.37 80.62">
  <defs>
    <style>
      .cls-1 {
        fill: #0d00b4;
      }
    </style>
  </defs>
  <g id="_레이어_1-2" data-name="레이어 1">
    <g>
      <path class="cls-1" d="M40.46,11.42l.32-1.99c.76.42,1.81.81,2.98.84.42,0,.83-.03,1.18-.13.94-.21,1.54-.68,1.54-1.46s-.62-1.28-2.14-1.85c-1.78-.66-2.75-1.51-2.75-3.05,0-2.37,2.04-3.79,4.63-3.79,1.17,0,2.24.29,2.88.58l-.29,1.91c-.62-.37-1.67-.7-2.72-.7-1.44,0-2.48.62-2.48,1.64,0,.71.58,1.25,2.11,1.83,1.78.7,2.79,1.54,2.79,3.06,0,2.3-1.83,3.76-4.73,3.76-1.34,0-2.56-.32-3.32-.66Z"/>
      <path class="cls-1" d="M53.83.21l-.68,4.26c-.05.37-.13.7-.16.84.5-.68,1.62-1.75,3.14-1.75,1.91,0,2.62,1.15,2.3,3.24l-.81,5.07h-1.98l.75-4.73c.15-.94.06-1.78-1.04-1.78-1.34,0-2.48,1.07-2.71,2.5l-.63,4.02h-1.98L51.88.21h1.94Z"/>
      <path class="cls-1" d="M63.52,3.78l-1.28,8.1h-1.98l1.28-8.1h1.98ZM63.08.32c.6,0,.99.37.99.94,0,.76-.58,1.28-1.34,1.28-.62,0-.99-.37-.99-.92,0-.78.57-1.3,1.35-1.3Z"/>
      <path class="cls-1" d="M66.41,3.78h1.81l-.08.76c-.05.34-.15.57-.13.57h.03c.52-.81,1.73-1.54,2.98-1.54,1.88,0,3.18,1.39,3.18,3.55,0,2.98-2.12,4.97-4.47,4.97-1.25,0-2.16-.66-2.45-1.41h-.03s.02.23-.06.66l-.65,4.1h-1.98l1.85-11.67ZM72.29,7.37c0-1.25-.7-2.12-1.85-2.12-1.23,0-2.69,1-2.69,3.03,0,1.43.91,2.12,1.86,2.12,1.51,0,2.67-1.3,2.67-3.03Z"/>
      <path class="cls-1" d="M78.8,3.78l-.11,1.04c-.05.31-.15.52-.16.58h.03c.55-.97,1.7-1.73,2.92-1.8.28-.02.55,0,.79.06.84.18,1.43.73,1.54,1.64.73-.96,1.86-1.73,3.05-1.73,1.9,0,2.64,1.13,2.32,3.24l-.81,5.07h-1.98l.76-4.76c.15-.96,0-1.75-1-1.75-1.56,0-2.32,1.44-2.54,2.87l-.58,3.65h-1.98l.76-4.76c.15-.92.08-1.75-.97-1.75-1.52,0-2.35,1.43-2.58,2.87l-.58,3.65h-1.98l1.28-8.1h1.83Z"/>
      <path class="cls-1" d="M98.74,6.77c0,.71-.21,1.25-.24,1.46h-5.66c-.18,1.36.66,2.17,2.16,2.17,1.13,0,2.38-.34,2.98-.68l-.28,1.73c-.62.31-1.75.63-3.11.63-2.4,0-3.81-1.49-3.81-3.61,0-2.77,2.25-4.91,4.78-4.91,2.14,0,3.18,1.47,3.18,3.21ZM95.29,5.15c-1.17,0-2.01.91-2.27,1.93h3.79c.18-1.02-.31-1.93-1.52-1.93Z"/>
      <path class="cls-1" d="M103.25,3.78l-.11,1.04c-.05.31-.15.52-.16.58h.03c.45-.75,1.69-1.83,3.22-1.83,1.91,0,2.63,1.15,2.3,3.24l-.81,5.07h-1.98l.75-4.73c.15-.94.06-1.78-1.04-1.78-1.35,0-2.48,1.07-2.71,2.5l-.63,4.02h-1.98l1.28-8.1h1.83Z"/>
      <path class="cls-1" d="M111.79,3.78l.39-2.43h1.91l-.39,2.43h2.3l-.24,1.57h-2.3l-.58,3.71c-.16,1,.29,1.35.89,1.35.5,0,1.09-.16,1.52-.34l-.26,1.65c-.41.19-1.13.37-2.01.37-1.23,0-2.37-.6-2.19-2.35.03-.26.06-.53.11-.81l.57-3.58h-1.23l.24-1.57h1.26Z"/>
      <path class="cls-1" d="M125.32,10.35c1.04,0,1.96-.44,2.41-.7l-.29,1.8c-.44.21-1.33.63-2.61.63-2.27,0-3.66-1.54-3.66-3.63,0-2.74,2.17-4.89,5.01-4.89,1.28,0,1.99.4,2.37.62l-.29,1.81c-.44-.34-1.2-.7-2.14-.7-1.64,0-2.92,1.22-2.92,2.93,0,1.26.81,2.12,2.12,2.12Z"/>
      <path class="cls-1" d="M138.09,7.21c0,2.74-2.24,4.88-4.98,4.88-2.19,0-3.63-1.54-3.63-3.65,0-2.74,2.27-4.88,4.98-4.88,2.2,0,3.63,1.54,3.63,3.65ZM136.2,7.41c0-1.28-.79-2.16-1.99-2.16-1.51,0-2.82,1.26-2.82,2.98,0,1.3.81,2.17,1.99,2.17,1.54,0,2.82-1.26,2.82-3Z"/>
      <path class="cls-1" d="M142.71,3.78l-.11,1.04c-.05.31-.15.52-.16.58h.03c.45-.75,1.69-1.83,3.22-1.83,1.91,0,2.63,1.15,2.3,3.24l-.81,5.07h-1.98l.75-4.73c.15-.94.06-1.78-1.04-1.78-1.35,0-2.48,1.07-2.71,2.5l-.63,4.02h-1.98l1.28-8.1h1.83Z"/>
      <path class="cls-1" d="M151.42,3.78l.13-.81c.29-1.8,1.6-2.97,3.61-2.97.5,0,.89.06,1.02.1l-.26,1.69c-.13-.03-.42-.1-.81-.1-.94,0-1.6.52-1.77,1.47l-.1.62h2.03l-.24,1.57h-1.94l-1.6,10.1h-1.98l1.6-10.1h-1.12l.24-1.57h1.18Z"/>
      <path class="cls-1" d="M159.02,3.78l-1.28,8.1h-1.98l1.28-8.1h1.98ZM158.58.32c.6,0,.99.37.99.94,0,.76-.58,1.28-1.34,1.28-.62,0-.99-.37-.99-.92,0-.78.57-1.3,1.35-1.3Z"/>
      <path class="cls-1" d="M161.81,3.78h1.81c-.03.32-.21,1.1-.21,1.41v.11c.66-.99,1.62-1.73,2.74-1.73.24,0,.45.03.5.05l-.31,1.91s-.21-.06-.47-.06c-1.39,0-2.58,1.41-2.82,2.93l-.55,3.48h-1.98l1.28-8.1Z"/>
      <path class="cls-1" d="M170.33,3.78l-.11,1.04c-.05.31-.15.52-.16.58h.03c.55-.97,1.7-1.73,2.92-1.8.28-.02.55,0,.79.06.84.18,1.43.73,1.54,1.64.73-.96,1.86-1.73,3.05-1.73,1.9,0,2.64,1.13,2.32,3.24l-.81,5.07h-1.98l.76-4.76c.15-.96,0-1.75-1-1.75-1.56,0-2.32,1.44-2.54,2.87l-.58,3.65h-1.98l.76-4.76c.15-.92.08-1.75-.97-1.75-1.52,0-2.35,1.43-2.58,2.87l-.58,3.65h-1.98l1.28-8.1h1.83Z"/>
      <path class="cls-1" d="M190.27,6.77c0,.71-.21,1.25-.24,1.46h-5.66c-.18,1.36.66,2.17,2.16,2.17,1.13,0,2.38-.34,2.98-.68l-.28,1.73c-.62.31-1.75.63-3.11.63-2.4,0-3.81-1.49-3.81-3.61,0-2.77,2.25-4.91,4.78-4.91,2.14,0,3.18,1.47,3.18,3.21ZM186.82,5.15c-1.17,0-2.01.91-2.27,1.93h3.79c.18-1.02-.31-1.93-1.52-1.93Z"/>
      <path class="cls-1" d="M199.46,11.88h-1.81l.1-.84c.05-.34.13-.57.13-.57h-.03c-.54.86-1.75,1.62-3,1.62-1.88,0-3.18-1.39-3.18-3.55,0-2.98,2.14-4.97,4.47-4.97,1.25,0,2.14.63,2.46,1.33h.03s-.02-.23.06-.66l.63-4.02h1.98l-1.85,11.67ZM193.58,8.28c0,1.25.71,2.12,1.85,2.12,1.23,0,2.69-1,2.69-3.03,0-1.43-.91-2.12-1.86-2.12-1.49,0-2.67,1.3-2.67,3.03Z"/>
      <path class="cls-1" d="M203.95,9.87c.6,0,.99.37.99.94,0,.76-.58,1.28-1.34,1.28-.62,0-.99-.37-.99-.92,0-.78.55-1.3,1.35-1.3ZM204.48.21h1.98l-1.47,8.38h-1.67l1.17-8.38Z"/>
      <path class="cls-1" d="M7.18,23.76l-1.57,9.95h-2.04l1.57-9.95H1.73l.28-1.72h8.85l-.28,1.72h-3.4Z"/>
      <path class="cls-1" d="M17.31,33.71h-1.81l.1-.84c.05-.34.13-.57.13-.57h-.03c-.53.86-1.75,1.62-3.03,1.62-1.85,0-3.14-1.39-3.14-3.55,0-2.98,2.12-4.97,4.49-4.97,1.25,0,2.27.73,2.53,1.54h.03s-.02-.23.06-.57l.15-.76h1.81l-1.28,8.1ZM11.43,30.11c0,1.25.71,2.12,1.85,2.12,1.23,0,2.69-1,2.69-3.03,0-1.43-.91-2.12-1.86-2.12-1.49,0-2.67,1.3-2.67,3.03Z"/>
      <path class="cls-1" d="M21.46,25.61h1.81l-.08.76c-.05.34-.15.57-.13.57h.03c.52-.81,1.73-1.54,2.98-1.54,1.88,0,3.18,1.39,3.18,3.55,0,2.98-2.12,4.97-4.47,4.97-1.25,0-2.15-.66-2.45-1.41h-.03s.02.23-.06.66l-.65,4.1h-1.98l1.85-11.67ZM27.34,29.21c0-1.25-.7-2.12-1.85-2.12-1.23,0-2.69,1-2.69,3.03,0,1.43.91,2.12,1.86,2.12,1.51,0,2.67-1.3,2.67-3.03Z"/>
      <path class="cls-1" d="M36.65,25.61l.39-2.43h1.91l-.39,2.43h2.3l-.24,1.57h-2.3l-.58,3.71c-.16,1,.29,1.35.89,1.35.5,0,1.09-.16,1.52-.34l-.26,1.65c-.41.19-1.13.37-2.01.37-1.23,0-2.37-.6-2.19-2.35.03-.26.06-.53.11-.81l.57-3.58h-1.23l.24-1.57h1.26Z"/>
      <path class="cls-1" d="M45.42,22.04l-.68,4.26c-.05.37-.13.7-.16.84.5-.68,1.62-1.75,3.14-1.75,1.91,0,2.62,1.15,2.3,3.24l-.81,5.07h-1.98l.75-4.73c.15-.94.06-1.78-1.04-1.78-1.34,0-2.48,1.07-2.71,2.5l-.63,4.02h-1.98l1.85-11.67h1.94Z"/>
      <path class="cls-1" d="M59.74,28.61c0,.71-.21,1.25-.24,1.46h-5.66c-.18,1.36.66,2.17,2.16,2.17,1.13,0,2.38-.34,2.98-.68l-.28,1.73c-.62.31-1.75.63-3.11.63-2.4,0-3.81-1.49-3.81-3.61,0-2.77,2.25-4.91,4.78-4.91,2.14,0,3.18,1.47,3.18,3.21ZM56.29,26.98c-1.17,0-2.01.91-2.27,1.93h3.79c.18-1.02-.31-1.93-1.52-1.93Z"/>
      <path class="cls-1" d="M67.46,22.04h1.98l-.63,4.02c-.08.44-.16.66-.16.66h.03c.55-.7,1.64-1.33,2.88-1.33,1.83,0,3.13,1.38,3.13,3.53,0,2.97-2.12,4.99-4.5,4.99-1.26,0-2.25-.76-2.5-1.62h-.03s.03.23-.06.57l-.16.84h-1.81l1.85-11.67ZM68.24,30.11c0,1.43.91,2.12,1.86,2.12,1.49,0,2.67-1.31,2.67-3.03,0-1.26-.7-2.12-1.85-2.12-1.23,0-2.69,1-2.69,3.03Z"/>
      <path class="cls-1" d="M84.8,29.04c0,2.74-2.24,4.88-4.98,4.88-2.19,0-3.63-1.54-3.63-3.65,0-2.74,2.27-4.88,4.98-4.88,2.2,0,3.63,1.54,3.63,3.65ZM82.9,29.24c0-1.28-.79-2.16-1.99-2.16-1.51,0-2.82,1.26-2.82,2.98,0,1.3.81,2.17,1.99,2.17,1.54,0,2.82-1.26,2.82-3Z"/>
      <path class="cls-1" d="M90.99,29.51l2.25,4.2h-2.19l-1.47-2.77-2.32,2.77h-2.2l3.48-4.04-2.11-4.07h2.22l1.3,2.72,2.16-2.72h2.27l-3.39,3.91Z"/>
      <path class="cls-1" d="M108.01,29.04c0,2.74-2.24,4.88-4.98,4.88-2.19,0-3.63-1.54-3.63-3.65,0-2.74,2.27-4.88,4.98-4.88,2.2,0,3.63,1.54,3.63,3.65ZM106.11,29.24c0-1.28-.79-2.16-1.99-2.16-1.51,0-2.82,1.26-2.82,2.98,0,1.3.81,2.17,1.99,2.17,1.54,0,2.82-1.26,2.82-3Z"/>
      <path class="cls-1" d="M110.72,25.61h1.81c-.03.32-.21,1.1-.21,1.41v.11c.66-.99,1.62-1.73,2.74-1.73.24,0,.45.03.5.05l-.31,1.91s-.21-.06-.47-.06c-1.39,0-2.58,1.41-2.82,2.93l-.55,3.48h-1.98l1.28-8.1Z"/>
      <path class="cls-1" d="M123.05,30.37c-1.26-.4-2.14-.97-2.14-2.22,0-1.65,1.43-2.75,3.4-2.75,1.02,0,1.9.26,2.37.49l-.26,1.73c-.52-.29-1.28-.55-2.01-.58-.28,0-.55.02-.79.06-.47.13-.88.37-.88.86,0,.45.44.71,1.31.99,1.49.49,2.27,1.07,2.27,2.22,0,1.75-1.47,2.75-3.56,2.75-1.15,0-2.06-.26-2.62-.53l.28-1.77c.71.4,1.77.71,2.54.71s1.52-.26,1.52-.94c0-.5-.5-.71-1.43-1.02Z"/>
      <path class="cls-1" d="M135.47,28.46c.18.88.32,1.8.45,2.59.4-.71.89-1.77,1.36-2.62l1.46-2.82h2.06l-4.68,8.25h-1.22l-1.04-4.98-2.59,4.98h-1.22l-2.09-8.25h2.07c.36,1.85.76,3.79,1.07,5.44.73-1.43,1.9-3.74,2.69-5.36h1.13l.53,2.77Z"/>
      <path class="cls-1" d="M144.22,25.61l-1.28,8.1h-1.98l1.28-8.1h1.98ZM143.78,22.16c.6,0,.99.37.99.94,0,.76-.58,1.28-1.35,1.28-.62,0-.99-.37-.99-.92,0-.78.57-1.3,1.35-1.3Z"/>
      <path class="cls-1" d="M147.11,25.61h1.81l-.08.76c-.05.34-.15.57-.13.57h.03c.52-.81,1.73-1.54,2.98-1.54,1.88,0,3.18,1.39,3.18,3.55,0,2.98-2.12,4.97-4.47,4.97-1.25,0-2.15-.66-2.45-1.41h-.03s.02.23-.06.66l-.65,4.1h-1.98l1.85-11.67ZM152.99,29.21c0-1.25-.7-2.12-1.85-2.12-1.23,0-2.69,1-2.69,3.03,0,1.43.91,2.12,1.86,2.12,1.51,0,2.67-1.3,2.67-3.03Z"/>
      <path class="cls-1" d="M164.37,28.61c0,.71-.21,1.25-.24,1.46h-5.66c-.18,1.36.66,2.17,2.16,2.17,1.13,0,2.38-.34,2.98-.68l-.28,1.73c-.62.31-1.75.63-3.11.63-2.4,0-3.81-1.49-3.81-3.61,0-2.77,2.25-4.91,4.78-4.91,2.14,0,3.18,1.47,3.18,3.21ZM160.92,26.98c-1.17,0-2.01.91-2.27,1.93h3.79c.18-1.02-.31-1.93-1.52-1.93Z"/>
      <path class="cls-1" d="M171.66,25.61l.39-2.43h1.91l-.39,2.43h2.3l-.24,1.57h-2.3l-.58,3.71c-.16,1,.29,1.35.89,1.35.5,0,1.09-.16,1.52-.34l-.26,1.65c-.41.19-1.13.37-2.01.37-1.23,0-2.37-.6-2.19-2.35.03-.26.06-.53.11-.81l.57-3.58h-1.23l.24-1.57h1.26Z"/>
      <path class="cls-1" d="M180.43,22.04l-.68,4.26c-.05.37-.13.7-.16.84.5-.68,1.62-1.75,3.14-1.75,1.91,0,2.62,1.15,2.3,3.24l-.81,5.07h-1.98l.75-4.73c.15-.94.06-1.78-1.04-1.78-1.34,0-2.48,1.07-2.71,2.5l-.63,4.02h-1.98l1.85-11.67h1.94Z"/>
      <path class="cls-1" d="M194.76,28.61c0,.71-.21,1.25-.24,1.46h-5.66c-.18,1.36.66,2.17,2.16,2.17,1.13,0,2.38-.34,2.98-.68l-.28,1.73c-.62.31-1.75.63-3.11.63-2.4,0-3.81-1.49-3.81-3.61,0-2.77,2.25-4.91,4.78-4.91,2.14,0,3.18,1.47,3.18,3.21ZM191.31,26.98c-1.17,0-2.01.91-2.27,1.93h3.79c.18-1.02-.31-1.93-1.52-1.93Z"/>
      <path class="cls-1" d="M203.07,30.37c-1.26-.4-2.14-.97-2.14-2.22,0-1.65,1.43-2.75,3.4-2.75,1.02,0,1.9.26,2.37.49l-.26,1.73c-.52-.29-1.28-.55-2.01-.58-.28,0-.55.02-.79.06-.47.13-.88.37-.88.86,0,.45.44.71,1.31.99,1.49.49,2.27,1.07,2.27,2.22,0,1.75-1.47,2.75-3.56,2.75-1.15,0-2.06-.26-2.62-.53l.28-1.77c.71.4,1.77.71,2.54.71s1.52-.26,1.52-.94c0-.5-.5-.71-1.43-1.02Z"/>
      <path class="cls-1" d="M212.2,32.19c1.04,0,1.96-.44,2.41-.7l-.29,1.8c-.44.21-1.33.63-2.61.63-2.27,0-3.66-1.54-3.66-3.63,0-2.74,2.17-4.89,5.01-4.89,1.28,0,1.99.4,2.37.62l-.29,1.81c-.44-.34-1.2-.7-2.14-.7-1.64,0-2.92,1.22-2.92,2.93,0,1.26.81,2.12,2.12,2.12Z"/>
      <path class="cls-1" d="M217.63,25.61h1.81c-.03.32-.21,1.1-.21,1.41v.11c.66-.99,1.62-1.73,2.74-1.73.24,0,.45.03.5.05l-.31,1.91s-.21-.06-.47-.06c-1.39,0-2.58,1.41-2.82,2.93l-.55,3.48h-1.98l1.28-8.1Z"/>
      <path class="cls-1" d="M230.94,28.61c0,.71-.21,1.25-.24,1.46h-5.66c-.18,1.36.66,2.17,2.16,2.17,1.13,0,2.38-.34,2.98-.68l-.28,1.73c-.62.31-1.75.63-3.11.63-2.4,0-3.81-1.49-3.81-3.61,0-2.77,2.25-4.91,4.78-4.91,2.14,0,3.18,1.47,3.18,3.21ZM227.48,26.98c-1.17,0-2.01.91-2.27,1.93h3.79c.18-1.02-.31-1.93-1.52-1.93Z"/>
      <path class="cls-1" d="M240.3,28.61c0,.71-.21,1.25-.24,1.46h-5.66c-.18,1.36.66,2.17,2.16,2.17,1.13,0,2.38-.34,2.98-.68l-.28,1.73c-.62.31-1.75.63-3.11.63-2.4,0-3.81-1.49-3.81-3.61,0-2.77,2.25-4.91,4.78-4.91,2.14,0,3.18,1.47,3.18,3.21ZM236.85,26.98c-1.17,0-2.01.91-2.27,1.93h3.79c.18-1.02-.31-1.93-1.52-1.93Z"/>
      <path class="cls-1" d="M244.81,25.61l-.11,1.04c-.05.31-.15.52-.16.58h.03c.45-.75,1.69-1.83,3.23-1.83,1.91,0,2.62,1.15,2.3,3.24l-.81,5.07h-1.98l.75-4.73c.15-.94.06-1.78-1.04-1.78-1.34,0-2.48,1.07-2.71,2.5l-.63,4.02h-1.98l1.28-8.1h1.83Z"/>
      <path class="cls-1" d="M0,37.32v-.57h93.7v.57H0Z"/>
      <path class="cls-1" d="M119.31,37.32v-.57h131.06v.57H119.31Z"/>
      <path class="cls-1" d="M14.37,47.44l.39-2.43h1.91l-.39,2.43h2.3l-.24,1.57h-2.3l-.58,3.71c-.16,1,.29,1.35.89,1.35.5,0,1.09-.16,1.52-.34l-.26,1.65c-.41.19-1.13.37-2.01.37-1.23,0-2.37-.6-2.19-2.35.03-.26.06-.53.11-.81l.57-3.58h-1.23l.24-1.57h1.26Z"/>
      <path class="cls-1" d="M27.97,50.88c0,2.74-2.24,4.88-4.98,4.88-2.19,0-3.63-1.54-3.63-3.65,0-2.74,2.27-4.88,4.98-4.88,2.2,0,3.63,1.54,3.63,3.65ZM26.07,51.07c0-1.28-.79-2.16-1.99-2.16-1.51,0-2.82,1.26-2.82,2.98,0,1.3.81,2.17,1.99,2.17,1.54,0,2.82-1.26,2.82-3Z"/>
      <path class="cls-1" d="M39.44,55.54l.11-1.02c.05-.32.13-.53.16-.6h-.03c-.44.75-1.67,1.83-3.18,1.83-1.9,0-2.61-1.15-2.27-3.24l.79-5.07h1.98l-.75,4.73c-.15.96-.06,1.78,1.04,1.78,1.31,0,2.41-1.07,2.64-2.5l.63-4.02h1.96l-1.28,8.1h-1.81Z"/>
      <path class="cls-1" d="M47.24,47.44l-.11,1.04c-.05.31-.15.52-.16.58h.03c.45-.75,1.69-1.83,3.23-1.83,1.91,0,2.62,1.15,2.3,3.24l-.81,5.07h-1.98l.75-4.73c.15-.94.06-1.78-1.04-1.78-1.34,0-2.48,1.07-2.71,2.5l-.63,4.02h-1.98l1.28-8.1h1.83Z"/>
      <path class="cls-1" d="M62.6,47.44l-4.91,8.25h-1.17l-2.32-8.25h2.07c.44,1.81.97,3.81,1.26,5.4.37-.68.92-1.75,1.39-2.61l1.59-2.79h2.07Z"/>
      <path class="cls-1" d="M70.64,50.44c0,.71-.21,1.25-.24,1.46h-5.66c-.18,1.36.66,2.17,2.16,2.17,1.13,0,2.38-.34,2.98-.68l-.28,1.73c-.62.31-1.75.63-3.11.63-2.4,0-3.81-1.49-3.81-3.61,0-2.77,2.25-4.91,4.78-4.91,2.14,0,3.18,1.47,3.18,3.21ZM67.19,48.82c-1.17,0-2.01.91-2.27,1.93h3.79c.18-1.02-.31-1.93-1.52-1.93Z"/>
      <path class="cls-1" d="M75.29,47.44l-1.28,8.1h-1.98l1.28-8.1h1.98ZM74.86,43.99c.6,0,.99.37.99.94,0,.76-.58,1.28-1.35,1.28-.62,0-.99-.37-.99-.92,0-.78.57-1.3,1.35-1.3Z"/>
      <path class="cls-1" d="M78.71,43.87h1.98l-1.43,9.04c-.13.81.11,1.12.7,1.12.32,0,.65-.08.78-.13l-.26,1.65c-.18.06-.68.19-1.35.19-1.3,0-2.2-.66-1.91-2.41l1.49-9.46Z"/>
      <path class="cls-1" d="M85.33,57.45c.16.05.47.13.91.13,1.17,0,1.91-.89,2.62-2.09l-2.07-8.05h2.16l.58,2.87c.24,1.09.47,2.19.65,3.27.4-.68,1.25-2.46,1.69-3.27l1.47-2.87h2.16l-4.41,7.89c-1.28,2.3-2.5,3.6-4.13,3.91-.36.05-.68.06-1,.05-.39,0-.73-.06-.88-.13l.26-1.7Z"/>
      <path class="cls-1" d="M104.05,50.88c0,2.74-2.24,4.88-4.98,4.88-2.19,0-3.63-1.54-3.63-3.65,0-2.74,2.27-4.88,4.98-4.88,2.2,0,3.63,1.54,3.63,3.65ZM102.15,51.07c0-1.28-.79-2.16-1.99-2.16-1.51,0-2.82,1.26-2.82,2.98,0,1.3.81,2.17,1.99,2.17,1.54,0,2.82-1.26,2.82-3Z"/>
      <path class="cls-1" d="M111.05,55.54l.11-1.02c.05-.32.13-.53.16-.6h-.03c-.44.75-1.67,1.83-3.18,1.83-1.9,0-2.61-1.15-2.27-3.24l.79-5.07h1.98l-.75,4.73c-.15.96-.06,1.78,1.04,1.78,1.31,0,2.41-1.07,2.64-2.5l.63-4.02h1.96l-1.28,8.1h-1.81Z"/>
      <path class="cls-1" d="M116.93,47.44h1.81c-.03.32-.21,1.1-.21,1.41v.11c.66-.99,1.62-1.73,2.74-1.73.24,0,.45.03.5.05l-.31,1.91s-.21-.06-.47-.06c-1.39,0-2.58,1.41-2.82,2.93l-.55,3.48h-1.98l1.28-8.1Z"/>
      <path class="cls-1" d="M128.25,47.44l.39-2.43h1.91l-.39,2.43h2.3l-.24,1.57h-2.3l-.58,3.71c-.16,1,.29,1.35.89,1.35.5,0,1.09-.16,1.52-.34l-.26,1.65c-.41.19-1.13.37-2.01.37-1.23,0-2.37-.6-2.19-2.35.03-.26.06-.53.11-.81l.57-3.58h-1.23l.24-1.57h1.26Z"/>
      <path class="cls-1" d="M134.42,47.44h1.81c-.03.32-.21,1.1-.21,1.41v.11c.66-.99,1.62-1.73,2.74-1.73.24,0,.45.03.5.05l-.31,1.91s-.21-.06-.47-.06c-1.39,0-2.58,1.41-2.82,2.93l-.55,3.48h-1.98l1.28-8.1Z"/>
      <path class="cls-1" d="M147.73,50.44c0,.71-.21,1.25-.24,1.46h-5.66c-.18,1.36.66,2.17,2.16,2.17,1.13,0,2.38-.34,2.98-.68l-.28,1.73c-.62.31-1.75.63-3.11.63-2.4,0-3.81-1.49-3.81-3.61,0-2.77,2.25-4.91,4.78-4.91,2.14,0,3.18,1.47,3.18,3.21ZM144.28,48.82c-1.17,0-2.01.91-2.27,1.93h3.79c.18-1.02-.31-1.93-1.52-1.93Z"/>
      <path class="cls-1" d="M157,55.54h-1.81l.1-.84c.05-.34.13-.57.13-.57h-.03c-.54.86-1.75,1.62-3.03,1.62-1.85,0-3.14-1.39-3.14-3.55,0-2.98,2.12-4.97,4.49-4.97,1.25,0,2.27.73,2.53,1.54h.03s-.02-.23.06-.57l.15-.76h1.81l-1.28,8.1ZM151.12,51.94c0,1.25.71,2.12,1.85,2.12,1.23,0,2.69-1,2.69-3.03,0-1.43-.91-2.12-1.86-2.12-1.49,0-2.67,1.3-2.67,3.03Z"/>
      <path class="cls-1" d="M162.3,52.2c-1.26-.4-2.14-.97-2.14-2.22,0-1.65,1.43-2.75,3.4-2.75,1.02,0,1.9.26,2.37.49l-.26,1.73c-.52-.29-1.28-.55-2.01-.58-.28,0-.55.02-.79.06-.47.13-.88.37-.88.86,0,.45.44.71,1.31.99,1.49.49,2.27,1.07,2.27,2.22,0,1.75-1.47,2.75-3.56,2.75-1.15,0-2.06-.26-2.62-.53l.28-1.77c.71.4,1.77.71,2.54.71s1.52-.26,1.52-.94c0-.5-.5-.71-1.43-1.02Z"/>
      <path class="cls-1" d="M172.84,55.54l.11-1.02c.05-.32.13-.53.16-.6h-.03c-.44.75-1.67,1.83-3.18,1.83-1.9,0-2.61-1.15-2.27-3.24l.79-5.07h1.98l-.75,4.73c-.15.96-.06,1.78,1.04,1.78,1.31,0,2.41-1.07,2.64-2.5l.63-4.02h1.96l-1.28,8.1h-1.81Z"/>
      <path class="cls-1" d="M178.72,47.44h1.81c-.03.32-.21,1.1-.21,1.41v.11c.66-.99,1.62-1.73,2.74-1.73.24,0,.45.03.5.05l-.31,1.91s-.21-.06-.47-.06c-1.39,0-2.58,1.41-2.82,2.93l-.55,3.48h-1.98l1.28-8.1Z"/>
      <path class="cls-1" d="M192.03,50.44c0,.71-.21,1.25-.24,1.46h-5.66c-.18,1.36.66,2.17,2.16,2.17,1.13,0,2.38-.34,2.98-.68l-.28,1.73c-.62.31-1.75.63-3.11.63-2.4,0-3.81-1.49-3.81-3.61,0-2.77,2.25-4.91,4.78-4.91,2.14,0,3.18,1.47,3.18,3.21ZM188.58,48.82c-1.17,0-2.01.91-2.27,1.93h3.79c.18-1.02-.31-1.93-1.52-1.93Z"/>
      <path class="cls-1" d="M199.48,47.44l.13-.81c.29-1.8,1.6-2.97,3.61-2.97.5,0,.89.06,1.02.1l-.26,1.69c-.13-.03-.42-.1-.81-.1-.94,0-1.6.52-1.77,1.47l-.1.62h2.03l-.24,1.57h-1.94l-1.6,10.1h-1.98l1.6-10.1h-1.12l.24-1.57h1.18Z"/>
      <path class="cls-1" d="M205.03,47.44h1.81c-.03.32-.21,1.1-.21,1.41v.11c.66-.99,1.62-1.73,2.74-1.73.24,0,.45.03.5.05l-.31,1.91s-.21-.06-.47-.06c-1.39,0-2.58,1.41-2.82,2.93l-.55,3.48h-1.98l1.28-8.1Z"/>
      <path class="cls-1" d="M218.98,50.88c0,2.74-2.24,4.88-4.98,4.88-2.19,0-3.63-1.54-3.63-3.65,0-2.74,2.27-4.88,4.98-4.88,2.2,0,3.63,1.54,3.63,3.65ZM217.09,51.07c0-1.28-.79-2.16-1.99-2.16-1.51,0-2.82,1.26-2.82,2.98,0,1.3.81,2.17,1.99,2.17,1.54,0,2.82-1.26,2.82-3Z"/>
      <path class="cls-1" d="M223.6,47.44l-.11,1.04c-.05.31-.15.52-.16.58h.03c.55-.97,1.7-1.73,2.92-1.8.28-.02.55,0,.79.06.84.18,1.43.73,1.54,1.64.73-.96,1.86-1.73,3.05-1.73,1.9,0,2.64,1.13,2.32,3.24l-.81,5.07h-1.98l.76-4.76c.15-.96,0-1.75-1-1.75-1.56,0-2.32,1.44-2.54,2.87l-.58,3.65h-1.98l.76-4.76c.15-.92.08-1.75-.97-1.75-1.52,0-2.35,1.43-2.58,2.87l-.58,3.65h-1.98l1.28-8.1h1.83Z"/>
      <path class="cls-1" d="M14.99,69.5l-1.73,10.86h-3.53l1.73-10.86h-3.68l.46-2.95h10.89l-.46,2.95h-3.68Z"/>
      <path class="cls-1" d="M23.72,75.81l-.73,4.55h-3.43l2.19-13.81h4.95c3.03,0,4.99,1.36,4.99,3.97,0,2.44-1.44,4.01-3.39,4.78l.38,1.34c.21.81.69,1.17,1.44,1.17.19,0,.35-.02.5-.04l-.42,2.7c-.29.08-.71.15-1.36.15-1.53,0-2.44-.67-3.03-2.65l-.69-2.17h-1.38ZM24.72,69.5l-.56,3.51h1.71c1.21,0,2.23-.61,2.23-2.05,0-1-.73-1.46-1.71-1.46h-1.67Z"/>
      <path class="cls-1" d="M33.1,80.35l2.19-13.81h9.05l-.46,2.95h-5.54l-.4,2.46h4.74l-.44,2.8h-4.74l-.42,2.65h5.83l-.46,2.95h-9.34Z"/>
      <path class="cls-1" d="M53.02,66.35h.17l4.64,14h-3.66l-.65-2.11h-4.64l-1.29,2.11h-3.66l9.09-14ZM52.9,75.88c-.31-1.09-.65-2.46-.79-3.3-.27.46-1.32,2.42-1.84,3.3h2.63Z"/>
      <path class="cls-1" d="M59.69,79.87l.54-3.38c.9.52,1.99.9,3.11,1,.36.04.73.04,1.07.02,1.25-.08,1.94-.42,1.94-1.07s-.81-1.02-2.28-1.61c-1.94-.79-3.2-1.67-3.2-3.68,0-2.95,2.51-4.87,5.96-4.87,1.38,0,2.72.27,3.59.65l-.52,3.24c-.75-.52-1.99-.86-3.26-.86-1.34,0-2.26.5-2.26,1.23,0,.59.75,1.04,2.15,1.65,1.94.82,3.3,1.73,3.3,3.74,0,2.88-2.24,4.7-6.06,4.7-1.57,0-3.11-.31-4.07-.75Z"/>
      <path class="cls-1" d="M84.69,75.23c-.5,3.24-3.05,5.39-6.85,5.39s-5.66-2.15-5.16-5.39l1.38-8.69h3.51l-1.32,8.31c-.25,1.63.46,2.57,2.09,2.57s2.63-.94,2.88-2.57l1.32-8.31h3.53l-1.38,8.69Z"/>
      <path class="cls-1" d="M91.66,75.81l-.73,4.55h-3.43l2.19-13.81h4.95c3.03,0,4.99,1.36,4.99,3.97,0,2.44-1.44,4.01-3.39,4.78l.38,1.34c.21.81.69,1.17,1.44,1.17.19,0,.35-.02.5-.04l-.42,2.7c-.29.08-.71.15-1.36.15-1.53,0-2.44-.67-3.03-2.65l-.69-2.17h-1.38ZM92.65,69.5l-.56,3.51h1.71c1.21,0,2.23-.61,2.23-2.05,0-1-.73-1.46-1.71-1.46h-1.67Z"/>
      <path class="cls-1" d="M101.04,80.35l2.19-13.81h9.05l-.46,2.95h-5.54l-.4,2.46h4.74l-.44,2.8h-4.74l-.42,2.65h5.83l-.46,2.95h-9.34Z"/>
      <path class="cls-1" d="M121.95,75.96l-.69,4.39h-3.51l2.19-13.81h4.6c2.99,0,4.95,1.34,4.95,3.97,0,3.61-2.72,5.45-6.44,5.45h-1.09ZM122.98,69.5l-.56,3.51h1.27c1.21,0,2.21-.63,2.21-2.05,0-1-.71-1.46-1.67-1.46h-1.25Z"/>
      <path class="cls-1" d="M130.6,80.35l2.19-13.81h9.05l-.46,2.95h-5.54l-.4,2.46h4.74l-.44,2.8h-4.74l-.42,2.65h5.83l-.46,2.95h-9.34Z"/>
      <path class="cls-1" d="M154.51,80.54l-6.08-6.23-.98-.92-1.09,6.96h-3.43l2.22-14h.15l6.02,6.21c.35.31.65.65,1,.94l1.09-6.96h3.45l-2.22,14h-.13Z"/>
      <path class="cls-1" d="M158.42,80.35l2.19-13.81h3.51l-2.19,13.81h-3.51Z"/>
      <path class="cls-1" d="M177.26,80.54l-6.08-6.23-.98-.92-1.09,6.96h-3.43l2.22-14h.15l6.02,6.21c.35.31.65.65,1,.94l1.09-6.96h3.45l-2.22,14h-.13Z"/>
      <path class="cls-1" d="M180.77,79.87l.54-3.38c.9.52,1.99.9,3.11,1,.36.04.73.04,1.07.02,1.25-.08,1.94-.42,1.94-1.07s-.81-1.02-2.28-1.61c-1.94-.79-3.2-1.67-3.2-3.68,0-2.95,2.51-4.87,5.96-4.87,1.38,0,2.72.27,3.59.65l-.52,3.24c-.75-.52-1.99-.86-3.26-.86-1.34,0-2.26.5-2.26,1.23,0,.59.75,1.04,2.15,1.65,1.94.82,3.3,1.73,3.3,3.74,0,2.88-2.24,4.7-6.06,4.7-1.57,0-3.11-.31-4.07-.75Z"/>
      <path class="cls-1" d="M205.77,75.23c-.5,3.24-3.05,5.39-6.85,5.39s-5.66-2.15-5.16-5.39l1.38-8.69h3.51l-1.32,8.31c-.25,1.63.46,2.57,2.09,2.57s2.63-.94,2.88-2.57l1.32-8.31h3.53l-1.38,8.69Z"/>
      <path class="cls-1" d="M208.57,80.35l2.19-13.81h3.51l-1.73,10.86h4.99l-.46,2.95h-8.5Z"/>
      <path class="cls-1" d="M227.39,66.35h.17l4.64,14h-3.66l-.65-2.11h-4.64l-1.29,2.11h-3.66l9.09-14ZM227.28,75.88c-.31-1.09-.65-2.46-.79-3.3-.27.46-1.32,2.42-1.84,3.3h2.63Z"/>
      <path class="cls-1" d="M237.1,77.09c1,0,1.59.56,1.59,1.48,0,1.25-.88,2.05-2.15,2.05-1.02,0-1.59-.56-1.59-1.48,0-1.25.86-2.05,2.15-2.05ZM237.06,66.54h3.41l-1.84,9.55h-2.76l1.19-9.55Z"/>
    </g>
  </g>
</svg>