<?xml version="1.0" encoding="UTF-8"?>
<svg id="_레이어_2" data-name="레이어 2" xmlns="http://www.w3.org/2000/svg" viewBox="0 0 1006.25 538.37">
  <defs>
    <style>
      .cls-1, .cls-2 {
        fill: #fff;
      }

      .cls-2 {
        stroke: #fff;
        stroke-miterlimit: 10;
        stroke-width: 2.14px;
      }
    </style>
  </defs>
  <g id="_레이어_1-2" data-name="레이어 1">
    <g>
      <g>
        <path class="cls-1" d="M6.1,36.95V.7h11.58c12.33,0,20.14,7.5,20.14,18.12s-7.75,18.12-20.03,18.12H6.1ZM13.85,7.2v23.26h3.83c7.75,0,12.33-5.03,12.33-11.63s-4.58-11.63-12.43-11.63h-3.72Z"/>
        <path class="cls-1" d="M65.55,22.85c0,1.36-.15,2.57-.2,3.07h-16.51c.3,3.42,2.92,5.39,7,5.39,3.57,0,7.3-1.06,8.71-1.86v6.39c-1.56.81-4.93,1.81-9.41,1.81-8.66,0-14.09-5.59-14.09-13.29s5.59-13.29,12.79-13.29c7.75,0,11.73,5.54,11.73,11.78ZM53.77,17.01c-3.02,0-4.73,2.32-4.93,5.03h9.51c.1-2.72-1.51-5.03-4.58-5.03Z"/>
        <path class="cls-1" d="M70.68,11.78h6.85l.15,2.11c.05,1.01-.15,1.71-.1,1.71h.1c1.16-2.47,4.48-4.53,8.15-4.53,6.49,0,11.73,5.03,11.73,13.29s-5.24,13.29-11.53,13.29c-3.67,0-6.59-1.81-7.9-3.88h-.1s.15.7.15,2.11v12.13h-7.5V11.78ZM90.47,24.36c0-4.13-2.52-6.95-5.99-6.95-3.02,0-6.04,2.32-6.04,6.95s3.02,6.95,6.04,6.95c3.47,0,5.99-2.77,5.99-6.95Z"/>
        <path class="cls-1" d="M102.55,12.79c1.41-.65,4.78-1.71,9.21-1.71,7.75,0,11.63,3.72,11.63,10.02v15.86h-6.8l-.15-2.32c-.05-1.06.1-1.76.1-1.76h-.1c-.66,1.51-3.17,4.78-7.8,4.78-4.33,0-8-2.52-8-7.65,0-6.14,6.24-9.16,15.3-7.9v-.6c0-3.02-2.06-4.13-5.39-4.13s-6.34,1.11-8,2.16v-6.75ZM115.74,26.03c-5.64-.91-8,.86-8,3.22,0,1.61,1.11,2.67,2.87,2.67,2.92,0,5.13-2.67,5.13-5.89Z"/>
        <path class="cls-1" d="M129.48,11.78h6.85l.15,2.47c0,.75,0,1.36.05,1.66,1.56-2.72,4.18-4.83,7.45-4.83.81,0,1.51.1,1.61.15v7.35c-.1-.05-.71-.3-1.66-.3-3.83,0-6.95,3.37-6.95,7.95v10.72h-7.5V11.78Z"/>
        <path class="cls-1" d="M152.03,11.78v-7.55h7.3v7.55h6.7v5.89h-6.7v10.12c0,2.67,1.56,3.57,3.22,3.57,1.56,0,3.17-.5,4.28-1.06v6.19c-1.11.55-3.42,1.16-6.39,1.16-3.98,0-7.85-1.86-8.41-7.15-.05-.81-.15-1.66-.15-2.57v-10.27h-3.47v-5.89h3.62Z"/>
        <path class="cls-1" d="M178,11.78l.2,2.87c.05.91-.15,1.51-.2,1.76h.1c1.06-2.62,3.88-4.73,7.15-5.08.81-.15,1.66-.15,2.47-.05,2.87.4,5.18,1.96,6.19,4.83,1.91-2.92,4.93-5.03,8.41-5.03,5.59,0,8.71,3.42,8.71,10.12v15.76h-7.55v-14.65c0-2.47-.86-4.38-3.27-4.38-4.28,0-5.39,3.93-5.39,8v11.02h-7.5v-14.7c0-2.37-.7-4.33-3.22-4.33-4.23,0-5.44,3.88-5.44,8v11.02h-7.55V11.78h6.9Z"/>
        <path class="cls-1" d="M240.07,22.85c0,1.36-.15,2.57-.2,3.07h-16.51c.3,3.42,2.92,5.39,7,5.39,3.57,0,7.3-1.06,8.71-1.86v6.39c-1.56.81-4.93,1.81-9.41,1.81-8.66,0-14.09-5.59-14.09-13.29s5.59-13.29,12.79-13.29c7.75,0,11.73,5.54,11.73,11.78ZM228.29,17.01c-3.02,0-4.73,2.32-4.93,5.03h9.51c.1-2.72-1.51-5.03-4.58-5.03Z"/>
        <path class="cls-1" d="M253.06,11.78l.2,2.87c.05.91-.15,1.51-.2,1.76h.1c1.06-2.32,4.38-5.34,8.66-5.34,5.69,0,8.76,3.47,8.76,10.12v15.76h-7.55v-14.5c0-2.47-.7-4.53-3.42-4.53-3.52,0-5.89,2.72-5.89,6.49v12.53h-7.55V11.78h6.9Z"/>
        <path class="cls-1" d="M277.47,11.78v-7.55h7.3v7.55h6.7v5.89h-6.7v10.12c0,2.67,1.56,3.57,3.22,3.57,1.56,0,3.17-.5,4.28-1.06v6.19c-1.11.55-3.42,1.16-6.39,1.16-3.98,0-7.85-1.86-8.41-7.15-.05-.81-.15-1.66-.15-2.57v-10.27h-3.47v-5.89h3.62Z"/>
        <path class="cls-1" d="M334.4,24.36c0,7.65-5.69,13.29-13.44,13.29s-13.39-5.64-13.39-13.29,5.64-13.29,13.39-13.29,13.44,5.64,13.44,13.29ZM327.31,24.36c0-4.18-2.77-6.95-6.34-6.95s-6.29,2.77-6.29,6.95,2.72,6.95,6.29,6.95,6.34-2.77,6.34-6.95Z"/>
        <path class="cls-1" d="M340.55,11.78v-2.27c0-5.74,3.67-9.51,10.42-9.51,1.56,0,2.87.2,3.32.3v6.39c-.4-.15-1.36-.35-2.57-.35-2.57,0-4.23,1.41-4.23,4.03v1.41h5.89v5.89h-5.59v19.28h-7.5v-19.28h-3.32v-5.89h3.57Z"/>
        <path class="cls-1" d="M398.38,9.61c-2.16-1.11-5.59-2.52-10.02-2.52-7.35,0-11.98,5.29-11.98,11.73s4.58,11.73,11.73,11.73c4.68,0,8.25-1.36,10.52-2.52v7.2c-1.86,1.01-5.99,2.42-11.07,2.42-10.92,0-18.93-8.21-18.93-18.83S376.64,0,387.81,0c5.08,0,8.71,1.51,10.57,2.52v7.1Z"/>
        <path class="cls-1" d="M403.52,11.78h6.85l.15,2.47c0,.75,0,1.36.05,1.66,1.56-2.72,4.18-4.83,7.45-4.83.81,0,1.51.1,1.61.15v7.35c-.1-.05-.71-.3-1.66-.3-3.83,0-6.95,3.37-6.95,7.95v10.72h-7.5V11.78Z"/>
        <path class="cls-1" d="M423.81,12.79c1.41-.65,4.78-1.71,9.21-1.71,7.75,0,11.63,3.72,11.63,10.02v15.86h-6.8l-.15-2.32c-.05-1.06.1-1.76.1-1.76h-.1c-.66,1.51-3.17,4.78-7.8,4.78-4.33,0-8-2.52-8-7.65,0-6.14,6.24-9.16,15.3-7.9v-.6c0-3.02-2.06-4.13-5.39-4.13s-6.34,1.11-8,2.16v-6.75ZM436.99,26.03c-5.64-.91-8,.86-8,3.22,0,1.61,1.11,2.67,2.87,2.67,2.92,0,5.13-2.67,5.13-5.89Z"/>
        <path class="cls-1" d="M451.94,11.78v-2.27c0-5.74,3.67-9.51,10.42-9.51,1.56,0,2.87.2,3.32.3v6.39c-.4-.15-1.36-.35-2.57-.35-2.57,0-4.23,1.41-4.23,4.03v1.41h5.89v5.89h-5.59v19.28h-7.5v-19.28h-3.32v-5.89h3.57Z"/>
        <path class="cls-1" d="M471.07,11.78v-7.55h7.3v7.55h6.7v5.89h-6.7v10.12c0,2.67,1.56,3.57,3.22,3.57,1.56,0,3.17-.5,4.28-1.06v6.19c-1.11.55-3.42,1.16-6.39,1.16-3.98,0-7.85-1.86-8.41-7.15-.05-.81-.15-1.66-.15-2.57v-10.27h-3.47v-5.89h3.62Z"/>
        <path class="cls-1" d="M496.49,26.93c-4.68-1.31-8-3.27-8-8.16s3.73-7.7,9.56-7.7c3.62,0,6.64.91,8.16,1.56v6.44c-1.66-.86-4.18-1.66-6.39-1.86-.8-.05-1.61-.05-2.32.1-1.06.2-2.11.71-2.11,1.81,0,1.26,1.26,1.91,3.93,2.72,5.74,1.61,8.46,3.62,8.46,8.16,0,4.83-3.98,7.65-10.37,7.65-3.83,0-6.75-.86-8.56-1.66v-6.59c2.37,1.26,5.99,2.32,8.46,2.32,1.86,0,3.57-.5,3.57-2.01,0-1.36-1.51-1.91-4.38-2.77Z"/>
        <path class="cls-1" d="M33.58,72.54c-2.16-1.11-5.59-2.52-10.02-2.52-7.35,0-11.98,5.29-11.98,11.73s4.58,11.73,11.73,11.73c4.68,0,8.25-1.36,10.52-2.52v7.2c-1.86,1.01-5.99,2.42-11.07,2.42-10.92,0-18.93-8.21-18.93-18.83s8-18.83,19.18-18.83c5.08,0,8.71,1.51,10.57,2.52v7.1Z"/>
        <path class="cls-1" d="M63.79,87.29c0,7.65-5.69,13.29-13.44,13.29s-13.39-5.64-13.39-13.29,5.64-13.29,13.39-13.29,13.44,5.64,13.44,13.29ZM56.69,87.29c0-4.18-2.77-6.95-6.34-6.95s-6.29,2.77-6.29,6.95,2.72,6.95,6.29,6.95,6.34-2.77,6.34-6.95Z"/>
        <path class="cls-1" d="M68.77,63.63h7.5v27.38c0,2.32,1.01,3.12,2.52,3.12,1.01,0,2.06-.3,2.52-.5v6.19c-.65.3-2.42.75-4.78.75-4.28,0-7.75-2.16-7.75-7.9v-29.05Z"/>
        <path class="cls-1" d="M85.58,63.63h7.5v27.38c0,2.32,1.01,3.12,2.52,3.12,1.01,0,2.06-.3,2.52-.5v6.19c-.65.3-2.42.75-4.78.75-4.28,0-7.75-2.16-7.75-7.9v-29.05Z"/>
        <path class="cls-1" d="M125.05,85.78c0,1.36-.15,2.57-.2,3.07h-16.51c.3,3.42,2.92,5.39,7,5.39,3.57,0,7.3-1.06,8.71-1.86v6.39c-1.56.81-4.93,1.81-9.41,1.81-8.66,0-14.09-5.59-14.09-13.29s5.59-13.29,12.79-13.29c7.75,0,11.73,5.54,11.73,11.78ZM113.27,79.94c-3.02,0-4.73,2.32-4.93,5.03h9.51c.1-2.72-1.51-5.03-4.58-5.03Z"/>
        <path class="cls-1" d="M144.03,95.59c6.75.86,10.02,2.77,10.02,7.4,0,5.24-5.44,8.31-13.24,8.31-6.95,0-12.08-2.27-12.08-6.64,0-2.82,2.72-5.08,6.34-5.89-2.06-.3-3.62-1.51-3.62-3.42,0-1.56,1.36-3.17,3.98-4.03-3.52-1.36-5.89-4.28-5.89-8.1,0-5.59,4.88-9.21,10.92-9.21,1.51,0,3.02.25,4.33.71h9.31v5.34h-2.92c-.81,0-.96-.15-1.16-.15.7.91,1.16,2.01,1.16,3.32,0,4.88-3.72,8.16-8.71,8.81-2.11.35-3.78.96-3.78,1.71,0,1.01,1.81,1.36,5.34,1.86ZM146.59,103.55c0-1.86-1.81-3.07-5.89-3.07-2.82,0-4.83,1.41-4.83,3.12,0,1.96,2.16,2.97,5.13,2.97,3.17,0,5.59-1.21,5.59-3.02ZM144.58,83.36c0-2.32-1.61-4.08-4.13-4.08s-4.08,1.76-4.08,4.08,1.61,4.03,4.08,4.03,4.13-1.71,4.13-4.03Z"/>
        <path class="cls-1" d="M180.87,85.78c0,1.36-.15,2.57-.2,3.07h-16.51c.3,3.42,2.92,5.39,7,5.39,3.57,0,7.3-1.06,8.71-1.86v6.39c-1.56.81-4.93,1.81-9.41,1.81-8.66,0-14.09-5.59-14.09-13.29s5.59-13.29,12.79-13.29c7.75,0,11.73,5.54,11.73,11.78ZM169.09,79.94c-3.02,0-4.73,2.32-4.93,5.03h9.51c.1-2.72-1.51-5.03-4.58-5.03Z"/>
        <path class="cls-1" d="M223.81,87.29c0,7.65-5.69,13.29-13.44,13.29s-13.39-5.64-13.39-13.29,5.64-13.29,13.39-13.29,13.44,5.64,13.44,13.29ZM216.72,87.29c0-4.18-2.77-6.95-6.34-6.95s-6.29,2.77-6.29,6.95,2.72,6.95,6.29,6.95,6.34-2.77,6.34-6.95Z"/>
        <path class="cls-1" d="M229.95,74.7v-2.27c0-5.74,3.67-9.51,10.42-9.51,1.56,0,2.87.2,3.32.3v6.39c-.4-.15-1.36-.35-2.57-.35-2.57,0-4.23,1.41-4.23,4.03v1.41h5.89v5.89h-5.59v19.28h-7.5v-19.28h-3.32v-5.89h3.57Z"/>
        <path class="cls-1" d="M268.06,70.12v8.66h12.08v6.39h-12.08v14.7h-7.75v-36.24h22.1v6.49h-14.35Z"/>
        <path class="cls-1" d="M290.56,63.43c2.52,0,4.18,1.56,4.18,4.08s-1.66,4.03-4.18,4.03-4.18-1.61-4.18-4.03,1.61-4.08,4.18-4.08ZM294.34,74.7v25.17h-7.55v-25.17h7.55Z"/>
        <path class="cls-1" d="M308.28,74.7l.2,2.87c.05.91-.15,1.51-.2,1.76h.1c1.06-2.32,4.38-5.34,8.66-5.34,5.69,0,8.76,3.47,8.76,10.12v15.76h-7.55v-14.5c0-2.47-.7-4.53-3.42-4.53-3.52,0-5.89,2.72-5.89,6.49v12.53h-7.55v-25.17h6.9Z"/>
        <path class="cls-1" d="M354.89,85.78c0,1.36-.15,2.57-.2,3.07h-16.51c.3,3.42,2.92,5.39,7,5.39,3.57,0,7.3-1.06,8.71-1.86v6.39c-1.56.81-4.93,1.81-9.41,1.81-8.66,0-14.09-5.59-14.09-13.29s5.59-13.29,12.79-13.29c7.75,0,11.73,5.54,11.73,11.78ZM343.11,79.94c-3.02,0-4.73,2.32-4.93,5.03h9.51c.1-2.72-1.51-5.03-4.58-5.03Z"/>
        <path class="cls-1" d="M386.71,63.07h.3l17.62,36.8h-8.1l-2.92-6.39h-13.54l-2.82,6.39h-8.1l17.57-36.8ZM391.29,88.04c-1.66-3.78-3.27-7.6-4.38-10.77-1.06,2.52-2.97,7.35-4.48,10.77h8.86Z"/>
        <path class="cls-1" d="M407.75,74.7h6.85l.15,2.47c0,.75,0,1.36.05,1.66,1.56-2.72,4.18-4.83,7.45-4.83.81,0,1.51.1,1.61.15v7.35c-.1-.05-.71-.3-1.66-.3-3.83,0-6.95,3.37-6.95,7.95v10.72h-7.5v-25.17Z"/>
        <path class="cls-1" d="M430.3,74.7v-7.55h7.3v7.55h6.7v5.89h-6.7v10.12c0,2.67,1.56,3.57,3.22,3.57,1.56,0,3.17-.5,4.28-1.06v6.19c-1.11.55-3.42,1.16-6.39,1.16-3.98,0-7.85-1.86-8.41-7.15-.05-.81-.15-1.66-.15-2.57v-10.27h-3.47v-5.89h3.62Z"/>
        <path class="cls-1" d="M455.72,89.85c-4.68-1.31-8-3.27-8-8.16s3.73-7.7,9.56-7.7c3.62,0,6.64.91,8.16,1.56v6.44c-1.66-.86-4.18-1.66-6.39-1.86-.8-.05-1.61-.05-2.32.1-1.06.2-2.11.71-2.11,1.81,0,1.26,1.26,1.91,3.93,2.72,5.74,1.61,8.46,3.62,8.46,8.16,0,4.83-3.98,7.65-10.37,7.65-3.83,0-6.75-.86-8.56-1.66v-6.59c2.37,1.26,5.99,2.32,8.46,2.32,1.86,0,3.57-.5,3.57-2.01,0-1.36-1.51-1.91-4.38-2.77Z"/>
        <path class="cls-1" d="M4.44,161.44v-7.45c2.52,1.31,5.84,2.42,9.11,2.62,1.16.05,2.26,0,3.22-.2,2.77-.4,4.38-1.46,4.38-3.22,0-2.42-2.16-3.68-7.15-5.49-6.34-2.32-10.07-4.98-10.07-11.28s5.34-10.57,13.14-10.57c3.62,0,7.2.8,9.46,1.81v7.15c-2.11-1.26-5.54-2.21-8.86-2.21-3.72,0-6.14,1.46-6.14,3.78,0,2.11,1.96,3.57,6.9,5.44,6.34,2.47,10.27,5.13,10.27,11.23,0,6.54-4.93,10.47-13.49,10.47-4.13,0-8.16-.91-10.77-2.06Z"/>
        <path class="cls-1" d="M56.13,148.7c0,1.36-.15,2.57-.2,3.07h-16.51c.3,3.42,2.92,5.39,7,5.39,3.57,0,7.3-1.06,8.71-1.86v6.39c-1.56.81-4.93,1.81-9.41,1.81-8.66,0-14.09-5.59-14.09-13.29s5.59-13.29,12.79-13.29c7.75,0,11.73,5.54,11.73,11.78ZM44.35,142.86c-3.02,0-4.73,2.32-4.93,5.03h9.51c.1-2.72-1.51-5.03-4.58-5.03Z"/>
        <path class="cls-1" d="M87.14,150.21c0,7.65-5.69,13.29-13.44,13.29s-13.39-5.64-13.39-13.29,5.64-13.29,13.39-13.29,13.44,5.64,13.44,13.29ZM80.05,150.21c0-4.18-2.77-6.95-6.34-6.95s-6.29,2.77-6.29,6.95,2.72,6.95,6.29,6.95,6.34-2.77,6.34-6.95Z"/>
        <path class="cls-1" d="M109.14,162.8l-.2-2.87c-.05-.91.1-1.51.2-1.76h-.1c-1.06,2.32-4.38,5.34-8.56,5.34-5.69,0-8.76-3.47-8.76-10.12v-15.76h7.55v14.5c0,2.52.7,4.53,3.42,4.53,3.42,0,5.79-2.72,5.79-6.49v-12.53h7.5v25.17h-6.85Z"/>
        <path class="cls-1" d="M122.98,126.55h7.5v27.38c0,2.32,1.01,3.12,2.52,3.12,1.01,0,2.06-.3,2.52-.5v6.19c-.65.3-2.42.75-4.78.75-4.28,0-7.75-2.16-7.75-7.9v-29.05Z"/>
        <path class="cls-1" d="M183.09,163.35l-19.88-19.08-2.37-2.06v20.59h-7.6v-36.8h.3l19.83,19.08,2.32,2.06v-20.59h7.65v36.8h-.25Z"/>
        <path class="cls-1" d="M190.64,138.63c1.41-.65,4.78-1.71,9.21-1.71,7.75,0,11.63,3.72,11.63,10.02v15.86h-6.8l-.15-2.32c-.05-1.06.1-1.76.1-1.76h-.1c-.66,1.51-3.17,4.78-7.8,4.78-4.33,0-8-2.52-8-7.65,0-6.14,6.24-9.16,15.3-7.9v-.6c0-3.02-2.06-4.13-5.39-4.13s-6.34,1.11-8,2.16v-6.75ZM203.83,151.87c-5.64-.91-8,.86-8,3.22,0,1.61,1.11,2.67,2.87,2.67,2.92,0,5.13-2.67,5.13-5.89Z"/>
        <path class="cls-1" d="M219.08,137.63v-7.55h7.3v7.55h6.7v5.89h-6.7v10.12c0,2.67,1.56,3.57,3.22,3.57,1.56,0,3.17-.5,4.28-1.06v6.19c-1.11.55-3.42,1.16-6.39,1.16-3.98,0-7.85-1.86-8.41-7.15-.05-.81-.15-1.66-.15-2.57v-10.27h-3.47v-5.89h3.62Z"/>
        <path class="cls-1" d="M241.93,126.35c2.52,0,4.18,1.56,4.18,4.08s-1.66,4.03-4.18,4.03-4.18-1.61-4.18-4.03,1.61-4.08,4.18-4.08ZM245.71,137.63v25.17h-7.55v-25.17h7.55Z"/>
        <path class="cls-1" d="M277.67,150.21c0,7.65-5.69,13.29-13.44,13.29s-13.39-5.64-13.39-13.29,5.64-13.29,13.39-13.29,13.44,5.64,13.44,13.29ZM270.57,150.21c0-4.18-2.77-6.95-6.34-6.95s-6.29,2.77-6.29,6.95,2.72,6.95,6.29,6.95,6.34-2.77,6.34-6.95Z"/>
        <path class="cls-1" d="M289.65,137.63l.2,2.87c.05.91-.15,1.51-.2,1.76h.1c1.06-2.32,4.38-5.34,8.66-5.34,5.69,0,8.76,3.47,8.76,10.12v15.76h-7.55v-14.5c0-2.47-.7-4.53-3.42-4.53-3.52,0-5.89,2.72-5.89,6.49v12.53h-7.55v-25.17h6.9Z"/>
        <path class="cls-1" d="M313.56,138.63c1.41-.65,4.78-1.71,9.21-1.71,7.75,0,11.63,3.72,11.63,10.02v15.86h-6.8l-.15-2.32c-.05-1.06.1-1.76.1-1.76h-.1c-.66,1.51-3.17,4.78-7.8,4.78-4.33,0-8-2.52-8-7.65,0-6.14,6.24-9.16,15.3-7.9v-.6c0-3.02-2.06-4.13-5.39-4.13s-6.34,1.11-8,2.16v-6.75ZM326.75,151.87c-5.64-.91-8,.86-8,3.22,0,1.61,1.11,2.67,2.87,2.67,2.92,0,5.13-2.67,5.13-5.89Z"/>
        <path class="cls-1" d="M340.8,126.55h7.5v27.38c0,2.32,1.01,3.12,2.52,3.12,1.01,0,2.06-.3,2.52-.5v6.19c-.65.3-2.42.75-4.78.75-4.28,0-7.75-2.16-7.75-7.9v-29.05Z"/>
        <path class="cls-1" d="M400.85,149.61c0,8.46-5.59,13.89-15.15,13.89s-15.15-5.44-15.15-13.89v-23.06h7.75v22.3c0,4.73,2.67,7.55,7.4,7.55s7.4-2.82,7.4-7.55v-22.3h7.75v23.06Z"/>
        <path class="cls-1" d="M414.44,137.63l.2,2.87c.05.91-.15,1.51-.2,1.76h.1c1.06-2.32,4.38-5.34,8.66-5.34,5.69,0,8.76,3.47,8.76,10.12v15.76h-7.55v-14.5c0-2.47-.7-4.53-3.42-4.53-3.52,0-5.89,2.72-5.89,6.49v12.53h-7.55v-25.17h6.9Z"/>
        <path class="cls-1" d="M442.28,126.35c2.52,0,4.18,1.56,4.18,4.08s-1.66,4.03-4.18,4.03-4.18-1.61-4.18-4.03,1.61-4.08,4.18-4.08ZM446.05,137.63v25.17h-7.55v-25.17h7.55Z"/>
        <path class="cls-1" d="M475.9,137.63l-11.12,25.47h-4.73l-11.18-25.47h7.85c2.01,5.13,4.43,10.97,5.64,15.15.55-1.36,1.61-4.93,2.52-7.2l3.17-7.95h7.85Z"/>
        <path class="cls-1" d="M501.27,148.7c0,1.36-.15,2.57-.2,3.07h-16.51c.3,3.42,2.92,5.39,7,5.39,3.57,0,7.3-1.06,8.71-1.86v6.39c-1.56.81-4.93,1.81-9.41,1.81-8.66,0-14.09-5.59-14.09-13.29s5.59-13.29,12.79-13.29c7.75,0,11.73,5.54,11.73,11.78ZM489.5,142.86c-3.02,0-4.73,2.32-4.93,5.03h9.51c.1-2.72-1.51-5.03-4.58-5.03Z"/>
        <path class="cls-1" d="M506.46,137.63h6.85l.15,2.47c0,.75,0,1.36.05,1.66,1.56-2.72,4.18-4.83,7.45-4.83.81,0,1.51.1,1.61.15v7.35c-.1-.05-.71-.3-1.66-.3-3.83,0-6.95,3.37-6.95,7.95v10.72h-7.5v-25.17Z"/>
        <path class="cls-1" d="M533.24,152.78c-4.68-1.31-8-3.27-8-8.16s3.73-7.7,9.56-7.7c3.62,0,6.64.91,8.16,1.56v6.44c-1.66-.86-4.18-1.66-6.39-1.86-.8-.05-1.61-.05-2.32.1-1.06.2-2.11.71-2.11,1.81,0,1.26,1.26,1.91,3.93,2.72,5.74,1.61,8.46,3.62,8.46,8.16,0,4.83-3.98,7.65-10.37,7.65-3.83,0-6.75-.86-8.56-1.66v-6.59c2.37,1.26,5.99,2.32,8.46,2.32,1.86,0,3.57-.5,3.57-2.01,0-1.36-1.51-1.91-4.38-2.77Z"/>
        <path class="cls-1" d="M553.37,126.35c2.52,0,4.18,1.56,4.18,4.08s-1.66,4.03-4.18,4.03-4.18-1.61-4.18-4.03,1.61-4.08,4.18-4.08ZM557.15,137.63v25.17h-7.55v-25.17h7.55Z"/>
        <path class="cls-1" d="M564.55,137.63v-7.55h7.3v7.55h6.7v5.89h-6.7v10.12c0,2.67,1.56,3.57,3.22,3.57,1.56,0,3.17-.5,4.28-1.06v6.19c-1.11.55-3.42,1.16-6.39,1.16-3.98,0-7.85-1.86-8.41-7.15-.05-.81-.15-1.66-.15-2.57v-10.27h-3.47v-5.89h3.62Z"/>
        <path class="cls-1" d="M581.51,167.38c.45.2,1.56.5,2.97.5,3.32,0,5.03-2.21,6.39-5.08l-10.37-25.17h8.26l2.92,8.76c1.06,3.07,2.11,6.19,2.97,9.36.65-1.41,2.32-7.5,3.02-9.36l2.92-8.76h8.16l-9.77,24.97c-2.87,7.45-6.64,11.17-11.93,11.78-1.16.15-2.21.15-3.17.05-1.01-.1-1.96-.25-2.37-.45v-6.59Z"/>
      </g>
      <g>
        <path class="cls-1" d="M27.76,267.54c0,5.37-4.52,8.94-11.26,8.94H4.85v-31.72h10.42c6.69,0,11.12,3.26,11.12,8.68,0,2.73-1.6,5.24-4.24,6.39,3.35,1.14,5.61,4.23,5.61,7.71ZM18.24,258.51c2.12-.53,3.54-2.29,3.54-4.85,0-3.26-2.31-5.46-6.17-5.46h-6.36v10.31h9ZM9.23,273.04h7.4c3.91,0,6.5-2.29,6.5-5.68s-2.26-5.55-5.61-5.55h-8.3v11.23Z"/>
        <path class="cls-1" d="M32.75,244.76h4.38v25.24c0,2.38.8,3.35,2.73,3.35.94,0,1.79-.18,2.07-.26v3.52c-.28.09-1.46.4-3.16.4-3.49,0-6.03-1.72-6.03-6.17v-26.08Z"/>
        <path class="cls-1" d="M67.82,276.48h-4.05l-.09-2.6c0-.97.14-1.63.14-1.63h-.09c-1.23,2.47-4.53,4.76-8.34,4.76-6.22,0-10.94-4.71-10.94-11.54s4.71-11.54,10.84-11.54c3.82,0,6.93,1.94,8.2,4.01h.09s-.14-.66-.14-1.81v-11.37h4.38v31.72ZM48.68,265.47c0,4.58,2.92,7.97,7.31,7.97,3.54,0,7.4-2.47,7.4-7.97s-3.87-7.97-7.4-7.97c-4.38,0-7.31,3.3-7.31,7.97Z"/>
        <path class="cls-1" d="M76.06,272.03c1.6,0,2.73,1.01,2.73,2.51s-1.13,2.47-2.73,2.47-2.73-1.01-2.73-2.47,1.08-2.51,2.73-2.51Z"/>
        <path class="cls-1" d="M93.6,271.06c1.89,1.28,4.48,2.16,7.64,2.16,4.52,0,7.82-2.51,7.82-6.61s-3.49-6.43-7.97-6.43c-3.58,0-5.89.93-6.69,1.28l.71-16.7h16.54v3.66h-12.54l-.38,8.72c.66-.22,1.84-.57,3.91-.57,6.22,0,11.08,4.14,11.08,10.4s-5.04,10.04-12.07,10.04c-3.35,0-6.13-.84-8.06-2.07v-3.88Z"/>
        <path class="cls-1" d="M117.3,246.31c1.93-1.23,4.57-2.07,7.64-2.07,6.69,0,11.03,4.14,11.03,10.04,0,6.43-5.47,11.89-11.83,18.55h13.48v3.66h-22.01c10.13-10.66,15.7-16.3,15.7-22.11,0-3.7-2.55-6.21-6.79-6.21-2.92,0-5.47,1.01-7.21,2.2v-4.05Z"/>
        <path class="cls-1" d="M142.56,262.34h14.05v3.39h-14.05v-3.39Z"/>
        <path class="cls-1" d="M161.6,246.31c1.93-1.23,4.57-2.07,7.64-2.07,6.69,0,11.03,4.14,11.03,10.04,0,6.43-5.47,11.89-11.83,18.55h13.48v3.66h-22.01c10.13-10.66,15.7-16.3,15.7-22.11,0-3.7-2.55-6.21-6.79-6.21-2.92,0-5.47,1.01-7.21,2.2v-4.05Z"/>
        <path class="cls-1" d="M195.58,244.76v31.72h-4.52v-28.06h-4.24v-3.66h8.77Z"/>
        <path class="cls-1" d="M203.64,246.31c1.93-1.23,4.57-2.07,7.64-2.07,6.69,0,11.03,4.14,11.03,10.04,0,6.43-5.47,11.89-11.83,18.55h13.48v3.66h-22.01c10.13-10.66,15.7-16.3,15.7-22.11,0-3.7-2.55-6.21-6.79-6.21-2.92,0-5.47,1.01-7.21,2.2v-4.05Z"/>
        <path class="cls-1" d="M230.41,283.09h-3.39l2.88-9.16h4.34l-3.82,9.16Z"/>
        <path class="cls-1" d="M257.79,244.76v31.72h-4.52v-28.06h-4.24v-3.66h8.77Z"/>
        <path class="cls-1" d="M267.55,283.09h-3.39l2.88-9.16h4.34l-3.82,9.16Z"/>
        <path class="cls-1" d="M303.84,277.01c-10.28,0-17.86-6.96-17.86-16.39s7.68-16.39,18.1-16.39c5.14,0,8.96,1.67,10.09,2.25v4.05c-2.21-1.06-5.75-2.38-10.18-2.38-8.06,0-13.43,5.29-13.43,12.47s5.56,12.51,13.29,12.51c2.4,0,5.19-.48,6.69-1.14v-9.56h4.43v12.16c-2.78,1.41-7.07,2.42-11.12,2.42Z"/>
        <path class="cls-1" d="M341.73,270.45l6.46-15.99h4.62l-9.9,22.55h-2.4l-5.94-15.02-5.94,15.02h-2.4l-9.9-22.55h4.67l6.41,15.99,5.99-15.68h2.4l5.94,15.68Z"/>
        <path class="cls-1" d="M355.4,255.56c1.32-.66,4.43-1.63,8.3-1.63,6.65,0,9.9,3,9.9,8.5v14.05h-4.05l-.05-2.6c-.05-1.06.14-1.76.14-1.76h-.09c-.28.62-2.88,4.89-8.2,4.89-4.34,0-7.45-2.42-7.45-6.48,0-5.37,5.51-8.06,15.37-6.78v-1.1c0-3.83-2.45-5.15-6.17-5.15-3.25,0-6.27,1.06-7.68,1.85v-3.79ZM369.16,266.61c-7.68-1.14-10.94.79-10.94,3.79,0,1.94,1.51,3.3,3.87,3.3,4.01,0,7.07-3.66,7.07-7.09Z"/>
        <path class="cls-1" d="M384.48,254.46l.09,3.08c0,.93-.14,1.59-.19,1.67h.09c.9-1.98,4.01-5.29,9-5.29,5.8,0,8.06,3.22,8.06,8.72v13.83h-4.38v-13c0-3.04-.57-5.77-4.48-5.77-4.62,0-7.92,3.44-7.92,7.93v10.84h-4.38v-22.03h4.1Z"/>
        <path class="cls-1" d="M407.76,255.56c1.32-.66,4.43-1.63,8.3-1.63,6.65,0,9.9,3,9.9,8.5v14.05h-4.05l-.05-2.6c-.05-1.06.14-1.76.14-1.76h-.09c-.28.62-2.88,4.89-8.2,4.89-4.34,0-7.45-2.42-7.45-6.48,0-5.37,5.51-8.06,15.37-6.78v-1.1c0-3.83-2.45-5.15-6.17-5.15-3.25,0-6.27,1.06-7.68,1.85v-3.79ZM421.52,266.61c-7.68-1.14-10.94.79-10.94,3.79,0,1.94,1.51,3.3,3.87,3.3,4.01,0,7.07-3.66,7.07-7.09Z"/>
        <path class="cls-1" d="M444.47,263.53l9.19,12.95h-5.04l-7.45-10.66-4.1,4.14v6.52h-4.34v-31.72h4.38v20.75l10.65-11.06h5.23l-8.53,9.08Z"/>
        <path class="cls-1" d="M454.74,262.34h14.05v3.39h-14.05v-3.39Z"/>
        <path class="cls-1" d="M473.93,254.46h4.1l.05,3.08c.05.84-.09,1.5-.05,1.63h.05c1.37-3.13,3.86-5.24,7.26-5.24.66,0,1.22.09,1.41.13v3.96c-.19-.04-.61-.13-1.23-.13-4.57,0-7.21,4.71-7.21,8.99v9.6h-4.38v-22.03Z"/>
        <path class="cls-1" d="M513.52,265.47c0,6.65-5.14,11.54-12.16,11.54s-12.11-4.89-12.11-11.54,5.14-11.54,12.11-11.54,12.16,4.89,12.16,11.54ZM509.27,265.47c0-4.67-3.35-7.97-7.92-7.97s-7.87,3.3-7.87,7.97,3.35,7.97,7.87,7.97,7.92-3.3,7.92-7.97Z"/>
        <path class="cls-1" d="M517.57,283.09h-3.39l2.88-9.16h4.34l-3.82,9.16Z"/>
        <path class="cls-1" d="M553.86,277.01c-10.28,0-17.86-6.96-17.86-16.39s7.68-16.39,18.1-16.39c5.14,0,8.96,1.67,10.09,2.25v4.05c-2.21-1.06-5.75-2.38-10.18-2.38-8.06,0-13.43,5.29-13.43,12.47s5.56,12.51,13.29,12.51c2.4,0,5.19-.48,6.69-1.14v-9.56h4.43v12.16c-2.78,1.41-7.07,2.42-11.12,2.42Z"/>
        <path class="cls-1" d="M591.75,270.45l6.46-15.99h4.62l-9.9,22.55h-2.4l-5.94-15.02-5.94,15.02h-2.4l-9.9-22.55h4.67l6.41,15.99,5.99-15.68h2.4l5.94,15.68Z"/>
        <path class="cls-1" d="M605.42,255.56c1.32-.66,4.43-1.63,8.3-1.63,6.65,0,9.9,3,9.9,8.5v14.05h-4.05l-.05-2.6c-.05-1.06.14-1.76.14-1.76h-.09c-.28.62-2.88,4.89-8.2,4.89-4.34,0-7.45-2.42-7.45-6.48,0-5.37,5.51-8.06,15.37-6.78v-1.1c0-3.83-2.45-5.15-6.17-5.15-3.25,0-6.27,1.06-7.68,1.85v-3.79ZM619.18,266.61c-7.68-1.14-10.94.79-10.94,3.79,0,1.94,1.51,3.3,3.87,3.3,4.01,0,7.07-3.66,7.07-7.09Z"/>
        <path class="cls-1" d="M634.49,254.46l.09,3.08c0,.93-.14,1.59-.19,1.67h.09c.9-1.98,4.01-5.29,9-5.29,5.8,0,8.06,3.22,8.06,8.72v13.83h-4.38v-13c0-3.04-.57-5.77-4.48-5.77-4.62,0-7.92,3.44-7.92,7.93v10.84h-4.38v-22.03h4.1Z"/>
        <path class="cls-1" d="M657.78,255.56c1.32-.66,4.43-1.63,8.3-1.63,6.65,0,9.9,3,9.9,8.5v14.05h-4.05l-.05-2.6c-.05-1.06.14-1.76.14-1.76h-.09c-.28.62-2.88,4.89-8.2,4.89-4.34,0-7.45-2.42-7.45-6.48,0-5.37,5.51-8.06,15.37-6.78v-1.1c0-3.83-2.45-5.15-6.17-5.15-3.25,0-6.27,1.06-7.68,1.85v-3.79ZM671.54,266.61c-7.68-1.14-10.94.79-10.94,3.79,0,1.94,1.51,3.3,3.87,3.3,4.01,0,7.07-3.66,7.07-7.09Z"/>
        <path class="cls-1" d="M694.49,263.53l9.19,12.95h-5.04l-7.45-10.66-4.1,4.14v6.52h-4.34v-31.72h4.38v20.75l10.65-11.06h5.23l-8.53,9.08Z"/>
        <path class="cls-1" d="M704.76,262.34h14.05v3.39h-14.05v-3.39Z"/>
        <path class="cls-1" d="M735.54,273.04c5.99.62,9.38,2.29,9.38,6.3,0,4.23-4.62,6.78-11.31,6.78s-10.79-2.03-10.79-5.95c0-2.6,2.88-4.76,6.5-5.42-2.26-.26-3.63-1.32-3.63-2.82,0-1.28,1.23-2.47,3.25-3.08-3.35-1.15-5.56-3.79-5.56-7.14,0-4.63,4.19-7.8,9.57-7.8,1.32,0,2.64.18,3.72.53h8.58v3.08h-3.25c-.61,0-1.32-.18-1.32-.18l-.28-.04c1.27,1.1,2.07,2.64,2.07,4.41,0,4.32-3.68,7.4-8.62,7.66h-.05c-2.12.18-3.82.93-3.82,1.76,0,1.1,1.51,1.45,5.56,1.89ZM740.54,279.61c0-2.03-1.88-3.61-7.21-3.61-3.68,0-6.27,1.72-6.27,3.7,0,2.33,2.73,3.52,6.6,3.52,4.24,0,6.88-1.45,6.88-3.61ZM738.46,261.81c0-2.73-2.22-4.76-5.51-4.76s-5.47,2.03-5.47,4.76,2.26,4.71,5.47,4.71,5.51-1.98,5.51-4.71Z"/>
        <path class="cls-1" d="M765.61,276.48l-.09-3.08c0-.93.19-1.59.19-1.67h-.09c-.9,1.98-3.91,5.29-8.77,5.29-5.8,0-8.06-3.21-8.06-8.72v-13.83h4.38v13c0,3.04.57,5.77,4.48,5.77,4.48,0,7.68-3.44,7.68-7.93v-10.84h4.38v22.03h-4.1Z"/>
        <path class="cls-1" d="M776.68,283.09h-3.39l2.88-9.16h4.34l-3.82,9.16Z"/>
        <path class="cls-1" d="M795.25,275.16v-4.19c2.4,1.1,5.89,2.25,9.57,2.25,4.24,0,7.4-1.63,7.4-4.54s-1.84-4.54-7.54-6.39c-6.5-2.12-9.57-4.71-9.57-9.56,0-5.37,4.81-8.5,11.31-8.5,3.39,0,6.55.84,8.44,1.63v4.01c-1.89-.92-5.14-1.85-8.2-1.85-4.2,0-7.12,1.76-7.12,4.58,0,2.6,1.65,4.45,7.45,6.34,6.5,2.2,9.66,4.67,9.66,9.43,0,5.42-4.48,8.63-11.59,8.63-3.91,0-7.54-.92-9.8-1.85Z"/>
        <path class="cls-1" d="M841.86,264.19c0,.88-.09,1.72-.09,2.16h-17.53v.04c.14,4.32,3.25,7.05,8.2,7.05,3.21,0,6.55-.88,8.53-2.07v3.74c-1.84.97-5,1.89-8.81,1.89-7.45,0-12.49-4.71-12.49-11.54s5.04-11.54,11.55-11.54c6.93,0,10.65,4.85,10.65,10.26ZM831.16,257.36c-4.05,0-6.5,2.91-6.88,6.08h13.25c.05-3.17-2.17-6.08-6.36-6.08Z"/>
        <path class="cls-1" d="M870.14,265.47c0,6.65-5.14,11.54-12.16,11.54s-12.11-4.89-12.11-11.54,5.14-11.54,12.11-11.54,12.16,4.89,12.16,11.54ZM865.9,265.47c0-4.67-3.35-7.97-7.92-7.97s-7.87,3.3-7.87,7.97,3.35,7.97,7.87,7.97,7.92-3.3,7.92-7.97Z"/>
        <path class="cls-1" d="M891.91,276.48l-.09-3.08c0-.93.19-1.59.19-1.67h-.09c-.9,1.98-3.91,5.29-8.77,5.29-5.8,0-8.06-3.21-8.06-8.72v-13.83h4.38v13c0,3.04.57,5.77,4.48,5.77,4.48,0,7.68-3.44,7.68-7.93v-10.84h4.38v22.03h-4.1Z"/>
        <path class="cls-1" d="M903.65,244.76h4.38v25.24c0,2.38.8,3.35,2.73,3.35.94,0,1.79-.18,2.07-.26v3.52c-.28.09-1.46.4-3.16.4-3.49,0-6.03-1.72-6.03-6.17v-26.08Z"/>
        <path class="cls-1" d="M15.6,307.16c7.87,0,12.87,7.05,12.87,16.39s-5,16.39-12.87,16.39-12.87-7.05-12.87-16.39,5-16.39,12.87-16.39ZM15.6,336.01c5.09,0,8.3-5.07,8.3-12.47s-3.21-12.47-8.3-12.47-8.3,5.07-8.3,12.47,3.21,12.47,8.3,12.47Z"/>
        <path class="cls-1" d="M34.4,315.13c0-4.58,4.29-8.02,10.13-8.02s10.13,3.44,10.13,8.02c0,4.18-3.54,7-6.41,8.15,3.3,1.37,7.12,4.18,7.12,8.55,0,4.67-4.52,8.15-10.84,8.15s-10.89-3.48-10.89-8.15c0-4.36,3.77-7.22,7.16-8.55-2.92-1.15-6.41-3.96-6.41-8.15ZM44.53,336.32c3.72,0,6.5-2.12,6.5-4.93s-2.88-5.2-6.5-6.48c-3.63,1.28-6.55,3.66-6.55,6.48s2.83,4.93,6.55,4.93ZM44.53,321.56c3.21-1.28,5.8-3.17,5.8-6.08,0-2.69-2.5-4.76-5.8-4.76s-5.8,2.07-5.8,4.76c0,2.91,2.55,4.8,5.8,6.08Z"/>
        <path class="cls-1" d="M60.84,315.13c0-4.58,4.29-8.02,10.13-8.02s10.13,3.44,10.13,8.02c0,4.18-3.54,7-6.41,8.15,3.3,1.37,7.12,4.18,7.12,8.55,0,4.67-4.52,8.15-10.84,8.15s-10.89-3.48-10.89-8.15c0-4.36,3.77-7.22,7.16-8.55-2.92-1.15-6.41-3.96-6.41-8.15ZM70.97,336.32c3.72,0,6.5-2.12,6.5-4.93s-2.88-5.2-6.5-6.48c-3.63,1.28-6.55,3.66-6.55,6.48s2.83,4.93,6.55,4.93ZM70.97,321.56c3.21-1.28,5.8-3.17,5.8-6.08,0-2.69-2.5-4.76-5.8-4.76s-5.8,2.07-5.8,4.76c0,2.91,2.55,4.8,5.8,6.08Z"/>
        <path class="cls-1" d="M86.1,309.23c1.93-1.23,4.57-2.07,7.64-2.07,6.69,0,11.03,4.14,11.03,10.04,0,6.43-5.47,11.89-11.83,18.55h13.48v3.66h-22.01c10.13-10.66,15.7-16.3,15.7-22.11,0-3.7-2.55-6.21-6.79-6.21-2.92,0-5.47,1.01-7.21,2.2v-4.05Z"/>
        <path class="cls-1" d="M134.83,329.36c0,6.08-5,10.57-11.69,10.57s-11.55-4.4-11.55-10.75c0-7.8,7.97-17.4,13.81-21.5h5.99c-6.03,4.14-10.46,9.34-12.77,12.95.85-.71,2.54-1.67,5.04-1.67,6.55,0,11.17,4.71,11.17,10.4ZM130.59,329.36c0-4.01-3.06-7-7.45-7s-7.45,3-7.45,6.87c0,4.23,3.06,7.14,7.45,7.14s7.45-2.95,7.45-7Z"/>
        <path class="cls-1" d="M141.29,346.01h-3.39l2.88-9.16h4.34l-3.82,9.16Z"/>
        <path class="cls-1" d="M173.29,307.69c7.45,0,11.92,3.61,11.92,9.69,0,4.76-3.3,7.84-6.93,8.9l7.68,13.13h-5.04l-7.02-12.42h-7.07v12.42h-4.53v-31.72h10.98ZM166.83,311.26v12.25h6.69c4.48,0,7.17-2.29,7.17-6.12s-2.83-6.12-7.54-6.12h-6.32Z"/>
        <path class="cls-1" d="M210.95,327.12c0,.88-.09,1.72-.09,2.16h-17.53v.04c.14,4.32,3.25,7.05,8.2,7.05,3.21,0,6.55-.88,8.53-2.07v3.74c-1.84.97-5,1.89-8.81,1.89-7.45,0-12.49-4.71-12.49-11.54s5.04-11.54,11.55-11.54c6.93,0,10.65,4.85,10.65,10.26ZM200.25,320.29c-4.05,0-6.5,2.91-6.88,6.08h13.25c.05-3.17-2.17-6.08-6.36-6.08Z"/>
        <path class="cls-1" d="M216.51,317.38h4.05l.09,2.29c0,.97-.14,1.63-.14,1.63h.09c1.22-2.29,4.52-4.45,8.34-4.45,6.22,0,10.93,4.71,10.93,11.54s-4.71,11.54-10.84,11.54c-3.82,0-6.93-2.07-8.2-4.32h-.09s.14.66.14,1.81v11.67h-4.38v-31.72ZM235.64,328.39c0-4.58-2.92-7.97-7.31-7.97-3.54,0-7.4,2.47-7.4,7.97s3.87,7.97,7.4,7.97c4.38,0,7.31-3.3,7.31-7.97Z"/>
        <path class="cls-1" d="M261.66,339.41l-.09-3.08c0-.93.19-1.59.19-1.67h-.09c-.9,1.98-3.91,5.29-8.77,5.29-5.8,0-8.06-3.21-8.06-8.72v-13.83h4.38v13c0,3.04.57,5.77,4.48,5.77,4.48,0,7.68-3.44,7.68-7.93v-10.84h4.38v22.03h-4.1Z"/>
        <path class="cls-1" d="M273.39,307.69h4.38v11.37c0,1.15-.14,1.81-.14,1.81h.09c1.27-2.07,4.38-4.01,8.2-4.01,6.13,0,10.84,4.63,10.84,11.54s-4.71,11.54-10.94,11.54c-3.82,0-7.12-2.29-8.34-4.76h-.09s.14.66.14,1.63l-.09,2.6h-4.05v-31.72ZM277.82,328.39c0,5.51,3.87,7.97,7.4,7.97,4.38,0,7.31-3.39,7.31-7.97s-2.92-7.97-7.31-7.97c-3.54,0-7.4,2.47-7.4,7.97Z"/>
        <path class="cls-1" d="M301.95,307.69h4.38v25.24c0,2.38.8,3.35,2.73,3.35.94,0,1.79-.18,2.07-.26v3.52c-.28.09-1.46.4-3.16.4-3.49,0-6.03-1.72-6.03-6.17v-26.08Z"/>
        <path class="cls-1" d="M317.79,308.48c1.6,0,2.73,1.01,2.73,2.51s-1.13,2.47-2.73,2.47-2.73-1.01-2.73-2.47,1.08-2.51,2.73-2.51ZM320,317.38v22.03h-4.38v-22.03h4.38Z"/>
        <path class="cls-1" d="M337.96,336.28c3.25,0,5.7-1.1,7.16-1.94v3.83c-1.41.71-3.72,1.76-7.4,1.76-7.26,0-12.3-4.89-12.3-11.54s5.04-11.54,12.3-11.54c3.63,0,5.84,1.01,7.26,1.72v3.88c-1.65-.97-3.96-1.94-7.02-1.94-4.71,0-8.06,3.26-8.06,7.89s3.3,7.88,8.06,7.88Z"/>
        <path class="cls-1" d="M384.24,328.39c0,6.65-5.14,11.54-12.16,11.54s-12.11-4.89-12.11-11.54,5.14-11.54,12.11-11.54,12.16,4.89,12.16,11.54ZM380,328.39c0-4.67-3.35-7.97-7.92-7.97s-7.87,3.3-7.87,7.97,3.35,7.97,7.87,7.97,7.92-3.3,7.92-7.97Z"/>
        <path class="cls-1" d="M390.7,317.38v-2.47c0-4.67,3.21-7.75,8.53-7.75,1.37,0,2.5.18,2.88.26v3.57c-.38-.09-1.32-.26-2.45-.26-3.02,0-4.85,1.58-4.85,4.54v2.11h6.27v3.35h-6.13v18.68h-4.38v-18.68h-3.49v-3.35h3.63Z"/>
        <path class="cls-1" d="M421.19,324.65l16.17-16.96h5.61l-12.49,12.73,12.68,18.99h-5.28l-10.46-16.04-6.22,6.3v9.74h-4.53v-31.72h4.53v16.96Z"/>
        <path class="cls-1" d="M468.56,328.39c0,6.65-5.14,11.54-12.16,11.54s-12.11-4.89-12.11-11.54,5.14-11.54,12.11-11.54,12.16,4.89,12.16,11.54ZM464.31,328.39c0-4.67-3.35-7.97-7.92-7.97s-7.87,3.3-7.87,7.97,3.35,7.97,7.87,7.97,7.92-3.3,7.92-7.97Z"/>
        <path class="cls-1" d="M473.88,317.38h4.1l.05,3.08c.05.84-.09,1.5-.05,1.63h.05c1.37-3.13,3.86-5.24,7.26-5.24.66,0,1.22.09,1.41.13v3.96c-.19-.04-.61-.13-1.23-.13-4.57,0-7.21,4.71-7.21,8.99v9.6h-4.38v-22.03Z"/>
        <path class="cls-1" d="M511.4,327.12c0,.88-.09,1.72-.09,2.16h-17.53v.04c.14,4.32,3.25,7.05,8.2,7.05,3.21,0,6.55-.88,8.53-2.07v3.74c-1.84.97-5,1.89-8.81,1.89-7.45,0-12.49-4.71-12.49-11.54s5.04-11.54,11.55-11.54c6.93,0,10.65,4.85,10.65,10.26ZM500.7,320.29c-4.05,0-6.5,2.91-6.88,6.08h13.25c.05-3.17-2.17-6.08-6.36-6.08Z"/>
        <path class="cls-1" d="M516.67,318.48c1.32-.66,4.43-1.63,8.3-1.63,6.65,0,9.9,3,9.9,8.5v14.05h-4.05l-.05-2.6c-.05-1.06.14-1.76.14-1.76h-.09c-.28.62-2.88,4.89-8.2,4.89-4.34,0-7.45-2.42-7.45-6.48,0-5.37,5.51-8.06,15.37-6.78v-1.1c0-3.83-2.45-5.15-6.17-5.15-3.25,0-6.27,1.06-7.68,1.85v-3.79ZM530.44,329.54c-7.68-1.14-10.94.79-10.94,3.79,0,1.94,1.51,3.3,3.87,3.3,4.01,0,7.07-3.66,7.07-7.09Z"/>
        <path class="cls-1" d="M29.97,440.36c-2.12-1.01-5.47-2.29-9.71-2.29-7.31,0-12.21,4.93-12.21,11.32s4.9,11.32,12.07,11.32c4.53,0,7.97-1.23,10.09-2.25v5.15c-1.41.75-5.28,2.2-10.32,2.2-10.23,0-17.82-7.05-17.82-16.43s7.59-16.43,17.96-16.43c4.9,0,8.53,1.5,9.95,2.25v5.15Z"/>
        <path class="cls-1" d="M57.31,454.24c0,6.65-5.18,11.59-12.35,11.59s-12.35-4.93-12.35-11.59,5.23-11.59,12.35-11.59,12.35,4.93,12.35,11.59ZM51.84,454.24c0-4.14-2.92-7-6.88-7s-6.88,2.86-6.88,7,2.97,7,6.88,7,6.88-2.86,6.88-7Z"/>
        <path class="cls-1" d="M61.5,433.54h5.75v24.58c0,2.2.85,3.04,2.55,3.04.94,0,1.84-.22,2.21-.35v4.49c-.47.18-1.88.53-3.82.53-3.77,0-6.69-1.81-6.69-6.56v-25.73Z"/>
        <path class="cls-1" d="M75.26,433.54h5.75v24.58c0,2.2.85,3.04,2.55,3.04.94,0,1.84-.22,2.21-.35v4.49c-.47.18-1.88.53-3.82.53-3.77,0-6.69-1.81-6.69-6.56v-25.73Z"/>
        <path class="cls-1" d="M110.23,452.96c0,1.01-.14,1.98-.14,2.38h-16.45c.14,3.7,2.97,5.9,7.31,5.9,3.3,0,6.74-.92,8.34-1.85v4.71c-1.65.84-4.81,1.72-8.77,1.72-7.82,0-12.87-4.8-12.87-11.59s5.14-11.59,11.78-11.59c7.07,0,10.79,4.85,10.79,10.31ZM99.35,446.97c-3.39,0-5.42,2.47-5.7,5.24h11.03c.05-2.78-1.79-5.24-5.33-5.24Z"/>
        <path class="cls-1" d="M126.63,461.64c6.17.66,9.38,2.42,9.38,6.39,0,4.45-4.81,7.05-11.83,7.05-6.46,0-11.08-1.98-11.08-5.86,0-2.56,2.73-4.63,6.22-5.29-2.07-.26-3.49-1.32-3.49-2.91,0-1.32,1.23-2.64,3.49-3.3-3.35-1.19-5.56-3.79-5.56-7.14,0-4.76,4.38-7.93,9.9-7.93,1.41,0,2.73.18,3.91.57h8.67v3.88h-3.02c-1.04,0-1.13-.13-1.32-.18.94.97,1.56,2.2,1.56,3.66,0,4.32-3.58,7.22-8.39,7.71-2.07.18-3.68.88-3.68,1.63,0,.97,1.6,1.32,5.23,1.72ZM130.31,468.42c0-1.85-1.74-3.13-6.32-3.13-3.16,0-5.37,1.45-5.37,3.22,0,2.03,2.36,3.04,5.66,3.04,3.63,0,6.03-1.23,6.03-3.13ZM128.33,450.72c0-2.38-1.84-4.18-4.67-4.18s-4.62,1.81-4.62,4.18,1.89,4.1,4.62,4.1,4.67-1.72,4.67-4.1Z"/>
        <path class="cls-1" d="M160.52,452.96c0,1.01-.14,1.98-.14,2.38h-16.45c.14,3.7,2.97,5.9,7.31,5.9,3.3,0,6.74-.92,8.34-1.85v4.71c-1.65.84-4.81,1.72-8.77,1.72-7.82,0-12.87-4.8-12.87-11.59s5.14-11.59,11.78-11.59c7.07,0,10.79,4.85,10.79,10.31ZM149.63,446.97c-3.39,0-5.42,2.47-5.7,5.24h11.03c.05-2.78-1.79-5.24-5.33-5.24Z"/>
        <path class="cls-1" d="M199.26,454.24c0,6.65-5.18,11.59-12.35,11.59s-12.35-4.93-12.35-11.59,5.23-11.59,12.35-11.59,12.35,4.93,12.35,11.59ZM193.79,454.24c0-4.14-2.92-7-6.88-7s-6.88,2.86-6.88,7,2.97,7,6.88,7,6.88-2.86,6.88-7Z"/>
        <path class="cls-1" d="M204.87,443.23v-2.2c0-4.89,3.35-8.06,9.14-8.06,1.46,0,2.64.18,3.02.26v4.58c-.38-.09-1.27-.26-2.4-.26-2.69,0-4.43,1.41-4.43,4.01v1.67h5.89v4.27h-5.66v17.75h-5.75v-17.75h-3.25v-4.27h3.44Z"/>
        <path class="cls-1" d="M237.06,438.21v8.99h12.07v4.62h-12.07v13.44h-5.94v-31.72h20.27v4.67h-14.33Z"/>
        <path class="cls-1" d="M256.66,433.84c1.98,0,3.35,1.19,3.35,3.04s-1.37,3-3.35,3-3.35-1.19-3.35-3,1.32-3.04,3.35-3.04ZM259.54,443.23v22.03h-5.75v-22.03h5.75Z"/>
        <path class="cls-1" d="M271.51,443.23l.14,2.82c0,.84-.19,1.41-.19,1.58h.09c.94-2.03,4.05-4.98,8.53-4.98,5.56,0,8.15,3.13,8.15,8.81v13.79h-5.75v-12.86c0-2.56-.66-4.85-3.87-4.85-3.91,0-6.69,2.91-6.69,6.78v10.92h-5.75v-22.03h5.33Z"/>
        <path class="cls-1" d="M314.92,452.96c0,1.01-.14,1.98-.14,2.38h-16.45c.14,3.7,2.97,5.9,7.31,5.9,3.3,0,6.74-.92,8.34-1.85v4.71c-1.65.84-4.81,1.72-8.77,1.72-7.82,0-12.87-4.8-12.87-11.59s5.14-11.59,11.78-11.59c7.07,0,10.79,4.85,10.79,10.31ZM304.03,446.97c-3.39,0-5.42,2.47-5.7,5.24h11.03c.05-2.78-1.79-5.24-5.33-5.24Z"/>
        <path class="cls-1" d="M343,433.05h.19l16.07,32.2h-6.22l-3.02-6.3h-13.86l-3.02,6.3h-6.22l16.07-32.2ZM348.09,454.81c-1.93-4.05-3.53-7.62-4.95-11.23-1.46,3.3-3.21,7.36-5.04,11.23h9.99Z"/>
        <path class="cls-1" d="M361.76,443.23h5.28c.05.88.09,1.76.09,2.6,0,.75-.05,1.37,0,1.54,1.46-2.69,3.91-4.71,7.17-4.71.71,0,1.32.09,1.46.13v5.2c-.14,0-.66-.18-1.41-.18-4.05,0-6.83,3.83-6.83,7.97v9.47h-5.75v-22.03Z"/>
        <path class="cls-1" d="M381.13,443.23v-6.61h5.56v6.61h6.69v4.27h-6.69v10.09c0,2.73,1.51,3.66,3.25,3.66,1.46,0,3.06-.44,4.24-.92v4.49c-1.08.53-3.11,1.01-5.66,1.01-3.58,0-7.16-1.63-7.45-6.39,0-.7-.05-1.45-.05-2.2v-9.74h-3.58v-4.27h3.68Z"/>
        <path class="cls-1" d="M403.19,456.18c-4.29-1.23-7.31-2.91-7.31-7.05,0-3.88,3.49-6.48,8.72-6.48,2.97,0,5.61.71,7.12,1.32v4.71c-1.6-.79-3.96-1.5-6.08-1.59-.8,0-1.6.04-2.31.18-1.18.31-2.17.93-2.17,2.07,0,1.41,1.41,2.16,4.29,2.95,5.19,1.5,7.68,3.22,7.68,7.05,0,4.14-3.63,6.48-9.14,6.48-3.35,0-6.08-.71-7.87-1.45v-4.8c2.26,1.1,5.47,1.94,7.73,1.94,2.07,0,4.01-.62,4.01-2.29,0-1.54-1.6-2.16-4.67-3.04Z"/>
        <path class="cls-1" d="M592.13,433.54h4.34v12.25c0,1.01-.14,1.85-.14,2.2h.05c.99-1.98,3.87-5.29,8.86-5.29,5.8,0,8.06,3.22,8.06,8.72v13.83h-4.38v-13c0-3.04-.57-5.77-4.48-5.77-4.62,0-7.92,3.44-7.92,7.93v10.84h-4.38v-31.72Z"/>
        <path class="cls-1" d="M620.69,443.23v-6.61h4.29v6.61h7.12v3.35h-7.12v11.41c0,3.13,1.51,4.19,3.49,4.19,1.46,0,3.11-.4,4.43-.97v3.57c-1.04.53-2.97,1.01-5.28,1.01-3.39,0-6.98-1.63-6.98-6.56v-12.64h-3.87v-3.35h3.91Z"/>
        <path class="cls-1" d="M637.52,443.23v-6.61h4.29v6.61h7.12v3.35h-7.12v11.41c0,3.13,1.51,4.19,3.49,4.19,1.46,0,3.11-.4,4.43-.97v3.57c-1.04.53-2.97,1.01-5.28,1.01-3.39,0-6.98-1.63-6.98-6.56v-12.64h-3.87v-3.35h3.91Z"/>
        <path class="cls-1" d="M653.68,443.23h4.05l.09,2.29c0,.97-.14,1.63-.14,1.63h.09c1.22-2.29,4.52-4.45,8.34-4.45,6.22,0,10.93,4.71,10.93,11.54s-4.71,11.54-10.84,11.54c-3.82,0-6.93-2.07-8.2-4.32h-.09s.14.66.14,1.81v11.67h-4.38v-31.72ZM672.82,454.24c0-4.58-2.92-7.97-7.31-7.97-3.54,0-7.4,2.47-7.4,7.97s3.87,7.97,7.4,7.97c4.38,0,7.31-3.3,7.31-7.97Z"/>
        <path class="cls-1" d="M687.85,455.83c-4.2-1.28-7.12-2.95-7.12-6.92,0-3.66,3.54-6.21,8.44-6.21,2.54,0,5.04.62,6.65,1.32v3.7c-1.7-.84-4.05-1.54-6.17-1.54-2.69,0-4.81.88-4.81,2.86,0,1.76,1.65,2.6,4.85,3.57,5,1.54,7.45,3.26,7.45,6.96,0,4.01-3.49,6.21-8.58,6.21-3.06,0-5.8-.62-7.68-1.45v-3.74c2.31,1.06,5.33,1.81,7.54,1.81,2.45,0,4.67-.79,4.67-2.86,0-1.89-1.74-2.64-5.23-3.7Z"/>
        <path class="cls-1" d="M703.07,442.7c1.6,0,2.73,1.01,2.73,2.51s-1.13,2.47-2.73,2.47-2.73-1.01-2.73-2.47,1.08-2.51,2.73-2.51ZM703.07,460.8c1.6,0,2.73,1.01,2.73,2.51s-1.13,2.47-2.73,2.47-2.73-1.01-2.73-2.47,1.08-2.51,2.73-2.51Z"/>
        <path class="cls-1" d="M725.84,430.58h4.67l-17.2,37.62h-4.67l17.2-37.62Z"/>
        <path class="cls-1" d="M748.18,430.58h4.67l-17.2,37.62h-4.67l17.2-37.62Z"/>
        <path class="cls-1" d="M755.24,444.33c1.32-.66,4.43-1.63,8.3-1.63,6.65,0,9.9,3,9.9,8.5v14.05h-4.05l-.05-2.6c-.05-1.06.14-1.76.14-1.76h-.09c-.28.62-2.88,4.89-8.2,4.89-4.34,0-7.45-2.42-7.45-6.48,0-5.37,5.51-8.06,15.37-6.78v-1.1c0-3.83-2.45-5.15-6.17-5.15-3.25,0-6.27,1.06-7.68,1.85v-3.79ZM769.01,455.38c-7.68-1.14-10.94.79-10.94,3.79,0,1.94,1.51,3.3,3.87,3.3,4.01,0,7.07-3.66,7.07-7.09Z"/>
        <path class="cls-1" d="M779.89,443.23h4.1l.05,3.08c.05.84-.09,1.5-.05,1.63h.05c1.37-3.13,3.86-5.24,7.26-5.24.66,0,1.22.09,1.41.13v3.96c-.19-.04-.61-.13-1.23-.13-4.57,0-7.21,4.71-7.21,8.99v9.6h-4.38v-22.03Z"/>
        <path class="cls-1" d="M798.84,443.23v-6.61h4.29v6.61h7.12v3.35h-7.12v11.41c0,3.13,1.51,4.19,3.49,4.19,1.46,0,3.11-.4,4.43-.97v3.57c-1.04.53-2.97,1.01-5.28,1.01-3.39,0-6.98-1.63-6.98-6.56v-12.64h-3.87v-3.35h3.91Z"/>
        <path class="cls-1" d="M816.46,460.8c1.6,0,2.73,1.01,2.73,2.51s-1.13,2.47-2.73,2.47-2.73-1.01-2.73-2.47,1.08-2.51,2.73-2.51Z"/>
        <path class="cls-1" d="M829.8,455.83c-4.2-1.28-7.12-2.95-7.12-6.92,0-3.66,3.54-6.21,8.44-6.21,2.54,0,5.04.62,6.65,1.32v3.7c-1.7-.84-4.05-1.54-6.17-1.54-2.69,0-4.81.88-4.81,2.86,0,1.76,1.65,2.6,4.85,3.57,5,1.54,7.45,3.26,7.45,6.96,0,4.01-3.49,6.21-8.58,6.21-3.06,0-5.8-.62-7.68-1.45v-3.74c2.31,1.06,5.33,1.81,7.54,1.81,2.45,0,4.67-.79,4.67-2.86,0-1.89-1.74-2.64-5.23-3.7Z"/>
        <path class="cls-1" d="M848.56,443.23l.09,3.08c0,.93-.14,1.59-.19,1.67h.09c.9-1.98,4.01-5.29,9-5.29,5.8,0,8.06,3.22,8.06,8.72v13.83h-4.38v-13c0-3.04-.57-5.77-4.48-5.77-4.62,0-7.92,3.44-7.92,7.93v10.84h-4.38v-22.03h4.1Z"/>
        <path class="cls-1" d="M888.67,465.25l-.09-3.08c0-.93.19-1.59.19-1.67h-.09c-.9,1.98-3.91,5.29-8.77,5.29-5.8,0-8.06-3.21-8.06-8.72v-13.83h4.38v13c0,3.04.57,5.77,4.48,5.77,4.48,0,7.68-3.44,7.68-7.93v-10.84h4.38v22.03h-4.1Z"/>
        <path class="cls-1" d="M900.97,460.8c1.6,0,2.73,1.01,2.73,2.51s-1.13,2.47-2.73,2.47-2.73-1.01-2.73-2.47,1.08-2.51,2.73-2.51Z"/>
        <path class="cls-1" d="M908.46,444.33c1.32-.66,4.43-1.63,8.3-1.63,6.65,0,9.9,3,9.9,8.5v14.05h-4.05l-.05-2.6c-.05-1.06.14-1.76.14-1.76h-.09c-.28.62-2.88,4.89-8.2,4.89-4.34,0-7.45-2.42-7.45-6.48,0-5.37,5.51-8.06,15.37-6.78v-1.1c0-3.83-2.45-5.15-6.17-5.15-3.25,0-6.27,1.06-7.68,1.85v-3.79ZM922.22,455.38c-7.68-1.14-10.94.79-10.94,3.79,0,1.94,1.51,3.3,3.87,3.3,4.01,0,7.07-3.66,7.07-7.09Z"/>
        <path class="cls-1" d="M944,462.12c3.25,0,5.7-1.1,7.16-1.94v3.83c-1.41.71-3.72,1.76-7.4,1.76-7.26,0-12.3-4.89-12.3-11.54s5.04-11.54,12.3-11.54c3.63,0,5.84,1.01,7.26,1.72v3.88c-1.65-.97-3.96-1.94-7.02-1.94-4.71,0-8.06,3.26-8.06,7.89s3.3,7.88,8.06,7.88Z"/>
        <path class="cls-1" d="M957.05,460.8c1.6,0,2.73,1.01,2.73,2.51s-1.13,2.47-2.73,2.47-2.73-1.01-2.73-2.47,1.08-2.51,2.73-2.51Z"/>
        <path class="cls-1" d="M976.99,452.3l9.19,12.95h-5.04l-7.45-10.66-4.1,4.14v6.52h-4.34v-31.72h4.38v20.75l10.65-11.06h5.23l-8.53,9.08Z"/>
        <path class="cls-1" d="M990.51,443.23h4.1l.05,3.08c.05.84-.09,1.5-.05,1.63h.05c1.37-3.13,3.86-5.24,7.26-5.24.66,0,1.23.09,1.41.13v3.96c-.19-.04-.61-.13-1.23-.13-4.57,0-7.21,4.71-7.21,8.99v9.6h-4.38v-22.03Z"/>
        <path class="cls-1" d="M11.45,509.89l-1.32-1.23v19.51h-5.7v-32.2h.09l15.79,16.39,15.79-16.39h.09v32.2h-5.66v-19.51l-1.37,1.23c-2.92,3.22-5.89,6.39-8.86,9.56l-8.86-9.56Z"/>
        <path class="cls-1" d="M63.81,515.89c0,1.01-.14,1.98-.14,2.38h-16.45c.14,3.7,2.97,5.9,7.31,5.9,3.3,0,6.74-.92,8.34-1.85v4.71c-1.65.84-4.81,1.72-8.77,1.72-7.82,0-12.87-4.8-12.87-11.59s5.14-11.59,11.78-11.59c7.07,0,10.79,4.85,10.79,10.31ZM52.92,509.89c-3.39,0-5.42,2.47-5.7,5.24h11.03c.05-2.78-1.79-5.24-5.33-5.24Z"/>
        <path class="cls-1" d="M70.03,506.15v-6.61h5.56v6.61h6.69v4.27h-6.69v10.09c0,2.73,1.51,3.66,3.25,3.66,1.46,0,3.06-.44,4.24-.92v4.49c-1.08.53-3.11,1.01-5.66,1.01-3.58,0-7.16-1.63-7.45-6.39,0-.7-.05-1.45-.05-2.2v-9.74h-3.58v-4.27h3.68Z"/>
        <path class="cls-1" d="M86.81,507.16c1.32-.66,4.48-1.59,8.48-1.59,6.98,0,10.42,3.13,10.42,8.63v13.96h-5.23l-.09-2.29c-.05-1.01.09-1.67.09-1.67h-.09c-.42.97-2.92,4.54-7.73,4.54-4.2,0-7.49-2.34-7.49-6.56,0-5.42,5.7-8.06,14.85-6.87v-.84c0-3.22-2.17-4.32-5.61-4.32-3.11,0-6.08.97-7.59,1.85v-4.85ZM99.86,518.49c-6.46-.97-9.19.75-9.19,3.26,0,1.67,1.27,2.82,3.25,2.82,3.39,0,5.94-3,5.94-6.08Z"/>
        <path class="cls-1" d="M111.22,496.46h5.75v24.58c0,2.2.85,3.04,2.55,3.04.94,0,1.84-.22,2.21-.35v4.49c-.47.18-1.88.53-3.82.53-3.77,0-6.69-1.81-6.69-6.56v-25.73Z"/>
        <path class="cls-1" d="M143.6,513.9c.9,2.38,1.74,4.89,2.5,7.05.85-1.94,1.79-4.8,2.73-7.14l2.97-7.67h5.99l-9.85,22.42h-3.54l-5.28-13.52-5.28,13.52h-3.54l-9.85-22.42h6.03c1.89,5.02,3.96,10.31,5.61,14.8,1.46-3.88,3.77-10.18,5.37-14.58h3.3l2.83,7.53Z"/>
        <path class="cls-1" d="M183.1,517.16c0,6.65-5.18,11.59-12.35,11.59s-12.35-4.93-12.35-11.59,5.23-11.59,12.35-11.59,12.35,4.93,12.35,11.59ZM177.63,517.16c0-4.14-2.92-7-6.88-7s-6.88,2.86-6.88,7,2.97,7,6.88,7,6.88-2.86,6.88-7Z"/>
        <path class="cls-1" d="M187.57,506.15h5.28c.05.88.09,1.76.09,2.6,0,.75-.05,1.37,0,1.54,1.46-2.69,3.91-4.71,7.17-4.71.71,0,1.32.09,1.46.13v5.2c-.14,0-.66-.18-1.41-.18-4.05,0-6.83,3.83-6.83,7.97v9.47h-5.75v-22.03Z"/>
        <path class="cls-1" d="M218.82,515.4l8.81,12.77h-6.55l-6.65-9.96-3.44,3.57v6.39h-5.66v-31.72h5.75v19.74l9.24-10.04h6.69l-8.2,9.25Z"/>
        <path class="cls-1" d="M242.29,507.16c1.32-.66,4.48-1.59,8.48-1.59,6.98,0,10.42,3.13,10.42,8.63v13.96h-5.23l-.09-2.29c-.05-1.01.09-1.67.09-1.67h-.09c-.42.97-2.92,4.54-7.73,4.54-4.2,0-7.49-2.34-7.49-6.56,0-5.42,5.7-8.06,14.85-6.87v-.84c0-3.22-2.17-4.32-5.61-4.32-3.11,0-6.08.97-7.59,1.85v-4.85ZM255.35,518.49c-6.46-.97-9.19.75-9.19,3.26,0,1.67,1.27,2.82,3.25,2.82,3.39,0,5.94-3,5.94-6.08Z"/>
        <path class="cls-1" d="M272.31,506.15l.14,2.82c0,.84-.19,1.41-.19,1.58h.09c.94-2.03,4.05-4.98,8.53-4.98,5.56,0,8.15,3.13,8.15,8.81v13.79h-5.75v-12.86c0-2.56-.66-4.85-3.87-4.85-3.91,0-6.69,2.91-6.69,6.78v10.92h-5.75v-22.03h5.33Z"/>
        <path class="cls-1" d="M317.46,528.18h-5.28l-.09-2.29c-.05-.93.09-1.54.09-1.54h-.09c-1.13,2.34-4.34,4.41-7.96,4.41-6.17,0-10.98-4.58-10.98-11.59s4.81-11.59,10.84-11.59c3.63,0,6.5,1.72,7.78,3.61h.09s-.14-.62-.14-1.81v-10.93h5.75v31.72ZM298.61,517.16c0,4.1,2.64,7,6.46,7,3.16,0,6.5-2.25,6.5-7s-3.35-7-6.5-7c-3.82,0-6.46,2.86-6.46,7Z"/>
        <path class="cls-1" d="M345.98,519.59c0,6.17-3.02,9.16-9.14,9.16-2.03,0-3.72-.4-4.57-.88v-4.76c.85.44,2.31.84,3.77.84,2.59,0,4.01-1.32,4.01-3.83v-23.66h5.94v23.13Z"/>
        <path class="cls-1" d="M372.6,515.89c0,1.01-.14,1.98-.14,2.38h-16.45c.14,3.7,2.97,5.9,7.31,5.9,3.3,0,6.74-.92,8.34-1.85v4.71c-1.65.84-4.81,1.72-8.77,1.72-7.82,0-12.87-4.8-12.87-11.59s5.14-11.59,11.78-11.59c7.07,0,10.79,4.85,10.79,10.31ZM361.72,509.89c-3.39,0-5.42,2.47-5.7,5.24h11.03c.05-2.78-1.79-5.24-5.33-5.24Z"/>
        <path class="cls-1" d="M396.26,513.9c.9,2.38,1.74,4.89,2.5,7.05.85-1.94,1.79-4.8,2.73-7.14l2.97-7.67h5.99l-9.85,22.42h-3.54l-5.28-13.52-5.28,13.52h-3.54l-9.85-22.42h6.03c1.89,5.02,3.96,10.31,5.61,14.8,1.46-3.88,3.77-10.18,5.37-14.58h3.3l2.83,7.53Z"/>
        <path class="cls-1" d="M433.64,515.89c0,1.01-.14,1.98-.14,2.38h-16.45c.14,3.7,2.97,5.9,7.31,5.9,3.3,0,6.74-.92,8.34-1.85v4.71c-1.65.84-4.81,1.72-8.77,1.72-7.82,0-12.87-4.8-12.87-11.59s5.14-11.59,11.78-11.59c7.07,0,10.79,4.85,10.79,10.31ZM422.75,509.89c-3.39,0-5.42,2.47-5.7,5.24h11.03c.05-2.78-1.79-5.24-5.33-5.24Z"/>
        <path class="cls-1" d="M438.21,496.46h5.75v24.58c0,2.2.85,3.04,2.55,3.04.94,0,1.84-.22,2.21-.35v4.49c-.47.18-1.88.53-3.82.53-3.77,0-6.69-1.81-6.69-6.56v-25.73Z"/>
        <path class="cls-1" d="M451.97,496.46h5.75v24.58c0,2.2.85,3.04,2.55,3.04.94,0,1.84-.22,2.21-.35v4.49c-.47.18-1.88.53-3.82.53-3.77,0-6.69-1.81-6.69-6.56v-25.73Z"/>
        <path class="cls-1" d="M486.94,515.89c0,1.01-.14,1.98-.14,2.38h-16.45c.14,3.7,2.97,5.9,7.31,5.9,3.3,0,6.74-.92,8.34-1.85v4.71c-1.65.84-4.81,1.72-8.77,1.72-7.82,0-12.87-4.8-12.87-11.59s5.14-11.59,11.78-11.59c7.07,0,10.79,4.85,10.79,10.31ZM476.05,509.89c-3.39,0-5.42,2.47-5.7,5.24h11.03c.05-2.78-1.79-5.24-5.33-5.24Z"/>
        <path class="cls-1" d="M491.32,506.15h5.28c.05.88.09,1.76.09,2.6,0,.75-.05,1.37,0,1.54,1.46-2.69,3.91-4.71,7.17-4.71.71,0,1.32.09,1.46.13v5.2c-.14,0-.66-.18-1.41-.18-4.05,0-6.83,3.83-6.83,7.97v9.47h-5.75v-22.03Z"/>
        <path class="cls-1" d="M507.49,533.38c.47.13,1.41.35,2.69.35,3.39,0,5.14-2.42,6.69-5.68l-9.76-21.89h6.27l3.02,7.8c1.18,2.95,2.36,5.95,3.39,8.9.85-1.85,2.5-6.7,3.39-8.9l2.97-7.8h6.27l-9.19,21.45c-2.69,6.26-5.61,9.78-10.23,10.62-.99.13-1.93.18-2.88.13-1.13,0-2.17-.18-2.64-.35v-4.62Z"/>
        <path class="cls-1" d="M557.4,496.46h4.34v12.25c0,1.01-.14,1.85-.14,2.2h.05c.99-1.98,3.87-5.29,8.86-5.29,5.8,0,8.06,3.22,8.06,8.72v13.83h-4.38v-13c0-3.04-.57-5.77-4.48-5.77-4.62,0-7.92,3.44-7.92,7.93v10.84h-4.38v-31.72Z"/>
        <path class="cls-1" d="M585.96,506.15v-6.61h4.29v6.61h7.12v3.35h-7.12v11.41c0,3.13,1.51,4.19,3.49,4.19,1.46,0,3.11-.4,4.43-.97v3.57c-1.04.53-2.97,1.01-5.28,1.01-3.39,0-6.98-1.63-6.98-6.56v-12.64h-3.87v-3.35h3.91Z"/>
        <path class="cls-1" d="M602.78,506.15v-6.61h4.29v6.61h7.12v3.35h-7.12v11.41c0,3.13,1.51,4.19,3.49,4.19,1.46,0,3.11-.4,4.43-.97v3.57c-1.04.53-2.97,1.01-5.28,1.01-3.39,0-6.98-1.63-6.98-6.56v-12.64h-3.87v-3.35h3.91Z"/>
        <path class="cls-1" d="M618.95,506.15h4.05l.09,2.29c0,.97-.14,1.63-.14,1.63h.09c1.22-2.29,4.52-4.45,8.34-4.45,6.22,0,10.93,4.71,10.93,11.54s-4.71,11.54-10.84,11.54c-3.82,0-6.93-2.07-8.2-4.32h-.09s.14.66.14,1.81v11.67h-4.38v-31.72ZM638.08,517.16c0-4.58-2.92-7.97-7.31-7.97-3.54,0-7.4,2.47-7.4,7.97s3.87,7.97,7.4,7.97c4.38,0,7.31-3.3,7.31-7.97Z"/>
        <path class="cls-1" d="M653.12,518.75c-4.2-1.28-7.12-2.95-7.12-6.92,0-3.66,3.54-6.21,8.44-6.21,2.54,0,5.04.62,6.65,1.32v3.7c-1.7-.84-4.05-1.54-6.17-1.54-2.69,0-4.81.88-4.81,2.86,0,1.76,1.65,2.6,4.85,3.57,5,1.54,7.45,3.26,7.45,6.96,0,4.01-3.49,6.21-8.58,6.21-3.06,0-5.8-.62-7.68-1.45v-3.74c2.31,1.06,5.33,1.81,7.54,1.81,2.45,0,4.67-.79,4.67-2.86,0-1.89-1.74-2.64-5.23-3.7Z"/>
        <path class="cls-1" d="M668.34,505.62c1.6,0,2.73,1.01,2.73,2.51s-1.13,2.47-2.73,2.47-2.73-1.01-2.73-2.47,1.08-2.51,2.73-2.51ZM668.34,523.73c1.6,0,2.73,1.01,2.73,2.51s-1.13,2.47-2.73,2.47-2.73-1.01-2.73-2.47,1.08-2.51,2.73-2.51Z"/>
        <path class="cls-1" d="M691.1,493.51h4.67l-17.2,37.62h-4.67l17.2-37.62Z"/>
        <path class="cls-1" d="M713.44,493.51h4.67l-17.2,37.62h-4.67l17.2-37.62Z"/>
        <path class="cls-1" d="M731.78,525.05c3.25,0,5.7-1.1,7.16-1.94v3.83c-1.41.71-3.72,1.76-7.4,1.76-7.26,0-12.3-4.89-12.3-11.54s5.04-11.54,12.3-11.54c3.63,0,5.84,1.01,7.26,1.72v3.88c-1.65-.97-3.96-1.94-7.02-1.94-4.71,0-8.06,3.26-8.06,7.89s3.3,7.88,8.06,7.88Z"/>
        <path class="cls-1" d="M743.93,506.15h4.1l.05,3.08c.05.84-.09,1.5-.05,1.63h.05c1.37-3.13,3.86-5.24,7.26-5.24.66,0,1.23.09,1.41.13v3.96c-.19-.04-.61-.13-1.23-.13-4.57,0-7.21,4.71-7.21,8.99v9.6h-4.38v-22.03Z"/>
        <path class="cls-1" d="M760.05,507.25c1.32-.66,4.43-1.63,8.3-1.63,6.65,0,9.9,3,9.9,8.5v14.05h-4.05l-.05-2.6c-.05-1.06.14-1.76.14-1.76h-.09c-.28.62-2.88,4.89-8.2,4.89-4.34,0-7.45-2.42-7.45-6.48,0-5.37,5.51-8.06,15.37-6.78v-1.1c0-3.83-2.45-5.15-6.17-5.15-3.25,0-6.27,1.06-7.68,1.85v-3.79ZM773.81,518.31c-7.68-1.14-10.94.79-10.94,3.79,0,1.94,1.51,3.3,3.87,3.3,4.01,0,7.07-3.66,7.07-7.09Z"/>
        <path class="cls-1" d="M785.83,506.15v-2.47c0-4.67,3.21-7.75,8.53-7.75,1.37,0,2.5.18,2.88.26v3.57c-.38-.09-1.32-.26-2.45-.26-3.02,0-4.85,1.58-4.85,4.54v2.11h6.27v3.35h-6.13v18.68h-4.38v-18.68h-3.49v-3.35h3.63Z"/>
        <path class="cls-1" d="M801.76,506.15v-6.61h4.29v6.61h7.12v3.35h-7.12v11.41c0,3.13,1.51,4.19,3.49,4.19,1.46,0,3.11-.4,4.43-.97v3.57c-1.04.53-2.97,1.01-5.28,1.01-3.39,0-6.98-1.63-6.98-6.56v-12.64h-3.87v-3.35h3.91Z"/>
        <path class="cls-1" d="M819.39,523.73c1.6,0,2.73,1.01,2.73,2.51s-1.13,2.47-2.73,2.47-2.73-1.01-2.73-2.47,1.08-2.51,2.73-2.51Z"/>
        <path class="cls-1" d="M832.72,518.75c-4.2-1.28-7.12-2.95-7.12-6.92,0-3.66,3.54-6.21,8.44-6.21,2.54,0,5.04.62,6.65,1.32v3.7c-1.7-.84-4.05-1.54-6.17-1.54-2.69,0-4.81.88-4.81,2.86,0,1.76,1.65,2.6,4.85,3.57,5,1.54,7.45,3.26,7.45,6.96,0,4.01-3.49,6.21-8.58,6.21-3.06,0-5.8-.62-7.68-1.45v-3.74c2.31,1.06,5.33,1.81,7.54,1.81,2.45,0,4.67-.79,4.67-2.86,0-1.89-1.74-2.64-5.23-3.7Z"/>
        <path class="cls-1" d="M851.48,506.15l.09,3.08c0,.93-.14,1.59-.19,1.67h.09c.9-1.98,4.01-5.29,9-5.29,5.8,0,8.06,3.22,8.06,8.72v13.83h-4.38v-13c0-3.04-.57-5.77-4.48-5.77-4.62,0-7.92,3.44-7.92,7.93v10.84h-4.38v-22.03h4.1Z"/>
        <path class="cls-1" d="M891.59,528.18l-.09-3.08c0-.93.19-1.59.19-1.67h-.09c-.9,1.98-3.91,5.29-8.77,5.29-5.8,0-8.06-3.21-8.06-8.72v-13.83h4.38v13c0,3.04.57,5.77,4.48,5.77,4.48,0,7.68-3.44,7.68-7.93v-10.84h4.38v22.03h-4.1Z"/>
        <path class="cls-1" d="M903.89,523.73c1.6,0,2.73,1.01,2.73,2.51s-1.13,2.47-2.73,2.47-2.73-1.01-2.73-2.47,1.08-2.51,2.73-2.51Z"/>
        <path class="cls-1" d="M911.38,507.25c1.32-.66,4.43-1.63,8.3-1.63,6.65,0,9.9,3,9.9,8.5v14.05h-4.05l-.05-2.6c-.05-1.06.14-1.76.14-1.76h-.09c-.28.62-2.88,4.89-8.2,4.89-4.34,0-7.45-2.42-7.45-6.48,0-5.37,5.51-8.06,15.37-6.78v-1.1c0-3.83-2.45-5.15-6.17-5.15-3.25,0-6.27,1.06-7.68,1.85v-3.79ZM925.15,518.31c-7.68-1.14-10.94.79-10.94,3.79,0,1.94,1.51,3.3,3.87,3.3,4.01,0,7.07-3.66,7.07-7.09Z"/>
        <path class="cls-1" d="M946.92,525.05c3.25,0,5.7-1.1,7.16-1.94v3.83c-1.41.71-3.72,1.76-7.4,1.76-7.26,0-12.3-4.89-12.3-11.54s5.04-11.54,12.3-11.54c3.63,0,5.84,1.01,7.26,1.72v3.88c-1.65-.97-3.96-1.94-7.02-1.94-4.71,0-8.06,3.26-8.06,7.89s3.3,7.88,8.06,7.88Z"/>
        <path class="cls-1" d="M959.97,523.73c1.6,0,2.73,1.01,2.73,2.51s-1.13,2.47-2.73,2.47-2.73-1.01-2.73-2.47,1.08-2.51,2.73-2.51Z"/>
        <path class="cls-1" d="M979.91,515.23l9.19,12.95h-5.04l-7.45-10.66-4.1,4.14v6.52h-4.34v-31.72h4.38v20.75l10.65-11.06h5.23l-8.53,9.08Z"/>
        <path class="cls-1" d="M993.43,506.15h4.1l.05,3.08c.05.84-.09,1.5-.05,1.63h.05c1.37-3.13,3.86-5.24,7.26-5.24.66,0,1.22.09,1.41.13v3.96c-.19-.04-.61-.13-1.23-.13-4.57,0-7.21,4.71-7.21,8.99v9.6h-4.38v-22.03Z"/>
      </g>
      <line class="cls-2" y1="207.21" x2="895.52" y2="207.21"/>
    </g>
  </g>
</svg>