<?xml version="1.0" encoding="UTF-8"?>
<svg id="_레이어_2" data-name="레이어 2" xmlns="http://www.w3.org/2000/svg" viewBox="0 0 996.87 733.35">
  <defs>
    <style>
      .cls-1, .cls-2 {
        fill: #fff;
      }

      .cls-2 {
        stroke: #fff;
        stroke-miterlimit: 10;
        stroke-width: 2.14px;
      }
    </style>
  </defs>
  <g id="_레이어_1-2" data-name="레이어 1">
    <g>
      <g>
        <path class="cls-1" d="M12.04,26.93c-4.68-1.31-8-3.27-8-8.15s3.73-7.7,9.56-7.7c3.62,0,6.64.91,8.16,1.56v6.44c-1.66-.86-4.18-1.66-6.39-1.86-.8-.05-1.61-.05-2.32.1-1.06.2-2.11.71-2.11,1.81,0,1.26,1.26,1.91,3.93,2.72,5.74,1.61,8.46,3.62,8.46,8.16,0,4.83-3.98,7.65-10.37,7.65-3.83,0-6.75-.86-8.56-1.66v-6.59c2.37,1.26,5.99,2.32,8.46,2.32,1.86,0,3.57-.5,3.57-2.01,0-1.36-1.51-1.91-4.38-2.77Z"/>
        <path class="cls-1" d="M45.32,36.95l-.2-2.87c-.05-.91.1-1.51.2-1.76h-.1c-1.06,2.32-4.38,5.34-8.56,5.34-5.69,0-8.76-3.47-8.76-10.12v-15.76h7.55v14.5c0,2.52.7,4.53,3.42,4.53,3.42,0,5.79-2.72,5.79-6.49v-12.53h7.5v25.17h-6.85Z"/>
        <path class="cls-1" d="M59.31,11.78h6.85l.15,2.11c.05,1.01-.15,1.71-.1,1.71h.1c1.16-2.47,4.48-4.53,8.15-4.53,6.49,0,11.73,5.03,11.73,13.29s-5.24,13.29-11.53,13.29c-3.67,0-6.59-1.81-7.9-3.88h-.1s.15.7.15,2.11v12.13h-7.5V11.78ZM79.09,24.36c0-4.13-2.52-6.95-5.99-6.95-3.02,0-6.04,2.32-6.04,6.95s3.02,6.95,6.04,6.95c3.47,0,5.99-2.77,5.99-6.95Z"/>
        <path class="cls-1" d="M114.63,22.85c0,1.36-.15,2.57-.2,3.07h-16.51c.3,3.42,2.92,5.39,7,5.39,3.57,0,7.3-1.06,8.71-1.86v6.39c-1.56.81-4.93,1.81-9.41,1.81-8.66,0-14.09-5.59-14.09-13.29s5.59-13.29,12.79-13.29c7.75,0,11.73,5.54,11.73,11.78ZM102.85,17.01c-3.02,0-4.73,2.32-4.93,5.03h9.51c.1-2.72-1.51-5.03-4.58-5.03Z"/>
        <path class="cls-1" d="M119.82,11.78h6.85l.15,2.47c0,.75,0,1.36.05,1.66,1.56-2.72,4.18-4.83,7.45-4.83.81,0,1.51.1,1.61.15v7.35c-.1-.05-.71-.3-1.66-.3-3.83,0-6.95,3.37-6.95,7.95v10.72h-7.5V11.78Z"/>
        <path class="cls-1" d="M140.91,15.91h8.96V6.85h5.99v9.06h8.96v5.84h-8.96v9.06h-5.99v-9.06h-8.96v-5.84Z"/>
        <path class="cls-1" d="M200.46,9.61c-2.16-1.11-5.59-2.52-10.02-2.52-7.35,0-11.98,5.29-11.98,11.73s4.58,11.73,11.73,11.73c4.68,0,8.25-1.36,10.52-2.52v7.2c-1.86,1.01-5.99,2.42-11.07,2.42-10.92,0-18.93-8.21-18.93-18.83S178.71,0,189.89,0c5.08,0,8.71,1.51,10.57,2.52v7.1Z"/>
        <path class="cls-1" d="M208.16,36.95V.71h23.31v6.49h-15.55v8.26h13.19v6.24h-13.19v8.76h16.31v6.49h-24.06Z"/>
        <path class="cls-1" d="M269.62,37.5l-19.88-19.08-2.37-2.06v20.59h-7.6V.15h.3l19.83,19.08,2.32,2.06V.71h7.65v36.8h-.25Z"/>
        <path class="cls-1" d="M294.19,7.2v29.75h-7.75V7.2h-10.12V.71h28.04v6.49h-10.17Z"/>
        <path class="cls-1" d="M310.8,36.95V.71h23.31v6.49h-15.55v8.26h13.19v6.24h-13.19v8.76h16.31v6.49h-24.06Z"/>
        <path class="cls-1" d="M355.15.71c8.41,0,13.99,4.18,13.99,11.93,0,5.29-2.97,8.76-6.9,10.32l7.6,13.99h-8.21l-6.39-12.69h-5.24v12.69h-7.6V.71h12.74ZM350.01,7.2v10.82h5.54c3.42,0,5.79-1.71,5.79-5.39s-2.47-5.44-5.99-5.44h-5.34Z"/>
        <path class="cls-1" d="M404.78,9.61c-2.16-1.11-5.59-2.52-10.02-2.52-7.35,0-11.98,5.29-11.98,11.73s4.58,11.73,11.73,11.73c4.68,0,8.25-1.36,10.52-2.52v7.2c-1.86,1.01-5.99,2.42-11.07,2.42-10.92,0-18.93-8.21-18.93-18.83S383.04,0,394.21,0c5.08,0,8.71,1.51,10.57,2.52v7.1Z"/>
        <path class="cls-1" d="M429.15,0c10.92,0,18.98,8.36,18.98,18.83s-8,18.83-18.98,18.83-18.98-8.26-18.98-18.83S418.17,0,429.15,0ZM429.15,30.56c6.54,0,11.17-5.24,11.17-11.73s-4.63-11.73-11.17-11.73-11.18,5.29-11.18,11.73,4.63,11.73,11.18,11.73Z"/>
        <path class="cls-1" d="M485.52,23.76c0,8.46-5.59,13.89-15.15,13.89s-15.15-5.44-15.15-13.89V.71h7.75v22.3c0,4.73,2.67,7.55,7.4,7.55s7.4-2.82,7.4-7.55V.71h7.75v23.05Z"/>
        <path class="cls-1" d="M507.62.71c8.41,0,13.99,4.18,13.99,11.93,0,5.29-2.97,8.76-6.9,10.32l7.6,13.99h-8.21l-6.39-12.69h-5.24v12.69h-7.6V.71h12.74ZM502.49,7.2v10.82h5.54c3.42,0,5.79-1.71,5.79-5.39s-2.47-5.44-5.99-5.44h-5.34Z"/>
        <path class="cls-1" d="M544.22,7.2v29.75h-7.75V7.2h-10.12V.71h28.04v6.49h-10.17Z"/>
      </g>
      <g>
        <path class="cls-1" d="M16.02,124.57h.09l15.65,32.25h-4.81l-3.35-7.05h-15.13l-3.3,7.05H.37l15.65-32.25ZM21.96,146.29c-2.31-4.85-4.05-8.63-5.89-13.13-1.88,4.49-3.63,8.28-5.94,13.13h11.83Z"/>
        <path class="cls-1" d="M55.57,156.82h-4.05l-.09-2.6c0-.97.14-1.63.14-1.63h-.09c-1.23,2.47-4.53,4.76-8.34,4.76-6.22,0-10.94-4.71-10.94-11.54s4.71-11.54,10.84-11.54c3.82,0,6.93,1.94,8.2,4.01h.09s-.14-.66-.14-1.81v-11.37h4.38v31.72ZM36.43,145.8c0,4.58,2.92,7.97,7.31,7.97,3.54,0,7.4-2.47,7.4-7.97s-3.87-7.97-7.4-7.97c-4.38,0-7.31,3.3-7.31,7.97Z"/>
        <path class="cls-1" d="M62.54,135.89c1.32-.66,4.43-1.63,8.3-1.63,6.65,0,9.9,3,9.9,8.5v14.05h-4.05l-.05-2.6c-.05-1.06.14-1.76.14-1.76h-.09c-.28.62-2.88,4.89-8.2,4.89-4.34,0-7.45-2.42-7.45-6.48,0-5.37,5.51-8.06,15.37-6.78v-1.1c0-3.83-2.45-5.15-6.17-5.15-3.25,0-6.27,1.06-7.68,1.85v-3.79ZM76.3,146.95c-7.68-1.15-10.94.79-10.94,3.79,0,1.94,1.51,3.3,3.87,3.3,4.01,0,7.07-3.66,7.07-7.09Z"/>
        <path class="cls-1" d="M87.28,125.1h4.38v25.24c0,2.38.8,3.35,2.73,3.35.94,0,1.79-.18,2.07-.26v3.52c-.28.09-1.46.4-3.16.4-3.49,0-6.03-1.72-6.03-6.17v-26.08Z"/>
        <path class="cls-1" d="M100.95,125.1h4.38v11.37c0,1.15-.14,1.81-.14,1.81h.09c1.27-2.07,4.38-4.01,8.2-4.01,6.13,0,10.84,4.63,10.84,11.54s-4.71,11.54-10.94,11.54c-3.82,0-7.12-2.29-8.34-4.76h-.09s.14.66.14,1.63l-.09,2.6h-4.05v-31.72ZM105.38,145.8c0,5.51,3.87,7.97,7.4,7.97,4.38,0,7.31-3.39,7.31-7.97s-2.92-7.97-7.31-7.97c-3.54,0-7.4,2.47-7.4,7.97Z"/>
        <path class="cls-1" d="M150.44,144.53c0,.88-.09,1.72-.09,2.16h-17.53v.04c.14,4.32,3.25,7.05,8.2,7.05,3.21,0,6.55-.88,8.53-2.07v3.74c-1.84.97-5,1.89-8.81,1.89-7.45,0-12.49-4.71-12.49-11.54s5.04-11.54,11.55-11.54c6.93,0,10.65,4.85,10.65,10.26ZM139.74,137.7c-4.05,0-6.5,2.91-6.88,6.08h13.25c.05-3.17-2.17-6.08-6.36-6.08Z"/>
        <path class="cls-1" d="M155.62,134.79h4.1l.05,3.08c.05.84-.09,1.5-.05,1.63h.05c1.37-3.13,3.86-5.24,7.26-5.24.66,0,1.23.09,1.41.13v3.96c-.19-.04-.61-.13-1.23-.13-4.57,0-7.21,4.71-7.21,8.99v9.6h-4.38v-22.03Z"/>
        <path class="cls-1" d="M174.56,134.79v-6.61h4.29v6.61h7.12v3.35h-7.12v11.41c0,3.13,1.51,4.18,3.49,4.18,1.46,0,3.11-.4,4.43-.97v3.57c-1.04.53-2.97,1.01-5.28,1.01-3.39,0-6.98-1.63-6.98-6.56v-12.64h-3.87v-3.35h3.91Z"/>
        <path class="cls-1" d="M195.82,147.39c-4.2-1.28-7.12-2.95-7.12-6.92,0-3.66,3.54-6.21,8.44-6.21,2.54,0,5.04.62,6.65,1.32v3.7c-1.7-.84-4.05-1.54-6.17-1.54-2.69,0-4.81.88-4.81,2.86,0,1.76,1.65,2.6,4.85,3.57,5,1.54,7.45,3.26,7.45,6.96,0,4.01-3.49,6.21-8.58,6.21-3.06,0-5.8-.62-7.68-1.45v-3.74c2.31,1.06,5.33,1.81,7.54,1.81,2.45,0,4.67-.79,4.67-2.86,0-1.89-1.74-2.64-5.23-3.7Z"/>
        <path class="cls-1" d="M211.42,134.79v-6.61h4.29v6.61h7.12v3.35h-7.12v11.41c0,3.13,1.51,4.18,3.49,4.18,1.46,0,3.11-.4,4.43-.97v3.57c-1.04.53-2.97,1.01-5.28,1.01-3.39,0-6.98-1.63-6.98-6.56v-12.64h-3.87v-3.35h3.91Z"/>
        <path class="cls-1" d="M227.21,134.79h4.1l.05,3.08c.05.84-.09,1.5-.05,1.63h.05c1.37-3.13,3.86-5.24,7.26-5.24.66,0,1.23.09,1.41.13v3.96c-.19-.04-.61-.13-1.23-.13-4.57,0-7.21,4.71-7.21,8.99v9.6h-4.38v-22.03Z"/>
        <path class="cls-1" d="M243.32,135.89c1.32-.66,4.43-1.63,8.3-1.63,6.65,0,9.9,3,9.9,8.5v14.05h-4.05l-.05-2.6c-.05-1.06.14-1.76.14-1.76h-.09c-.28.62-2.88,4.89-8.2,4.89-4.34,0-7.45-2.42-7.45-6.48,0-5.37,5.51-8.06,15.37-6.78v-1.1c0-3.83-2.45-5.15-6.17-5.15-3.25,0-6.27,1.06-7.68,1.85v-3.79ZM257.09,146.95c-7.68-1.15-10.94.79-10.94,3.79,0,1.94,1.51,3.3,3.87,3.3,4.01,0,7.07-3.66,7.07-7.09Z"/>
        <path class="cls-1" d="M268.3,156.82v-22.51c0-3.88,2.59-9.74,11.22-9.74,5.33,0,9.1,2.82,9.1,6.96,0,5.68-8.01,7.44-8.01,9.96,0,1.59,1.37,1.94,4.57,3.13,4.76,1.76,7.31,2.91,7.31,6.74s-3.58,5.99-8.58,5.99c-2.97,0-5.7-.62-7.45-1.45v-3.74c2.26,1.06,5.14,1.81,7.31,1.81,2.31,0,4.57-.84,4.57-2.73s-1.74-2.42-5.14-3.66c-3.96-1.41-6.6-2.51-6.6-5.99,0-4.4,7.78-5.81,7.78-9.78,0-2.25-1.93-3.66-4.9-3.66-4.15,0-6.83,2.64-6.83,6.61v22.07h-4.34Z"/>
        <path class="cls-1" d="M316.99,144.53c0,.88-.09,1.72-.09,2.16h-17.53v.04c.14,4.32,3.25,7.05,8.2,7.05,3.21,0,6.55-.88,8.53-2.07v3.74c-1.84.97-5,1.89-8.81,1.89-7.45,0-12.49-4.71-12.49-11.54s5.04-11.54,11.55-11.54c6.93,0,10.65,4.85,10.65,10.26ZM306.29,137.7c-4.05,0-6.5,2.91-6.88,6.08h13.25c.05-3.17-2.17-6.08-6.36-6.08Z"/>
        <path class="cls-1" d="M346.73,156.82v-7.62h-16.07l11.69-24.1h4.53l-9.85,20.48h9.76v-8.28h4.01v8.28h4.71v3.61h-4.71v7.62h-4.05Z"/>
        <path class="cls-1" d="M373.92,156.82v-7.62h-16.07l11.69-24.1h4.53l-9.85,20.48h9.76v-8.28h4.01v8.28h4.71v3.61h-4.71v7.62h-4.05Z"/>
        <path class="cls-1" d="M387.73,163.42h-3.39l2.88-9.16h4.34l-3.82,9.16Z"/>
        <path class="cls-1" d="M406.91,132.54c0-4.58,4.29-8.02,10.13-8.02s10.13,3.44,10.13,8.02c0,4.18-3.54,7-6.41,8.15,3.3,1.37,7.12,4.19,7.12,8.55,0,4.67-4.52,8.15-10.84,8.15s-10.89-3.48-10.89-8.15c0-4.36,3.77-7.22,7.16-8.55-2.92-1.14-6.41-3.96-6.41-8.15ZM417.04,153.73c3.72,0,6.5-2.11,6.5-4.93s-2.88-5.2-6.5-6.47c-3.63,1.28-6.55,3.66-6.55,6.47s2.83,4.93,6.55,4.93ZM417.04,138.97c3.21-1.28,5.8-3.17,5.8-6.08,0-2.69-2.5-4.76-5.8-4.76s-5.8,2.07-5.8,4.76c0,2.91,2.55,4.8,5.8,6.08Z"/>
        <path class="cls-1" d="M445.93,124.57c7.87,0,12.87,7.05,12.87,16.39s-5,16.39-12.87,16.39-12.87-7.05-12.87-16.39,5-16.39,12.87-16.39ZM445.93,153.42c5.09,0,8.3-5.07,8.3-12.47s-3.21-12.47-8.3-12.47-8.3,5.07-8.3,12.47,3.21,12.47,8.3,12.47Z"/>
        <path class="cls-1" d="M463.79,156.82l13.25-28.06h-15.65v-3.66h21.87l-14.66,31.72h-4.81Z"/>
        <path class="cls-1" d="M486.56,135.14c0-6.08,5-10.62,11.69-10.62s11.5,4.49,11.5,10.79c0,7.84-7.92,17.4-13.76,21.5h-5.99c6.03-4.14,10.46-9.34,12.77-12.95-.85.71-2.54,1.67-5.04,1.67-6.55,0-11.17-4.71-11.17-10.4ZM490.8,135.14c0,4.01,3.06,7,7.45,7s7.45-3,7.45-6.87c0-4.23-3.06-7.18-7.45-7.18s-7.45,3-7.45,7.05Z"/>
        <path class="cls-1" d="M513.51,135.14c0-6.08,5-10.62,11.69-10.62s11.5,4.49,11.5,10.79c0,7.84-7.92,17.4-13.76,21.5h-5.99c6.03-4.14,10.46-9.34,12.77-12.95-.85.71-2.54,1.67-5.04,1.67-6.55,0-11.17-4.71-11.17-10.4ZM517.76,135.14c0,4.01,3.06,7,7.45,7s7.45-3,7.45-6.87c0-4.23-3.06-7.18-7.45-7.18s-7.45,3-7.45,7.05Z"/>
        <path class="cls-1" d="M558.43,136.6l-.9-1.01v21.23h-4.38v-32.25h.05l15.37,17.58,15.41-17.58h.05v32.25h-4.38v-21.23l-.9,1.01-10.18,11.5-10.13-11.5Z"/>
        <path class="cls-1" d="M607.96,156.82l-.09-3.08c0-.92.19-1.59.19-1.67h-.09c-.9,1.98-3.91,5.29-8.77,5.29-5.8,0-8.06-3.22-8.06-8.72v-13.83h4.38v13c0,3.04.57,5.77,4.48,5.77,4.48,0,7.68-3.44,7.68-7.93v-10.84h4.38v22.03h-4.1Z"/>
        <path class="cls-1" d="M623.8,134.79l.09,3.08c0,.92-.14,1.59-.19,1.67h.09c.9-1.98,4.01-5.29,9-5.29,5.8,0,8.06,3.22,8.06,8.72v13.83h-4.38v-13c0-3.04-.57-5.77-4.48-5.77-4.62,0-7.92,3.44-7.92,7.93v10.84h-4.38v-22.03h4.1Z"/>
        <path class="cls-1" d="M649.95,125.89c1.6,0,2.73,1.01,2.73,2.51s-1.13,2.47-2.73,2.47-2.73-1.01-2.73-2.47,1.08-2.51,2.73-2.51ZM652.17,134.79v22.03h-4.38v-22.03h4.38Z"/>
        <path class="cls-1" d="M670.13,153.69c3.25,0,5.7-1.1,7.16-1.94v3.83c-1.41.7-3.72,1.76-7.4,1.76-7.26,0-12.3-4.89-12.3-11.54s5.04-11.54,12.3-11.54c3.63,0,5.84,1.01,7.26,1.72v3.88c-1.65-.97-3.96-1.94-7.02-1.94-4.71,0-8.06,3.26-8.06,7.89s3.3,7.89,8.06,7.89Z"/>
        <path class="cls-1" d="M682.61,125.1h4.34v12.25c0,1.01-.14,1.85-.14,2.2h.05c.99-1.98,3.87-5.29,8.86-5.29,5.8,0,8.06,3.22,8.06,8.72v13.83h-4.38v-13c0-3.04-.57-5.77-4.48-5.77-4.62,0-7.92,3.44-7.92,7.93v10.84h-4.38v-31.72Z"/>
        <path class="cls-1" d="M710.04,163.42h-3.39l2.88-9.16h4.34l-3.82,9.16Z"/>
        <path class="cls-1" d="M746.33,157.34c-10.28,0-17.86-6.96-17.86-16.39s7.68-16.39,18.1-16.39c5.14,0,8.96,1.67,10.09,2.25v4.05c-2.21-1.06-5.75-2.38-10.18-2.38-8.06,0-13.43,5.29-13.43,12.47s5.56,12.51,13.29,12.51c2.4,0,5.19-.48,6.69-1.14v-9.56h4.43v12.16c-2.78,1.41-7.07,2.42-11.12,2.42Z"/>
        <path class="cls-1" d="M783.38,144.53c0,.88-.09,1.72-.09,2.16h-17.53v.04c.14,4.32,3.25,7.05,8.2,7.05,3.21,0,6.55-.88,8.53-2.07v3.74c-1.84.97-5,1.89-8.81,1.89-7.45,0-12.49-4.71-12.49-11.54s5.04-11.54,11.55-11.54c6.93,0,10.65,4.85,10.65,10.26ZM772.68,137.7c-4.05,0-6.5,2.91-6.88,6.08h13.25c.05-3.17-2.17-6.08-6.36-6.08Z"/>
        <path class="cls-1" d="M788.56,134.79h4.1l.05,3.08c.05.84-.09,1.5-.05,1.63h.05c1.37-3.13,3.86-5.24,7.26-5.24.66,0,1.22.09,1.41.13v3.96c-.19-.04-.61-.13-1.23-.13-4.57,0-7.21,4.71-7.21,8.99v9.6h-4.38v-22.03Z"/>
        <path class="cls-1" d="M809.96,134.79l.09,3.08c0,.92-.14,1.59-.19,1.67h.09c1.27-3.04,4.67-5.29,8.63-5.29,3.44,0,6.32,1.81,7.07,5.02h.05c1.46-2.73,4.57-5.02,8.2-5.02,5.84,0,8.25,3.17,8.25,8.72v13.83h-4.38v-13.04c0-3.17-.85-5.73-4.43-5.73-5.04,0-7.12,4.41-7.12,8.55v10.22h-4.38v-13.08c0-2.95-.61-5.68-4.34-5.68-4.95,0-7.26,4.32-7.26,8.55v10.22h-4.38v-22.03h4.1Z"/>
        <path class="cls-1" d="M848.32,135.89c1.32-.66,4.43-1.63,8.3-1.63,6.65,0,9.9,3,9.9,8.5v14.05h-4.05l-.05-2.6c-.05-1.06.14-1.76.14-1.76h-.09c-.28.62-2.88,4.89-8.2,4.89-4.34,0-7.45-2.42-7.45-6.48,0-5.37,5.51-8.06,15.37-6.78v-1.1c0-3.83-2.45-5.15-6.17-5.15-3.25,0-6.27,1.06-7.68,1.85v-3.79ZM862.08,146.95c-7.68-1.15-10.94.79-10.94,3.79,0,1.94,1.51,3.3,3.87,3.3,4.01,0,7.07-3.66,7.07-7.09Z"/>
        <path class="cls-1" d="M877.4,134.79l.09,3.08c0,.92-.14,1.59-.19,1.67h.09c.9-1.98,4.01-5.29,9-5.29,5.8,0,8.06,3.22,8.06,8.72v13.83h-4.38v-13c0-3.04-.57-5.77-4.48-5.77-4.62,0-7.92,3.44-7.92,7.93v10.84h-4.38v-22.03h4.1Z"/>
        <path class="cls-1" d="M897.05,163.25c.52.13,1.37.26,2.54.26,3.77,0,5.66-2.95,7.45-6.96l-9.85-21.76h4.85l3.3,7.97c1.32,3.22,2.73,6.43,3.96,9.65,1.18-2.51,2.88-6.92,4.01-9.65l3.25-7.97h4.85l-9.29,21.01c-3.21,7.22-5.84,11.23-12.07,11.23-1.23,0-2.5-.18-3.02-.4v-3.39Z"/>
        <path class="cls-1" d="M19.65,250.37c9.95,0,17.58,7.18,17.58,16.43s-7.5,16.43-17.58,16.43-17.58-7.18-17.58-16.43,7.54-16.43,17.58-16.43ZM19.65,278.13c6.74,0,11.59-4.89,11.59-11.32s-4.85-11.32-11.59-11.32-11.64,4.93-11.64,11.32,4.9,11.32,11.64,11.32Z"/>
        <path class="cls-1" d="M41.8,260.64h5.28l.09,2.07c.05.92-.14,1.54-.09,1.54h.09c1.13-2.2,4.34-4.18,7.97-4.18,6.17,0,10.98,4.58,10.98,11.58s-4.81,11.59-10.84,11.59c-3.63,0-6.55-1.81-7.78-3.83h-.09s.14.62.14,1.81v11.14h-5.75v-31.72ZM60.66,271.65c0-4.1-2.64-7-6.46-7-3.16,0-6.5,2.25-6.5,7s3.35,7,6.5,7c3.82,0,6.46-2.86,6.46-7Z"/>
        <path class="cls-1" d="M91.76,270.37c0,1.01-.14,1.98-.14,2.38h-16.45c.14,3.7,2.97,5.9,7.31,5.9,3.3,0,6.74-.93,8.34-1.85v4.71c-1.65.84-4.81,1.72-8.77,1.72-7.82,0-12.87-4.8-12.87-11.59s5.14-11.58,11.78-11.58c7.07,0,10.79,4.85,10.79,10.31ZM80.87,264.38c-3.39,0-5.42,2.47-5.7,5.24h11.03c.05-2.78-1.79-5.24-5.33-5.24Z"/>
        <path class="cls-1" d="M101.7,260.64l.14,2.82c0,.84-.19,1.41-.19,1.59h.09c.94-2.03,4.05-4.98,8.53-4.98,5.56,0,8.15,3.13,8.15,8.81v13.79h-5.75v-12.86c0-2.55-.66-4.85-3.87-4.85-3.91,0-6.69,2.91-6.69,6.79v10.92h-5.75v-22.03h5.33Z"/>
        <path class="cls-1" d="M127.29,251.25c1.98,0,3.35,1.19,3.35,3.04s-1.37,3-3.35,3-3.35-1.19-3.35-3,1.32-3.04,3.35-3.04ZM130.17,260.64v22.03h-5.75v-22.03h5.75Z"/>
        <path class="cls-1" d="M142.14,260.64l.14,2.82c0,.84-.19,1.41-.19,1.59h.09c.94-2.03,4.05-4.98,8.53-4.98,5.56,0,8.15,3.13,8.15,8.81v13.79h-5.75v-12.86c0-2.55-.66-4.85-3.87-4.85-3.91,0-6.69,2.91-6.69,6.79v10.92h-5.75v-22.03h5.33Z"/>
        <path class="cls-1" d="M175.93,279.05c6.17.66,9.38,2.42,9.38,6.39,0,4.45-4.81,7.05-11.83,7.05-6.46,0-11.08-1.98-11.08-5.86,0-2.55,2.73-4.62,6.22-5.29-2.07-.26-3.49-1.32-3.49-2.91,0-1.32,1.23-2.64,3.49-3.3-3.35-1.19-5.56-3.79-5.56-7.14,0-4.76,4.38-7.93,9.9-7.93,1.41,0,2.73.18,3.91.57h8.67v3.88h-3.02c-1.04,0-1.13-.13-1.32-.18.94.97,1.56,2.2,1.56,3.66,0,4.32-3.58,7.22-8.39,7.71-2.07.18-3.68.88-3.68,1.63,0,.97,1.6,1.32,5.23,1.72ZM179.61,285.83c0-1.85-1.74-3.13-6.32-3.13-3.16,0-5.37,1.45-5.37,3.21,0,2.03,2.36,3.04,5.66,3.04,3.63,0,6.03-1.23,6.03-3.13ZM177.63,268.13c0-2.38-1.84-4.18-4.67-4.18s-4.62,1.81-4.62,4.18,1.89,4.1,4.62,4.1,4.67-1.72,4.67-4.1Z"/>
        <path class="cls-1" d="M222.02,282.66v-13.74h-15.37v13.74h-5.94v-31.72h5.94v13.35h15.37v-13.35h5.94v31.72h-5.94Z"/>
        <path class="cls-1" d="M257.66,271.65c0,6.65-5.18,11.59-12.35,11.59s-12.35-4.93-12.35-11.59,5.23-11.58,12.35-11.58,12.35,4.93,12.35,11.58ZM252.19,271.65c0-4.14-2.92-7-6.88-7s-6.88,2.86-6.88,7,2.97,7,6.88,7,6.88-2.86,6.88-7Z"/>
        <path class="cls-1" d="M278.34,282.66l-.14-2.78c0-.88.14-1.45.19-1.63h-.09c-.94,2.03-4.01,4.98-8.39,4.98-5.51,0-8.11-3.13-8.11-8.81v-13.79h5.75v12.86c0,2.6.61,4.85,3.82,4.85,3.82,0,6.55-2.91,6.55-6.78v-10.92h5.7v22.03h-5.28Z"/>
        <path class="cls-1" d="M290.03,260.64h5.28c.05.88.09,1.76.09,2.6,0,.75-.05,1.37,0,1.54,1.46-2.69,3.91-4.71,7.17-4.71.71,0,1.32.09,1.46.13v5.2c-.14,0-.66-.18-1.41-.18-4.05,0-6.83,3.83-6.83,7.97v9.47h-5.75v-22.03Z"/>
        <path class="cls-1" d="M313.36,273.59c-4.29-1.23-7.31-2.91-7.31-7.05,0-3.88,3.49-6.47,8.72-6.47,2.97,0,5.61.7,7.12,1.32v4.71c-1.6-.79-3.96-1.5-6.08-1.59-.8,0-1.6.04-2.31.18-1.18.31-2.17.92-2.17,2.07,0,1.41,1.41,2.16,4.29,2.95,5.19,1.5,7.68,3.22,7.68,7.05,0,4.14-3.63,6.48-9.14,6.48-3.35,0-6.08-.71-7.87-1.45v-4.8c2.26,1.1,5.47,1.94,7.73,1.94,2.07,0,4.01-.62,4.01-2.29,0-1.54-1.6-2.16-4.67-3.04Z"/>
        <path class="cls-1" d="M11.21,313.87v31.72h-4.52v-28.06H2.45v-3.66h8.77Z"/>
        <path class="cls-1" d="M32.56,313.34c7.87,0,12.87,7.05,12.87,16.39s-5,16.39-12.87,16.39-12.87-7.05-12.87-16.39,5-16.39,12.87-16.39ZM32.56,342.2c5.09,0,8.3-5.07,8.3-12.47s-3.21-12.47-8.3-12.47-8.3,5.07-8.3,12.47,3.21,12.47,8.3,12.47Z"/>
        <path class="cls-1" d="M53.58,341.14c1.6,0,2.73,1.01,2.73,2.51s-1.13,2.47-2.73,2.47-2.73-1.01-2.73-2.47,1.08-2.51,2.73-2.51Z"/>
        <path class="cls-1" d="M74.6,313.34c7.87,0,12.87,7.05,12.87,16.39s-5,16.39-12.87,16.39-12.87-7.05-12.87-16.39,5-16.39,12.87-16.39ZM74.6,342.2c5.09,0,8.3-5.07,8.3-12.47s-3.21-12.47-8.3-12.47-8.3,5.07-8.3,12.47,3.21,12.47,8.3,12.47Z"/>
        <path class="cls-1" d="M99.06,317.13c-2.88,0-5.56.88-7.17,1.63v-3.88c1.65-.75,4.62-1.54,7.73-1.54,6.65,0,10.84,3.39,10.84,8.41,0,3.7-2.73,6.39-6.17,7.49,3.68,1.01,6.74,3.88,6.74,8.15,0,5.2-4.71,8.72-11.41,8.72-4.1,0-6.5-.88-8.34-1.76v-3.88c1.7.79,4.1,1.85,8.06,1.85,4.2,0,6.98-2.2,6.98-5.33,0-3.79-3.25-6.04-8.86-6.04h-.99v-3.35h1.37c4.48,0,7.92-2.16,7.92-5.42s-2.69-5.07-6.69-5.07Z"/>
        <path class="cls-1" d="M119.14,341.14c1.6,0,2.73,1.01,2.73,2.51s-1.13,2.47-2.73,2.47-2.73-1.01-2.73-2.47,1.08-2.51,2.73-2.51Z"/>
        <path class="cls-1" d="M126.87,315.41c1.93-1.23,4.57-2.07,7.64-2.07,6.69,0,11.03,4.14,11.03,10.04,0,6.43-5.47,11.89-11.83,18.54h13.48v3.66h-22.01c10.13-10.66,15.7-16.3,15.7-22.11,0-3.7-2.55-6.21-6.79-6.21-2.92,0-5.47,1.01-7.21,2.2v-4.05Z"/>
        <path class="cls-1" d="M164.76,313.34c7.87,0,12.87,7.05,12.87,16.39s-5,16.39-12.87,16.39-12.87-7.05-12.87-16.39,5-16.39,12.87-16.39ZM164.76,342.2c5.09,0,8.3-5.07,8.3-12.47s-3.21-12.47-8.3-12.47-8.3,5.07-8.3,12.47,3.21,12.47,8.3,12.47Z"/>
        <path class="cls-1" d="M182.15,315.41c1.93-1.23,4.57-2.07,7.64-2.07,6.69,0,11.03,4.14,11.03,10.04,0,6.43-5.47,11.89-11.83,18.54h13.48v3.66h-22.01c10.13-10.66,15.7-16.3,15.7-22.11,0-3.7-2.55-6.21-6.79-6.21-2.92,0-5.47,1.01-7.21,2.2v-4.05Z"/>
        <path class="cls-1" d="M207.41,340.17c1.89,1.28,4.48,2.16,7.64,2.16,4.52,0,7.82-2.51,7.82-6.61s-3.49-6.43-7.97-6.43c-3.58,0-5.89.93-6.69,1.28l.71-16.7h16.54v3.66h-12.54l-.38,8.72c.66-.22,1.84-.57,3.91-.57,6.22,0,11.08,4.14,11.08,10.4s-5.04,10.04-12.07,10.04c-3.35,0-6.13-.84-8.06-2.07v-3.88Z"/>
        <path class="cls-1" d="M241.63,331.45h14.05v3.39h-14.05v-3.39Z"/>
        <path class="cls-1" d="M279.19,313.87v31.72h-4.52v-28.06h-4.24v-3.66h8.77Z"/>
        <path class="cls-1" d="M287.95,345.59l13.25-28.06h-15.65v-3.66h21.87l-14.66,31.72h-4.81Z"/>
        <path class="cls-1" d="M314.16,341.14c1.6,0,2.73,1.01,2.73,2.51s-1.13,2.47-2.73,2.47-2.73-1.01-2.73-2.47,1.08-2.51,2.73-2.51Z"/>
        <path class="cls-1" d="M335.18,313.34c7.87,0,12.87,7.05,12.87,16.39s-5,16.39-12.87,16.39-12.87-7.05-12.87-16.39,5-16.39,12.87-16.39ZM335.18,342.2c5.09,0,8.3-5.07,8.3-12.47s-3.21-12.47-8.3-12.47-8.3,5.07-8.3,12.47,3.21,12.47,8.3,12.47Z"/>
        <path class="cls-1" d="M359.64,317.13c-2.88,0-5.56.88-7.17,1.63v-3.88c1.65-.75,4.62-1.54,7.73-1.54,6.65,0,10.84,3.39,10.84,8.41,0,3.7-2.73,6.39-6.17,7.49,3.68,1.01,6.74,3.88,6.74,8.15,0,5.2-4.71,8.72-11.41,8.72-4.1,0-6.5-.88-8.34-1.76v-3.88c1.7.79,4.1,1.85,8.06,1.85,4.2,0,6.98-2.2,6.98-5.33,0-3.79-3.25-6.04-8.86-6.04h-.99v-3.35h1.37c4.48,0,7.92-2.16,7.92-5.42s-2.69-5.07-6.69-5.07Z"/>
        <path class="cls-1" d="M379.71,341.14c1.6,0,2.73,1.01,2.73,2.51s-1.13,2.47-2.73,2.47-2.73-1.01-2.73-2.47,1.08-2.51,2.73-2.51Z"/>
        <path class="cls-1" d="M387.44,315.41c1.93-1.23,4.57-2.07,7.64-2.07,6.69,0,11.03,4.14,11.03,10.04,0,6.43-5.47,11.89-11.83,18.54h13.48v3.66h-22.01c10.13-10.66,15.7-16.3,15.7-22.11,0-3.7-2.55-6.21-6.79-6.21-2.92,0-5.47,1.01-7.21,2.2v-4.05Z"/>
        <path class="cls-1" d="M425.34,313.34c7.87,0,12.87,7.05,12.87,16.39s-5,16.39-12.87,16.39-12.87-7.05-12.87-16.39,5-16.39,12.87-16.39ZM425.34,342.2c5.09,0,8.3-5.07,8.3-12.47s-3.21-12.47-8.3-12.47-8.3,5.07-8.3,12.47,3.21,12.47,8.3,12.47Z"/>
        <path class="cls-1" d="M442.72,315.41c1.93-1.23,4.57-2.07,7.64-2.07,6.69,0,11.03,4.14,11.03,10.04,0,6.43-5.47,11.89-11.83,18.54h13.48v3.66h-22.01c10.13-10.66,15.7-16.3,15.7-22.11,0-3.7-2.55-6.21-6.79-6.21-2.92,0-5.47,1.01-7.21,2.2v-4.05Z"/>
        <path class="cls-1" d="M467.99,340.17c1.89,1.28,4.48,2.16,7.64,2.16,4.52,0,7.82-2.51,7.82-6.61s-3.49-6.43-7.97-6.43c-3.58,0-5.89.93-6.69,1.28l.71-16.7h16.54v3.66h-12.54l-.38,8.72c.66-.22,1.84-.57,3.91-.57,6.22,0,11.08,4.14,11.08,10.4s-5.04,10.04-12.07,10.04c-3.35,0-6.13-.84-8.06-2.07v-3.88Z"/>
        <path class="cls-1" d="M10.13,388.29l-.9-1.01v21.23h-4.38v-32.25h.05l15.37,17.58,15.41-17.58h.05v32.25h-4.38v-21.23l-.9,1.01-10.18,11.5-10.13-11.5Z"/>
        <path class="cls-1" d="M65.84,397.5c0,6.65-5.14,11.54-12.16,11.54s-12.11-4.89-12.11-11.54,5.14-11.54,12.11-11.54,12.16,4.89,12.16,11.54ZM61.6,397.5c0-4.67-3.35-7.97-7.92-7.97s-7.87,3.3-7.87,7.97,3.35,7.97,7.87,7.97,7.92-3.3,7.92-7.97Z"/>
        <path class="cls-1" d="M84.17,373.84h4.67l-17.2,37.62h-4.67l17.2-37.62Z"/>
        <path class="cls-1" d="M99.3,388.29l-.9-1.01v21.23h-4.38v-32.25h.05l15.37,17.58,15.41-17.58h.05v32.25h-4.38v-21.23l-.9,1.01-10.18,11.5-10.13-11.5Z"/>
        <path class="cls-1" d="M155.01,397.5c0,6.65-5.14,11.54-12.16,11.54s-12.11-4.89-12.11-11.54,5.14-11.54,12.11-11.54,12.16,4.89,12.16,11.54ZM150.77,397.5c0-4.67-3.35-7.97-7.92-7.97s-7.87,3.3-7.87,7.97,3.35,7.97,7.87,7.97,7.92-3.3,7.92-7.97Z"/>
        <path class="cls-1" d="M164.76,386.49l.09,3.08c0,.92-.14,1.59-.19,1.67h.09c.9-1.98,4.01-5.29,9-5.29,5.8,0,8.06,3.22,8.06,8.72v13.83h-4.38v-13c0-3.04-.57-5.77-4.48-5.77-4.62,0-7.92,3.44-7.92,7.93v10.84h-4.38v-22.03h4.1Z"/>
        <path class="cls-1" d="M198.08,394.37h14.05v3.39h-14.05v-3.39Z"/>
        <path class="cls-1" d="M226.83,407.19v-4.18c2.4,1.1,5.89,2.25,9.57,2.25,4.24,0,7.4-1.63,7.4-4.54s-1.84-4.54-7.54-6.39c-6.5-2.12-9.57-4.71-9.57-9.56,0-5.37,4.81-8.5,11.31-8.5,3.39,0,6.55.84,8.44,1.63v4.01c-1.89-.92-5.14-1.85-8.2-1.85-4.2,0-7.12,1.76-7.12,4.58,0,2.6,1.65,4.45,7.45,6.34,6.5,2.2,9.66,4.67,9.66,9.43,0,5.42-4.48,8.63-11.59,8.63-3.91,0-7.54-.93-9.8-1.85Z"/>
        <path class="cls-1" d="M253.22,387.59c1.32-.66,4.43-1.63,8.3-1.63,6.65,0,9.9,3,9.9,8.5v14.05h-4.05l-.05-2.6c-.05-1.06.14-1.76.14-1.76h-.09c-.28.62-2.88,4.89-8.2,4.89-4.34,0-7.45-2.42-7.45-6.48,0-5.37,5.51-8.06,15.37-6.78v-1.1c0-3.83-2.45-5.15-6.17-5.15-3.25,0-6.27,1.06-7.68,1.85v-3.79ZM266.99,398.64c-7.68-1.15-10.94.79-10.94,3.79,0,1.94,1.51,3.3,3.87,3.3,4.01,0,7.07-3.66,7.07-7.09Z"/>
        <path class="cls-1" d="M290.88,373.84h4.67l-17.2,37.62h-4.67l17.2-37.62Z"/>
        <path class="cls-1" d="M298.28,407.19v-4.18c2.4,1.1,5.89,2.25,9.57,2.25,4.24,0,7.4-1.63,7.4-4.54s-1.84-4.54-7.54-6.39c-6.5-2.12-9.57-4.71-9.57-9.56,0-5.37,4.81-8.5,11.31-8.5,3.39,0,6.55.84,8.44,1.63v4.01c-1.89-.92-5.14-1.85-8.2-1.85-4.2,0-7.12,1.76-7.12,4.58,0,2.6,1.65,4.45,7.45,6.34,6.5,2.2,9.66,4.67,9.66,9.43,0,5.42-4.48,8.63-11.59,8.63-3.91,0-7.54-.93-9.8-1.85Z"/>
        <path class="cls-1" d="M324.67,387.59c1.32-.66,4.43-1.63,8.3-1.63,6.65,0,9.9,3,9.9,8.5v14.05h-4.05l-.05-2.6c-.05-1.06.14-1.76.14-1.76h-.09c-.28.62-2.88,4.89-8.2,4.89-4.34,0-7.45-2.42-7.45-6.48,0-5.37,5.51-8.06,15.37-6.78v-1.1c0-3.83-2.45-5.15-6.17-5.15-3.25,0-6.27,1.06-7.68,1.85v-3.79ZM338.43,398.64c-7.68-1.15-10.94.79-10.94,3.79,0,1.94,1.51,3.3,3.87,3.3,4.01,0,7.07-3.66,7.07-7.09Z"/>
        <path class="cls-1" d="M350.35,386.49v-6.61h4.29v6.61h7.12v3.35h-7.12v11.41c0,3.13,1.51,4.18,3.49,4.18,1.46,0,3.11-.4,4.43-.97v3.57c-1.04.53-2.97,1.01-5.28,1.01-3.39,0-6.98-1.63-6.98-6.56v-12.64h-3.87v-3.35h3.91Z"/>
        <path class="cls-1" d="M384.52,376.79v31.72h-4.52v-28.06h-4.24v-3.66h8.77Z"/>
        <path class="cls-1" d="M405.87,376.26c7.87,0,12.87,7.05,12.87,16.39s-5,16.39-12.87,16.39-12.87-7.05-12.87-16.39,5-16.39,12.87-16.39ZM405.87,405.12c5.09,0,8.3-5.07,8.3-12.47s-3.21-12.47-8.3-12.47-8.3,5.07-8.3,12.47,3.21,12.47,8.3,12.47Z"/>
        <path class="cls-1" d="M433.77,394.37h14.05v3.39h-14.05v-3.39Z"/>
        <path class="cls-1" d="M471.33,376.79v31.72h-4.52v-28.06h-4.24v-3.66h8.77Z"/>
        <path class="cls-1" d="M480.1,384.24c0-4.58,4.29-8.02,10.13-8.02s10.13,3.44,10.13,8.02c0,4.18-3.54,7-6.41,8.15,3.3,1.37,7.12,4.19,7.12,8.55,0,4.67-4.52,8.15-10.84,8.15s-10.89-3.48-10.89-8.15c0-4.36,3.77-7.22,7.16-8.55-2.92-1.14-6.41-3.96-6.41-8.15ZM490.23,405.43c3.72,0,6.5-2.11,6.5-4.93s-2.88-5.2-6.5-6.47c-3.63,1.28-6.55,3.66-6.55,6.47s2.83,4.93,6.55,4.93ZM490.23,390.67c3.21-1.28,5.8-3.17,5.8-6.08,0-2.69-2.5-4.76-5.8-4.76s-5.8,2.07-5.8,4.76c0,2.91,2.55,4.8,5.8,6.08Z"/>
        <path class="cls-1" d="M529.73,408.51v-14.27h-16.83v14.27h-4.53v-31.72h4.53v13.88h16.83v-13.88h4.52v31.72h-4.52Z"/>
        <path class="cls-1" d="M543.3,415.12h-3.39l2.88-9.16h4.34l-3.82,9.16Z"/>
        <path class="cls-1" d="M573.37,407.19v-4.18c2.4,1.1,5.89,2.25,9.57,2.25,4.24,0,7.4-1.63,7.4-4.54s-1.84-4.54-7.54-6.39c-6.5-2.12-9.57-4.71-9.57-9.56,0-5.37,4.81-8.5,11.31-8.5,3.39,0,6.55.84,8.44,1.63v4.01c-1.89-.92-5.14-1.85-8.2-1.85-4.2,0-7.12,1.76-7.12,4.58,0,2.6,1.65,4.45,7.45,6.34,6.5,2.2,9.66,4.67,9.66,9.43,0,5.42-4.48,8.63-11.59,8.63-3.91,0-7.54-.93-9.8-1.85Z"/>
        <path class="cls-1" d="M622.06,397.5c0,6.65-5.14,11.54-12.16,11.54s-12.11-4.89-12.11-11.54,5.14-11.54,12.11-11.54,12.16,4.89,12.16,11.54ZM617.81,397.5c0-4.67-3.35-7.97-7.92-7.97s-7.87,3.3-7.87,7.97,3.35,7.97,7.87,7.97,7.92-3.3,7.92-7.97Z"/>
        <path class="cls-1" d="M640.39,373.84h4.67l-17.2,37.62h-4.67l17.2-37.62Z"/>
        <path class="cls-1" d="M647.78,407.19v-4.18c2.4,1.1,5.89,2.25,9.57,2.25,4.24,0,7.4-1.63,7.4-4.54s-1.84-4.54-7.54-6.39c-6.5-2.12-9.57-4.71-9.57-9.56,0-5.37,4.81-8.5,11.31-8.5,3.39,0,6.55.84,8.44,1.63v4.01c-1.89-.92-5.14-1.85-8.2-1.85-4.2,0-7.12,1.76-7.12,4.58,0,2.6,1.65,4.45,7.45,6.34,6.5,2.2,9.66,4.67,9.66,9.43,0,5.42-4.48,8.63-11.59,8.63-3.91,0-7.54-.93-9.8-1.85Z"/>
        <path class="cls-1" d="M690.3,408.51l-.09-3.08c0-.92.19-1.59.19-1.67h-.09c-.9,1.98-3.91,5.29-8.77,5.29-5.8,0-8.06-3.22-8.06-8.72v-13.83h4.38v13c0,3.04.57,5.77,4.48,5.77,4.48,0,7.68-3.44,7.68-7.93v-10.84h4.38v22.03h-4.1Z"/>
        <path class="cls-1" d="M706.13,386.49l.09,3.08c0,.92-.14,1.59-.19,1.67h.09c.9-1.98,4.01-5.29,9-5.29,5.8,0,8.06,3.22,8.06,8.72v13.83h-4.38v-13c0-3.04-.57-5.77-4.48-5.77-4.62,0-7.92,3.44-7.92,7.93v10.84h-4.38v-22.03h4.1Z"/>
        <path class="cls-1" d="M748.17,376.79v31.72h-4.52v-28.06h-4.24v-3.66h8.77Z"/>
        <path class="cls-1" d="M769.52,376.26c7.87,0,12.87,7.05,12.87,16.39s-5,16.39-12.87,16.39-12.87-7.05-12.87-16.39,5-16.39,12.87-16.39ZM769.52,405.12c5.09,0,8.3-5.07,8.3-12.47s-3.21-12.47-8.3-12.47-8.3,5.07-8.3,12.47,3.21,12.47,8.3,12.47Z"/>
        <path class="cls-1" d="M797.42,394.37h14.05v3.39h-14.05v-3.39Z"/>
        <path class="cls-1" d="M825.37,376.79v31.72h-4.52v-28.06h-4.24v-3.66h8.77Z"/>
        <path class="cls-1" d="M857.09,398.47c0,6.08-5,10.57-11.69,10.57s-11.55-4.41-11.55-10.75c0-7.8,7.97-17.4,13.81-21.5h5.99c-6.03,4.14-10.46,9.34-12.77,12.95.85-.71,2.54-1.67,5.04-1.67,6.55,0,11.17,4.71,11.17,10.4ZM852.84,398.47c0-4.01-3.06-7-7.45-7s-7.45,3-7.45,6.87c0,4.23,3.06,7.14,7.45,7.14s7.45-2.95,7.45-7Z"/>
        <path class="cls-1" d="M885.74,408.51v-14.27h-16.83v14.27h-4.53v-31.72h4.53v13.88h16.83v-13.88h4.52v31.72h-4.52Z"/>
        <path class="cls-1" d="M19.65,502.07c9.95,0,17.58,7.18,17.58,16.43s-7.5,16.43-17.58,16.43-17.58-7.18-17.58-16.43,7.54-16.43,17.58-16.43ZM19.65,529.82c6.74,0,11.59-4.89,11.59-11.32s-4.85-11.32-11.59-11.32-11.64,4.93-11.64,11.32,4.9,11.32,11.64,11.32Z"/>
        <path class="cls-1" d="M41.8,512.33h5.28l.09,2.07c.05.92-.14,1.54-.09,1.54h.09c1.13-2.2,4.34-4.18,7.97-4.18,6.17,0,10.98,4.58,10.98,11.58s-4.81,11.59-10.84,11.59c-3.63,0-6.55-1.81-7.78-3.83h-.09s.14.62.14,1.81v11.14h-5.75v-31.72ZM60.66,523.35c0-4.1-2.64-7-6.46-7-3.16,0-6.5,2.25-6.5,7s3.35,7,6.5,7c3.82,0,6.46-2.86,6.46-7Z"/>
        <path class="cls-1" d="M91.76,522.07c0,1.01-.14,1.98-.14,2.38h-16.45c.14,3.7,2.97,5.9,7.31,5.9,3.3,0,6.74-.93,8.34-1.85v4.71c-1.65.84-4.81,1.72-8.77,1.72-7.82,0-12.87-4.8-12.87-11.59s5.14-11.58,11.78-11.58c7.07,0,10.79,4.85,10.79,10.31ZM80.87,516.08c-3.39,0-5.42,2.47-5.7,5.24h11.03c.05-2.78-1.79-5.24-5.33-5.24Z"/>
        <path class="cls-1" d="M101.7,512.33l.14,2.82c0,.84-.19,1.41-.19,1.59h.09c.94-2.03,4.05-4.98,8.53-4.98,5.56,0,8.15,3.13,8.15,8.81v13.79h-5.75v-12.86c0-2.55-.66-4.85-3.87-4.85-3.91,0-6.69,2.91-6.69,6.79v10.92h-5.75v-22.03h5.33Z"/>
        <path class="cls-1" d="M127.29,502.95c1.98,0,3.35,1.19,3.35,3.04s-1.37,3-3.35,3-3.35-1.19-3.35-3,1.32-3.04,3.35-3.04ZM130.17,512.33v22.03h-5.75v-22.03h5.75Z"/>
        <path class="cls-1" d="M142.14,512.33l.14,2.82c0,.84-.19,1.41-.19,1.59h.09c.94-2.03,4.05-4.98,8.53-4.98,5.56,0,8.15,3.13,8.15,8.81v13.79h-5.75v-12.86c0-2.55-.66-4.85-3.87-4.85-3.91,0-6.69,2.91-6.69,6.79v10.92h-5.75v-22.03h5.33Z"/>
        <path class="cls-1" d="M175.93,530.75c6.17.66,9.38,2.42,9.38,6.39,0,4.45-4.81,7.05-11.83,7.05-6.46,0-11.08-1.98-11.08-5.86,0-2.55,2.73-4.62,6.22-5.29-2.07-.26-3.49-1.32-3.49-2.91,0-1.32,1.23-2.64,3.49-3.3-3.35-1.19-5.56-3.79-5.56-7.14,0-4.76,4.38-7.93,9.9-7.93,1.41,0,2.73.18,3.91.57h8.67v3.88h-3.02c-1.04,0-1.13-.13-1.32-.18.94.97,1.56,2.2,1.56,3.66,0,4.32-3.58,7.22-8.39,7.71-2.07.18-3.68.88-3.68,1.63,0,.97,1.6,1.32,5.23,1.72ZM179.61,537.53c0-1.85-1.74-3.13-6.32-3.13-3.16,0-5.37,1.45-5.37,3.21,0,2.03,2.36,3.04,5.66,3.04,3.63,0,6.03-1.23,6.03-3.13ZM177.63,519.82c0-2.38-1.84-4.18-4.67-4.18s-4.62,1.81-4.62,4.18,1.89,4.1,4.62,4.1,4.67-1.72,4.67-4.1Z"/>
        <path class="cls-1" d="M212.17,502.64c7.68,0,12.54,3.61,12.54,10.09,0,4.67-3.02,7.75-6.69,8.94l7.4,12.69h-6.36l-6.5-11.76h-5.99v11.76h-5.84v-31.72h11.45ZM206.56,507.31v10.79h5.94c3.82,0,6.27-1.89,6.27-5.37s-2.55-5.42-6.55-5.42h-5.66Z"/>
        <path class="cls-1" d="M250.11,522.07c0,1.01-.14,1.98-.14,2.38h-16.45c.14,3.7,2.97,5.9,7.31,5.9,3.3,0,6.74-.93,8.34-1.85v4.71c-1.65.84-4.81,1.72-8.77,1.72-7.82,0-12.87-4.8-12.87-11.59s5.14-11.58,11.78-11.58c7.07,0,10.79,4.85,10.79,10.31ZM239.23,516.08c-3.39,0-5.42,2.47-5.7,5.24h11.03c.05-2.78-1.79-5.24-5.33-5.24Z"/>
        <path class="cls-1" d="M266.14,530.22c3.02,0,5.51-1.19,6.69-1.89v4.89c-1.18.57-3.58,1.72-7.31,1.72-7.4,0-12.44-4.93-12.44-11.59s5.04-11.58,12.44-11.58c3.72,0,5.99,1.1,7.16,1.67v4.93c-1.46-.93-3.82-1.89-6.55-1.89-4.24,0-7.21,2.78-7.21,6.87s2.92,6.87,7.21,6.87Z"/>
        <path class="cls-1" d="M298.14,522.07c0,1.01-.14,1.98-.14,2.38h-16.45c.14,3.7,2.97,5.9,7.31,5.9,3.3,0,6.74-.93,8.34-1.85v4.71c-1.65.84-4.81,1.72-8.77,1.72-7.82,0-12.87-4.8-12.87-11.59s5.14-11.58,11.78-11.58c7.07,0,10.79,4.85,10.79,10.31ZM287.25,516.08c-3.39,0-5.42,2.47-5.7,5.24h11.03c.05-2.78-1.79-5.24-5.33-5.24Z"/>
        <path class="cls-1" d="M302.8,512.33h5.28l.09,2.07c.05.92-.14,1.54-.09,1.54h.09c1.13-2.2,4.34-4.18,7.97-4.18,6.17,0,10.98,4.58,10.98,11.58s-4.81,11.59-10.84,11.59c-3.63,0-6.55-1.81-7.78-3.83h-.09s.14.62.14,1.81v11.14h-5.75v-31.72ZM321.66,523.35c0-4.1-2.64-7-6.46-7-3.16,0-6.5,2.25-6.5,7s3.35,7,6.5,7c3.82,0,6.46-2.86,6.46-7Z"/>
        <path class="cls-1" d="M332.26,512.33v-6.61h5.56v6.61h6.69v4.27h-6.69v10.09c0,2.73,1.51,3.66,3.25,3.66,1.46,0,3.06-.44,4.24-.93v4.49c-1.08.53-3.11,1.01-5.66,1.01-3.58,0-7.16-1.63-7.45-6.39,0-.71-.05-1.45-.05-2.2v-9.73h-3.58v-4.27h3.68Z"/>
        <path class="cls-1" d="M351.63,502.95c1.98,0,3.35,1.19,3.35,3.04s-1.37,3-3.35,3-3.35-1.19-3.35-3,1.32-3.04,3.35-3.04ZM354.5,512.33v22.03h-5.75v-22.03h5.75Z"/>
        <path class="cls-1" d="M383.96,523.35c0,6.65-5.18,11.59-12.35,11.59s-12.35-4.93-12.35-11.59,5.23-11.58,12.35-11.58,12.35,4.93,12.35,11.58ZM378.49,523.35c0-4.14-2.92-7-6.88-7s-6.88,2.86-6.88,7,2.97,7,6.88,7,6.88-2.86,6.88-7Z"/>
        <path class="cls-1" d="M394,512.33l.14,2.82c0,.84-.19,1.41-.19,1.59h.09c.94-2.03,4.05-4.98,8.53-4.98,5.56,0,8.15,3.13,8.15,8.81v13.79h-5.75v-12.86c0-2.55-.66-4.85-3.87-4.85-3.91,0-6.69,2.91-6.69,6.79v10.92h-5.75v-22.03h5.33Z"/>
        <path class="cls-1" d="M444.38,514.14l-.9-1.01v21.23h-4.38v-32.25h.05l15.37,17.58,15.41-17.58h.05v32.25h-4.38v-21.23l-.9,1.01-10.18,11.5-10.13-11.5Z"/>
        <path class="cls-1" d="M500.09,523.35c0,6.65-5.14,11.54-12.16,11.54s-12.11-4.89-12.11-11.54,5.14-11.54,12.11-11.54,12.16,4.89,12.16,11.54ZM495.84,523.35c0-4.67-3.35-7.97-7.92-7.97s-7.87,3.3-7.87,7.97,3.35,7.97,7.87,7.97,7.92-3.3,7.92-7.97Z"/>
        <path class="cls-1" d="M518.42,499.69h4.67l-17.2,37.62h-4.67l17.2-37.62Z"/>
        <path class="cls-1" d="M533.55,514.14l-.9-1.01v21.23h-4.38v-32.25h.05l15.37,17.58,15.41-17.58h.05v32.25h-4.38v-21.23l-.9,1.01-10.18,11.5-10.13-11.5Z"/>
        <path class="cls-1" d="M589.26,523.35c0,6.65-5.14,11.54-12.16,11.54s-12.11-4.89-12.11-11.54,5.14-11.54,12.11-11.54,12.16,4.89,12.16,11.54ZM585.01,523.35c0-4.67-3.35-7.97-7.92-7.97s-7.87,3.3-7.87,7.97,3.35,7.97,7.87,7.97,7.92-3.3,7.92-7.97Z"/>
        <path class="cls-1" d="M599.01,512.33l.09,3.08c0,.92-.14,1.59-.19,1.67h.09c.9-1.98,4.01-5.29,9-5.29,5.8,0,8.06,3.22,8.06,8.72v13.83h-4.38v-13c0-3.04-.57-5.77-4.48-5.77-4.62,0-7.92,3.44-7.92,7.93v10.84h-4.38v-22.03h4.1Z"/>
        <path class="cls-1" d="M641.05,502.64v31.72h-4.52v-28.06h-4.24v-3.66h8.77Z"/>
        <path class="cls-1" d="M662.4,502.11c7.87,0,12.87,7.05,12.87,16.39s-5,16.39-12.87,16.39-12.87-7.05-12.87-16.39,5-16.39,12.87-16.39ZM662.4,530.97c5.09,0,8.3-5.07,8.3-12.47s-3.21-12.47-8.3-12.47-8.3,5.07-8.3,12.47,3.21,12.47,8.3,12.47Z"/>
        <path class="cls-1" d="M683.42,529.91c1.6,0,2.73,1.01,2.73,2.51s-1.13,2.47-2.73,2.47-2.73-1.01-2.73-2.47,1.08-2.51,2.73-2.51Z"/>
        <path class="cls-1" d="M704.44,502.11c7.87,0,12.87,7.05,12.87,16.39s-5,16.39-12.87,16.39-12.87-7.05-12.87-16.39,5-16.39,12.87-16.39ZM704.44,530.97c5.09,0,8.3-5.07,8.3-12.47s-3.21-12.47-8.3-12.47-8.3,5.07-8.3,12.47,3.21,12.47,8.3,12.47Z"/>
        <path class="cls-1" d="M728.9,505.9c-2.88,0-5.56.88-7.17,1.63v-3.88c1.65-.75,4.62-1.54,7.73-1.54,6.65,0,10.84,3.39,10.84,8.41,0,3.7-2.73,6.39-6.17,7.49,3.68,1.01,6.74,3.88,6.74,8.15,0,5.2-4.71,8.72-11.41,8.72-4.1,0-6.5-.88-8.34-1.76v-3.88c1.7.79,4.1,1.85,8.06,1.85,4.2,0,6.98-2.2,6.98-5.33,0-3.79-3.25-6.04-8.86-6.04h-.99v-3.35h1.37c4.48,0,7.92-2.16,7.92-5.42s-2.69-5.07-6.69-5.07Z"/>
        <path class="cls-1" d="M748.97,529.91c1.6,0,2.73,1.01,2.73,2.51s-1.13,2.47-2.73,2.47-2.73-1.01-2.73-2.47,1.08-2.51,2.73-2.51Z"/>
        <path class="cls-1" d="M756.7,504.18c1.93-1.23,4.57-2.07,7.64-2.07,6.69,0,11.03,4.14,11.03,10.04,0,6.43-5.47,11.89-11.83,18.54h13.48v3.66h-22.01c10.13-10.66,15.7-16.3,15.7-22.11,0-3.7-2.55-6.21-6.79-6.21-2.92,0-5.47,1.01-7.21,2.2v-4.05Z"/>
        <path class="cls-1" d="M794.59,502.11c7.87,0,12.87,7.05,12.87,16.39s-5,16.39-12.87,16.39-12.87-7.05-12.87-16.39,5-16.39,12.87-16.39ZM794.59,530.97c5.09,0,8.3-5.07,8.3-12.47s-3.21-12.47-8.3-12.47-8.3,5.07-8.3,12.47,3.21,12.47,8.3,12.47Z"/>
        <path class="cls-1" d="M811.98,504.18c1.93-1.23,4.57-2.07,7.64-2.07,6.69,0,11.03,4.14,11.03,10.04,0,6.43-5.47,11.89-11.83,18.54h13.48v3.66h-22.01c10.13-10.66,15.7-16.3,15.7-22.11,0-3.7-2.55-6.21-6.79-6.21-2.92,0-5.47,1.01-7.21,2.2v-4.05Z"/>
        <path class="cls-1" d="M837.25,528.94c1.89,1.28,4.48,2.16,7.64,2.16,4.52,0,7.82-2.51,7.82-6.61s-3.49-6.43-7.97-6.43c-3.58,0-5.89.93-6.69,1.28l.71-16.7h16.54v3.66h-12.54l-.38,8.72c.66-.22,1.84-.57,3.91-.57,6.22,0,11.08,4.14,11.08,10.4s-5.04,10.04-12.07,10.04c-3.35,0-6.13-.84-8.06-2.07v-3.88Z"/>
        <path class="cls-1" d="M880.18,502.64v31.72h-4.52v-28.06h-4.24v-3.66h8.77Z"/>
        <path class="cls-1" d="M888.95,534.36l13.25-28.06h-15.65v-3.66h21.87l-14.66,31.72h-4.81Z"/>
        <path class="cls-1" d="M936.12,534.36v-14.27h-16.83v14.27h-4.53v-31.72h4.53v13.88h16.83v-13.88h4.52v31.72h-4.52Z"/>
        <path class="cls-1" d="M29.97,635.32c-2.12-1.01-5.47-2.29-9.71-2.29-7.31,0-12.21,4.93-12.21,11.32s4.9,11.32,12.07,11.32c4.53,0,7.97-1.23,10.09-2.25v5.15c-1.41.75-5.28,2.2-10.32,2.2-10.23,0-17.82-7.05-17.82-16.43s7.59-16.43,17.96-16.43c4.9,0,8.53,1.5,9.95,2.25v5.15Z"/>
        <path class="cls-1" d="M50.47,660.21l-.14-2.78c0-.88.14-1.45.19-1.63h-.09c-.94,2.03-4.01,4.98-8.39,4.98-5.51,0-8.11-3.13-8.11-8.81v-13.79h5.75v12.86c0,2.6.61,4.85,3.82,4.85,3.82,0,6.55-2.91,6.55-6.78v-10.93h5.7v22.03h-5.28Z"/>
        <path class="cls-1" d="M62.16,638.18h5.28c.05.88.09,1.76.09,2.6,0,.75-.05,1.37,0,1.54,1.46-2.69,3.91-4.71,7.17-4.71.71,0,1.32.09,1.46.13v5.2c-.14,0-.66-.18-1.41-.18-4.05,0-6.83,3.83-6.83,7.97v9.47h-5.75v-22.03Z"/>
        <path class="cls-1" d="M79.03,639.19c1.32-.66,4.48-1.59,8.48-1.59,6.98,0,10.42,3.13,10.42,8.63v13.96h-5.23l-.09-2.29c-.05-1.01.09-1.67.09-1.67h-.09c-.42.97-2.92,4.54-7.73,4.54-4.2,0-7.49-2.34-7.49-6.56,0-5.42,5.7-8.06,14.85-6.87v-.84c0-3.22-2.17-4.32-5.61-4.32-3.11,0-6.08.97-7.59,1.85v-4.85ZM92.09,650.52c-6.46-.97-9.19.75-9.19,3.26,0,1.67,1.27,2.82,3.25,2.82,3.39,0,5.94-3,5.94-6.08Z"/>
        <path class="cls-1" d="M104.39,638.18v-6.61h5.56v6.61h6.69v4.27h-6.69v10.09c0,2.73,1.51,3.66,3.25,3.66,1.46,0,3.06-.44,4.24-.92v4.49c-1.08.53-3.11,1.01-5.66,1.01-3.58,0-7.16-1.63-7.45-6.39,0-.7-.05-1.45-.05-2.2v-9.74h-3.58v-4.27h3.68Z"/>
        <path class="cls-1" d="M143.93,649.19c0,6.65-5.18,11.59-12.35,11.59s-12.35-4.93-12.35-11.59,5.23-11.59,12.35-11.59,12.35,4.93,12.35,11.59ZM138.46,649.19c0-4.14-2.92-7-6.88-7s-6.88,2.86-6.88,7,2.97,7,6.88,7,6.88-2.86,6.88-7Z"/>
        <path class="cls-1" d="M148.41,638.18h5.28c.05.88.09,1.76.09,2.6,0,.75-.05,1.37,0,1.54,1.46-2.69,3.91-4.71,7.17-4.71.71,0,1.32.09,1.46.13v5.2c-.14,0-.66-.18-1.41-.18-4.05,0-6.83,3.83-6.83,7.97v9.47h-5.75v-22.03Z"/>
        <path class="cls-1" d="M179.28,625.54h6.08l-17.25,37.62h-6.08l17.25-37.62Z"/>
        <path class="cls-1" d="M189.97,660.21v-31.72h10.32c11.22,0,18.52,6.48,18.52,15.86s-7.21,15.86-18.38,15.86h-10.46ZM195.91,633.16v22.38h4.48c7.59,0,12.44-4.63,12.44-11.19s-4.86-11.19-12.58-11.19h-4.34Z"/>
        <path class="cls-1" d="M226.22,628.8c1.98,0,3.35,1.19,3.35,3.04s-1.37,3-3.35,3-3.35-1.19-3.35-3,1.32-3.04,3.35-3.04ZM229.09,638.18v22.03h-5.75v-22.03h5.75Z"/>
        <path class="cls-1" d="M235.5,638.18h5.28c.05.88.09,1.76.09,2.6,0,.75-.05,1.37,0,1.54,1.46-2.69,3.91-4.71,7.17-4.71.71,0,1.32.09,1.46.13v5.2c-.14,0-.66-.18-1.41-.18-4.05,0-6.83,3.83-6.83,7.97v9.47h-5.75v-22.03Z"/>
        <path class="cls-1" d="M273.96,647.92c0,1.01-.14,1.98-.14,2.38h-16.45c.14,3.7,2.97,5.9,7.31,5.9,3.3,0,6.74-.92,8.34-1.85v4.71c-1.65.84-4.81,1.72-8.77,1.72-7.82,0-12.87-4.8-12.87-11.59s5.14-11.59,11.78-11.59c7.07,0,10.79,4.85,10.79,10.31ZM263.07,641.92c-3.39,0-5.42,2.47-5.7,5.24h11.03c.05-2.78-1.79-5.24-5.33-5.24Z"/>
        <path class="cls-1" d="M289.98,656.07c3.02,0,5.51-1.19,6.69-1.89v4.89c-1.18.57-3.58,1.72-7.31,1.72-7.4,0-12.44-4.93-12.44-11.59s5.04-11.59,12.44-11.59c3.72,0,5.99,1.1,7.16,1.67v4.93c-1.46-.92-3.82-1.89-6.55-1.89-4.24,0-7.21,2.78-7.21,6.87s2.92,6.87,7.21,6.87Z"/>
        <path class="cls-1" d="M302.19,638.18v-6.61h5.56v6.61h6.69v4.27h-6.69v10.09c0,2.73,1.51,3.66,3.25,3.66,1.46,0,3.06-.44,4.24-.92v4.49c-1.08.53-3.11,1.01-5.66,1.01-3.58,0-7.16-1.63-7.45-6.39,0-.7-.05-1.45-.05-2.2v-9.74h-3.58v-4.27h3.68Z"/>
        <path class="cls-1" d="M341.73,649.19c0,6.65-5.18,11.59-12.35,11.59s-12.35-4.93-12.35-11.59,5.23-11.59,12.35-11.59,12.35,4.93,12.35,11.59ZM336.26,649.19c0-4.14-2.92-7-6.88-7s-6.88,2.86-6.88,7,2.97,7,6.88,7,6.88-2.86,6.88-7Z"/>
        <path class="cls-1" d="M346.21,638.18h5.28c.05.88.09,1.76.09,2.6,0,.75-.05,1.37,0,1.54,1.46-2.69,3.91-4.71,7.17-4.71.71,0,1.32.09,1.46.13v5.2c-.14,0-.66-.18-1.41-.18-4.05,0-6.83,3.83-6.83,7.97v9.47h-5.75v-22.03Z"/>
        <path class="cls-1" d="M416.43,658.89v-4.19c2.4,1.1,5.89,2.25,9.57,2.25,4.24,0,7.4-1.63,7.4-4.54s-1.84-4.54-7.54-6.39c-6.5-2.12-9.57-4.71-9.57-9.56,0-5.37,4.81-8.5,11.31-8.5,3.39,0,6.55.84,8.44,1.63v4.01c-1.89-.92-5.14-1.85-8.2-1.85-4.2,0-7.12,1.76-7.12,4.58,0,2.6,1.65,4.45,7.45,6.34,6.5,2.2,9.66,4.67,9.66,9.43,0,5.42-4.48,8.63-11.59,8.63-3.91,0-7.54-.92-9.8-1.85Z"/>
        <path class="cls-1" d="M465.12,649.19c0,6.65-5.14,11.54-12.16,11.54s-12.11-4.89-12.11-11.54,5.14-11.54,12.11-11.54,12.16,4.89,12.16,11.54ZM460.88,649.19c0-4.67-3.35-7.97-7.92-7.97s-7.87,3.3-7.87,7.97,3.35,7.97,7.87,7.97,7.92-3.3,7.92-7.97Z"/>
        <path class="cls-1" d="M470.82,638.18h4.05l.09,2.29c0,.97-.14,1.63-.14,1.63h.09c1.22-2.29,4.52-4.45,8.34-4.45,6.22,0,10.93,4.71,10.93,11.54s-4.71,11.54-10.84,11.54c-3.82,0-6.93-2.07-8.2-4.32h-.09s.14.66.14,1.81v11.67h-4.38v-31.72ZM489.95,649.19c0-4.58-2.92-7.97-7.31-7.97-3.54,0-7.4,2.47-7.4,7.97s3.87,7.97,7.4,7.97c4.38,0,7.31-3.3,7.31-7.97Z"/>
        <path class="cls-1" d="M499.85,628.49h4.34v12.25c0,1.01-.14,1.85-.14,2.2h.05c.99-1.98,3.87-5.29,8.86-5.29,5.8,0,8.06,3.22,8.06,8.72v13.83h-4.38v-13c0-3.04-.57-5.77-4.48-5.77-4.62,0-7.92,3.44-7.92,7.93v10.84h-4.38v-31.72Z"/>
        <path class="cls-1" d="M530.11,629.28c1.6,0,2.73,1.01,2.73,2.51s-1.13,2.47-2.73,2.47-2.73-1.01-2.73-2.47,1.08-2.51,2.73-2.51ZM532.32,638.18v22.03h-4.38v-22.03h4.38Z"/>
        <path class="cls-1" d="M560.18,647.92c0,.88-.09,1.72-.09,2.16h-17.53v.04c.14,4.32,3.25,7.05,8.2,7.05,3.21,0,6.55-.88,8.53-2.07v3.74c-1.84.97-5,1.89-8.81,1.89-7.45,0-12.49-4.71-12.49-11.54s5.04-11.54,11.55-11.54c6.93,0,10.65,4.85,10.65,10.26ZM549.48,641.09c-4.05,0-6.5,2.91-6.88,6.08h13.25c.05-3.17-2.17-6.08-6.36-6.08Z"/>
        <path class="cls-1" d="M563.52,646.07h14.05v3.39h-14.05v-3.39Z"/>
        <path class="cls-1" d="M610.46,634.26c-2.21-1.06-5.75-2.38-10.09-2.38-7.73,0-13.29,5.29-13.29,12.47s5.56,12.47,13.29,12.47c4.57,0,8.11-1.28,10.32-2.33v4.01c-1.13.62-4.95,2.25-10.32,2.25-10.28,0-17.86-6.96-17.86-16.39s7.59-16.39,17.86-16.39c5.14,0,8.96,1.67,10.09,2.29v4.01Z"/>
        <path class="cls-1" d="M615.46,628.49h4.34v12.25c0,1.01-.14,1.85-.14,2.2h.05c.99-1.98,3.87-5.29,8.86-5.29,5.8,0,8.06,3.22,8.06,8.72v13.83h-4.38v-13c0-3.04-.57-5.77-4.48-5.77-4.62,0-7.92,3.44-7.92,7.93v10.84h-4.38v-31.72Z"/>
        <path class="cls-1" d="M642.84,639.28c1.32-.66,4.43-1.63,8.3-1.63,6.65,0,9.9,3,9.9,8.5v14.05h-4.05l-.05-2.6c-.05-1.06.14-1.76.14-1.76h-.09c-.28.62-2.88,4.89-8.2,4.89-4.34,0-7.45-2.42-7.45-6.48,0-5.37,5.51-8.06,15.37-6.78v-1.1c0-3.83-2.45-5.15-6.17-5.15-3.25,0-6.27,1.06-7.68,1.85v-3.79ZM656.6,650.34c-7.68-1.14-10.94.79-10.94,3.79,0,1.94,1.51,3.3,3.87,3.3,4.01,0,7.07-3.66,7.07-7.09Z"/>
        <path class="cls-1" d="M667.49,638.18h4.1l.05,3.08c.05.84-.09,1.5-.05,1.63h.05c1.37-3.13,3.86-5.24,7.26-5.24.66,0,1.22.09,1.41.13v3.96c-.19-.04-.61-.13-1.23-.13-4.57,0-7.21,4.71-7.21,8.99v9.6h-4.38v-22.03Z"/>
        <path class="cls-1" d="M684.78,628.49h4.38v25.24c0,2.38.8,3.35,2.73,3.35.94,0,1.79-.18,2.07-.26v3.52c-.28.09-1.46.4-3.16.4-3.49,0-6.03-1.72-6.03-6.17v-26.08Z"/>
        <path class="cls-1" d="M720.75,649.19c0,6.65-5.14,11.54-12.16,11.54s-12.11-4.89-12.11-11.54,5.14-11.54,12.11-11.54,12.16,4.89,12.16,11.54ZM716.5,649.19c0-4.67-3.35-7.97-7.92-7.97s-7.87,3.3-7.87,7.97,3.35,7.97,7.87,7.97,7.92-3.3,7.92-7.97Z"/>
        <path class="cls-1" d="M726.87,638.18v-6.61h4.29v6.61h7.12v3.35h-7.12v11.41c0,3.13,1.51,4.19,3.49,4.19,1.46,0,3.11-.4,4.43-.97v3.57c-1.04.53-2.97,1.01-5.28,1.01-3.39,0-6.98-1.63-6.98-6.56v-12.64h-3.87v-3.35h3.91Z"/>
        <path class="cls-1" d="M743.7,638.18v-6.61h4.29v6.61h7.12v3.35h-7.12v11.41c0,3.13,1.51,4.19,3.49,4.19,1.46,0,3.11-.4,4.43-.97v3.57c-1.04.53-2.97,1.01-5.28,1.01-3.39,0-6.98-1.63-6.98-6.56v-12.64h-3.87v-3.35h3.91Z"/>
        <path class="cls-1" d="M780.03,647.92c0,.88-.09,1.72-.09,2.16h-17.53v.04c.14,4.32,3.25,7.05,8.2,7.05,3.21,0,6.55-.88,8.53-2.07v3.74c-1.84.97-5,1.89-8.81,1.89-7.45,0-12.49-4.71-12.49-11.54s5.04-11.54,11.55-11.54c6.93,0,10.65,4.85,10.65,10.26ZM769.33,641.09c-4.05,0-6.5,2.91-6.88,6.08h13.25c.05-3.17-2.17-6.08-6.36-6.08Z"/>
        <path class="cls-1" d="M820.14,651.26c0,5.37-4.52,8.94-11.26,8.94h-11.64v-31.72h10.42c6.69,0,11.12,3.26,11.12,8.68,0,2.73-1.6,5.24-4.24,6.39,3.35,1.14,5.61,4.23,5.61,7.71ZM810.62,642.23c2.12-.53,3.54-2.29,3.54-4.85,0-3.26-2.31-5.46-6.17-5.46h-6.36v10.31h9ZM801.62,656.77h7.4c3.91,0,6.5-2.29,6.5-5.68s-2.26-5.55-5.61-5.55h-8.3v11.23Z"/>
        <path class="cls-1" d="M848.84,649.19c0,6.65-5.14,11.54-12.16,11.54s-12.11-4.89-12.11-11.54,5.14-11.54,12.11-11.54,12.16,4.89,12.16,11.54ZM844.6,649.19c0-4.67-3.35-7.97-7.92-7.97s-7.87,3.3-7.87,7.97,3.35,7.97,7.87,7.97,7.92-3.3,7.92-7.97Z"/>
        <path class="cls-1" d="M858.6,638.18l.09,3.08c0,.93-.14,1.59-.19,1.67h.09c1.27-3.04,4.67-5.29,8.63-5.29,3.44,0,6.32,1.81,7.07,5.02h.05c1.46-2.73,4.57-5.02,8.2-5.02,5.84,0,8.25,3.17,8.25,8.72v13.83h-4.38v-13.04c0-3.17-.85-5.73-4.43-5.73-5.04,0-7.12,4.41-7.12,8.55v10.22h-4.38v-13.08c0-2.95-.61-5.68-4.34-5.68-4.95,0-7.26,4.32-7.26,8.55v10.22h-4.38v-22.03h4.1Z"/>
        <path class="cls-1" d="M897.67,628.49h4.38v11.37c0,1.15-.14,1.81-.14,1.81h.09c1.27-2.07,4.38-4.01,8.2-4.01,6.13,0,10.84,4.63,10.84,11.54s-4.71,11.54-10.94,11.54c-3.82,0-7.12-2.29-8.34-4.76h-.09s.14.66.14,1.63l-.09,2.6h-4.05v-31.72ZM902.1,649.19c0,5.51,3.87,7.97,7.4,7.97,4.38,0,7.31-3.39,7.31-7.97s-2.92-7.97-7.31-7.97c-3.54,0-7.4,2.47-7.4,7.97Z"/>
        <path class="cls-1" d="M947.15,647.92c0,.88-.09,1.72-.09,2.16h-17.53v.04c.14,4.32,3.25,7.05,8.2,7.05,3.21,0,6.55-.88,8.53-2.07v3.74c-1.84.97-5,1.89-8.81,1.89-7.45,0-12.49-4.71-12.49-11.54s5.04-11.54,11.55-11.54c6.93,0,10.65,4.85,10.65,10.26ZM936.46,641.09c-4.05,0-6.5,2.91-6.88,6.08h13.25c.05-3.17-2.17-6.08-6.36-6.08Z"/>
        <path class="cls-1" d="M963.46,657.08c3.25,0,5.7-1.1,7.16-1.94v3.83c-1.41.71-3.72,1.76-7.4,1.76-7.26,0-12.3-4.89-12.3-11.54s5.04-11.54,12.3-11.54c3.63,0,5.84,1.01,7.26,1.72v3.88c-1.65-.97-3.96-1.94-7.02-1.94-4.71,0-8.06,3.26-8.06,7.89s3.3,7.88,8.06,7.88Z"/>
        <path class="cls-1" d="M987.68,647.26l9.19,12.95h-5.04l-7.45-10.66-4.1,4.14v6.52h-4.34v-31.72h4.38v20.75l10.65-11.06h5.23l-8.53,9.08Z"/>
        <path class="cls-1" d="M7.11,691.41l5,11.98c1.23,2.95,2.31,5.81,3.06,7.97.71-1.72,1.84-4.32,3.02-6.92l2.07-4.62,3.68-8.11h.19c3.11,6.74,6.83,14.67,8.77,19.65,1.6-4.23,5.56-13.79,8.06-19.96h6.55l-14.47,32.2h-.19l-6.98-15.64c-.61-1.41-1.32-2.91-1.84-4.27l-1.79,4.27-7.02,15.64h-.19l-14.42-32.2h6.5Z"/>
        <path class="cls-1" d="M67.07,710.84c0,1.01-.14,1.98-.14,2.38h-16.45c.14,3.7,2.97,5.9,7.31,5.9,3.3,0,6.74-.92,8.34-1.85v4.71c-1.65.84-4.81,1.72-8.77,1.72-7.82,0-12.87-4.8-12.87-11.59s5.14-11.59,11.78-11.59c7.07,0,10.79,4.85,10.79,10.31ZM56.18,704.85c-3.39,0-5.42,2.47-5.7,5.24h11.03c.05-2.78-1.79-5.24-5.33-5.24Z"/>
        <path class="cls-1" d="M71.68,691.41h5.75v10.93c0,1.19-.14,1.81-.14,1.81h.09c1.27-1.89,4.15-3.61,7.78-3.61,6.03,0,10.84,4.49,10.84,11.59s-4.81,11.59-10.93,11.59c-3.68,0-6.88-2.07-8.01-4.41h-.09s.19.62.09,1.54l-.09,2.29h-5.28v-31.72ZM77.57,712.12c0,4.76,3.35,7,6.5,7,3.82,0,6.46-2.91,6.46-7s-2.64-7-6.46-7c-3.16,0-6.5,2.25-6.5,7Z"/>
        <path class="cls-1" d="M106.28,714.06c-4.29-1.23-7.31-2.91-7.31-7.05,0-3.88,3.49-6.48,8.72-6.48,2.97,0,5.61.71,7.12,1.32v4.71c-1.6-.79-3.96-1.5-6.08-1.59-.8,0-1.6.04-2.31.18-1.18.31-2.17.93-2.17,2.07,0,1.41,1.41,2.16,4.29,2.95,5.19,1.5,7.68,3.22,7.68,7.05,0,4.14-3.63,6.48-9.14,6.48-3.35,0-6.08-.71-7.87-1.45v-4.8c2.26,1.1,5.47,1.94,7.73,1.94,2.07,0,4.01-.62,4.01-2.29,0-1.54-1.6-2.16-4.67-3.04Z"/>
        <path class="cls-1" d="M123.67,691.72c1.98,0,3.35,1.19,3.35,3.04s-1.37,3-3.35,3-3.35-1.19-3.35-3,1.32-3.04,3.35-3.04ZM126.54,701.1v22.03h-5.75v-22.03h5.75Z"/>
        <path class="cls-1" d="M133.61,701.1v-6.61h5.56v6.61h6.69v4.27h-6.69v10.09c0,2.73,1.51,3.66,3.25,3.66,1.46,0,3.06-.44,4.24-.92v4.49c-1.08.53-3.11,1.01-5.66,1.01-3.58,0-7.16-1.63-7.45-6.39,0-.7-.05-1.45-.05-2.2v-9.74h-3.58v-4.27h3.68Z"/>
        <path class="cls-1" d="M170.8,710.84c0,1.01-.14,1.98-.14,2.38h-16.45c.14,3.7,2.97,5.9,7.31,5.9,3.3,0,6.74-.92,8.34-1.85v4.71c-1.65.84-4.81,1.72-8.77,1.72-7.82,0-12.87-4.8-12.87-11.59s5.14-11.59,11.78-11.59c7.07,0,10.79,4.85,10.79,10.31ZM159.91,704.85c-3.39,0-5.42,2.47-5.7,5.24h11.03c.05-2.78-1.79-5.24-5.33-5.24Z"/>
        <path class="cls-1" d="M500.52,717.1l6.46-15.99h4.62l-9.9,22.55h-2.4l-5.94-15.02-5.94,15.02h-2.4l-9.9-22.55h4.67l6.41,15.99,5.99-15.68h2.4l5.94,15.68Z"/>
        <path class="cls-1" d="M535.96,717.1l6.46-15.99h4.62l-9.9,22.55h-2.4l-5.94-15.02-5.94,15.02h-2.4l-9.9-22.55h4.67l6.41,15.99,5.99-15.68h2.4l5.94,15.68Z"/>
        <path class="cls-1" d="M571.4,717.1l6.46-15.99h4.62l-9.9,22.55h-2.4l-5.94-15.02-5.94,15.02h-2.4l-9.9-22.55h4.67l6.41,15.99,5.99-15.68h2.4l5.94,15.68Z"/>
        <path class="cls-1" d="M583.51,718.68c1.6,0,2.73,1.01,2.73,2.51s-1.13,2.47-2.73,2.47-2.73-1.01-2.73-2.47,1.08-2.51,2.73-2.51Z"/>
        <path class="cls-1" d="M602.27,720c3.25,0,5.7-1.1,7.16-1.94v3.83c-1.41.71-3.72,1.76-7.4,1.76-7.26,0-12.3-4.89-12.3-11.54s5.04-11.54,12.3-11.54c3.63,0,5.84,1.01,7.26,1.72v3.88c-1.65-.97-3.96-1.94-7.02-1.94-4.71,0-8.06,3.26-8.06,7.89s3.3,7.88,8.06,7.88Z"/>
        <path class="cls-1" d="M634.98,710.84c0,.88-.09,1.72-.09,2.16h-17.53v.04c.14,4.32,3.25,7.05,8.2,7.05,3.21,0,6.55-.88,8.53-2.07v3.74c-1.84.97-5,1.89-8.81,1.89-7.45,0-12.49-4.71-12.49-11.54s5.04-11.54,11.55-11.54c6.93,0,10.65,4.85,10.65,10.26ZM624.28,704.01c-4.05,0-6.5,2.91-6.88,6.08h13.25c.05-3.17-2.17-6.08-6.36-6.08Z"/>
        <path class="cls-1" d="M644.59,701.1l.09,3.08c0,.93-.14,1.59-.19,1.67h.09c.9-1.98,4.01-5.29,9-5.29,5.8,0,8.06,3.22,8.06,8.72v13.83h-4.38v-13c0-3.04-.57-5.77-4.48-5.77-4.62,0-7.92,3.44-7.92,7.93v10.84h-4.38v-22.03h4.1Z"/>
        <path class="cls-1" d="M669.05,701.1v-6.61h4.29v6.61h7.12v3.35h-7.12v11.41c0,3.13,1.51,4.19,3.49,4.19,1.46,0,3.11-.4,4.43-.97v3.57c-1.04.53-2.97,1.01-5.28,1.01-3.39,0-6.98-1.63-6.98-6.56v-12.64h-3.87v-3.35h3.91Z"/>
        <path class="cls-1" d="M705.39,710.84c0,.88-.09,1.72-.09,2.16h-17.53v.04c.14,4.32,3.25,7.05,8.2,7.05,3.21,0,6.55-.88,8.53-2.07v3.74c-1.84.97-5,1.89-8.81,1.89-7.45,0-12.49-4.71-12.49-11.54s5.04-11.54,11.55-11.54c6.93,0,10.65,4.85,10.65,10.26ZM694.69,704.01c-4.05,0-6.5,2.91-6.88,6.08h13.25c.05-3.17-2.17-6.08-6.36-6.08Z"/>
        <path class="cls-1" d="M710.57,701.1h4.1l.05,3.08c.05.84-.09,1.5-.05,1.63h.05c1.37-3.13,3.86-5.24,7.26-5.24.66,0,1.23.09,1.41.13v3.96c-.19-.04-.61-.13-1.23-.13-4.57,0-7.21,4.71-7.21,8.99v9.6h-4.38v-22.03Z"/>
        <path class="cls-1" d="M738.42,720c3.25,0,5.7-1.1,7.16-1.94v3.83c-1.41.71-3.72,1.76-7.4,1.76-7.26,0-12.3-4.89-12.3-11.54s5.04-11.54,12.3-11.54c3.63,0,5.84,1.01,7.26,1.72v3.88c-1.65-.97-3.96-1.94-7.02-1.94-4.71,0-8.06,3.26-8.06,7.89s3.3,7.88,8.06,7.88Z"/>
        <path class="cls-1" d="M773.21,712.12c0,6.65-5.14,11.54-12.16,11.54s-12.11-4.89-12.11-11.54,5.14-11.54,12.11-11.54,12.16,4.89,12.16,11.54ZM768.96,712.12c0-4.67-3.35-7.97-7.92-7.97s-7.87,3.3-7.87,7.97,3.35,7.97,7.87,7.97,7.92-3.3,7.92-7.97Z"/>
        <path class="cls-1" d="M794.98,723.13l-.09-3.08c0-.93.19-1.59.19-1.67h-.09c-.9,1.98-3.91,5.29-8.77,5.29-5.8,0-8.06-3.21-8.06-8.72v-13.83h4.38v13c0,3.04.57,5.77,4.48,5.77,4.48,0,7.68-3.44,7.68-7.93v-10.84h4.38v22.03h-4.1Z"/>
        <path class="cls-1" d="M806.38,701.1h4.1l.05,3.08c.05.84-.09,1.5-.05,1.63h.05c1.37-3.13,3.86-5.24,7.26-5.24.66,0,1.22.09,1.41.13v3.96c-.19-.04-.61-.13-1.23-.13-4.57,0-7.21,4.71-7.21,8.99v9.6h-4.38v-22.03Z"/>
        <path class="cls-1" d="M825.33,701.1v-6.61h4.29v6.61h7.12v3.35h-7.12v11.41c0,3.13,1.51,4.19,3.49,4.19,1.46,0,3.11-.4,4.43-.97v3.57c-1.04.53-2.97,1.01-5.28,1.01-3.39,0-6.98-1.63-6.98-6.56v-12.64h-3.87v-3.35h3.91Z"/>
        <path class="cls-1" d="M842.95,718.68c1.6,0,2.73,1.01,2.73,2.51s-1.13,2.47-2.73,2.47-2.73-1.01-2.73-2.47,1.08-2.51,2.73-2.51Z"/>
        <path class="cls-1" d="M861.48,719.69c5.99.62,9.38,2.29,9.38,6.3,0,4.23-4.62,6.78-11.31,6.78s-10.79-2.03-10.79-5.95c0-2.6,2.88-4.76,6.5-5.42-2.26-.26-3.63-1.32-3.63-2.82,0-1.28,1.23-2.47,3.25-3.08-3.35-1.15-5.56-3.79-5.56-7.14,0-4.63,4.19-7.8,9.57-7.8,1.32,0,2.64.18,3.72.53h8.58v3.08h-3.25c-.61,0-1.32-.18-1.32-.18l-.28-.04c1.27,1.1,2.07,2.64,2.07,4.41,0,4.32-3.68,7.4-8.62,7.66h-.05c-2.12.18-3.82.93-3.82,1.76,0,1.1,1.51,1.45,5.56,1.89ZM866.47,726.26c0-2.03-1.89-3.61-7.21-3.61-3.68,0-6.27,1.72-6.27,3.7,0,2.33,2.73,3.52,6.6,3.52,4.24,0,6.88-1.45,6.88-3.61ZM864.4,708.46c0-2.73-2.22-4.76-5.51-4.76s-5.47,2.03-5.47,4.76,2.26,4.71,5.47,4.71,5.51-1.98,5.51-4.71Z"/>
        <path class="cls-1" d="M874.25,702.21c1.32-.66,4.43-1.63,8.3-1.63,6.65,0,9.9,3,9.9,8.5v14.05h-4.05l-.05-2.6c-.05-1.06.14-1.76.14-1.76h-.09c-.28.62-2.88,4.89-8.2,4.89-4.34,0-7.45-2.42-7.45-6.48,0-5.37,5.51-8.06,15.37-6.78v-1.1c0-3.83-2.45-5.15-6.17-5.15-3.25,0-6.27,1.06-7.68,1.85v-3.79ZM888.01,713.26c-7.68-1.14-10.94.79-10.94,3.79,0,1.94,1.51,3.3,3.87,3.3,4.01,0,7.07-3.66,7.07-7.09Z"/>
        <path class="cls-1" d="M898.99,691.41h4.38v25.24c0,2.38.8,3.35,2.73,3.35.94,0,1.79-.18,2.07-.26v3.52c-.28.09-1.46.4-3.16.4-3.49,0-6.03-1.72-6.03-6.17v-26.08Z"/>
        <path class="cls-1" d="M912.19,691.41h4.38v25.24c0,2.38.8,3.35,2.73,3.35.94,0,1.79-.18,2.07-.26v3.52c-.28.09-1.46.4-3.16.4-3.49,0-6.03-1.72-6.03-6.17v-26.08Z"/>
        <path class="cls-1" d="M946.08,710.84c0,.88-.09,1.72-.09,2.16h-17.53v.04c.14,4.32,3.25,7.05,8.2,7.05,3.21,0,6.55-.88,8.53-2.07v3.74c-1.84.97-5,1.89-8.81,1.89-7.45,0-12.49-4.71-12.49-11.54s5.04-11.54,11.55-11.54c6.93,0,10.65,4.85,10.65,10.26ZM935.38,704.01c-4.05,0-6.5,2.91-6.88,6.08h13.25c.05-3.17-2.17-6.08-6.36-6.08Z"/>
        <path class="cls-1" d="M951.26,701.1h4.1l.05,3.08c.05.84-.09,1.5-.05,1.63h.05c1.37-3.13,3.86-5.24,7.26-5.24.66,0,1.22.09,1.41.13v3.96c-.19-.04-.61-.13-1.23-.13-4.57,0-7.21,4.71-7.21,8.99v9.6h-4.38v-22.03Z"/>
        <path class="cls-1" d="M966.1,729.56c.52.13,1.37.26,2.54.26,3.77,0,5.66-2.95,7.45-6.96l-9.85-21.76h4.85l3.3,7.97c1.32,3.22,2.73,6.43,3.96,9.65,1.18-2.51,2.88-6.92,4.01-9.65l3.25-7.97h4.85l-9.29,21.01c-3.21,7.22-5.84,11.23-12.07,11.23-1.23,0-2.5-.18-3.02-.4v-3.39Z"/>
      </g>
      <line class="cls-2" y1="82.37" x2="895.52" y2="82.37"/>
    </g>
  </g>
</svg>