<?xml version="1.0" encoding="UTF-8"?>
<svg id="_레이어_2" data-name="레이어 2" xmlns="http://www.w3.org/2000/svg" viewBox="0 0 661.1 494.41">
  <defs>
    <style>
      .cls-1 {
        fill: none;
        stroke: #000;
        stroke-miterlimit: 10;
        stroke-width: 3.27px;
      }
    </style>
  </defs>
  <g id="_레이어_1-2" data-name="레이어 1">
    <g>
      <g>
        <path d="M31.15,33.22V5.83l-9,27.38h-4.45L8.69,5.83v27.38h-3.39V.32h4.73l9.88,30.37L29.8.32h4.73v32.9h-3.39Z"/>
        <path d="M53.01,33.72c-1.67,0-3.16-.23-4.55-.69-1.44-.51-2.65-1.29-3.67-2.3-1.07-1.01-1.9-2.3-2.46-3.95-.65-1.61-.93-3.58-.93-5.93V.28h3.48v21.23c0,1.65.19,3.08.6,4.18.37,1.19.93,2.11,1.67,2.85.7.73,1.53,1.29,2.55,1.61.97.37,2.09.51,3.29.51s2.27-.14,3.29-.51c.97-.32,1.86-.87,2.6-1.61.7-.74,1.25-1.65,1.67-2.85.37-1.1.56-2.53.56-4.18V.28h3.48v20.58c0,2.34-.32,4.32-.88,5.93-.65,1.65-1.44,2.94-2.46,3.95-1.07,1.01-2.32,1.79-3.71,2.3-1.44.46-2.97.69-4.55.69Z"/>
        <path d="M95.28,33.22h-4.18l-16.19-28.62v28.62h-3.53V.32h4.27l16.15,28.26V.32h3.48v32.9Z"/>
        <path d="M105.49,33.22h-3.48V.32h3.48v32.9Z"/>
        <path d="M110.73,16.91c0-2.21.28-4.32.93-6.39.56-2.02,1.48-3.81,2.74-5.38,1.21-1.56,2.74-2.8,4.64-3.77,1.86-.92,4.13-1.38,6.73-1.38,1.58,0,3.06.23,4.55.64,1.44.46,2.74,1.1,3.94,1.93l-1.81,2.53c-.84-.6-1.81-1.1-2.83-1.52-1.11-.37-2.41-.55-3.9-.55-1.95,0-3.67.41-5.06,1.15-1.48.83-2.65,1.84-3.57,3.12-.97,1.29-1.67,2.76-2.13,4.41-.46,1.7-.7,3.45-.7,5.19s.23,3.4.7,5.01c.46,1.65,1.16,3.17,2.13,4.46.93,1.33,2.09,2.39,3.57,3.17,1.39.83,3.11,1.19,5.06,1.19,2.97,0,5.48-.83,7.47-2.53l2.04,2.21c-1.3,1.15-2.74,2.02-4.32,2.57-1.62.51-3.34.78-5.15.78-2.6,0-4.87-.51-6.73-1.42-1.9-1.01-3.43-2.25-4.64-3.86-1.25-1.56-2.18-3.35-2.74-5.38-.65-2.02-.93-4.09-.93-6.2Z"/>
        <path d="M143.31,14.75h16.47V.32h3.48v32.9h-3.48v-15.44h-16.47v15.44h-3.48V.32h3.48v14.43Z"/>
        <path d="M193.05.28v22.51c0,2.11-.28,3.91-.74,5.28-.51,1.42-1.21,2.57-2.04,3.4-.93.83-1.95,1.47-3.11,1.84-1.21.32-2.46.51-3.8.51-.7,0-1.39-.05-2.13-.14-.79-.09-1.44-.23-1.95-.37l.46-2.99c.93.28,2,.37,3.29.37,1.02,0,1.9-.09,2.74-.32.79-.18,1.48-.6,2.04-1.19.56-.55.97-1.38,1.3-2.48.28-1.01.46-2.39.46-4.09V.28h3.48Z"/>
        <path d="M203.17,17.78v12.36h16.52v3.08h-20V.32h19.26v3.08h-15.78v11.35h14.99v3.03h-14.99Z"/>
        <path d="M244.14.32l6.87,28.85,7.19-28.85h3.62l-8.58,32.9h-4.18l-7.05-28.58-7.05,28.58h-4.18L222.19.32h3.62l7.15,28.85L239.87.32h4.27Z"/>
        <path d="M269.11,17.78v12.36h16.52v3.08h-20V.32h19.26v3.08h-15.78v11.35h14.99v3.03h-14.99Z"/>
        <path d="M294.63.32v29.82h15.36v3.08h-18.84V.32h3.48Z"/>
        <path d="M318.25.32v29.82h15.36v3.08h-18.84V.32h3.48Z"/>
        <path d="M341.91,17.78v12.36h16.52v3.08h-20V.32h19.26v3.08h-15.78v11.35h14.99v3.03h-14.99Z"/>
        <path d="M374.3.32c3.34,0,5.8.83,7.47,2.44,1.62,1.65,2.46,4.04,2.46,7.17,0,2.62-.6,4.73-1.76,6.34-1.21,1.65-3.02,2.66-5.43,3.08l9,13.88h-3.71l-8.91-13.65h-6.03v13.65h-3.43V.32h10.35ZM374.07,16.49c2.04,0,3.67-.51,4.97-1.52,1.21-1.01,1.86-2.67,1.86-4.96s-.65-3.95-1.86-5.05c-1.3-1.01-2.92-1.56-4.97-1.56h-6.68v13.09h6.68Z"/>
        <path d="M402.05,33.22h-3.48v-13.92L387.3.32h3.9l9.09,15.85,9.14-15.85h3.9l-11.28,18.98v13.92Z"/>
        <path d="M448.97.32l6.87,28.85,7.19-28.85h3.62l-8.58,32.9h-4.18l-7.05-28.58-7.05,28.58h-4.18L427.02.32h3.62l7.15,28.85,6.91-28.85h4.27Z"/>
        <path d="M473.93,17.78v12.36h16.52v3.08h-20V.32h19.26v3.08h-15.78v11.35h14.99v3.03h-14.99Z"/>
        <path d="M499.5,17.78v12.36h16.52v3.08h-20V.32h19.26v3.08h-15.78v11.35h14.99v3.03h-14.99Z"/>
        <path d="M525.07,16.22l14.9-15.9h4.13l-13.09,13.92,14.01,18.98h-4.04l-12.2-16.54-3.71,3.95v12.59h-3.48V.32h3.48v15.9Z"/>
      </g>
      <g>
        <path d="M4.73,139.31l16.61-16.2c4.51-4.51,8.1-8.51,10.97-12.1,2.77-3.49,4.82-6.67,6.25-9.74,1.23-2.87,1.95-5.95,2.15-9.13,0-2.26-.21-4.41-.62-6.46-.51-1.95-1.33-3.69-2.56-5.23-1.23-1.44-2.87-2.56-4.82-3.49-2.05-.82-4.61-1.33-7.49-1.33-3.59,0-6.87.82-9.74,2.36-2.97,1.64-5.64,3.69-8,5.95l-2.87-4c2.87-2.87,6.15-5.13,9.84-6.87,3.59-1.64,7.49-2.46,11.69-2.46,3.59,0,6.67.62,9.33,1.74,2.46,1.23,4.61,2.77,6.25,4.61,1.64,1.95,2.77,4.2,3.59,6.67.72,2.56,1.03,5.23,1.03,7.9-.21,3.9-1.03,7.59-2.46,11.07-1.64,3.49-3.79,7.08-6.67,10.66-2.97,3.69-6.46,7.49-10.56,11.48l-14.25,13.64h36.09v5.33H4.73v-4.41Z"/>
        <path d="M55.48,108.04c0-6.05.51-11.48,1.74-16.2,1.03-4.61,2.67-8.51,4.72-11.69,1.95-3.08,4.31-5.54,7.18-7.18,2.77-1.54,5.84-2.36,9.33-2.36s6.46.82,9.33,2.36c2.77,1.64,5.23,4.1,7.28,7.18,1.95,3.18,3.49,7.08,4.72,11.69,1.03,4.72,1.64,10.15,1.64,16.2s-.62,11.48-1.64,16.1c-1.23,4.72-2.77,8.72-4.72,11.79-2.05,3.18-4.51,5.54-7.28,7.18-2.87,1.54-5.95,2.36-9.33,2.36s-6.56-.82-9.33-2.36c-2.87-1.64-5.23-4-7.18-7.18-2.05-3.08-3.69-7.08-4.72-11.79-1.23-4.61-1.74-9.95-1.74-16.1ZM61.33,108.04c0,5.74.41,10.56,1.33,14.66.82,4.1,2.05,7.49,3.69,10.15,1.54,2.67,3.38,4.61,5.43,5.84s4.2,1.95,6.67,1.95c2.26,0,4.51-.72,6.67-1.95,2.05-1.23,3.79-3.18,5.43-5.84,1.54-2.67,2.77-6.05,3.69-10.15.82-4.1,1.33-8.92,1.33-14.66s-.51-10.56-1.33-14.66c-.92-4.1-2.15-7.49-3.69-10.15-1.64-2.67-3.38-4.61-5.43-5.95-2.15-1.23-4.41-1.85-6.67-1.85-2.46,0-4.61.62-6.67,1.85-2.05,1.33-3.9,3.28-5.43,5.95-1.64,2.67-2.87,6.05-3.69,10.15-.92,4.1-1.33,9.02-1.33,14.66Z"/>
        <path d="M109.11,139.31l16.61-16.2c4.51-4.51,8.1-8.51,10.97-12.1,2.77-3.49,4.82-6.67,6.25-9.74,1.23-2.87,1.95-5.95,2.15-9.13,0-2.26-.21-4.41-.62-6.46-.51-1.95-1.33-3.69-2.56-5.23-1.23-1.44-2.87-2.56-4.82-3.49-2.05-.82-4.61-1.33-7.49-1.33-3.59,0-6.87.82-9.74,2.36-2.97,1.64-5.64,3.69-8,5.95l-2.87-4c2.87-2.87,6.15-5.13,9.84-6.87,3.59-1.64,7.49-2.46,11.69-2.46,3.59,0,6.67.62,9.33,1.74,2.46,1.23,4.61,2.77,6.25,4.61,1.64,1.95,2.77,4.2,3.59,6.67.72,2.56,1.03,5.23,1.03,7.9-.21,3.9-1.03,7.59-2.46,11.07-1.64,3.49-3.79,7.08-6.67,10.66-2.97,3.69-6.46,7.49-10.56,11.48l-14.25,13.64h36.09v5.33h-43.78v-4.41Z"/>
        <path d="M174.73,76.56l-3.08,22.97c3.69-.51,7.49-.62,11.38-.21,3.69.41,7.08,1.44,10.15,3.08,2.87,1.74,5.33,4.2,7.28,7.28,1.85,3.18,2.77,7.28,2.77,12.2,0,3.9-.62,7.28-1.85,10.15-1.23,2.97-2.97,5.43-5.13,7.38-2.26,1.95-4.92,3.49-8,4.51-3.18,1.03-6.67,1.54-10.36,1.54s-6.77-.41-9.54-1.03c-2.87-.82-5.13-1.74-6.87-2.77l1.54-4.51c1.74.92,3.9,1.64,6.46,2.26,2.46.62,5.33.92,8.41.92,2.87,0,5.64-.41,8.2-1.13,2.46-.72,4.51-1.85,6.36-3.49,1.74-1.44,3.18-3.38,4.2-5.74.92-2.26,1.44-4.82,1.44-7.9,0-4.72-1.03-8.31-2.97-10.97-2.05-2.56-4.51-4.41-7.59-5.64-3.08-1.13-6.56-1.64-10.36-1.64-3.9.1-7.59.41-11.28,1.03l4.31-33.63h31.58v5.33h-27.07Z"/>
        <path d="M225.58,145.36h-9.54v-10.05h9.54v10.05Z"/>
        <path d="M261.88,108.04c0-6.05.51-11.48,1.74-16.2,1.03-4.61,2.67-8.51,4.72-11.69,1.95-3.08,4.31-5.54,7.18-7.18,2.77-1.54,5.84-2.36,9.33-2.36s6.46.82,9.33,2.36c2.77,1.64,5.23,4.1,7.28,7.18,1.95,3.18,3.49,7.08,4.72,11.69,1.03,4.72,1.64,10.15,1.64,16.2s-.62,11.48-1.64,16.1c-1.23,4.72-2.77,8.72-4.72,11.79-2.05,3.18-4.51,5.54-7.28,7.18-2.87,1.54-5.95,2.36-9.33,2.36s-6.56-.82-9.33-2.36c-2.87-1.64-5.23-4-7.18-7.18-2.05-3.08-3.69-7.08-4.72-11.79-1.23-4.61-1.74-9.95-1.74-16.1ZM267.72,108.04c0,5.74.41,10.56,1.33,14.66.82,4.1,2.05,7.49,3.69,10.15,1.54,2.67,3.38,4.61,5.43,5.84s4.2,1.95,6.67,1.95c2.26,0,4.51-.72,6.67-1.95,2.05-1.23,3.79-3.18,5.43-5.84,1.54-2.67,2.77-6.05,3.69-10.15.82-4.1,1.33-8.92,1.33-14.66s-.51-10.56-1.33-14.66c-.92-4.1-2.15-7.49-3.69-10.15-1.64-2.67-3.38-4.61-5.43-5.95-2.15-1.23-4.41-1.85-6.67-1.85-2.46,0-4.61.62-6.67,1.85-2.05,1.33-3.9,3.28-5.43,5.95-1.64,2.67-2.87,6.05-3.69,10.15-.92,4.1-1.33,9.02-1.33,14.66Z"/>
        <path d="M333.24,145.46c-3.69,0-7.08-.51-9.95-1.33-2.97-.92-5.84-2.15-8.61-3.59l2.36-4.41c1.64,1.03,3.79,2.05,6.46,2.97,2.56.92,5.74,1.44,9.54,1.44s7.08-.51,9.74-1.54c2.46-.92,4.51-2.15,6.15-3.79,1.44-1.44,2.56-3.18,3.18-5.23.62-1.85.92-3.79.92-5.84,0-2.87-.62-5.33-1.85-7.38-1.23-1.95-2.87-3.59-4.92-4.92-2.15-1.23-4.51-2.15-7.18-2.77-2.77-.51-5.64-.82-8.51-.82h-2.46v-4.82h2.46c2.36,0,4.72-.31,7.18-.92,2.26-.62,4.41-1.54,6.25-2.77s3.28-2.77,4.51-4.61c1.13-1.74,1.74-3.79,1.74-6.25,0-1.33-.21-2.77-.51-4.41-.41-1.54-1.13-2.97-2.15-4.31-1.13-1.23-2.67-2.36-4.61-3.28-2.05-.82-4.61-1.23-7.69-1.23-3.9,0-6.97.51-9.33,1.54-2.46,1.03-4.61,2.15-6.36,3.18l-2.26-4c5.43-3.79,11.69-5.74,18.87-5.74,3.69,0,6.77.51,9.33,1.54,2.46,1.03,4.41,2.36,6.05,4,1.44,1.64,2.56,3.59,3.28,5.64.62,2.15.92,4.31.92,6.46,0,1.54-.31,3.08-.72,4.72-.51,1.64-1.23,3.28-2.26,4.82-1.13,1.64-2.46,3.18-4.1,4.41-1.64,1.44-3.69,2.56-5.95,3.38,2.05.41,4,1.13,5.95,2.05,1.85,1.03,3.59,2.26,5.13,3.69,1.44,1.64,2.56,3.38,3.49,5.43.82,2.15,1.33,4.51,1.33,7.18,0,3.08-.51,5.84-1.54,8.41-1.13,2.67-2.77,5.02-4.82,6.87-2.26,1.95-4.92,3.49-8,4.61-3.28,1.03-6.97,1.64-11.07,1.64Z"/>
        <path d="M379.79,145.36h-9.54v-10.05h9.54v10.05Z"/>
        <path d="M421.11,83.84l-2.05-3.69,16.71-8.92h5.23v73.01h-5.43v-68.29l-14.46,7.9Z"/>
        <path d="M460.99,108.04c0-6.05.51-11.48,1.74-16.2,1.03-4.61,2.67-8.51,4.72-11.69,1.95-3.08,4.31-5.54,7.18-7.18,2.77-1.54,5.84-2.36,9.33-2.36s6.46.82,9.33,2.36c2.77,1.64,5.23,4.1,7.28,7.18,1.95,3.18,3.49,7.08,4.72,11.69,1.03,4.72,1.64,10.15,1.64,16.2s-.62,11.48-1.64,16.1c-1.23,4.72-2.77,8.72-4.72,11.79-2.05,3.18-4.51,5.54-7.28,7.18-2.87,1.54-5.95,2.36-9.33,2.36s-6.56-.82-9.33-2.36c-2.87-1.64-5.23-4-7.18-7.18-2.05-3.08-3.69-7.08-4.72-11.79-1.23-4.61-1.74-9.95-1.74-16.1ZM466.84,108.04c0,5.74.41,10.56,1.33,14.66.82,4.1,2.05,7.49,3.69,10.15,1.54,2.67,3.38,4.61,5.43,5.84s4.2,1.95,6.67,1.95c2.26,0,4.51-.72,6.67-1.95,2.05-1.23,3.79-3.18,5.43-5.84,1.54-2.67,2.77-6.05,3.69-10.15.82-4.1,1.33-8.92,1.33-14.66s-.51-10.56-1.33-14.66c-.92-4.1-2.15-7.49-3.69-10.15-1.64-2.67-3.38-4.61-5.43-5.95-2.15-1.23-4.41-1.85-6.67-1.85-2.46,0-4.61.62-6.67,1.85-2.05,1.33-3.9,3.28-5.43,5.95-1.64,2.67-2.87,6.05-3.69,10.15-.92,4.1-1.33,9.02-1.33,14.66Z"/>
        <path d="M540.45,105.27h30.15v4.82h-30.15v-4.82Z"/>
        <path d="M4.73,236.23l16.61-16.2c4.51-4.51,8.1-8.51,10.97-12.1,2.77-3.49,4.82-6.67,6.25-9.74,1.23-2.87,1.95-5.95,2.15-9.13,0-2.26-.21-4.41-.62-6.46-.51-1.95-1.33-3.69-2.56-5.23-1.23-1.44-2.87-2.56-4.82-3.49-2.05-.82-4.61-1.33-7.49-1.33-3.59,0-6.87.82-9.74,2.36-2.97,1.64-5.64,3.69-8,5.95l-2.87-4c2.87-2.87,6.15-5.13,9.84-6.87,3.59-1.64,7.49-2.46,11.69-2.46,3.59,0,6.67.62,9.33,1.74,2.46,1.23,4.61,2.77,6.25,4.61,1.64,1.95,2.77,4.2,3.59,6.67.72,2.56,1.03,5.23,1.03,7.9-.21,3.9-1.03,7.59-2.46,11.07-1.64,3.49-3.79,7.08-6.67,10.66-2.97,3.69-6.46,7.49-10.56,11.48l-14.25,13.64h36.09v5.33H4.73v-4.41Z"/>
        <path d="M55.48,204.95c0-6.05.51-11.48,1.74-16.2,1.03-4.61,2.67-8.51,4.72-11.69,1.95-3.08,4.31-5.54,7.18-7.18,2.77-1.54,5.84-2.36,9.33-2.36s6.46.82,9.33,2.36c2.77,1.64,5.23,4.1,7.28,7.18,1.95,3.18,3.49,7.08,4.72,11.69,1.03,4.72,1.64,10.15,1.64,16.2s-.62,11.48-1.64,16.1c-1.23,4.72-2.77,8.72-4.72,11.79-2.05,3.18-4.51,5.54-7.28,7.18-2.87,1.54-5.95,2.36-9.33,2.36s-6.56-.82-9.33-2.36c-2.87-1.64-5.23-4-7.18-7.18-2.05-3.08-3.69-7.08-4.72-11.79-1.23-4.61-1.74-9.95-1.74-16.1ZM61.33,204.95c0,5.74.41,10.56,1.33,14.66.82,4.1,2.05,7.49,3.69,10.15,1.54,2.67,3.38,4.61,5.43,5.84s4.2,1.95,6.67,1.95c2.26,0,4.51-.72,6.67-1.95,2.05-1.23,3.79-3.18,5.43-5.84,1.54-2.67,2.77-6.05,3.69-10.15.82-4.1,1.33-8.92,1.33-14.66s-.51-10.56-1.33-14.66c-.92-4.1-2.15-7.49-3.69-10.15-1.64-2.67-3.38-4.61-5.43-5.95-2.15-1.23-4.41-1.85-6.67-1.85-2.46,0-4.61.62-6.67,1.85-2.05,1.33-3.9,3.28-5.43,5.95-1.64,2.67-2.87,6.05-3.69,10.15-.92,4.1-1.33,9.02-1.33,14.66Z"/>
        <path d="M109.11,236.23l16.61-16.2c4.51-4.51,8.1-8.51,10.97-12.1,2.77-3.49,4.82-6.67,6.25-9.74,1.23-2.87,1.95-5.95,2.15-9.13,0-2.26-.21-4.41-.62-6.46-.51-1.95-1.33-3.69-2.56-5.23-1.23-1.44-2.87-2.56-4.82-3.49-2.05-.82-4.61-1.33-7.49-1.33-3.59,0-6.87.82-9.74,2.36-2.97,1.64-5.64,3.69-8,5.95l-2.87-4c2.87-2.87,6.15-5.13,9.84-6.87,3.59-1.64,7.49-2.46,11.69-2.46,3.59,0,6.67.62,9.33,1.74,2.46,1.23,4.61,2.77,6.25,4.61,1.64,1.95,2.77,4.2,3.59,6.67.72,2.56,1.03,5.23,1.03,7.9-.21,3.9-1.03,7.59-2.46,11.07-1.64,3.49-3.79,7.08-6.67,10.66-2.97,3.69-6.46,7.49-10.56,11.48l-14.25,13.64h36.09v5.33h-43.78v-4.41Z"/>
        <path d="M174.73,173.47l-3.08,22.97c3.69-.51,7.49-.62,11.38-.21,3.69.41,7.08,1.44,10.15,3.08,2.87,1.74,5.33,4.2,7.28,7.28,1.85,3.18,2.77,7.28,2.77,12.2,0,3.9-.62,7.28-1.85,10.15-1.23,2.97-2.97,5.43-5.13,7.38-2.26,1.95-4.92,3.49-8,4.51-3.18,1.03-6.67,1.54-10.36,1.54s-6.77-.41-9.54-1.03c-2.87-.82-5.13-1.74-6.87-2.77l1.54-4.51c1.74.92,3.9,1.64,6.46,2.26,2.46.62,5.33.92,8.41.92,2.87,0,5.64-.41,8.2-1.13,2.46-.72,4.51-1.85,6.36-3.49,1.74-1.44,3.18-3.38,4.2-5.74.92-2.26,1.44-4.82,1.44-7.9,0-4.72-1.03-8.31-2.97-10.97-2.05-2.56-4.51-4.41-7.59-5.64-3.08-1.13-6.56-1.64-10.36-1.64-3.9.1-7.59.41-11.28,1.03l4.31-33.63h31.58v5.33h-27.07Z"/>
        <path d="M225.58,242.28h-9.54v-10.05h9.54v10.05Z"/>
        <path d="M261.88,204.95c0-6.05.51-11.48,1.74-16.2,1.03-4.61,2.67-8.51,4.72-11.69,1.95-3.08,4.31-5.54,7.18-7.18,2.77-1.54,5.84-2.36,9.33-2.36s6.46.82,9.33,2.36c2.77,1.64,5.23,4.1,7.28,7.18,1.95,3.18,3.49,7.08,4.72,11.69,1.03,4.72,1.64,10.15,1.64,16.2s-.62,11.48-1.64,16.1c-1.23,4.72-2.77,8.72-4.72,11.79-2.05,3.18-4.51,5.54-7.28,7.18-2.87,1.54-5.95,2.36-9.33,2.36s-6.56-.82-9.33-2.36c-2.87-1.64-5.23-4-7.18-7.18-2.05-3.08-3.69-7.08-4.72-11.79-1.23-4.61-1.74-9.95-1.74-16.1ZM267.72,204.95c0,5.74.41,10.56,1.33,14.66.82,4.1,2.05,7.49,3.69,10.15,1.54,2.67,3.38,4.61,5.43,5.84s4.2,1.95,6.67,1.95c2.26,0,4.51-.72,6.67-1.95,2.05-1.23,3.79-3.18,5.43-5.84,1.54-2.67,2.77-6.05,3.69-10.15.82-4.1,1.33-8.92,1.33-14.66s-.51-10.56-1.33-14.66c-.92-4.1-2.15-7.49-3.69-10.15-1.64-2.67-3.38-4.61-5.43-5.95-2.15-1.23-4.41-1.85-6.67-1.85-2.46,0-4.61.62-6.67,1.85-2.05,1.33-3.9,3.28-5.43,5.95-1.64,2.67-2.87,6.05-3.69,10.15-.92,4.1-1.33,9.02-1.33,14.66Z"/>
        <path d="M333.24,242.38c-3.69,0-7.08-.51-9.95-1.33-2.97-.92-5.84-2.15-8.61-3.59l2.36-4.41c1.64,1.03,3.79,2.05,6.46,2.97,2.56.92,5.74,1.44,9.54,1.44s7.08-.51,9.74-1.54c2.46-.92,4.51-2.15,6.15-3.79,1.44-1.44,2.56-3.18,3.18-5.23.62-1.85.92-3.79.92-5.84,0-2.87-.62-5.33-1.85-7.38-1.23-1.95-2.87-3.59-4.92-4.92-2.15-1.23-4.51-2.15-7.18-2.77-2.77-.51-5.64-.82-8.51-.82h-2.46v-4.82h2.46c2.36,0,4.72-.31,7.18-.92,2.26-.62,4.41-1.54,6.25-2.77s3.28-2.77,4.51-4.61c1.13-1.74,1.74-3.79,1.74-6.25,0-1.33-.21-2.77-.51-4.41-.41-1.54-1.13-2.97-2.15-4.31-1.13-1.23-2.67-2.36-4.61-3.28-2.05-.82-4.61-1.23-7.69-1.23-3.9,0-6.97.51-9.33,1.54-2.46,1.03-4.61,2.15-6.36,3.18l-2.26-4c5.43-3.79,11.69-5.74,18.87-5.74,3.69,0,6.77.51,9.33,1.54,2.46,1.03,4.41,2.36,6.05,4,1.44,1.64,2.56,3.59,3.28,5.64.62,2.15.92,4.31.92,6.46,0,1.54-.31,3.08-.72,4.72-.51,1.64-1.23,3.28-2.26,4.82-1.13,1.64-2.46,3.18-4.1,4.41-1.64,1.44-3.69,2.56-5.95,3.38,2.05.41,4,1.13,5.95,2.05,1.85,1.03,3.59,2.26,5.13,3.69,1.44,1.64,2.56,3.38,3.49,5.43.82,2.15,1.33,4.51,1.33,7.18,0,3.08-.51,5.84-1.54,8.41-1.13,2.67-2.77,5.02-4.82,6.87-2.26,1.95-4.92,3.49-8,4.61-3.28,1.03-6.97,1.64-11.07,1.64Z"/>
        <path d="M379.79,242.28h-9.54v-10.05h9.54v10.05Z"/>
        <path d="M421.11,180.75l-2.05-3.69,16.71-8.92h5.23v73.01h-5.43v-68.29l-14.46,7.9Z"/>
        <path d="M507.03,173.06l-31.48,68.09h-5.74l31.48-67.68h-36.2v-5.33h41.94v4.92Z"/>
      </g>
      <g>
        <path d="M15.4,476.17l2.55,14.11h-1.94l-.65-4.25h-5.95l-2.47,4.25h-2.08l8.48-14.11h2.06ZM15.12,484.45l-1.05-6.62h-.04l-3.78,6.62h4.86Z"/>
        <path d="M26.53,490.28l.36-1.46h-.04c-.5.66-1.02,1.1-1.55,1.33s-1.14.35-1.83.35c-.65,0-1.22-.1-1.72-.31-.5-.2-.92-.49-1.27-.85-.34-.36-.6-.8-.77-1.31-.17-.51-.26-1.08-.26-1.7,0-.78.13-1.55.39-2.32.26-.77.63-1.47,1.11-2.09.48-.62,1.07-1.12,1.78-1.51.7-.39,1.51-.58,2.4-.58.32,0,.64.03.97.09.33.06.64.16.94.3s.56.32.78.55.39.52.49.86h.04l1.09-5.46h1.66l-2.99,14.11h-1.58ZM21.75,488.3c.42.49,1.08.73,2.01.73.63,0,1.2-.16,1.7-.49.5-.33.92-.74,1.26-1.25s.59-1.05.77-1.65.27-1.16.27-1.69c0-.76-.22-1.4-.66-1.9s-1.08-.75-1.91-.75c-.67,0-1.26.16-1.76.46s-.92.71-1.27,1.2c-.34.49-.6,1.03-.77,1.62-.17.59-.26,1.17-.26,1.74,0,.83.21,1.49.62,1.98Z"/>
        <path d="M32.41,481.67c.27-.42.6-.76,1-1.04.4-.28.84-.48,1.34-.61.5-.13,1.02-.2,1.56-.2.5,0,.98.04,1.42.12.45.08.84.22,1.19.42s.62.46.82.8c.2.34.31.76.31,1.28,0,.29-.04.6-.11.94-.07.34-.14.64-.21.92l-.65,2.79c-.04.21-.1.45-.17.71-.07.26-.11.51-.11.75s.05.4.14.49c.09.09.21.14.36.14.08,0,.17-.02.27-.05.1-.03.19-.06.27-.09l-.26,1.25c-.13.05-.3.1-.5.15-.2.05-.38.07-.52.07-.46,0-.81-.12-1.05-.38-.24-.25-.33-.6-.28-1.05l-.04-.04c-.36.47-.8.84-1.32,1.09-.53.25-1.23.38-2.1.38-.44,0-.84-.05-1.22-.15-.38-.1-.7-.26-.98-.49s-.5-.53-.66-.89-.25-.81-.25-1.33c0-.75.16-1.34.48-1.76.32-.42.73-.74,1.24-.96.5-.22,1.05-.37,1.66-.44.61-.08,1.19-.15,1.76-.2.45-.04.83-.08,1.16-.13.32-.05.59-.12.8-.23.21-.1.37-.26.46-.45.1-.2.15-.47.15-.81,0-.28-.07-.5-.2-.67-.13-.17-.3-.31-.49-.41-.2-.1-.42-.17-.66-.21-.24-.04-.48-.06-.7-.06-.32,0-.63.03-.94.1-.31.07-.59.17-.84.33-.25.15-.46.34-.63.57s-.28.51-.34.84h-1.68c.08-.57.25-1.06.52-1.47ZM32.88,488.68c.38.24.8.36,1.28.36,1.33,0,2.29-.45,2.87-1.34.28-.38.46-.8.56-1.25.1-.45.21-.91.33-1.38h-.04c-.24.17-.54.29-.9.37-.36.07-.75.13-1.16.17-.41.04-.82.09-1.24.15-.42.06-.79.16-1.12.29-.33.13-.6.32-.81.56-.21.24-.32.58-.34,1.02,0,.47.19.83.56,1.07Z"/>
        <path d="M45.64,476.17l-2.97,14.11h-1.66l2.95-14.11h1.68Z"/>
        <path d="M50.05,476.17l-1.09,5.16.04.04c.38-.49.84-.87,1.37-1.14.53-.27,1.12-.41,1.75-.41.69,0,1.28.11,1.78.33.5.22.92.52,1.25.9.33.38.58.84.74,1.38.16.54.25,1.14.25,1.8,0,.8-.12,1.58-.36,2.33-.24.75-.59,1.42-1.05,2-.46.58-1.02,1.05-1.69,1.4s-1.43.53-2.3.53c-.47,0-.91-.06-1.3-.19-.4-.12-.74-.29-1.04-.48-.3-.2-.54-.42-.73-.67-.19-.25-.31-.51-.37-.77h-.04l-.38,1.9h-1.48l2.97-14.11h1.68ZM54.31,483.08c-.1-.36-.24-.67-.43-.93-.19-.26-.43-.47-.72-.62-.29-.15-.63-.23-1.03-.23-.74,0-1.37.17-1.9.5-.53.34-.96.76-1.29,1.28s-.58,1.07-.74,1.68c-.16.61-.24,1.18-.24,1.72,0,.8.26,1.43.77,1.88.51.45,1.19.67,2.02.67.61,0,1.14-.16,1.6-.47.46-.32.85-.71,1.17-1.19.32-.47.55-.99.71-1.56.16-.57.24-1.09.24-1.58,0-.41-.05-.79-.15-1.15Z"/>
        <path d="M59.08,486.56c0,.4.07.75.22,1.06.14.31.34.57.59.77.25.2.53.36.85.47.32.11.65.17.99.17.75,0,1.37-.17,1.86-.5.49-.34.85-.82,1.09-1.45h1.68c-.13.57-.34,1.06-.63,1.49-.29.43-.64.78-1.05,1.07-.41.28-.86.5-1.36.64s-1.03.22-1.58.22c-.84,0-1.54-.13-2.1-.39-.56-.26-1.01-.59-1.33-.99-.33-.4-.56-.84-.69-1.32-.13-.48-.2-.95-.2-1.39,0-.98.14-1.87.42-2.68s.67-1.51,1.15-2.09c.48-.58,1.04-1.03,1.68-1.34.64-.32,1.31-.47,2.01-.47,1.5,0,2.6.4,3.29,1.19.69.79,1.04,1.9,1.04,3.34,0,.26-.02.51-.06.75-.04.24-.07.43-.1.57h-7.69c-.04.29-.06.59-.06.89ZM65.24,483.13c-.07-.35-.2-.66-.4-.93-.19-.27-.44-.49-.76-.65-.32-.16-.71-.25-1.17-.25-.49,0-.93.08-1.31.23s-.73.36-1.02.62-.53.57-.73.92-.36.72-.47,1.12h5.93c.03-.36,0-.71-.07-1.06Z"/>
        <path d="M71.44,480.06l-.49,2.19h.04c.4-.7.9-1.28,1.51-1.74s1.35-.69,2.2-.69c.11,0,.2,0,.3-.02.09-.01.19,0,.3.02l-.4,1.8c-.05-.01-.14-.02-.26-.02h-.24c-.21,0-.38,0-.51.01s-.3.04-.49.09c-.46.12-.87.32-1.24.61-.36.29-.68.64-.94,1.05-.22.33-.4.71-.53,1.16-.13.44-.24.85-.32,1.24l-.97,4.53h-1.66l2.12-10.22h1.58Z"/>
        <path d="M80.81,480.06l-.32,1.48h-2.04l-1.27,6.01c-.01.12-.03.23-.04.34-.01.11-.02.22-.02.34,0,.26.1.44.31.54.2.1.44.15.7.15.17,0,.34-.02.49-.05.16-.03.32-.08.47-.13l-.3,1.54c-.2.03-.4.05-.59.07-.2.02-.4.03-.59.03-.32,0-.61-.02-.89-.07-.28-.05-.52-.13-.72-.26-.2-.12-.37-.29-.49-.5-.12-.21-.19-.48-.19-.81,0-.15,0-.28.03-.42.02-.13.04-.28.07-.44l1.34-6.35h-1.72l.32-1.48h1.72l.63-3.02h1.68l-.63,3.02h2.04Z"/>
        <path d="M87.06,481.75c-.42-.3-.93-.44-1.52-.44-.25,0-.51.02-.77.06-.26.04-.5.11-.7.21-.2.1-.37.23-.5.4-.13.17-.2.38-.2.64,0,.24.08.44.23.61.15.17.36.33.61.47s.55.28.87.41c.32.13.65.25.98.39.34.15.68.3,1,.47.32.17.61.37.86.58.25.22.45.47.61.77.16.3.24.64.24,1.04,0,.57-.13,1.05-.38,1.45-.25.4-.57.73-.97.98s-.84.43-1.33.54-.99.17-1.49.17c-.59,0-1.14-.06-1.64-.17-.5-.11-.93-.3-1.29-.56-.36-.26-.65-.62-.86-1.06-.21-.44-.32-.99-.32-1.65h1.66c-.03.37.03.68.17.94.14.26.33.46.57.61.24.15.53.26.85.33.32.07.66.1,1.02.1.28,0,.55-.03.83-.08.28-.05.53-.14.75-.27.22-.12.41-.29.54-.48.14-.2.21-.44.21-.73,0-.25-.08-.46-.24-.64s-.36-.34-.61-.48c-.25-.15-.54-.28-.86-.41-.32-.12-.65-.26-.98-.41-.34-.13-.68-.28-1-.43-.32-.16-.61-.35-.87-.56-.26-.22-.46-.47-.61-.76-.15-.29-.23-.63-.23-1.01,0-.47.11-.9.33-1.27.22-.37.5-.68.86-.92.36-.24.76-.43,1.22-.56.45-.13.92-.2,1.39-.2s.94.06,1.4.17c.46.11.87.3,1.24.55.36.26.66.59.88,1.01.22.42.34.92.34,1.51h-1.68c.03-.58-.17-1.02-.59-1.31Z"/>
        <path d="M96.55,480.06l-.32,1.48h-2.04l-1.27,6.01c-.01.12-.03.23-.04.34-.01.11-.02.22-.02.34,0,.26.1.44.31.54.2.1.44.15.7.15.17,0,.34-.02.49-.05.16-.03.32-.08.47-.13l-.3,1.54c-.2.03-.4.05-.59.07-.2.02-.4.03-.59.03-.32,0-.61-.02-.89-.07-.28-.05-.52-.13-.72-.26-.2-.12-.37-.29-.49-.5-.12-.21-.19-.48-.19-.81,0-.15,0-.28.03-.42.02-.13.04-.28.07-.44l1.34-6.35h-1.72l.32-1.48h1.72l.63-3.02h1.68l-.63,3.02h2.04Z"/>
        <path d="M99.98,480.06l-.49,2.19h.04c.4-.7.9-1.28,1.51-1.74s1.35-.69,2.2-.69c.11,0,.2,0,.3-.02.09-.01.19,0,.3.02l-.4,1.8c-.05-.01-.14-.02-.26-.02h-.24c-.21,0-.38,0-.51.01s-.3.04-.49.09c-.46.12-.87.32-1.24.61-.36.29-.68.64-.94,1.05-.22.33-.4.71-.53,1.16-.13.44-.24.85-.32,1.24l-.97,4.53h-1.66l2.12-10.22h1.58Z"/>
        <path d="M104.52,481.67c.27-.42.6-.76,1-1.04.4-.28.84-.48,1.34-.61.5-.13,1.02-.2,1.56-.2.5,0,.98.04,1.42.12.45.08.84.22,1.19.42s.62.46.82.8c.2.34.31.76.31,1.28,0,.29-.04.6-.11.94-.07.34-.14.64-.21.92l-.65,2.79c-.04.21-.1.45-.17.71-.07.26-.11.51-.11.75s.05.4.14.49c.09.09.21.14.36.14.08,0,.17-.02.27-.05.1-.03.19-.06.27-.09l-.26,1.25c-.13.05-.3.1-.5.15-.2.05-.38.07-.52.07-.46,0-.81-.12-1.05-.38-.24-.25-.33-.6-.28-1.05l-.04-.04c-.36.47-.8.84-1.32,1.09-.53.25-1.23.38-2.1.38-.44,0-.84-.05-1.22-.15-.38-.1-.7-.26-.98-.49s-.5-.53-.66-.89-.25-.81-.25-1.33c0-.75.16-1.34.48-1.76.32-.42.73-.74,1.24-.96.5-.22,1.05-.37,1.66-.44.61-.08,1.19-.15,1.76-.2.45-.04.83-.08,1.16-.13.32-.05.59-.12.8-.23.21-.1.37-.26.46-.45.1-.2.15-.47.15-.81,0-.28-.07-.5-.2-.67-.13-.17-.3-.31-.49-.41-.2-.1-.42-.17-.66-.21-.24-.04-.48-.06-.7-.06-.32,0-.63.03-.94.1-.31.07-.59.17-.84.33-.25.15-.46.34-.63.57s-.28.51-.34.84h-1.68c.08-.57.25-1.06.52-1.47ZM105,488.68c.38.24.8.36,1.28.36,1.33,0,2.29-.45,2.87-1.34.28-.38.46-.8.56-1.25.1-.45.21-.91.33-1.38h-.04c-.24.17-.54.29-.9.37-.36.07-.75.13-1.16.17-.41.04-.82.09-1.24.15-.42.06-.79.16-1.12.29-.33.13-.6.32-.81.56-.21.24-.32.58-.34,1.02,0,.47.19.83.56,1.07Z"/>
        <path d="M115.75,478.49c.22-.55.5-1.02.86-1.41.36-.4.78-.7,1.28-.92.5-.22,1.09-.33,1.78-.33.47,0,.94.05,1.38.16.45.11.84.28,1.19.51s.62.54.82.92c.2.38.31.83.31,1.37,0,.47-.07.92-.22,1.33-.15.42-.35.78-.61,1.11-.26.32-.58.59-.94.8-.36.21-.75.34-1.18.4v.04c.37.05.69.17.97.35.28.18.51.4.7.65.19.26.33.55.42.88.09.33.14.67.14,1.03,0,.7-.13,1.36-.38,1.98-.25.62-.59,1.16-1.03,1.63-.44.47-.95.84-1.55,1.11-.6.27-1.26.41-1.97.41-.25,0-.49,0-.73-.02-.24-.01-.47-.04-.71-.08l.28-1.4c.13.03.23.04.3.04h.3c.53,0,1.02-.08,1.48-.24.46-.16.87-.39,1.22-.68.35-.3.62-.66.82-1.1.2-.44.3-.94.3-1.5,0-.51-.09-.92-.26-1.23-.17-.3-.4-.54-.69-.7-.29-.16-.63-.27-1.01-.32-.38-.05-.79-.06-1.23-.05l.3-1.38c.45.03.89,0,1.31-.1.43-.09.81-.25,1.15-.46.34-.22.61-.5.82-.86.21-.36.32-.78.32-1.28,0-.3-.06-.57-.18-.79s-.27-.41-.45-.56c-.18-.15-.39-.27-.62-.35-.23-.08-.46-.12-.68-.12-.5,0-.92.09-1.25.28s-.6.42-.82.72c-.22.3-.39.63-.5,1.01s-.22.75-.3,1.14l-2.08,9.83h-1.68l2.1-9.96c.13-.67.31-1.28.52-1.83Z"/>
        <path d="M125.7,486.56c0,.4.07.75.22,1.06.14.31.34.57.59.77.25.2.53.36.85.47.32.11.65.17.99.17.75,0,1.37-.17,1.86-.5.49-.34.85-.82,1.09-1.45h1.68c-.13.57-.34,1.06-.63,1.49-.29.43-.64.78-1.05,1.07-.41.28-.86.5-1.36.64s-1.03.22-1.58.22c-.84,0-1.54-.13-2.1-.39-.56-.26-1.01-.59-1.33-.99-.33-.4-.56-.84-.69-1.32-.13-.48-.2-.95-.2-1.39,0-.98.14-1.87.42-2.68s.67-1.51,1.15-2.09c.48-.58,1.04-1.03,1.68-1.34.64-.32,1.31-.47,2.01-.47,1.5,0,2.6.4,3.29,1.19.69.79,1.04,1.9,1.04,3.34,0,.26-.02.51-.06.75-.04.24-.07.43-.1.57h-7.69c-.04.29-.06.59-.06.89ZM131.86,483.13c-.07-.35-.2-.66-.4-.93-.19-.27-.44-.49-.76-.65-.32-.16-.71-.25-1.17-.25-.49,0-.93.08-1.31.23s-.73.36-1.02.62-.53.57-.73.92-.36.72-.47,1.12h5.93c.03-.36,0-.71-.07-1.06Z"/>
        <path d="M139.88,487l.32-1.66,8.3-9.07h1.42l-1.94,9.25h1.86l-.3,1.48h-1.86l-.71,3.28h-1.68l.71-3.28h-6.13ZM146.3,485.52l1.32-6.35h-.04l-5.79,6.35h4.51Z"/>
        <path d="M150.87,487l.32-1.66,8.3-9.07h1.42l-1.94,9.25h1.86l-.3,1.48h-1.86l-.71,3.28h-1.68l.71-3.28h-6.13ZM157.29,485.52l1.32-6.35h-.04l-5.79,6.35h4.51Z"/>
        <path d="M164.89,488.09c-.13.54-.25,1.1-.35,1.68-.1.58-.25,1.11-.45,1.59-.2.48-.49.89-.87,1.23-.38.34-.91.53-1.59.58l.2-.95c.26-.04.48-.12.64-.25.17-.13.3-.28.41-.46.11-.18.19-.37.26-.58.07-.21.13-.43.2-.65h-1.11l.47-2.19h2.19Z"/>
        <path d="M175.31,478.41c.23-.47.54-.86.93-1.18s.84-.56,1.36-.72c.52-.16,1.06-.25,1.63-.25.51,0,1.01.08,1.48.24.47.16.89.39,1.26.68.36.3.65.66.87,1.09.22.43.33.92.33,1.47,0,.79-.23,1.47-.69,2.04-.46.57-1.07.94-1.82,1.11v.04c.69.29,1.19.73,1.5,1.32.32.59.47,1.25.47,1.98,0,.65-.13,1.23-.39,1.76-.26.53-.6.98-1.04,1.35-.43.38-.93.66-1.49.86-.56.2-1.15.3-1.77.3s-1.19-.08-1.75-.24c-.56-.16-1.05-.4-1.47-.72-.42-.32-.76-.73-1.01-1.23-.25-.49-.38-1.08-.38-1.77,0-1.07.3-1.94.91-2.61.61-.67,1.42-1.1,2.45-1.29v-.04c-.5-.22-.92-.57-1.25-1.05-.33-.47-.49-.99-.49-1.54,0-.61.12-1.14.35-1.61ZM180.01,488.28c.57-.5.85-1.21.85-2.12,0-.75-.22-1.36-.67-1.83-.45-.47-1.09-.7-1.92-.7-.92,0-1.68.24-2.26.73-.59.49-.88,1.21-.88,2.16,0,.84.25,1.47.76,1.89s1.16.62,1.95.62c.88,0,1.61-.25,2.17-.75ZM177.43,481.67c.45.32,1.02.48,1.69.48s1.22-.21,1.64-.63c.42-.42.63-.97.63-1.64,0-.71-.19-1.25-.58-1.6-.39-.36-.94-.53-1.65-.53s-1.29.21-1.74.63c-.45.42-.67.99-.67,1.7s.23,1.27.68,1.59Z"/>
        <path d="M184.55,483.33c.1-.64.25-1.29.46-1.94s.48-1.29.81-1.91c.33-.62.72-1.17,1.17-1.64.45-.47.97-.86,1.56-1.15.59-.29,1.25-.44,1.98-.44,1.23,0,2.16.42,2.81,1.25.65.83.97,2.18.97,4.05,0,.44-.04.96-.13,1.56-.09.61-.22,1.24-.41,1.91-.18.67-.43,1.32-.74,1.98-.31.65-.69,1.24-1.14,1.75-.45.51-.97.93-1.56,1.25-.59.32-1.28.48-2.06.48s-1.35-.14-1.85-.42-.89-.66-1.2-1.15c-.3-.49-.52-1.06-.64-1.72-.13-.66-.19-1.37-.19-2.14,0-.53.05-1.11.15-1.75ZM186.69,488.04c.34.67.93,1,1.76,1,.51,0,.98-.14,1.38-.43.41-.29.76-.66,1.07-1.11.3-.45.56-.95.76-1.49.2-.55.37-1.08.49-1.6.12-.52.22-.99.28-1.42.06-.43.09-.74.09-.94,0-.26,0-.55,0-.86s0-.62-.02-.94c-.02-.32-.07-.63-.14-.93-.07-.3-.19-.57-.35-.8-.16-.23-.37-.42-.63-.55-.26-.14-.6-.21-1.01-.21-.5,0-.96.14-1.36.43-.41.28-.77.65-1.08,1.11-.31.45-.58.97-.8,1.53-.22.57-.41,1.13-.55,1.7-.15.57-.25,1.1-.32,1.6-.07.5-.1.92-.1,1.25,0,1.12.17,2.01.51,2.68Z"/>
        <path d="M203.73,480.52c-.74,1-1.42,2.04-2.06,3.14-.63,1.1-1.2,2.22-1.7,3.35s-.92,2.22-1.25,3.26h-1.92c.72-2.31,1.71-4.48,2.97-6.53s2.73-3.97,4.43-5.76h-7.29l.34-1.48h9.03l-.24,1.4c-.8.75-1.57,1.62-2.31,2.62Z"/>
        <path d="M208.23,488.49c.32.36.84.54,1.55.54.67,0,1.24-.15,1.7-.46.46-.31.85-.7,1.18-1.18.32-.47.59-1,.8-1.56.21-.57.4-1.11.55-1.62l-.04-.04c-.33.49-.78.84-1.34,1.06-.57.22-1.15.33-1.74.33s-1.11-.11-1.59-.33c-.48-.22-.9-.51-1.25-.88-.35-.37-.62-.8-.81-1.3s-.29-1.03-.29-1.6c0-.71.12-1.38.35-2.01.23-.63.56-1.18.99-1.65.43-.47.94-.85,1.54-1.12s1.27-.41,2.01-.41,1.38.11,1.92.34c.54.22.99.54,1.34.96s.62.91.79,1.49.26,1.22.26,1.92c0,.92-.1,1.89-.31,2.9-.2,1.01-.49,1.93-.86,2.78-.26.61-.55,1.15-.86,1.62-.31.47-.67.88-1.08,1.21-.41.33-.88.58-1.4.76-.53.18-1.14.27-1.84.27-.58,0-1.11-.07-1.59-.21-.48-.14-.89-.36-1.23-.65s-.59-.67-.77-1.12-.26-.98-.25-1.58h1.78c0,.67.16,1.19.48,1.55ZM212.63,483.8c.38-.18.7-.43.96-.75.26-.32.45-.69.58-1.11.13-.42.2-.86.2-1.32,0-.87-.22-1.56-.67-2.09-.45-.52-1.13-.78-2.04-.78-.49,0-.91.11-1.27.33-.36.22-.67.5-.91.85-.24.35-.43.74-.55,1.17-.13.43-.19.85-.19,1.28,0,.8.22,1.46.65,1.96s1.07.75,1.92.75c.5,0,.94-.09,1.32-.28Z"/>
        <path d="M219.22,488.49c.32.36.84.54,1.55.54.67,0,1.24-.15,1.7-.46.46-.31.85-.7,1.18-1.18.32-.47.59-1,.8-1.56.21-.57.4-1.11.55-1.62l-.04-.04c-.33.49-.78.84-1.34,1.06-.57.22-1.15.33-1.74.33s-1.11-.11-1.59-.33c-.48-.22-.9-.51-1.25-.88-.35-.37-.62-.8-.81-1.3s-.29-1.03-.29-1.6c0-.71.12-1.38.35-2.01.23-.63.56-1.18.99-1.65.43-.47.94-.85,1.54-1.12s1.27-.41,2.01-.41,1.38.11,1.92.34c.54.22.99.54,1.34.96s.62.91.79,1.49.26,1.22.26,1.92c0,.92-.1,1.89-.31,2.9-.2,1.01-.49,1.93-.86,2.78-.26.61-.55,1.15-.86,1.62-.31.47-.67.88-1.08,1.21-.41.33-.88.58-1.4.76-.53.18-1.14.27-1.84.27-.58,0-1.11-.07-1.59-.21-.48-.14-.89-.36-1.23-.65s-.59-.67-.77-1.12-.26-.98-.25-1.58h1.78c0,.67.16,1.19.48,1.55ZM223.62,483.8c.38-.18.7-.43.96-.75.26-.32.45-.69.58-1.11.13-.42.2-.86.2-1.32,0-.87-.22-1.56-.67-2.09-.45-.52-1.13-.78-2.04-.78-.49,0-.91.11-1.27.33-.36.22-.67.5-.91.85-.24.35-.43.74-.55,1.17-.13.43-.19.85-.19,1.28,0,.8.22,1.46.65,1.96s1.07.75,1.92.75c.5,0,.94-.09,1.32-.28Z"/>
        <path d="M239.08,476.17l1.88,12.14h.04l6.98-12.14h2.61l-2.99,14.11h-1.8l2.89-12.36h-.04l-7.2,12.36h-1.8l-1.84-12.36h-.04l-2.47,12.36h-1.8l2.97-14.11h2.61Z"/>
        <path d="M257.07,490.28l.32-1.54h-.04c-.42.59-.96,1.03-1.6,1.32-.65.29-1.32.43-2.04.43-.96,0-1.68-.21-2.14-.62-.47-.42-.7-1.08-.7-1.99,0-.22.03-.51.08-.87.05-.36.12-.73.22-1.13l1.25-5.83h1.68l-1.3,5.97c-.03.09-.05.21-.08.36-.03.15-.05.29-.08.44-.03.15-.05.3-.06.44-.01.14-.02.25-.02.35,0,.49.17.85.51,1.08s.76.35,1.27.35c.47,0,.91-.09,1.31-.28.4-.18.76-.43,1.08-.74.32-.31.58-.67.8-1.07.22-.4.37-.81.46-1.24l1.19-5.65h1.68l-2.15,10.22h-1.62Z"/>
        <path d="M265.23,480.06l-.32,1.54h.04c.42-.59.96-1.04,1.6-1.33.65-.3,1.32-.44,2.04-.44.96,0,1.68.21,2.15.63.47.42.7,1.09.7,2,0,.22-.03.51-.08.87-.05.36-.12.73-.22,1.13l-1.25,5.83h-1.68l1.3-5.97c.01-.11.03-.23.06-.37.03-.14.05-.28.08-.44.03-.15.05-.3.07-.43.02-.14.03-.25.03-.35,0-.49-.17-.85-.51-1.08s-.76-.35-1.27-.35c-.46,0-.92.11-1.37.34-.45.22-.84.51-1.16.85-.3.26-.54.58-.71.96s-.31.77-.42,1.18l-1.19,5.65h-1.66l2.14-10.22h1.62Z"/>
        <path d="M276.26,480.06l-2.13,10.22h-1.66l2.12-10.22h1.68ZM274.96,478.22l.44-2.06h1.7l-.44,2.06h-1.7Z"/>
        <path d="M284.58,481.83c-.38-.35-.91-.52-1.58-.52s-1.22.15-1.71.44-.91.67-1.25,1.13c-.34.46-.59.98-.76,1.55-.17.57-.26,1.14-.26,1.69,0,.4.04.77.13,1.13.09.36.23.67.42.93s.46.47.78.63c.32.16.72.24,1.2.24.72,0,1.34-.19,1.86-.57.51-.38.89-.89,1.13-1.52h1.68c-.3,1.16-.86,2.04-1.66,2.65-.8.61-1.81.91-3,.91-1.4,0-2.45-.38-3.15-1.15-.71-.76-1.06-1.84-1.06-3.24,0-.82.12-1.6.37-2.35.24-.75.61-1.42,1.09-2.01.48-.59,1.07-1.05,1.78-1.4.7-.35,1.51-.52,2.42-.52,1.16,0,2.08.28,2.76.84.68.56,1.04,1.44,1.08,2.64h-1.68c0-.63-.19-1.12-.57-1.47Z"/>
        <path d="M292.12,476.17l-1.21,5.4.04.04c.42-.59.96-1.04,1.6-1.33.65-.3,1.32-.44,2.04-.44.96,0,1.68.21,2.15.63.47.42.7,1.09.7,2,0,.22-.03.51-.08.87-.05.36-.12.73-.22,1.13l-1.25,5.83h-1.68l1.3-5.97c.01-.11.03-.23.06-.37.03-.14.05-.28.08-.44.03-.15.05-.3.07-.43.02-.14.03-.25.03-.35,0-.49-.17-.85-.51-1.08s-.76-.35-1.27-.35c-.46,0-.92.11-1.37.34-.45.22-.84.51-1.16.85-.3.26-.54.58-.71.96s-.31.77-.42,1.18l-1.19,5.65h-1.66l2.97-14.11h1.68Z"/>
        <path d="M301.51,488.09c-.13.54-.25,1.1-.35,1.68-.1.58-.25,1.11-.45,1.59-.2.48-.49.89-.87,1.23-.38.34-.91.53-1.59.58l.2-.95c.26-.04.48-.12.64-.25.17-.13.3-.28.41-.46.11-.18.19-.37.26-.58.07-.21.13-.43.2-.65h-1.11l.47-2.19h2.19Z"/>
        <path d="M318.6,490.18c-.74.28-1.5.42-2.26.42-1.94,0-3.43-.54-4.48-1.61-1.05-1.07-1.57-2.59-1.57-4.56,0-1.15.18-2.24.53-3.27.36-1.03.87-1.95,1.53-2.74s1.48-1.42,2.44-1.89,2.04-.7,3.24-.7c.78,0,1.51.09,2.2.28.69.18,1.29.47,1.81.86.51.39.92.88,1.22,1.47.3.59.44,1.3.44,2.12h-1.88c0-.54-.1-1.01-.31-1.4-.2-.4-.48-.72-.82-.98-.34-.26-.74-.45-1.21-.57-.46-.12-.95-.19-1.46-.19-.99,0-1.85.21-2.58.62-.73.42-1.34.95-1.83,1.61-.49.66-.85,1.41-1.1,2.24-.24.84-.37,1.68-.37,2.54,0,.69.09,1.31.26,1.88.17.57.43,1.05.77,1.45.34.4.77.71,1.29.94.52.22,1.14.34,1.85.34.75,0,1.41-.11,1.97-.34.56-.22,1.04-.54,1.45-.94.41-.4.75-.89,1.02-1.45.27-.57.49-1.19.66-1.88h-4.51l.32-1.58h6.15l-1.54,7.43h-1.19l-.12-1.4c-.55.59-1.2,1.03-1.95,1.31Z"/>
        <path d="M326.42,486.56c0,.4.07.75.22,1.06.14.31.34.57.59.77.25.2.53.36.85.47.32.11.65.17.99.17.75,0,1.37-.17,1.86-.5.49-.34.85-.82,1.09-1.45h1.68c-.13.57-.34,1.06-.63,1.49-.29.43-.64.78-1.05,1.07-.41.28-.86.5-1.36.64s-1.03.22-1.58.22c-.84,0-1.54-.13-2.1-.39-.56-.26-1.01-.59-1.33-.99-.33-.4-.56-.84-.69-1.32-.13-.48-.2-.95-.2-1.39,0-.98.14-1.87.42-2.68s.67-1.51,1.15-2.09c.48-.58,1.04-1.03,1.68-1.34.64-.32,1.31-.47,2.01-.47,1.5,0,2.6.4,3.29,1.19.69.79,1.04,1.9,1.04,3.34,0,.26-.02.51-.06.75-.04.24-.07.43-.1.57h-7.69c-.04.29-.06.59-.06.89ZM332.57,483.13c-.07-.35-.2-.66-.4-.93-.19-.27-.44-.49-.76-.65-.32-.16-.71-.25-1.17-.25-.49,0-.93.08-1.31.23s-.73.36-1.02.62-.53.57-.73.92-.36.72-.47,1.12h5.93c.03-.36,0-.71-.07-1.06Z"/>
        <path d="M338.77,480.06l-.49,2.19h.04c.4-.7.9-1.28,1.51-1.74s1.35-.69,2.2-.69c.11,0,.2,0,.3-.02.09-.01.19,0,.3.02l-.4,1.8c-.05-.01-.14-.02-.26-.02h-.24c-.21,0-.38,0-.51.01s-.3.04-.49.09c-.46.12-.87.32-1.24.61-.36.29-.68.64-.94,1.05-.22.33-.4.71-.53,1.16-.13.44-.24.85-.32,1.24l-.97,4.53h-1.66l2.12-10.22h1.58Z"/>
        <path d="M345.37,480.06l-.38,1.52.04.04c.44-.55.96-.99,1.57-1.31.61-.32,1.27-.48,1.99-.48.65,0,1.2.14,1.66.42.46.28.76.75.91,1.42.4-.55.91-1,1.53-1.33.63-.34,1.28-.5,1.97-.5.36,0,.71.04,1.05.13.34.09.65.22.92.4.27.18.48.41.64.7.16.29.24.65.24,1.07,0,.3-.03.65-.1,1.03-.07.38-.13.72-.2,1.01l-1.29,6.13h-1.68l1.42-6.48c.04-.16.08-.35.11-.56.03-.22.05-.4.05-.54,0-.4-.15-.72-.44-.99s-.67-.4-1.12-.4c-.24,0-.48.04-.72.12-.24.08-.48.18-.7.31-.22.12-.43.27-.63.44-.2.17-.37.35-.51.53-.28.3-.48.65-.61,1.05-.13.4-.24.81-.34,1.25l-1.13,5.28h-1.68l1.23-5.83c.09-.4.17-.76.23-1.11.06-.34.09-.57.09-.69,0-.42-.12-.75-.37-.99-.24-.24-.6-.36-1.06-.36s-.92.13-1.37.4-.83.57-1.14.91c-.36.34-.6.69-.73,1.04-.13.35-.25.77-.36,1.27l-1.15,5.36h-1.66l2.15-10.22h1.56Z"/>
        <path d="M360.15,481.67c.27-.42.6-.76,1-1.04.4-.28.84-.48,1.34-.61.5-.13,1.02-.2,1.56-.2.5,0,.98.04,1.42.12.45.08.84.22,1.19.42s.62.46.82.8c.2.34.31.76.31,1.28,0,.29-.04.6-.11.94-.07.34-.14.64-.21.92l-.65,2.79c-.04.21-.1.45-.17.71-.07.26-.11.51-.11.75s.05.4.14.49c.09.09.21.14.36.14.08,0,.17-.02.27-.05.1-.03.19-.06.27-.09l-.26,1.25c-.13.05-.3.1-.5.15-.2.05-.38.07-.52.07-.46,0-.81-.12-1.05-.38-.24-.25-.33-.6-.28-1.05l-.04-.04c-.36.47-.8.84-1.32,1.09-.53.25-1.23.38-2.1.38-.44,0-.84-.05-1.22-.15-.38-.1-.7-.26-.98-.49s-.5-.53-.66-.89-.25-.81-.25-1.33c0-.75.16-1.34.48-1.76.32-.42.73-.74,1.24-.96.5-.22,1.05-.37,1.66-.44.61-.08,1.19-.15,1.76-.2.45-.04.83-.08,1.16-.13.32-.05.59-.12.8-.23.21-.1.37-.26.46-.45.1-.2.15-.47.15-.81,0-.28-.07-.5-.2-.67-.13-.17-.3-.31-.49-.41-.2-.1-.42-.17-.66-.21-.24-.04-.48-.06-.7-.06-.32,0-.63.03-.94.1-.31.07-.59.17-.84.33-.25.15-.46.34-.63.57s-.28.51-.34.84h-1.68c.08-.57.25-1.06.52-1.47ZM360.62,488.68c.38.24.8.36,1.28.36,1.33,0,2.29-.45,2.87-1.34.28-.38.46-.8.56-1.25.1-.45.21-.91.33-1.38h-.04c-.24.17-.54.29-.9.37-.36.07-.75.13-1.16.17-.41.04-.82.09-1.24.15-.42.06-.79.16-1.12.29-.33.13-.6.32-.81.56-.21.24-.32.58-.34,1.02,0,.47.19.83.56,1.07Z"/>
        <path d="M372.52,480.06l-.32,1.54h.04c.42-.59.96-1.04,1.6-1.33.65-.3,1.32-.44,2.04-.44.96,0,1.68.21,2.15.63.47.42.7,1.09.7,2,0,.22-.03.51-.08.87-.05.36-.12.73-.22,1.13l-1.25,5.83h-1.68l1.3-5.97c.01-.11.03-.23.06-.37.03-.14.05-.28.08-.44.03-.15.05-.3.07-.43.02-.14.03-.25.03-.35,0-.49-.17-.85-.51-1.08s-.76-.35-1.27-.35c-.46,0-.92.11-1.37.34-.45.22-.84.51-1.16.85-.3.26-.54.58-.71.96s-.31.77-.42,1.18l-1.19,5.65h-1.66l2.14-10.22h1.62Z"/>
        <path d="M382.42,492.94c-.21.3-.44.55-.69.77-.25.22-.53.39-.85.51-.32.12-.69.19-1.11.19-.2,0-.4-.02-.61-.07-.21-.05-.4-.11-.55-.19l.3-1.36c.13.08.29.14.47.2.18.05.34.08.47.08.38,0,.69-.1.93-.31.24-.2.46-.47.65-.8l1.03-1.68-1.8-10.22h1.8l1.19,8.12h.04l4.29-8.12h1.84l-6.76,11.94c-.21.33-.42.64-.63.94Z"/>
      </g>
      <g>
        <path d="M4.25,364.95c.93.68,1.86,1.21,2.79,1.53.9.39,1.9.55,2.96.55,1.4,0,2.56-.33,3.46-1.04.86-.65,1.3-1.6,1.3-2.84,0-.55-.1-1.04-.27-1.47-.2-.39-.5-.78-.86-1.14-.4-.33-.86-.62-1.43-.91l-2.09-.88c-1.06-.39-1.99-.81-2.83-1.3-.86-.46-1.56-1.01-2.16-1.63-.6-.59-1.06-1.27-1.36-2.02-.33-.72-.5-1.53-.5-2.44,0-.98.2-1.89.63-2.67.4-.75.96-1.4,1.7-1.92.7-.52,1.56-.91,2.56-1.17.96-.26,2.03-.39,3.19-.39s2.36.23,3.52.62c1.13.42,2.13.95,3.06,1.56l-1.66,2.57c-.8-.59-1.63-1.04-2.49-1.4-.93-.33-1.76-.49-2.53-.49-1.53,0-2.63.33-3.36.95-.73.65-1.1,1.43-1.1,2.31,0,.59.1,1.11.33,1.53.2.46.53.88,1,1.21.4.39.93.72,1.6.98.6.33,1.33.62,2.19.95,1.06.42,1.99.85,2.79,1.3.8.46,1.46.98,2.03,1.53.53.59.93,1.24,1.2,1.96.27.75.4,1.56.4,2.48s-.17,1.79-.5,2.57c-.37.85-.9,1.56-1.56,2.15-.73.59-1.6,1.08-2.59,1.47-1.06.33-2.26.52-3.62.52s-2.59-.2-3.79-.59c-1.2-.39-2.39-1.01-3.56-1.86l1.56-2.58Z"/>
        <path d="M25.62,358.6v7.99h11.87v3h-15.46v-24.18h14.9v3h-11.3v7.27h10.77v2.93h-10.77Z"/>
        <path d="M51.09,369.97c-1.6,0-3.03-.29-4.29-.81-1.33-.59-2.43-1.4-3.36-2.44-.96-1.04-1.7-2.31-2.19-3.85-.53-1.5-.8-3.19-.8-5.12s.27-3.75.8-5.31c.5-1.53,1.23-2.84,2.16-3.94.93-1.04,2.03-1.86,3.36-2.44,1.3-.55,2.73-.85,4.32-.85s2.99.29,4.32.85c1.3.59,2.43,1.4,3.36,2.44.93,1.11,1.66,2.41,2.19,3.94.5,1.56.77,3.36.77,5.31s-.27,3.62-.77,5.12c-.53,1.53-1.26,2.8-2.19,3.85-.96,1.04-2.09,1.86-3.39,2.44-1.33.52-2.76.81-4.29.81ZM51.09,348.04c-1.2,0-2.23.26-3.09.75-.9.52-1.63,1.24-2.19,2.09-.6.91-1.06,1.92-1.33,3.1-.3,1.21-.43,2.48-.43,3.78,0,1.37.13,2.61.47,3.72.3,1.17.76,2.15,1.36,2.97.6.85,1.33,1.5,2.23,1.96.86.49,1.86.72,2.99.72s2.13-.23,3.03-.72c.86-.46,1.6-1.11,2.19-1.96.6-.81,1.03-1.79,1.36-2.97.3-1.11.47-2.35.47-3.72s-.17-2.57-.43-3.78c-.3-1.17-.73-2.18-1.3-3.1-.6-.85-1.33-1.56-2.19-2.09-.9-.49-1.93-.75-3.12-.75Z"/>
        <path d="M74.46,369.91c-1.26,0-2.39-.2-3.46-.52-1.1-.36-2.03-.91-2.83-1.66-.8-.75-1.43-1.73-1.9-2.97-.47-1.17-.7-2.64-.7-4.37v-14.99h3.59v15.45c0,1.11.13,2.05.4,2.8.23.78.6,1.4,1.06,1.86.47.52,1.03.88,1.7,1.08.63.23,1.33.33,2.13.33s1.5-.1,2.16-.33c.63-.2,1.2-.55,1.66-1.08.47-.46.83-1.08,1.1-1.86.23-.75.37-1.69.37-2.8v-15.45h3.59v14.99c0,1.73-.23,3.19-.7,4.37-.47,1.24-1.1,2.22-1.9,2.97s-1.76,1.3-2.83,1.66c-1.1.33-2.26.52-3.46.52Z"/>
        <path d="M91.74,345.4v21.19h10.97v3h-14.56v-24.18h3.59Z"/>
        <path d="M133.33,369.58h-4.62l-10.21-20.47v20.47h-3.39v-24.18h4.65l10.17,20.21v-20.21h3.39v24.18Z"/>
        <path d="M150.52,363.39h-8.84l-1.96,6.19h-3.62l8.11-24.18h3.82l8.11,24.18h-3.62l-2-6.19ZM142.54,360.68h7.12l-3.56-11.15-3.56,11.15Z"/>
        <path d="M155.44,348.39v-3h17.36v3h-7.02v21.19h-3.56v-21.19h-6.78Z"/>
        <path d="M179.3,369.58h-3.56v-24.18h3.56v24.18Z"/>
        <path d="M193.87,369.97c-1.6,0-3.03-.29-4.29-.81-1.33-.59-2.43-1.4-3.36-2.44-.96-1.04-1.7-2.31-2.19-3.85-.53-1.5-.8-3.19-.8-5.12s.27-3.75.8-5.31c.5-1.53,1.23-2.84,2.16-3.94.93-1.04,2.03-1.86,3.36-2.44,1.3-.55,2.73-.85,4.32-.85s2.99.29,4.32.85c1.3.59,2.43,1.4,3.36,2.44.93,1.11,1.66,2.41,2.19,3.94.5,1.56.77,3.36.77,5.31s-.27,3.62-.77,5.12c-.53,1.53-1.26,2.8-2.19,3.85-.96,1.04-2.09,1.86-3.39,2.44-1.33.52-2.76.81-4.29.81ZM193.87,348.04c-1.2,0-2.23.26-3.09.75-.9.52-1.63,1.24-2.19,2.09-.6.91-1.06,1.92-1.33,3.1-.3,1.21-.43,2.48-.43,3.78,0,1.37.13,2.61.47,3.72.3,1.17.76,2.15,1.36,2.97.6.85,1.33,1.5,2.23,1.96.86.49,1.86.72,2.99.72s2.13-.23,3.03-.72c.86-.46,1.6-1.11,2.19-1.96.6-.81,1.03-1.79,1.36-2.97.3-1.11.47-2.35.47-3.72s-.17-2.57-.43-3.78c-.3-1.17-.73-2.18-1.3-3.1-.6-.85-1.33-1.56-2.19-2.09-.9-.49-1.93-.75-3.12-.75Z"/>
        <path d="M226.58,369.58h-4.62l-10.21-20.47v20.47h-3.39v-24.18h4.65l10.17,20.21v-20.21h3.39v24.18Z"/>
        <path d="M243.76,363.39h-8.84l-1.96,6.19h-3.62l8.11-24.18h3.82l8.11,24.18h-3.62l-2-6.19ZM235.79,360.68h7.12l-3.56-11.15-3.56,11.15Z"/>
        <path d="M255.86,345.4v21.19h10.97v3h-14.56v-24.18h3.59Z"/>
        <path d="M288.11,369.91c-1.26,0-2.39-.2-3.46-.52-1.1-.36-2.03-.91-2.83-1.66-.8-.75-1.43-1.73-1.9-2.97-.47-1.17-.7-2.64-.7-4.37v-14.99h3.59v15.45c0,1.11.13,2.05.4,2.8.23.78.6,1.4,1.06,1.86.47.52,1.03.88,1.7,1.08.63.23,1.33.33,2.13.33s1.5-.1,2.16-.33c.63-.2,1.2-.55,1.66-1.08.47-.46.83-1.08,1.1-1.86.23-.75.37-1.69.37-2.8v-15.45h3.59v14.99c0,1.73-.23,3.19-.7,4.37-.47,1.24-1.1,2.22-1.9,2.97s-1.76,1.3-2.83,1.66c-1.1.33-2.26.52-3.46.52Z"/>
        <path d="M320.03,369.58h-4.62l-10.21-20.47v20.47h-3.39v-24.18h4.65l10.17,20.21v-20.21h3.39v24.18Z"/>
        <path d="M328.37,369.58h-3.56v-24.18h3.56v24.18Z"/>
        <path d="M347.52,345.4h3.62l-8.11,24.18h-3.82l-8.11-24.18h3.62l6.38,20.04,6.42-20.04Z"/>
        <path d="M357.45,358.6v7.99h11.87v3h-15.46v-24.18h14.9v3h-11.3v7.27h10.77v2.93h-10.77Z"/>
        <path d="M381.19,345.4c2.56,0,4.49.62,5.79,1.86,1.26,1.24,1.9,3.03,1.9,5.38,0,1.86-.43,3.36-1.23,4.53-.83,1.21-2.06,2.02-3.69,2.41l6.52,10.01h-3.86l-6.38-9.71h-3.42v9.71h-3.52v-24.18h7.91ZM381.06,356.9c1.3,0,2.36-.33,3.16-1.01.76-.65,1.16-1.69,1.16-3.19s-.4-2.57-1.16-3.29c-.8-.65-1.86-1.01-3.16-1.01h-4.26v8.51h4.26Z"/>
        <path d="M393.22,364.95c.93.68,1.86,1.21,2.79,1.53.9.39,1.9.55,2.96.55,1.4,0,2.56-.33,3.46-1.04.86-.65,1.3-1.6,1.3-2.84,0-.55-.1-1.04-.27-1.47-.2-.39-.5-.78-.86-1.14-.4-.33-.86-.62-1.43-.91l-2.09-.88c-1.06-.39-1.99-.81-2.83-1.3-.86-.46-1.56-1.01-2.16-1.63-.6-.59-1.06-1.27-1.36-2.02-.33-.72-.5-1.53-.5-2.44,0-.98.2-1.89.63-2.67.4-.75.96-1.4,1.7-1.92.7-.52,1.56-.91,2.56-1.17.96-.26,2.03-.39,3.19-.39s2.36.23,3.52.62c1.13.42,2.13.95,3.06,1.56l-1.66,2.57c-.8-.59-1.63-1.04-2.49-1.4-.93-.33-1.76-.49-2.53-.49-1.53,0-2.63.33-3.36.95-.73.65-1.1,1.43-1.1,2.31,0,.59.1,1.11.33,1.53.2.46.53.88,1,1.21.4.39.93.72,1.6.98.6.33,1.33.62,2.19.95,1.06.42,1.99.85,2.79,1.3.8.46,1.46.98,2.03,1.53.53.59.93,1.24,1.2,1.96.27.75.4,1.56.4,2.48s-.17,1.79-.5,2.57c-.37.85-.9,1.56-1.56,2.15-.73.59-1.6,1.08-2.59,1.47-1.06.33-2.26.52-3.62.52s-2.59-.2-3.79-.59c-1.2-.39-2.39-1.01-3.56-1.86l1.56-2.58Z"/>
        <path d="M414.6,369.58h-3.56v-24.18h3.56v24.18Z"/>
        <path d="M417.56,348.39v-3h17.36v3h-7.02v21.19h-3.56v-21.19h-6.78Z"/>
        <path d="M444.09,359.35l-8.38-13.95h3.86l6.32,10.85,6.45-10.85h3.79l-8.48,13.92v10.27h-3.56v-10.23Z"/>
        <path d="M486.47,369.58v-18.84l-5.69,18.84h-3.86l-5.69-18.77v18.77h-3.39v-24.18h4.62l6.38,20.53,6.38-20.53h4.62v24.18h-3.39Z"/>
        <path d="M498.34,358.6v7.99h11.87v3h-15.46v-24.18h14.9v3h-11.3v7.27h10.77v2.93h-10.77Z"/>
        <path d="M512.2,348.39v-3h17.36v3h-7.02v21.19h-3.56v-21.19h-6.78Z"/>
        <path d="M543.92,363.39h-8.84l-1.96,6.19h-3.62l8.11-24.18h3.82l8.11,24.18h-3.62l-2-6.19ZM535.94,360.68h7.12l-3.56-11.15-3.56,11.15Z"/>
        <path d="M556.02,345.4v21.19h10.97v3h-14.56v-24.18h3.59Z"/>
        <path d="M583.24,345.4l4.65,19.43,4.75-19.43h3.66l-6.38,24.18h-3.92l-4.59-18.71-4.59,18.71h-3.92l-6.38-24.18h3.66l4.75,19.43,4.65-19.43h3.66Z"/>
        <path d="M608.61,369.97c-1.6,0-3.03-.29-4.29-.81-1.33-.59-2.43-1.4-3.36-2.44-.96-1.04-1.7-2.31-2.19-3.85-.53-1.5-.8-3.19-.8-5.12s.27-3.75.8-5.31c.5-1.53,1.23-2.84,2.16-3.94.93-1.04,2.03-1.86,3.36-2.44,1.3-.55,2.73-.85,4.32-.85s2.99.29,4.32.85c1.3.59,2.43,1.4,3.36,2.44.93,1.11,1.66,2.41,2.19,3.94.5,1.56.77,3.36.77,5.31s-.27,3.62-.77,5.12c-.53,1.53-1.26,2.8-2.19,3.85-.96,1.04-2.09,1.86-3.39,2.44-1.33.52-2.76.81-4.29.81ZM608.61,348.04c-1.2,0-2.23.26-3.09.75-.9.52-1.63,1.24-2.19,2.09-.6.91-1.06,1.92-1.33,3.1-.3,1.21-.43,2.48-.43,3.78,0,1.37.13,2.61.47,3.72.3,1.17.76,2.15,1.36,2.97.6.85,1.33,1.5,2.23,1.96.86.49,1.86.72,2.99.72s2.13-.23,3.03-.72c.86-.46,1.6-1.11,2.19-1.96.6-.81,1.03-1.79,1.36-2.97.3-1.11.47-2.35.47-3.72s-.17-2.57-.43-3.78c-.3-1.17-.73-2.18-1.3-3.1-.6-.85-1.33-1.56-2.19-2.09-.9-.49-1.93-.75-3.12-.75Z"/>
        <path d="M631.05,345.4c2.56,0,4.49.62,5.79,1.86,1.26,1.24,1.9,3.03,1.9,5.38,0,1.86-.43,3.36-1.23,4.53-.83,1.21-2.06,2.02-3.69,2.41l6.52,10.01h-3.86l-6.38-9.71h-3.42v9.71h-3.52v-24.18h7.91ZM630.91,356.9c1.3,0,2.36-.33,3.16-1.01.76-.65,1.16-1.69,1.16-3.19s-.4-2.57-1.16-3.29c-.8-.65-1.86-1.01-3.16-1.01h-4.26v8.51h4.26Z"/>
        <path d="M646.44,355.86l9.88-10.46h4.22l-9.71,10.3,10.27,13.88h-4.19l-8.41-11.41-2.06,2.18v9.22h-3.59v-24.18h3.59v10.46Z"/>
      </g>
      <g>
        <path d="M0,286v-5.16h27.22v5.16h-10.68v31.95h-6.22v-31.95H0Z"/>
        <path d="M44.18,280.84c4.05,0,7.08.94,9.11,2.83,1.97,1.94,2.98,4.71,2.98,8.38,0,2.83-.61,5.16-1.82,6.94-1.27,1.84-3.09,3.08-5.52,3.72l10.02,15.23h-6.78l-9.71-14.63h-4.55v14.63h-6.17v-37.11h12.45ZM43.97,298.2c1.82,0,3.34-.45,4.5-1.44,1.11-.89,1.67-2.43,1.67-4.61s-.56-3.72-1.67-4.71c-1.16-.94-2.68-1.44-4.5-1.44h-6.07v12.2h6.07Z"/>
        <path d="M68.82,301.38v11.41h18.06v5.16h-24.34v-37.11h23.48v5.16h-17.2v10.32h16.39v5.06h-16.39Z"/>
        <path d="M112.39,308.67h-13.16l-2.98,9.28h-6.22l12.55-37.11h6.53l12.55,37.11h-6.22l-3.04-9.28ZM100.75,303.95h10.12l-5.06-15.68-5.06,15.68Z"/>
        <path d="M126.81,310.16c1.62,1.14,3.14,1.98,4.55,2.48,1.42.6,2.88.84,4.4.84,2.02,0,3.64-.5,4.96-1.49,1.21-.94,1.87-2.28,1.87-4.07,0-.79-.15-1.54-.4-2.13-.3-.6-.71-1.14-1.21-1.64-.61-.45-1.32-.89-2.13-1.29l-3.09-1.29c-1.62-.6-3.09-1.24-4.35-2.03-1.32-.69-2.48-1.54-3.39-2.48-.96-.89-1.67-1.89-2.18-3.08-.51-1.09-.76-2.38-.76-3.82,0-1.59.3-2.98.96-4.22.61-1.19,1.52-2.18,2.68-2.98,1.11-.79,2.43-1.39,4-1.84,1.52-.4,3.24-.6,5.06-.6s3.74.35,5.62.99c1.82.69,3.44,1.54,4.91,2.53l-2.88,4.42c-1.37-.94-2.68-1.69-3.9-2.23-1.32-.5-2.58-.74-3.9-.74-2.18,0-3.79.45-4.81,1.34-1.06.94-1.57,2.03-1.57,3.27,0,.89.15,1.64.51,2.23.3.65.76,1.19,1.42,1.69.61.55,1.42,1.04,2.38,1.44.91.5,2.02.94,3.24,1.39,1.62.65,3.09,1.29,4.35,1.98,1.21.74,2.28,1.54,3.14,2.38.81.89,1.47,1.93,1.92,3.03.4,1.14.61,2.43.61,3.82,0,1.49-.3,2.83-.81,4.07-.61,1.29-1.42,2.38-2.48,3.32-1.11.94-2.43,1.69-4.05,2.28-1.62.5-3.54.79-5.67.79s-4.1-.3-6.02-.89c-1.92-.65-3.85-1.64-5.67-3.03l2.68-4.46Z"/>
        <path d="M168.41,318.44c-1.92,0-3.74-.3-5.41-.79-1.72-.6-3.19-1.44-4.4-2.63-1.32-1.19-2.28-2.73-2.99-4.61-.76-1.84-1.11-4.07-1.11-6.75v-22.82h6.27v23.51c0,1.64.15,3.03.56,4.12.35,1.19.86,2.08,1.57,2.78.66.74,1.47,1.24,2.43,1.54.91.35,1.97.5,3.09.5s2.12-.15,3.09-.5c.91-.3,1.72-.79,2.43-1.54.66-.69,1.16-1.59,1.57-2.78.35-1.09.56-2.48.56-4.12v-23.51h6.27v22.82c0,2.68-.35,4.91-1.06,6.75-.76,1.89-1.77,3.42-2.99,4.61-1.32,1.19-2.78,2.03-4.45,2.63-1.72.5-3.49.79-5.41.79Z"/>
        <path d="M202.16,280.84c4.05,0,7.08.94,9.11,2.83,1.97,1.94,2.98,4.71,2.98,8.38,0,2.83-.61,5.16-1.82,6.94-1.27,1.84-3.09,3.08-5.52,3.72l10.02,15.23h-6.78l-9.71-14.63h-4.55v14.63h-6.17v-37.11h12.45ZM201.96,298.2c1.82,0,3.34-.45,4.5-1.44,1.11-.89,1.67-2.43,1.67-4.61s-.56-3.72-1.67-4.71c-1.16-.94-2.68-1.44-4.5-1.44h-6.07v12.2h6.07Z"/>
        <path d="M226.81,301.38v11.41h18.06v5.16h-24.34v-37.11h23.48v5.16h-17.2v10.32h16.39v5.06h-16.39Z"/>
        <path d="M277.01,280.84c4,0,7.03.99,9.06,2.98s3.04,4.81,3.04,8.48-1.01,6.45-3.04,8.43c-2.07,2.08-5.11,3.08-9.06,3.08h-6.27v14.14h-6.22v-37.11h12.5ZM276.81,298.7c1.82,0,3.29-.5,4.45-1.54,1.11-.99,1.72-2.58,1.72-4.76s-.61-3.77-1.72-4.86c-1.16-.99-2.63-1.54-4.45-1.54h-6.07v12.7h6.07Z"/>
        <path d="M300.94,301.38v11.41h18.06v5.16h-24.34v-37.11h23.48v5.16h-17.2v10.32h16.39v5.06h-16.39Z"/>
        <path d="M353.52,317.94h-7.74l-14.83-29.96v29.96h-5.97v-37.11h7.79l14.77,29.67v-29.67h5.97v37.11Z"/>
        <path d="M367.03,317.94h-6.22v-37.11h6.22v37.11Z"/>
        <path d="M403.01,317.94h-7.74l-14.83-29.96v29.96h-5.97v-37.11h7.79l14.77,29.67v-29.67h5.97v37.11Z"/>
        <path d="M410.81,310.16c1.62,1.14,3.14,1.98,4.55,2.48,1.42.6,2.88.84,4.4.84,2.02,0,3.64-.5,4.96-1.49,1.21-.94,1.87-2.28,1.87-4.07,0-.79-.15-1.54-.4-2.13-.3-.6-.71-1.14-1.21-1.64-.61-.45-1.32-.89-2.13-1.29l-3.09-1.29c-1.62-.6-3.09-1.24-4.35-2.03-1.32-.69-2.48-1.54-3.39-2.48-.96-.89-1.67-1.89-2.18-3.08-.51-1.09-.76-2.38-.76-3.82,0-1.59.3-2.98.96-4.22.61-1.19,1.52-2.18,2.68-2.98,1.11-.79,2.43-1.39,4-1.84,1.52-.4,3.24-.6,5.06-.6s3.74.35,5.62.99c1.82.69,3.44,1.54,4.91,2.53l-2.88,4.42c-1.37-.94-2.68-1.69-3.9-2.23-1.32-.5-2.58-.74-3.9-.74-2.18,0-3.79.45-4.81,1.34-1.06.94-1.57,2.03-1.57,3.27,0,.89.15,1.64.51,2.23.3.65.76,1.19,1.42,1.69.61.55,1.42,1.04,2.38,1.44.91.5,2.02.94,3.24,1.39,1.62.65,3.09,1.29,4.35,1.98,1.21.74,2.28,1.54,3.14,2.38.81.89,1.47,1.93,1.92,3.03.4,1.14.61,2.43.61,3.82,0,1.49-.3,2.83-.81,4.07-.61,1.29-1.42,2.38-2.48,3.32-1.11.94-2.43,1.69-4.05,2.28-1.62.5-3.54.79-5.67.79s-4.1-.3-6.02-.89c-1.92-.65-3.85-1.64-5.67-3.03l2.68-4.46Z"/>
        <path d="M452.4,318.44c-1.92,0-3.74-.3-5.41-.79-1.72-.6-3.19-1.44-4.4-2.63-1.32-1.19-2.28-2.73-2.98-4.61-.76-1.84-1.11-4.07-1.11-6.75v-22.82h6.27v23.51c0,1.64.15,3.03.56,4.12.35,1.19.86,2.08,1.57,2.78.66.74,1.47,1.24,2.43,1.54.91.35,1.97.5,3.09.5s2.12-.15,3.09-.5c.91-.3,1.72-.79,2.43-1.54.66-.69,1.16-1.59,1.57-2.78.35-1.09.56-2.48.56-4.12v-23.51h6.27v22.82c0,2.68-.35,4.91-1.06,6.75-.76,1.89-1.77,3.42-2.98,4.61-1.32,1.19-2.78,2.03-4.45,2.63-1.72.5-3.49.79-5.41.79Z"/>
        <path d="M479.93,280.84v31.95h16.7v5.16h-22.97v-37.11h6.27Z"/>
        <path d="M521.38,308.67h-13.16l-2.99,9.28h-6.22l12.55-37.11h6.53l12.55,37.11h-6.22l-3.04-9.28ZM509.74,303.95h10.12l-5.06-15.68-5.06,15.68Z"/>
        <path d="M547.69,313.88l7.89-7.54c2.23-2.13,4.05-4.07,5.52-5.75,1.42-1.69,2.53-3.17,3.24-4.51.71-1.29,1.06-2.58,1.11-3.87.05-1.88-.46-3.42-1.52-4.61-1.11-1.19-2.73-1.79-4.91-1.79-1.42,0-2.88.45-4.35,1.34-1.52.89-2.93,2.08-4.2,3.47l-3.14-4.37c1.72-1.79,3.59-3.22,5.72-4.22,2.07-.99,4.4-1.49,6.93-1.49,1.97,0,3.69.35,5.21.94,1.47.65,2.68,1.49,3.69,2.48.91,1.09,1.62,2.28,2.12,3.57.4,1.34.61,2.68.61,4.02-.1,1.79-.46,3.47-1.06,5.01-.66,1.59-1.57,3.12-2.78,4.71-1.27,1.64-2.78,3.32-4.6,5.11l-6.48,6.15h16.04v5.16h-25.05v-3.82Z"/>
        <path d="M576.84,299.54c0-3.17.3-5.95.96-8.33.61-2.33,1.47-4.32,2.63-5.9,1.11-1.59,2.43-2.78,4.05-3.57,1.57-.79,3.34-1.19,5.31-1.19s3.69.4,5.31,1.19c1.57.79,2.93,1.98,4.1,3.57,1.11,1.59,1.97,3.57,2.63,5.9.61,2.38.91,5.16.91,8.33s-.3,5.95-.91,8.28c-.66,2.38-1.52,4.37-2.63,5.95-1.16,1.59-2.53,2.78-4.1,3.57-1.62.79-3.39,1.19-5.31,1.19s-3.74-.4-5.31-1.19c-1.62-.79-2.94-1.98-4.05-3.57-1.16-1.59-2.02-3.57-2.63-5.95-.66-2.33-.96-5.11-.96-8.28ZM583.17,299.54c0,2.58.15,4.71.51,6.45.3,1.79.81,3.27,1.42,4.37.56,1.19,1.27,1.98,2.07,2.48.81.55,1.67.79,2.63.79.91,0,1.82-.25,2.63-.79.81-.5,1.52-1.29,2.12-2.48.56-1.09,1.01-2.58,1.37-4.37.3-1.74.51-3.87.51-6.45s-.2-4.66-.51-6.45c-.35-1.79-.81-3.22-1.37-4.42-.61-1.09-1.32-1.93-2.12-2.48-.81-.5-1.72-.74-2.63-.74-.96,0-1.82.25-2.63.74-.81.55-1.52,1.39-2.07,2.48-.61,1.19-1.11,2.63-1.42,4.42-.35,1.79-.51,3.97-.51,6.45Z"/>
        <path d="M607.2,313.88l7.89-7.54c2.23-2.13,4.05-4.07,5.52-5.75,1.42-1.69,2.53-3.17,3.24-4.51.71-1.29,1.06-2.58,1.11-3.87.05-1.88-.46-3.42-1.52-4.61-1.11-1.19-2.73-1.79-4.91-1.79-1.42,0-2.88.45-4.35,1.34-1.52.89-2.93,2.08-4.2,3.47l-3.14-4.37c1.72-1.79,3.59-3.22,5.72-4.22,2.07-.99,4.4-1.49,6.93-1.49,1.97,0,3.69.35,5.21.94,1.47.65,2.68,1.49,3.69,2.48.91,1.09,1.62,2.28,2.12,3.57.4,1.34.61,2.68.61,4.02-.1,1.79-.46,3.47-1.06,5.01-.66,1.59-1.57,3.12-2.78,4.71-1.27,1.64-2.78,3.32-4.6,5.11l-6.48,6.15h16.04v5.16h-25.05v-3.82Z"/>
        <path d="M646.77,286l-1.16,7.94c.2,0,.51-.05.86-.05h.91c1.82,0,3.54.25,5.26.69,1.62.5,3.09,1.24,4.35,2.18,1.21.99,2.23,2.23,2.99,3.72.71,1.54,1.11,3.32,1.11,5.36s-.35,3.67-1.01,5.21c-.71,1.59-1.72,2.93-2.93,4.02-1.26,1.09-2.78,1.93-4.5,2.58-1.77.6-3.69.89-5.77.89s-4.05-.3-5.72-.79c-1.72-.6-3.14-1.19-4.2-1.88l1.62-5.01c.46.3,1.01.55,1.67.84.61.3,1.32.6,2.07.79.71.3,1.42.5,2.23.6.76.2,1.52.25,2.33.25,1.16,0,2.28-.15,3.29-.5,1.01-.3,1.87-.79,2.63-1.44.71-.6,1.27-1.34,1.72-2.23.4-.89.61-1.89.61-3.03,0-2.18-.81-3.97-2.38-5.31-1.62-1.29-4.15-1.98-7.69-1.98-.91,0-1.82.05-2.73.1-.96.1-2.02.2-3.24.3l2.48-18.4h18.82v5.16h-13.61Z"/>
      </g>
      <line class="cls-1" x1="5.77" y1="398.84" x2="241.28" y2="398.84"/>
      <g>
        <path d="M8.14,453.86c.96.56,1.87.97,2.79,1.27.88.3,1.8.45,2.71.45.99,0,1.8-.15,2.41-.52.57-.34.88-.82.88-1.5,0-.75-.31-1.35-.92-1.76-.61-.37-1.49-.79-2.64-1.24-1.95-.67-3.44-1.57-4.43-2.66-1.07-1.05-1.57-2.32-1.57-3.78,0-1.87.69-3.33,2.14-4.38,1.38-.97,3.29-1.5,5.73-1.5,1.07,0,2.06.15,3.06.41.96.3,1.87.71,2.79,1.27l-1.18,3.82c-.69-.34-1.41-.67-2.18-1.01-.84-.3-1.72-.49-2.67-.49-1.8,0-2.67.6-2.67,1.72,0,.67.31,1.24.99,1.61.65.41,1.53.82,2.6,1.24.84.34,1.6.71,2.33,1.09.69.45,1.34.9,1.87,1.42.54.52.96,1.12,1.26,1.8s.46,1.46.46,2.29c0,2.02-.76,3.52-2.25,4.61-1.53,1.05-3.59,1.61-6.19,1.61-1.22,0-2.41-.19-3.55-.56-1.18-.41-2.22-.9-3.09-1.46l1.34-3.75Z"/>
        <path d="M29.92,452.4c0,.6.11,1.12.34,1.5.19.45.46.79.84,1.01.34.26.76.45,1.22.52.46.15.92.19,1.41.19.31,0,.69-.04,1.07-.19.38-.11.76-.3,1.15-.52.38-.22.73-.49,1.07-.82.31-.3.61-.67.88-1.12v-14.31h5.12v20.53h-5.12v-1.61c-.8.86-1.68,1.42-2.64,1.69-.99.22-1.91.37-2.71.37-1.03,0-1.99-.19-2.9-.49-.96-.34-1.8-.79-2.48-1.39-.73-.64-1.3-1.39-1.68-2.29-.46-.86-.65-1.87-.65-3.03v-13.79h5.08v13.75Z"/>
        <path d="M47.07,466.98v-28.4h4.85v2.06c.84-.9,1.76-1.57,2.79-1.95.99-.37,1.99-.56,2.98-.56,1.22,0,2.41.23,3.59.64,1.15.45,2.18,1.12,3.09,2.02.92.9,1.64,2.06,2.22,3.41.53,1.39.84,3,.84,4.87,0,1.61-.27,3.03-.76,4.31-.53,1.31-1.26,2.4-2.14,3.3-.92.9-1.99,1.61-3.17,2.14-1.22.45-2.52.71-3.86.71-.84,0-1.72-.15-2.64-.41-.96-.3-1.8-.79-2.56-1.5v9.37h-5.23ZM52.31,450.16c0,.67.08,1.31.31,1.91.19.64.5,1.2.88,1.65.38.52.84.9,1.41,1.16.54.3,1.11.45,1.8.45.92,0,1.72-.15,2.41-.49.69-.3,1.26-.75,1.72-1.35.42-.56.76-1.24.99-2.02.19-.75.31-1.61.31-2.51,0-2.02-.46-3.63-1.34-4.83-.92-1.2-2.18-1.8-3.78-1.8-.69,0-1.34.15-1.87.37-.61.3-1.11.64-1.49,1.05-.46.45-.76.97-.99,1.54-.23.6-.34,1.2-.34,1.84v3.03Z"/>
        <path d="M87.84,456.79c-1.45,1.01-2.83,1.72-4.13,2.17-1.34.41-2.75.64-4.2.64-1.38,0-2.67-.22-3.9-.64-1.26-.45-2.33-1.09-3.25-1.91-.96-.86-1.68-1.95-2.22-3.3-.53-1.31-.8-2.85-.8-4.65,0-1.57.19-3,.65-4.35.42-1.31,1.07-2.47,1.91-3.45.8-.94,1.8-1.69,3.02-2.25,1.18-.52,2.52-.82,4.05-.82,1.68,0,3.09.3,4.28.86,1.15.6,2.14,1.39,2.9,2.36.73,1.01,1.26,2.17,1.64,3.52.31,1.35.5,2.81.5,4.35v.64c-.04.26-.04.49-.04.67h-13.79c.08.97.27,1.76.57,2.36.31.64.69,1.12,1.18,1.5.46.41.99.67,1.6.82.61.19,1.26.26,1.99.26,1.91,0,4.09-.71,6.5-2.21l1.53,3.41ZM78.97,442.25c-.76,0-1.41.15-1.95.41-.54.3-.99.64-1.3,1.05-.38.45-.65.9-.8,1.39-.19.52-.31,1.01-.38,1.46h8.6c-.08-.45-.23-.94-.38-1.46-.19-.49-.46-.94-.76-1.39-.34-.41-.76-.75-1.22-1.05-.54-.26-1.11-.41-1.8-.41Z"/>
        <path d="M96.32,440.27c.61-.79,1.3-1.31,2.1-1.61.76-.26,1.45-.41,2.1-.41.73,0,1.38.08,1.91.19.54.15,1.11.3,1.72.52v4.53c-.57-.26-1.11-.49-1.64-.71-.57-.15-1.15-.26-1.68-.26-.61,0-1.15.15-1.6.38-.5.3-.92.64-1.26,1.05-.38.45-.69.94-.92,1.46-.27.56-.46,1.12-.57,1.69v12.1h-5.12v-20.49h4.97v1.57Z"/>
        <path d="M118.9,435.58v7.34h7.26v4.16h-7.26v7.38h-4.74v-7.38h-7.26v-4.16h7.26v-7.34h4.74Z"/>
        <path d="M129.63,445.17c0-1.91.27-3.75.8-5.51.54-1.72,1.34-3.26,2.48-4.61,1.07-1.31,2.48-2.36,4.2-3.18,1.68-.75,3.71-1.16,6.08-1.16,1.53,0,3.02.26,4.47.71,1.41.52,2.75,1.24,4.05,2.14l-2.71,3.71c-.88-.64-1.8-1.2-2.71-1.65-.96-.41-1.99-.64-3.13-.64-1.45,0-2.67.3-3.67.82-1.07.6-1.91,1.35-2.56,2.25-.69.97-1.22,2.06-1.53,3.26-.34,1.24-.5,2.51-.5,3.86,0,1.27.15,2.51.5,3.71.31,1.24.84,2.32,1.53,3.26.65.97,1.49,1.76,2.56,2.32.99.6,2.22.86,3.67.86,2.29,0,4.39-.86,6.34-2.62l2.9,3.3c-1.3,1.2-2.75,2.1-4.32,2.7-1.6.6-3.21.9-4.89.9-2.37,0-4.39-.41-6.08-1.2-1.72-.82-3.13-1.91-4.2-3.26-1.15-1.31-1.95-2.85-2.48-4.61-.53-1.72-.8-3.48-.8-5.36Z"/>
        <path d="M160.7,446.78v8.05h13.64v4.35h-18.91v-28.25h18.26v4.35h-12.99v7.23h12.38v4.27h-12.38Z"/>
        <path d="M200.43,459.18h-6.3l-10.74-21.73v21.73h-5.04v-28.25h6.34l10.7,21.54v-21.54h5.04v28.25Z"/>
        <path d="M203.18,435.28v-4.35h21.09v4.35h-8.06v23.9h-5.23v-23.9h-7.79Z"/>
        <path d="M232.41,446.78v8.05h13.64v4.35h-18.91v-28.25h18.26v4.35h-12.99v7.23h12.38v4.27h-12.38Z"/>
        <path d="M259.76,430.94c3.13,0,5.5.75,7.07,2.21,1.53,1.5,2.33,3.63,2.33,6.48,0,2.14-.46,3.9-1.34,5.24-.92,1.39-2.25,2.36-4.01,2.92l7.53,11.39h-5.73l-7.22-10.83h-3.09v10.83h-5.2v-28.25h9.67ZM259.61,444.05c1.3,0,2.37-.34,3.21-1.01.76-.67,1.18-1.76,1.18-3.33s-.42-2.7-1.18-3.41c-.84-.67-1.91-1.01-3.21-1.01h-4.32v8.77h4.32Z"/>
        <path d="M272.1,445.17c0-1.91.27-3.75.8-5.51.54-1.72,1.34-3.26,2.48-4.61,1.07-1.31,2.48-2.36,4.2-3.18,1.68-.75,3.71-1.16,6.08-1.16,1.53,0,3.02.26,4.47.71,1.41.52,2.75,1.24,4.05,2.14l-2.71,3.71c-.88-.64-1.8-1.2-2.71-1.65-.96-.41-1.99-.64-3.13-.64-1.45,0-2.67.3-3.67.82-1.07.6-1.91,1.35-2.56,2.25-.69.97-1.22,2.06-1.53,3.26-.34,1.24-.5,2.51-.5,3.86,0,1.27.15,2.51.5,3.71.31,1.24.84,2.32,1.53,3.26.65.97,1.49,1.76,2.56,2.32.99.6,2.22.86,3.67.86,2.29,0,4.39-.86,6.34-2.62l2.9,3.3c-1.3,1.2-2.75,2.1-4.32,2.7-1.6.6-3.21.9-4.89.9-2.37,0-4.39-.41-6.08-1.2-1.72-.82-3.13-1.91-4.2-3.26-1.15-1.31-1.95-2.85-2.48-4.61-.53-1.72-.8-3.48-.8-5.36Z"/>
        <path d="M309.58,459.63c-1.91,0-3.63-.34-5.16-.94-1.6-.67-2.94-1.61-4.05-2.81-1.15-1.2-2.02-2.66-2.64-4.46-.65-1.76-.96-3.78-.96-6.07s.31-4.42.96-6.26c.61-1.8,1.45-3.3,2.6-4.57,1.11-1.24,2.45-2.17,4.05-2.85,1.53-.64,3.29-.97,5.2-.97s3.63.34,5.23.97c1.53.67,2.87,1.61,4.01,2.85,1.11,1.27,1.99,2.77,2.64,4.57.61,1.84.92,3.93.92,6.26s-.31,4.31-.92,6.07c-.65,1.8-1.53,3.26-2.64,4.46-1.15,1.2-2.52,2.14-4.05,2.81-1.6.6-3.32.94-5.2.94ZM309.58,434.87c-1.3,0-2.41.26-3.32.79-.96.56-1.72,1.31-2.33,2.21-.65.97-1.11,2.06-1.41,3.33-.31,1.31-.46,2.7-.46,4.16s.15,2.85.5,4.05c.31,1.27.8,2.32,1.45,3.18.61.9,1.41,1.61,2.37,2.1.92.52,1.99.75,3.21.75s2.29-.22,3.25-.75c.92-.49,1.68-1.2,2.33-2.1.61-.86,1.11-1.91,1.45-3.18.31-1.2.5-2.55.5-4.05s-.15-2.85-.46-4.16c-.31-1.27-.76-2.36-1.38-3.33-.65-.9-1.45-1.65-2.37-2.21-.96-.52-2.06-.79-3.32-.79Z"/>
        <path d="M337.09,459.56c-1.53,0-2.9-.22-4.2-.64-1.3-.45-2.45-1.09-3.4-1.99-.99-.9-1.8-2.1-2.33-3.56-.57-1.42-.84-3.15-.84-5.21v-17.23h5.27v17.76c0,2.4.5,4.05,1.53,5.02.99,1.01,2.33,1.5,3.97,1.5s2.94-.49,3.97-1.5c.99-.97,1.53-2.62,1.53-5.02v-17.76h5.27v17.23c0,2.06-.31,3.78-.84,5.21-.57,1.46-1.34,2.66-2.29,3.56-.99.9-2.14,1.54-3.44,1.99-1.34.41-2.75.64-4.2.64Z"/>
        <path d="M362.61,430.94c3.13,0,5.5.75,7.07,2.21,1.53,1.5,2.33,3.63,2.33,6.48,0,2.14-.46,3.9-1.34,5.24-.92,1.39-2.25,2.36-4.01,2.92l7.53,11.39h-5.73l-7.22-10.83h-3.09v10.83h-5.2v-28.25h9.67ZM362.46,444.05c1.3,0,2.37-.34,3.21-1.01.76-.67,1.18-1.76,1.18-3.33s-.42-2.7-1.18-3.41c-.84-.67-1.91-1.01-3.21-1.01h-4.32v8.77h4.32Z"/>
        <path d="M374.03,435.28v-4.35h21.09v4.35h-8.06v23.9h-5.23v-23.9h-7.79Z"/>
      </g>
    </g>
  </g>
</svg>