<?xml version="1.0" encoding="UTF-8"?>
<svg id="_레이어_2" data-name="레이어 2" xmlns="http://www.w3.org/2000/svg" viewBox="0 0 954.82 559.91">
  <defs>
    <style>
      .cls-1 {
        fill: #ccd1e5;
      }
    </style>
  </defs>
  <g id="_레이어_1-2" data-name="레이어 1">
    <g>
      <path class="cls-1" d="M171.11,320.34c-.1.24-1.1.31-1.39,1.03-.84,2.06-.59,6.13-.38,8.44.18,2.04,2.56,8.8,1.3,9.8l-87.58,29.71-12.35,2.57c.97,5.38-1.14,10.59-1.42,15.58-2.93,53.31-3.97,107.11-9.62,160.36-.43,4.08,1,8.69-1.93,12.09-3.07-.43-7.24-.27-10.14-.87-2.38-.49-10.2-4.21-12.57-5.47-1.63-.87-7.55-4.01-7.93-5.28l1.97-29.68c4.19-63.21,7.98-126.13,11.13-189.38l.04-25.07L.21,294.9l-.21-2.03c3.76-.83,2.16-3.79,2.98-6.38.42-1.33,1.92-2.04,2.26-3.18.19-.64.28-5.85.24-6.86-.14-3.87-1.76-7.44-1.33-11.34.99-.15,2.03-.63,3.03-.63,9.66-.03,21.22,4.19,30.74,5.91,31.53,5.7,62.97,11.23,94.39,17.33,12.33,2.4,24.86,3.94,37.15,6.57l1.03,1.05c1.32,3.66,1.71,6.34,1.51,10.27-.12,2.3-1.43,6.37-1.31,8.37.11,1.85,1.96,2.74.41,6.36ZM124.83,319.15l-52.05-9.02-.7,27.06c2.71.15,5.25-.86,7.78-1.59,12.66-3.68,29.05-8.78,41.16-13.65.42-.17,5.18-1.59,3.81-2.79Z"/>
      <path class="cls-1" d="M811.18,27.07c.02,2.85-2.51,3.58-3.51,6.54-.71,2.11-.52,5.17-1.36,6.79-4.51,8.67-6.1,12.25-8.82,21.88-.53,1.87-.33,4.32-1.03,6.25l-49.13,20.65,56.62,118.96c-.39.73-10.28,7.07-11.48,7.32-2.76.58-7.72-1.55-10.66-1.51-3.28.05-7.81,3.69-9.84,1.83l-48.93-103.38c-2.73,2.74-.51,9.63-.25,13.64,1.27,19.45,5.08,43.49,4.73,62.32-.03,1.65.02,6.01-1.44,6.5-1.99.41-4.17-.21-6.11.13-5.93,1.05-11.38,2.3-16,6.21-2.17,1.83-3.94,5.92-7.96,5.53-.2-4.73-1.1-9.53-1.43-14.24-3.51-50.04-4.98-102.89-11.06-152.61-.59-4.82,1.45-7.66-4.17-9.69,4.01-3.83,2.21-10.5,3.91-14.77.61-1.53,3.06-1.07,3.6-2.69,1.15-3.47-1.38-8.95-.59-12.73,8.38.83,16.81,2.71,25.13,4.37,24.03,4.78,48.28,9.82,72.16,15.28,9.3,2.12,18.64,4.2,27.63,7.43ZM757.74,47.18l-40.51-8.27c-1.05.31-1.16,1.43-1.19,2.37-.08,2.66.99,7.5,1.19,10.53.07,1.01-.47,2.05-.38,3.24.23,3,1.22,6.41,1.34,9.48.77.14,1.38-.13,2.09-.33,8.39-2.37,24.73-9.58,33.08-13.41.59-.27,5.69-2.5,4.37-3.6Z"/>
      <path class="cls-1" d="M330.11,274.89c.3.18.53,1.81,1.5,2.29,1.84.92,4.51-.13,6.47.47,3.56,1.09,2.81,1.93,8.29,1.08,3.85-.6,7.89-2.44,11.91-2.65.54.07,1.03,3.13,1.09,3.87.97,11.72-2.24,27.71-3.45,39.55-4.17,40.54-9.23,81-14.49,121.49-.75,5.77-.61,12.02-1.59,17.83-.33,1.01-6.73,3.23-7.17,3.23-.91,0-1.75-1.21-2.8-1.35-1.96-.26-4.24.36-6.07-.17-.98-.28-1.7-1.65-2.77-2.08-4.4-1.78-9.01-3.7-13.68-2.63.7-5.18-.62-8.58-2.45-13.16-9.01-22.56-20.09-49.63-30.74-71.26-.52-1.07-.93-2.61-2.2-3l-3.47,111.01c-3.45.33-7.07-1.08-9.95-2.89-1.63-1.03-11.87-11.68-12.98-13.39-2.66-4.1-4.37-9.88-8.64-13.44.66-14.99.71-29.89,1-44.89.46-23.77,1.22-47.67,1.45-71.4.12-13.31-.23-26.64-.03-39.91.35-.18,7,.61,7.83.84,3.29.92,4.37,3.76,9.75,3.74,5.64-.02,4.91-2.43,7.42-3.53,1.32-.58,2.82-.25,4.17-.68,2.27-.73,4.6-3.23,7.27-1.07l39.89,90.2,12.5-108.23c.63.06,1.37-.19,1.95.15Z"/>
      <path class="cls-1" d="M268.48,88.14c-1.04,2.37.59,4.82-.12,7.13-.5,1.61-2.6,1.6-2.7,2.31-.4,2.77,2.44,6.1,2.8,8.26.24,1.5-1.24,12.73-1.87,14.03-.64,1.32-3.05,2.3-3.5,4.87-.3,1.73.68,2.95.54,4.59-.18,2.12-2.74,4.74-3.15,6.64-.3,1.39.75,2.88-.25,4.4l-37.52,23.02c10.38,12.68,21.84,24.44,32.59,36.79,16.76,19.24,33.6,38.62,50.34,57.91,1.24,1.43,6.47,7.31,6.95,8.35,1.43,3.06-4.42,5.21-6.64,5.86-6.57,1.93-14.18,1.74-20.96.89-2.82-.35-4.8-2.32-6.47-2.59-1.85-.31-4.04.82-5.15.36-2.52-1.04-13.62-15.35-16.32-18.42-19.46-22.11-38.75-44.49-58.31-66.59l-1.67,72.38c-.89,1.37-11.63,2.71-13.53,2.49-2.29-.26-8.64-1.72-10.17-3.04-.81-.7-1.06-1.96-1.84-2.49-1.51-1.03-4.58-1.39-6.44-1.36l-.73-17.71c1.28-23.51.76-47.38.69-70.71-.09-28.32-.77-56.62-.55-84.91,4.75-.72,2.7-4.45,4.42-7.77l99.57,15.32ZM233.78,117.93l-1.18-1.93-35.6-4.99,1.04,27.04,1.77.43,33.96-20.55Z"/>
      <path class="cls-1" d="M495.29,482.07c-1.88,1.26-12.55,1.07-15.37,1.76-2.22.54-7.02,3.32-9.31,3.78-1.98.39-3.35-.53-4.58-.35-.92.13-2.3,1.86-3.93,1.17-.39-.29.62-6.56.84-7.82,1.37-7.83.74-4.8-1.06-11.74-6.95-26.81-15.88-52.99-23.39-79.64-1.43.92-1.93,4.94-2.06,6.6-1.23,15.4-1.06,31.17-2.1,46.46-.11,1.69-2.25,13.76-2.86,14.14l-3.31.02-2.11-7.25c-2.74.99-3.52-.85-5.43-1.52-1.08-.38-2.48.02-3.64-.52-1.5-.7-1.77-3.43-2.2-3.7-.59-.36-1.95.04-2.78-.31-3.52-1.48-6.18-4.1-10.29-3.27-.53-3.33.49-6.95.56-10.06.72-30.43,3.49-61.08,4.99-91.59.39-8.01-.74-17.11.72-24.95.39-2.08,2.88-3.56,4.84-3.86-.03-1.78-1.56-3.34-1.39-5.16.44-4.6,11.71-.94,14.98-1.12,1.52-.08,2.35-2.01,2.72-2.01.23,0,1.89,2.06,3.78,2.48,2.51.55,3.62-.54,5.22-.41,2.54.22,5.09,4.81,8.68,2.77,4.55,15.57,9.25,31.13,14.12,46.61,3.06,9.73,6.77,19.39,9.69,29.16,1.44,4.82.22,5.96,3.22,10.63.36.56-.38,1.43,1.44,1.01l15.4-100.12c.56-1.21,10.15-4.6,11.82-4.85,1.68-.25,3.15.43,4.89.08,1.88-.38,5.01-2.88,6.61-3.2,1.28-.26,2.24.49,3.16.35.94-.14,1.55-1.46,3.54-1.21,1.95.24,3.03,2.88,3.14,4.63.61,9.6-2.75,21.11-4.04,30.54-4.54,33.22-9.67,66.18-14.6,99.19-3.16,21.18-4.91,42.61-9.91,63.29Z"/>
      <path class="cls-1" d="M823.14,402.54l-11.03,37.38c-1.47.96-5.62.76-7.45.56-6.65-.74-12.32-4.25-15.97-9.7-1.51-2.25-2.19-5.98-4.45-8.08l39.52-149.96c2.28.53,4.04-1.46,5.82-1.55,1.84-.1,2.65,1.07,3.47,1.15,1.22.12,2.75-1.03,4.08-.88,1.68.18,4.76,3.45,6.86,4.14,2.7.89,5.66.69,8.31-.34,1.41-.55,2.06-2.58,3.32-1.56l99.21,248.39c-.85,1.1-.86,1.01-2.08.72-10.56-2.53-22.4-9-30.18,3.09l-1.36-.71-46.53-116.53c-2.7-2.77-34.02-4.29-40.17-4.93-2.2-.23-9.91-2.76-11.36-1.17ZM843.79,330.25l-1.91,1.2-9.79,37.87c.4,1.22,1.99,1.57,3.09,1.8,7.46,1.58,16.88,1.12,24.58,2.14.21-1.61-.21-3.03-.66-4.55-3.23-10.87-9.98-24.07-14.45-34.81-.48-1.16-.83-2.39-.86-3.66Z"/>
      <path class="cls-1" d="M495.92,278.02c-2.68,2.53-5.21.49-7.74.88-2.17.33-5.32,2.09-8.38,2.08-2.59,0-4.19-1.64-5.74-1.92-1.11-.2-2.16.51-3.65.27-2.2-.36-4.83-2.71-7.29-3.19l-12.13-47.18-37.17,4.11-.84,1.26c-2.92,11.37-4.1,24.45-7.44,35.57-.36,1.2-.93,3.63-2.21,4.05-3.39,1.13-6.77-5.44-10.49-6.65-2.36-.77-6.05-.91-8.79-1.62-1.68-.44-3.65-2-4.96-2.06-1.97-.09-4.37,3.22-6.51.37.85-1.13,1.41-2.44,1.73-3.81,12.66-54.85,22.38-110.65,33.88-165.73,1.01-4.83,1.61-14.37,3.77-18.64.3-.59,5.12-5.51,5.49-5.63,3.33-1.05,10.67,2.87,13.33,5.16,1.03.89,1.66,2.84,2.86,3.38,4,1.81,10.62.06,12.12,6.62,14.64,56.58,31.62,112.58,45.82,169.26,1.51,6.02,4.12,14.23,4.89,20.1.15,1.18-.06,2.26-.57,3.31ZM430.87,154.71c-1.84-.17-1.13-.04-1.37,1.04-3.23,14.1-5.72,28.44-8.34,42.67,3.22-.63,19.16-.41,20.07-3.22l-10.36-40.49Z"/>
      <path class="cls-1" d="M227.46,342.12c.33,3.91,3.88,5.11,3.59,9.28-.23,3.31-3.78,5.43-4.07,9.23-.13,1.61.65,2.82.55,3.94-.12,1.37-1.77,2.3-1.82,3.48-.06,1.63,2.35,4.22.26,6.44l-64.34,11.98c-.75,9.04-.58,17.97-.03,27.03,4.7-.69,9.79.64,14.2.72,12.02.21,24.04-.9,36.11-.02,6.03.44,11.7,2.51,17.62,3.55,0,3.27,2.52,5.26-.3,8.23-.71.75-1.96.53-2.24.85-.47.54-4.69,11.2-5.35,13.04-.61,1.68-1.16,7.78-2.86,8.28-7.13-1.47-14.76-.47-22.15-.62-1.64-.03-3.16-.73-4.8-.75-10.29-.16-20.72-.08-30.96.33l-.65,1.43c1.01,3.3-2.08,17.88-.01,19.44l63.56,7.92c2.05,7.75,2.78,13.95-.95,21.35-.92,1.83-2.9,3.22-3.65,5.37-.72,2.05-.13,5.86-2.33,5.91-1.93.04-7.71-1.75-10.48-2.05-6.6-.72-13.5-.73-20.12-1.4-5.61-.57-23.74-4.1-27.69-3.31-.83.17-1.33,1.61-2.86,1.92-3.17.63-7.7-.16-10.24.14-4.02.49-14.35,8.5-18.6,11.16-.74.46-1,.72-2.02.5l1.16-32.17c-2.04-3.82-1.14-5.52-.72-9.23,3.11-27.86,3.2-57.47,3.75-85.89.08-4.2-1.13-16.95-.08-19.51,1.47-3.62,3.49-3.45.75-8.61,8.88-3.82,18.61-3.93,27.93-5.74,11.12-2.16,22.14-4.23,33.31-6.24,4.34-.78,34.82-7.51,36.54-5.99Z"/>
      <path class="cls-1" d="M354.47,40.31c.91,5.76,4.09,14.3,9.4,17.31,1.89,1.07,5.08.82,6.66,3.05.84,1.19.7,2.79,1.44,4.11.99,1.76,4.57,3.53,4.07,5.62l-63.77,7.38c-.03,10.87,1.11,21.75,2.72,32.52l64.77-6.87c2.3.73.44,4.73.39,6.53-.04,1.38.82,2.77.63,4.02-.22,1.49-1.74,2.25-2.24,3.33-.84,1.82-1.97,8.67-1.88,10.7.13,2.98,2.22,3.34.77,6.92-.7,1.72-1.26,2.07-3.16,2.39l-55.82,5.95-1.1,1.35,2.56,30.44c.98,3.06,12.84-.63,15.55,1.16,16.71-2.13,33.48-1.81,50.32-2.78-.54,3.11,1.29,5.97.38,9.05-.99,3.34-6.12,6.31-6.5,7.38-.9,2.56-1.57,6.69-2.41,9.39-.74,2.37-2.66,4.29-1.91,7.45l-88.02,4.81c-2.79-5.72,2.22-7.83,2.04-13.47-.26-8.28-1.97-17.41-2.71-25.76-.61-6.95.04-16.97-1.54-23.44-.25-1.03-.54-1.89-1.67-2.22-1.88.2-4.74,2.09-6.28.46-2.4-2.53-3.92-11.83-2.58-15.11,1.28-3.13,7.81-6.34,8.29-11.02.37-3.63-1.49-12.4-1.86-16.57-1.54-17.3-4.02-35.53-4.14-52.7,0-1.08-.72-2.06-.73-3.14l78.36-8.26Z"/>
      <path class="cls-1" d="M877.76,95.09l6.01,16.27c-1.11,2.16-2.91,3.97-4.04,6.11-.39.73.16,1.74-.21,2.52-1.06,2.21-3.79,2.61-4.98,3.72-1.39,1.3-2.92,6.03-4.84,6.6l-28.85,3.77-2.68,1.54,1.42,24.35,48.53-1.69c.44.29,2.67,8.45,3.53,9.99.86,1.53,2.76,2.51,3.04,3.28.57,1.53-.8,3.34-.72,4.93.24,4.43,5.21,9.02,3.92,14.29l-56.18,2.45-.66,1.99,2.11,32.3c6.28,1.55,12.04-.06,18.36.03,1.64.02,3.16.73,4.8.75,22.18.29,44.39.22,66.51.65,6.65,5.62,10.33,20.17.12,24.26l.37,9.06-118.91-2.06c-1.39-2.48-3.58-5.17-3.69-8.11-.09-2.5,1.32-5.23,1.19-8.23-.26-5.98-1.99-9.96-1.47-16.66.55-7.05-1.06-16.34-1.38-23.54-.83-18.84-1.24-37.69-2.02-56.19-.1-2.34-1.04-4.93-1.04-7.35l-4.57-.25c-2.81-3.24.11-4.5.6-6.49.3-1.24-.51-2.39-.27-3.66,1.22-6.69,7.55-15.72,1.78-22.16l74.22-12.46Z"/>
      <path class="cls-1" d="M109.3,26.78c.21-.09.26-1.07.71-1.13l12.31,1.34c1.48,1.08-.51,6.19,2.8,6.26,7.68-.74,15.33-2.51,22.96-3.4,8.08-.95,17.69-2.31,25.68-2.78,6.44-.38,12.67,1.46,19.07,1.38-.19,2.84-1.92,5.79-1.73,8.69.12,1.84,1.64,3.38,1.67,4.82.02,1.3-1.16,3.08-1.32,4.86-.39,4.3,1.65,8.44-1.35,11.79-8.53.16-16.95,2.1-25.37,3.12-9.9,1.2-19.92,1.55-29.75,2.87-1.75.24-8.18,1.02-8.67,2.43l11.07,155.92c-.3,1.51-10.78,2.55-12.57,2.86-2.72.46-9.34,2.93-11.64,1.6-1.63-.95-2.71-9.48-4.16-12.13-1.33-2.43-3.5-2.76-4.36-3.97-.94-1.33-2.71-26.39-3.03-30.58-2.33-30.62-3.67-60.88-6.2-91.46-.51-6.17-1.69-12.27-1.86-18.46l-73.9,10.77c-2.3-.35-5.84-10.9-5.87-13.24-.09-7.34.76-7.5,3.3-13.39.89-2.06-.37-5.26.84-6.07,23.82-5.28,48.26-7.84,72.45-11.39,1.12-3.96.66-7.93-.25-11.82,3.05.74,6.25.39,9.31.74,4.09.48,4.72,2.5,9.86.36Z"/>
      <path class="cls-1" d="M574.44,36.9c.38.64-.44,1.86-.26,2.73.45,2.12,4.9,6.66,4.26,11.39-.1.72-1.38,1.18-1.63,2.15-.23.87-1.36,6.97-1.35,7.66.01,2.44,3.16,5.34,2.24,6.49l-59.94,31.52,67.87,71.48c-.2,2.65-3.55.92-4.84,2.76,4.53,5.48,1.35,10.46,2.65,16.52l-2.02,2.17-78.03,49.64c-1.17-.8-.91-1.08-.86-2.21.23-6.13,2.21-12.46.91-18.63-.63-2.95-5.56-10.73-9.41-9.68-.08-.77-.02-1.38.35-2.08.62-1.18,14.08-10.53,16.37-12.08,4.06-2.73,32.93-19.59,33.08-21.56-.24-.99-.96-1.68-1.55-2.45-7.87-10.23-21.64-21.91-30.91-31.53-8.43-8.75-17.52-20.64-26.34-28.48-4.43-3.93-4.24-3.27-8.36-8.29-1.82-2.22-7.32-6.33-6.18-9.64.14-.41,6.37-4.7,7.59-3.91l-2.02-7.17,5-4.07c28.3-12.92,56.55-32.11,84.99-44.08.93-.39,3.88-1.58,4.58-1.44.23.05,3.7,2.57,3.82,2.77Z"/>
      <path class="cls-1" d="M643.85,228.18l-1.23-98.01c.09-.26,4.29-3.04,4.56-3.1.49-.12,9.41.99,10.07,1.31,1.3.62,1.67,3.35,2.62,4.49.37.45,4.55,4.7,4.86,4.85,1.57.75,3.44.03,5.07.48.45.13,5.8,4.11,5.93,4.48l1.85,119.55c-4.49,5.99-5.39-.48-8.99-.59-.99-.03-2.23.64-3.48.63-13.09-.04-25.3-.89-38.19-.31-1.39.06-2.96-1.58-4.83-1.83-6.52-.89-16.34-.21-23.63-.66-2.23-.14-9.37.79-10.01-1.13-.8-2.4,1.77-3.24,2.6-4.96.65-1.35.06-2.73.49-3.59,1.71-3.47,7.04-6.57,10.06-8.86v-9.52c-5.16-.37-8.15-.44-8.97-6.35-.91-6.6-.3-14.14-.76-20.75-1.87-26.78-3.83-53.86-4.11-80.51-.02-2.17-1.67-6.26-.05-7.62,1.15-.96,14.45-3.34,16.16-2.98,3.11.67,2.74,3.65,3.96,4.39,1.21.73,3.64.08,5.54.71,1,.33,6.29,5.05,6.65,5.89.06,3.77.11,7.62.32,11.42,1.31,23.69,2.62,47.76,4.15,71.47.41,6.4.36,12.91.8,19.32l1.64,1.14,16.93.62Z"/>
      <path class="cls-1" d="M712.52,378.92c1.21,1.92-5.09,31.09-5.93,35.82-4.01,22.63-6.82,49.78-12.32,71.63-1.51,6-2.4,4.06-6.52,7.39l1.28,9.23-77.03-4.16c-1.81-3.53,3.99-5.96,4.18-6.73.24-1,.4-6.07.42-7.61.59-37.77-.19-77.9-1.07-115.76-.06-2.39-1.6-15.51-1.11-16.3,1.6-2.57,4.25,3.35,5.24,3.86,1.06.55,2.18-.4,3.67.37,2.22,1.13,6.38,7.2,9.54,8.57,2.7.67,13.86,4.17,14.72,6.12l2.34,96.85,13.01-.04,1.49-1.91,16.62-92.3c2.85-2.29,4.38-.63,6.45-.21,4.25.86,9.02,2.26,13.02,2.94,2.34.4,4.99-.31,7.44.19.49.1,4.42,1.83,4.55,2.04Z"/>
      <path class="cls-1" d="M749.27,272.82c.66.59.09,11.27.11,13.4.49,46.56,2.28,93.47,2.78,140.09.08,7.24,1.25,14.24-.01,21.46l59.77,9.05c1.73,1.17.07,5.94-.08,7.71-.1,1.2.72,2.52.57,3.36-.32,1.79-3.45,1.61-2.59,7.69.13.94,1.2,1.82,1.2,2.12,0,.39-3.24,2.65-2.98,6.95.09,1.42,2.42,3.23-.09,4.4l-89.76-11.71c.68-3.59-.44-8.11-.03-11.48.51-4.14,2.68-5.59,2.14-11.79-.19-2.17-3.22-8.22-2.8-8.64.38-.37,2.21,1.24,2.7-2.48.64-4.78-.58-10.26-.65-15.24-.68-47.28-2.42-95.03-2.78-142.17-.05-6.03.56-11.18,1.42-17.02,1.96.27,3.11,1.9,5.28,2.05,2.67.18,10.8-1.97,13.24-3.3,2.16-1.18,3.97-5.2,5.69-2.5,1.51,2.39-.11,4.39,3.6,6.81.98.64,2.59.64,3.27,1.25Z"/>
      <path class="cls-1" d="M600.32,406.47l4.54-1.19,1.56,1.01c.04,2.2-1.66,4.68-1.37,6.83.24,1.76,5.12,6.67,4.91,9.02-.77,2.93-8.37,8.21-8.17,10.32.13,1.37,1.29,2.6,1.18,4.25-.1,1.49-1.92,6.92-3.52,7.61-16.31,7.32-31.99,17.21-48.05,24.82-2.63,1.24-18.78,8.23-20.3,8.19-1.07-.02-3.22-4.74-3.63-6.03-.67-2.11-.58-5.29-1.17-6.47-.66-1.32-2.81-1.16-3.48-2.07-.72-.98-.5-3.38-1.43-4.82-.86-1.34-6.99-4.88-6.56-6.6l55.55-30.53-46.95-70.41.03-1.42,2.47-1.77-4.77-13.84c1.21-1.71,3.51-1.52,5.25-2.28,25.68-11.27,51.56-22.12,77.57-32.76,1.45.48,4.02.37,5.21,1.08.64.38,5.91,7.11,6.4,8.17.54,1.17,1.91,5.76,1.81,6.9-.24,2.6-3.32,4.72-3.32,5.02,0,.17,1.83,1.69,2.24,2.61.28.62,1.78,5.82,1.61,6.09l-53.69,23.21,36.06,55.07Z"/>
      <path class="cls-1" d="M391.27,325.34c.09-.06,0-.95.25-1.09,1.09-.61,5.71-2.48,5.93-.63-1.09,6.97-.74,14.42-1.3,21.52-3.7,47.05-8.66,94.34-12.75,141.21-.06.71-.95,4.04-1.57,4.19l-10.9-2.78-2.97,4.06-3.22-.49-15.07,6.11c-.81-7.64,1.44-15.04,2.07-22.55,3.38-39.99,6.63-79.97,9.73-120.01,1.95-5,1.81-33.61,4.84-35.4,2.76-1.63,5.25.75,7.63,1.41,4.95,1.38,9.79,2.23,14.76,3.28.71.15,1.79,1.66,2.56,1.17Z"/>
    </g>
  </g>
</svg>