<?xml version="1.0" encoding="UTF-8"?>
<svg id="_레이어_2" data-name="레이어 2" xmlns="http://www.w3.org/2000/svg" viewBox="0 0 390.69 488">
  <defs>
    <style>
      .cls-1 {
        opacity: .4;
      }

      .cls-2 {
        fill-rule: evenodd;
      }

      .cls-2, .cls-3 {
        fill: #040000;
      }
    </style>
  </defs>
  <g id="_레이어_1-2" data-name="레이어 1">
    <g>
      <g class="cls-1">
        <g>
          <path class="cls-3" d="M152.58,230.74h-2.76v3.5h2.76v-3.5ZM140.49,257.22c3.99,5.27,11.01,4.07,11.01,4.07.85-7.46-2.17-9.88-2.17-9.88-1.88,3.96.96,8.74.96,8.74-4.27-3.94-9.8-2.93-9.8-2.93ZM147.77,216.26l-1.34-1.25c-3.25.82-5.6,3.7-5.6,3.7,1.52-3.65.7-7.06.02-8.87l-.98-.8c-2.81,5.34.3,11.19.3,11.19,4.33-1.04,6.52-2.75,7.6-3.97ZM156.83,264.96c-.14-2.32-.56-4-1.08-5.36h-2.67c.72,2.54,2.36,4.45,2.36,4.45-4.89-3.14-10.16-1.19-10.16-1.19,4.85,4.5,11.55,2.1,11.55,2.1ZM156.18,225.4v30.4h15.06c1.71.04,3.46,1.38,3.46,1.38v-24.32c-9.12-.2-10.96-7.46-10.96-7.46h-7.55ZM163.3,243.88h-1.13v5.88h-1.43v-5.88h-1.12v-1.34h3.68v1.34ZM170.41,249.88c-.4,0-.9-.12-1.23-.36v-1.36c.34.23.66.39,1.08.39.46,0,.82-.31.82-.79,0-.55-.44-.77-.84-1.05-.82-.56-1.33-1.09-1.33-2.15,0-1.14.66-2.13,1.89-2.13.46,0,.87.12,1.26.35v1.39c-.29-.25-.64-.46-1.04-.46-.44,0-.72.27-.72.71,0,1.19,2.18,1.26,2.18,3.21,0,1.28-.74,2.25-2.08,2.25ZM171.47,233.74h1.43v7.23h-1.43v-7.23ZM166.98,233.74h1.44c.91,0,2.54.1,2.54,2.07,0,.8-.32,1.47-1.02,1.87l1.26,3.29h-1.51l-1.25-3.34h-.02v3.34h-1.43v-7.23ZM168.48,249.76h-1.52l-.27-1.22h-1.45l-.26,1.22h-1.42l1.68-7.23h1.5l1.74,7.23ZM166.68,233.74v1.34h-1.45v1.57h1.27v1.34h-1.27v1.63h1.47v1.34h-2.89v-7.21l-2,7.21h-1.17l-2.09-7.23h1.53l.86,3.47c.12.41.17.82.26,1.23h.02c.08-.42.11-.83.22-1.26l.87-3.45h4.37ZM191.14,209.69l-4.51,4.91.05,7.85s-.14,1.29-.41,1.93h2.9l8.29-8.29-6.31-6.4ZM152.67,247.28h-2.76v3.5h2.76v-3.5ZM157.19,213.33l5.81,5.71v-4.42l-5.81-5.81v4.51ZM152.61,262.26c.36,0,.66-.29.66-.66s-.29-.66-.66-.66-.66.29-.66.66.29.66.66.66ZM142.09,215.49c0,.36.29.66.66.66s.66-.29.66-.66-.29-.66-.66-.66-.66.29-.66.66ZM152.65,257.48c.03.3.08-.07.08-.07v-4.27l-.71.78c.4,1.08.54,2.63.62,3.56ZM162.99,221.23v-.9l-4.29-4.28h-10.04l5.67,5.18h8.65ZM141.21,209.03s-.37-2.34,2.07-5.84h-8.24s.35.96,6.18,5.84ZM134.06,221.89c-1.47,6.45,3.96,11.06,3.96,11.06,6.26-4.15,6.17-8.02,6.17-8.02-4.24,1.11-6.08,6.36-6.08,6.36.28-5.8-4.05-9.4-4.05-9.4ZM138.92,224.88c1.28-5.67-2.36-9.96-2.36-9.96-2.57,6.1,1.98,11.58,1.98,11.58,6.89-2.99,7.47-6.82,7.47-6.82-4.37.35-7.09,5.2-7.09,5.2ZM139.5,227.59c0-.36-.29-.66-.66-.66s-.66.29-.66.66.29.66.66.66.66-.29.66-.66ZM173.08,260.82h4.32s.28-1.88,1.5-1.88h17.95v-31.57l-1.79-1.88v31.29h-16.07s-2.16.19-3.85,2.25c0,0-1.32-1.97-4.13-2.16h-15.69v-31.1l-1.93,1.93v31.25h17.53s2.16.09,2.16,1.88ZM144.96,202.8c-4.5,4.85-2.1,11.55-2.1,11.55,7.5-.46,9.35-3.85,9.35-3.85-4.22-1.16-8.44,2.46-8.44,2.46,3.14-4.89,1.19-10.16,1.19-10.16ZM166.11,245.49l-.16-1.1h-.02l-.15,1.1-.31,1.92h1.01l-.37-1.92ZM207.58,259.08c1.09-.68,2.13-1.6,2.99-2.87,0,0-2.37-.31-5.15.63l2.16,2.24ZM212.15,230.42s-1.97-5.21-6.23-6.21c0,0,0,3.87,6.36,7.87,0,0,5.33-4.73,3.7-11.15,0,0-4.24,3.7-3.83,9.49ZM204.16,245.96s-2.49,2.97-.19,10.12c0,0,7.12-.2,10-6.16,0,0-5.62.1-9.04,4.8,0,0,1.84-5.25-.78-8.76ZM211.97,236.88s-1.03-5.47-5.05-7.2c0,0-.67,3.81,4.9,8.85,0,0,6.07-3.74,5.58-10.33,0,0-4.82,2.9-5.42,8.68ZM206.95,235.24s-1.32,3.64,3.29,9.57c0,0,6.62-2.62,7.29-9.21,0,0-5.25,2.02-6.84,7.61,0,0-.07-5.57-3.73-7.97ZM211.17,240.13c.36,0,.66-.29.66-.66s-.29-.66-.66-.66-.66.29-.66.66.29.66.66.66ZM207.33,251.36c0-.36-.29-.66-.66-.66s-.66.29-.66.66.29.66.66.66.66-.29.66-.66ZM151.84,212.25h0c-.26.21-2.09,1.87-4.87,2.21l.95.89,9.95-.05-3.09-3.09h0l-1.56-1.57s-1.11,1.41-1.38,1.6ZM190.3,244.44h-.02l-.15,1.09-.31,1.93h1l-.36-1.93-.16-1.09ZM169.56,235.82c0-.52-.25-.94-.97-.9h-.19v1.93h.25c.65,0,.91-.43.91-1.02ZM175.7,232.67v24.5s1.38-1.38,3.32-1.38h15.2v-30.4h-8.2s-2.33,7.17-10.32,7.28ZM177.54,233.79h1.43v5.88h1.49v1.34h-2.92v-7.22ZM182.17,249.81l-.34-5.21h-.02l-.23,1.79-.61,3.42h-1.1l-.7-3.46-.24-1.61v-.14h-.02l-.21,5.21h-1.53l.63-7.23h1.88l.7,4.26h.02l.58-4.26h1.92l.76,7.23h-1.47ZM191.31,249.81l-.27-1.22h-1.45l-.26,1.22h-1.42l1.68-7.23h1.5l1.74,7.23h-1.53ZM186.96,233.79h1.61l.41,1.01c.12.35.27.73.35,1.1h.02c.08-.38.19-.74.33-1.1l.43-1.01h1.54l-1.54,3.5,1.66,3.73h-1.66l-.46-1.15c-.13-.37-.22-.72-.32-1.08h-.02c-.11.36-.19.72-.32,1.08l-.42,1.15h-1.61l1.53-3.73-1.53-3.5ZM187.35,242.59v1.34h-1.45v1.57h1.27v1.34h-1.27v1.63h1.47v1.34h-2.89v-7.23h2.87ZM183.68,239.83c.7,0,.7-.53.71-1.06v-4.98h1.43v5.27c0,.77-.09,2.07-2.15,2.07-1.33,0-2.13-.62-2.13-1.97v-5.36h1.43v4.67c0,.55-.07,1.37.71,1.37ZM156.29,208.01s-.65.94-3.11,1.47l3.11,2.88v-4.35ZM164.18,220.59c0,7.65,4.79,11.18,10.7,11.18s10.72-3.52,10.72-11.18v-21.8h-21.42s0,14.16,0,21.8ZM169.35,205.14v-3.22h10.04v4.61h3.32v3.32h-3.22v1.47h3.22v3.59h-3.22v10.78s-2.76,0-2.76,0l-3.83-3.82-3.5,3.5-2.53-2.53,5.8-5.8,2.99,2.99v-14.88h-6.31ZM155.03,222.03l2.56,2.26h5.77c-.28-.46-.19-2.21-.19-2.21l-8.14-.05ZM201.45,250.85s-.47.49-.62,1.24l1.39,1.44c-.08-.9-.31-1.81-.77-2.67ZM146.89,256.75c2.13-7.2-.42-10.1-.42-10.1-2.54,3.57-.57,8.77-.57,8.77-3.52-4.62-9.15-4.59-9.15-4.59,3.02,5.89,10.14,5.92,10.14,5.92ZM146.53,209.02c7.46.85,9.88-2.17,9.88-2.17-3.95-1.88-8.74.96-8.74.96,3.94-4.27,2.94-9.8,2.94-9.8-5.28,3.99-4.07,11.02-4.07,11.02ZM162.16,261.81c.35,4.37,5.2,7.09,5.2,7.09-5.67-1.28-9.96,2.36-9.96,2.36,6.1,2.57,11.58-1.98,11.58-1.98-3-6.89-6.82-7.47-6.82-7.47ZM143.14,251.47c3.35-6.72,1.34-10.03,1.34-10.03-3.12,3.08-2.09,8.54-2.09,8.54-2.66-5.16-8.21-6.11-8.21-6.11,1.95,6.32,8.96,7.59,8.96,7.59ZM158.2,259.63h-.93c-.05,4.12,3.92,7.37,3.92,7.37-5.36-2.24-10.22.59-10.22.59,5.56,3.59,11.74.06,11.74.06-1.2-5.02-3.31-7.17-4.51-8.03ZM144.37,262.74s1.02-.61,2.51-.83l-1.65-.39-.16.21c.09-.13.16-.21.16-.21l-7.29,7.68s-.83,1.2-.05,1.98c0,0,.74.6,1.75-.09l7.11-6.21c-.72-.37-2.29-1.68-2.38-2.14ZM140.36,245.63c4.47-6.04,3.06-9.64,3.06-9.64-3.6,2.49-3.54,8.05-3.54,8.05-1.73-5.55-7.02-7.44-7.02-7.44.82,6.57,7.5,9.03,7.5,9.03ZM144.1,202.41l-8.64-8.64s-3.61,2.59-.81,8.64h9.44ZM148.01,199.27l-5.08-5.13c-3.14-3.14-6.87-1.07-6.87-1.07l10.01,9.96c.67-2.56,1.95-3.76,1.95-3.76ZM138.65,240.3c0,.36.29.66.66.66s.66-.29.66-.66-.29-.66-.66-.66-.66.29-.66.66ZM138.64,239.39c5.45-5.17,4.69-8.97,4.69-8.97-3.98,1.82-4.88,7.32-4.88,7.32-.73-5.76-5.62-8.55-5.62-8.55-.33,6.61,5.82,10.2,5.82,10.2ZM143.42,252.11c0,.36.29.66.66.66s.66-.29.66-.66-.29-.66-.66-.66-.66.29-.66.66ZM198.36,261.69c.36,0,.66-.29.66-.66s-.29-.66-.66-.66-.66.29-.66.66.29.66.66.66ZM201.85,260.84l-2.31-1.88c.05.59.12,1.21.23,1.87,0,0,.83.1,2.07,0ZM208.31,249.22s.9-5.49-2.29-8.49c0,0-1.94,3.35,1.57,9.99,0,0,6.98-1.43,8.78-7.8,0,0-5.52,1.08-8.06,6.3ZM164.52,267.54c0-.36-.29-.66-.66-.66s-.66.29-.66.66.29.66.66.66.66-.29.66-.66ZM195.6,263.58s1.42-1.7,2.12-4.1l-2.67-.04c-.42,1.31-.74,2.98-.82,5.09,0,0,5.77,1.92,10.39-1.43l-1.78-1.43c-1.97-.11-4.68.18-7.24,1.92ZM197.54,252.94v3.5l15.66,12.99h3.13l-15.94-16.49h-2.85ZM174.6,268.05v1.64c-.76-1.19-3.71-5.51-7.04-5.72,0,0,1.13,3.86,6.12,6.12,0,0-6.26.42-8.82,3.84,0,0,5.46.49,9.73-3.76v2.66h1.66v-4.79h-1.66ZM177.36,270.08c4.97-2.3,6.08-6.17,6.08-6.17-3.87.28-7.18,6.08-7.18,6.08,4.33,4.42,9.95,3.87,9.95,3.87-2.58-3.41-8.84-3.78-8.84-3.78ZM183.79,268.71s4.79-2.84,5.04-7.21c0,0-3.81.67-6.64,7.63,0,0,5.58,4.42,11.62,1.71,0,0-4.37-3.54-10.01-2.13ZM189.92,266.66s3.71-3.19,3.75-7.18l-1.33.05c-1.2,1.05-2.96,3.29-3.93,7.82,0,0,6.27,3.39,11.74-.33,0,0-4.92-2.73-10.23-.36ZM186.62,267.29c0,.36.29.66.66.66s.66-.29.66-.66-.29-.66-.66-.66-.66.29-.66.66ZM209.83,219.42s3.39-6.27-.33-11.74c0,0-2.72,4.92-.35,10.23,0,0-3.63-4.22-7.98-3.71,0,0,1.32,3.64,8.66,5.22ZM193.9,204.76l1.99-2.06c-1.69-.39-4.87-.96-7.44.96,0,0,1.32,1.5,5.46,1.1ZM207.12,215.4c.36,0,.66-.29.66-.66s-.29-.66-.66-.66-.66.29-.66.66.29.66.66.66ZM211.61,225.64s4.42-5.59,1.71-11.62c0,0-3.54,4.38-2.13,10.01,0,0-2.84-4.79-7.21-5.04,0,0,.67,3.81,7.63,6.64ZM202.05,194.19c2.07,1.03,3.74-.05,3.74-.05,2.31-1.13,3.97.44,3.97.44,1.61,1.26,1.34,2.91,1.34,2.91,0,1.27-.36,1.35-.36,1.35-.77.53-.58-.36-.58-.36.02-.01.18-.63.18-.63.3-2.86-2.27-3.27-2.27-3.27-2.72-.48-3.4,2.04-3.4,2.04-.17.69-.19,1.31-.11,1.85l-3.4-3.4.16,2.88,7.6,7.6h2.72l-2.76-2.76c1.46.46,2.74.5,2.74.5,3.88-.24,4.29-3.95,4.29-3.95,1.02-3.88-2.65-7.01-2.65-7.01-2.45-2.11-6.16-2.28-6.16-2.28-5.28-.61-7.15-3.98-7.15-3.98-.62,1.53-.46,3.81-.46,3.81.35,3.5,2.57,4.31,2.57,4.31ZM210.67,226.72c0,.36.29.66.66.66s.66-.29.66-.66-.29-.66-.66-.66-.66.29-.66.66ZM196.28,202.2l1.6-1.63c-.68-2.3-2.06-5.07-5.48-6.72,0,0-.14,4.92,3.88,8.35ZM200.3,247.6h-2.77v3.5h2.77v-3.5ZM202.45,212.92c1.22.35,2.72.61,4.55.68,0,0,.83-2.48.47-5.49l-2.39,2.29c.26.61.59,1.22.99,1.83,0,0-.66-.54-1.72-1.13l-1.9,1.82ZM149.95,205.44c0,.36.29.66.66.66s.66-.29.66-.66-.29-.66-.66-.66-.66.29-.66.66ZM207.76,206.23l-7.09-7.09-6.36,6.91,6.82,6.73,6.63-6.54ZM192.7,206.46l-1.43,1.71,7.74,7.74,1.57-1.57-7.88-7.88ZM200.16,230.46h-2.76v3.5h2.76v-3.5ZM167.05,197.04s2.17,1.44,5.99-1.2c0,0-4.73-1.94-5.99,1.2ZM191.7,199.52s-2.15-.65-4.86.27v2.47c1.65-.03,3.32-.43,6.36-2.03,0,0-1.44-6.98-7.8-8.77,0,0,1.08,5.52,6.3,8.06ZM163.17,202.6l.05-2.41c-2.68-.79-5.39-.28-5.39-.28,5.16-2.66,6.11-8.21,6.11-8.21-6.32,1.95-7.59,8.96-7.59,8.96,2.92,1.45,5.19,1.9,6.82,1.94ZM161.18,203.99c-3.57-2.54-8.78-.57-8.78-.57,4.62-3.52,4.59-9.15,4.59-9.15-5.89,3.02-5.92,10.14-5.92,10.14,7.2,2.13,10.11-.42,10.11-.42ZM160.78,198.7c0,.36.29.66.66.66s.66-.29.66-.66-.29-.66-.66-.66-.66.29-.66.66ZM162.37,198.01l4.95-.07c-1.54-.93-3.22-.89-3.22-.89,5.55-1.73,7.13-6.67,7.13-6.67-6.56.82-9.03,7.51-9.03,7.51.09.06.09.07.17.13ZM188.82,198.35c0-.36-.29-.66-.66-.66s-.66.29-.66.66.29.66.66.66.66-.29.66-.66ZM185.34,197.05s-1.69-.03-3.22.89l4.95.07c.09-.06.09-.07.18-.13,0,0-2.47-6.68-9.03-7.51,0,0,1.58,4.94,7.13,6.67ZM174.69,196.29c.49,0,.88-.39.88-.88s-.39-.88-.88-.88-.88.39-.88.88.39.88.88.88ZM182.38,196.75c-1.38-3.09-6.03-.97-6.03-.97,3.91,2.49,6.03.97,6.03.97Z"/>
          <g>
            <path class="cls-3" d="M342.82,198.29h8.22v2.21h-5.44v4.16h4.7v2.06h-4.7v5.68h-2.77v-14.11Z"/>
            <path class="cls-3" d="M358.58,212.71c-1.03,0-1.9-.18-2.63-.55-.73-.37-1.33-.88-1.8-1.55-.47-.66-.82-1.45-1.04-2.35-.22-.9-.34-1.88-.34-2.94s.11-2.03.35-2.92c.23-.89.58-1.66,1.06-2.31.48-.65,1.08-1.16,1.82-1.52.74-.36,1.61-.54,2.62-.54s1.91.18,2.64.54c.74.36,1.34.86,1.81,1.5.47.64.82,1.4,1.04,2.29.22.89.34,1.86.34,2.92s-.11,2.08-.34,2.99c-.22.91-.57,1.69-1.05,2.35-.48.66-1.09,1.17-1.83,1.54-.74.37-1.63.55-2.66.55ZM358.62,210.71c.49,0,.92-.08,1.29-.25.37-.17.67-.44.91-.83.24-.39.42-.91.54-1.56.12-.65.18-1.46.18-2.43v-.95c0-.88-.06-1.62-.17-2.2-.12-.58-.3-1.05-.54-1.4-.25-.35-.55-.59-.92-.73-.37-.14-.81-.21-1.31-.21s-.92.07-1.29.22c-.37.14-.68.4-.92.76-.25.36-.43.83-.54,1.42s-.17,1.33-.17,2.22v.93c0,.98.06,1.8.18,2.44.12.64.31,1.16.56,1.54.25.38.56.65.93.8.37.15.79.23,1.27.23Z"/>
            <path class="cls-3" d="M374.3,198.29h2.77v14.11h-1.82l-.65-1.45-.91,1.32c-.2.07-.51.16-.92.27-.41.11-.91.16-1.51.16-.65,0-1.24-.1-1.78-.29-.53-.2-.99-.52-1.38-.96-.38-.45-.68-1.03-.88-1.73-.2-.71-.3-1.58-.3-2.6v-8.82h2.78v9.47c0,1.1.17,1.85.5,2.27.33.41.88.62,1.64.62.59,0,1.07-.07,1.45-.2.37-.13.71-.27,1.01-.43v-11.73Z"/>
            <path class="cls-3" d="M388.28,207.83l2.41,4.57h-2.9l-2.72-5.42h-1.92v5.42h-2.77v-14.11h4.77c1.69,0,2.97.37,3.85,1.09.87.73,1.31,1.84,1.31,3.33,0,.48-.06.94-.17,1.38-.12.44-.31.84-.57,1.2-.27.36-.63.67-1.07.91s-1,.42-1.67.52l1.47,1.11ZM385,205.2c.86,0,1.47-.17,1.83-.51.36-.34.54-.92.54-1.75v-.43c0-.84-.19-1.4-.56-1.69-.37-.29-.99-.43-1.85-.43h-1.81v4.81h1.85Z"/>
          </g>
          <polygon class="cls-3" points="244.57 214.09 244.57 208.86 244.57 202.42 244.57 197.19 237.7 197.19 237.7 226.61 244.57 226.61 244.57 221.17 244.57 214.09"/>
          <path class="cls-3" d="M255.89,211.35v-.09c3.09-.77,5.32-3,5.32-6.35,0-2.79-1.24-4.93-3.6-6.43-2.02-1.29-4.42-1.29-6.73-1.29h-4.31v5.23h2.16c1.16,0,2.96-.13,3.95.43.94.56,1.46,1.59,1.46,2.66,0,.99-.43,2.06-1.24,2.66-1.03.77-2.44.69-3.65.69h-2.68v5.23h3.06c1.12,0,2.49,0,3.47.56.99.56,1.67,1.72,1.67,2.83,0,1.2-.56,2.4-1.54,3.05-1.07.73-2.66.64-3.9.64h-2.76v5.45h4.31c2.53,0,5.4,0,7.55-1.59,2.06-1.5,3.6-3.77,3.6-6.35,0-3.82-2.49-6.61-6.13-7.33Z"/>
          <polygon class="cls-3" points="277.94 213.88 277.98 213.97 283.32 206.52 289.6 197.19 283 197.19 275.77 208.04 275.77 216.97 277.94 213.88"/>
          <polygon class="cls-3" points="283.77 226.61 291.36 226.61 283.47 209.73 278.93 216.06 283.77 226.61"/>
          <polygon class="cls-3" points="273.77 219.84 273.78 219.84 273.78 211.04 273.77 211.05 273.77 197.19 267.08 197.19 267.08 226.61 273.77 226.61 273.77 219.84"/>
          <polygon class="cls-3" points="310.01 226.61 319.24 226.61 319.76 220.74 310.01 220.74 310.01 226.61"/>
          <path class="cls-3" d="M305.65,220.74l.94-.56c2.87-1.76,5.79-3.56,8.32-5.75,2.75-2.36,4.42-4.8,4.42-8.53,0-2.79-1.2-5.19-3.39-6.91-1.82-1.46-3.73-2.03-5.93-2.18v5.71c1.36.58,2.28,1.86,2.28,3.51,0,2.87-2.23,4.8-4.2,6.56l-8.75,6.69-2.19,1.63v5.7h10.86v-5.88h-2.37Z"/>
          <path class="cls-3" d="M297.15,206.46l6.09,1.37c.29-2.91,1.6-5.49,4.77-5.65v-5.4c-6.05.23-9.66,3.66-10.86,9.67Z"/>
          <path class="cls-3" d="M246.35,240.27v5.4h.36c2.44,0,4.2.3,5.79,2.36,1.42,1.84,2.1,4.33,2.1,6.65,0,2.19-.47,4.46-1.63,6.35-1.59,2.57-3.43,3.13-6.3,3.13h-.32v5.53h.83c4.16,0,7.76-.86,10.68-4.07,2.62-2.96,3.82-6.78,3.82-10.72,0-4.25-1.37-8.32-4.55-11.32-3.13-2.97-6.68-3.29-10.78-3.3Z"/>
          <polygon class="cls-3" points="244.35 245.67 244.35 240.27 237.49 240.27 237.49 269.69 244.35 269.69 244.35 264.16 244.35 245.67"/>
          <rect class="cls-3" x="275.84" y="251.93" width="9.13" height="5.53"/>
          <rect class="cls-3" x="275.84" y="263.99" width="12.14" height="5.7"/>
          <rect class="cls-3" x="275.84" y="240.27" width="12.14" height="5.7"/>
          <polygon class="cls-3" points="273.82 263.99 273.82 257.47 273.84 257.47 273.84 251.93 273.82 251.93 273.82 245.97 273.84 245.97 273.84 240.27 266.96 240.27 266.96 269.69 273.84 269.69 273.84 263.99 273.82 263.99"/>
          <path class="cls-3" d="M310.57,253.39c-1.78-1.18-4.42-1.79-6.65-2.27v7.42c1.68.41,3.52,1.14,3.52,2.95,0,2.02-1.79,2.87-3.52,3.1v5.45c2.46-.19,4.94-.83,6.86-2.33,2.27-1.76,3.65-4.5,3.65-7.38,0-2.92-1.46-5.36-3.86-6.95Z"/>
          <path class="cls-3" d="M298.65,247.95c0-1.95,1.64-2.57,3.28-2.71v-5.38c-2.5.08-4.84.71-6.84,2.39-2.1,1.76-3.17,4.16-3.17,6.91,0,6.28,4.91,7.9,10.01,8.97v-7.4c-1.55-.35-3.28-1.01-3.28-2.77Z"/>
          <path class="cls-3" d="M296.72,260.51l-6.35,1.46c1.3,5.63,6.15,8.05,11.55,8.14v-5.48c-2.57-.21-4.44-1.36-5.21-4.12Z"/>
          <path class="cls-3" d="M307.79,248.68l5.83-1.93c-1.63-4.61-5.22-6.52-9.69-6.85v5.4c1.91.28,3.14,1.3,3.86,3.38Z"/>
          <rect class="cls-3" x="319.84" y="240.27" width="6.86" height="29.42"/>
          <path class="cls-3" d="M332.28,255.24c0,7.61,3.47,14.66,11.81,14.86v-5.67c-3.87-.77-4.78-5.6-4.78-9.1s.65-9.23,4.78-9.88v-5.55c-8.18.53-11.81,7.67-11.81,15.35Z"/>
          <path class="cls-3" d="M352.48,266.3l.99,3.39h3.13v-15.74h-12.1v5.49h5.58c.15,2.69-1.49,4.65-3.99,5.03v5.54c2.59-.33,4.57-1.49,6.39-3.7Z"/>
          <path class="cls-3" d="M350.07,250.82l6.52-.9c-.85-5.88-4.73-9.64-10.51-10.04v5.62c2.49.53,3.73,2.75,3.99,5.32Z"/>
          <polygon class="cls-3" points="380.35 240.27 380.35 257.55 380.27 257.55 370.45 240.27 370.37 240.27 370.37 253.17 379.8 269.69 385.67 269.69 385.67 240.27 380.35 240.27"/>
          <polygon class="cls-3" points="363.03 240.27 363.03 269.69 368.34 269.69 368.34 249.92 368.37 249.92 368.37 240.27 363.03 240.27"/>
          <path class="cls-3" d="M327.69,221.3v5.32h6.68v-29.42h-4.91c-1.63,2.43-4.3,3.88-7.08,4.92v5.43l5.33-2.84v16.6h-.01Z"/>
        </g>
      </g>
      <g class="cls-1">
        <g>
          <path class="cls-3" d="M163.7,15.71c-.07,3.25,2.27,4.24,5.15,4.24,1.66,0,4.17-.91,4.17-3.2,0-1.79-1.79-2.5-3.25-2.85l-3.51-.86c-1.86-.46-3.56-1.35-3.56-3.8,0-1.55.99-4.44,5.43-4.44,3.12,0,5.85,1.68,5.83,4.9h-1.5c-.09-2.41-2.08-3.62-4.31-3.62-2.05,0-3.95.79-3.95,3.14,0,1.48,1.1,2.1,2.39,2.41l3.84.95c2.23.6,4.09,1.57,4.09,4.15,0,1.08-.44,4.51-6.03,4.51-3.73,0-6.47-1.68-6.3-5.52h1.5Z"/>
          <path class="cls-3" d="M177.46,15.57c.02,2.03,1.08,4.48,3.75,4.48,2.03,0,3.14-1.19,3.58-2.92h1.39c-.6,2.58-2.1,4.09-4.97,4.09-3.62,0-5.15-2.78-5.15-6.03,0-3,1.52-6.03,5.15-6.03s5.13,3.2,5.01,6.41h-8.77ZM184.84,14.4c-.07-2.1-1.37-4.06-3.62-4.06s-3.53,1.99-3.75,4.06h7.38Z"/>
          <path class="cls-3" d="M198.31,15.2c0,3.27-1.9,6.03-5.39,6.03s-5.39-2.76-5.39-6.03,1.9-6.03,5.39-6.03,5.39,2.76,5.39,6.03ZM188.93,15.2c0,2.43,1.33,4.86,4,4.86s4-2.43,4-4.86-1.32-4.86-4-4.86-4,2.43-4,4.86Z"/>
          <path class="cls-3" d="M209.62,20.9h-1.28v-2.05h-.04c-.73,1.52-2.23,2.39-3.93,2.39-2.87,0-4-1.68-4-4.33v-7.4h1.39v7.42c.07,2.05.84,3.14,3.05,3.14,2.39,0,3.42-2.25,3.42-4.57v-5.99h1.39v11.4Z"/>
          <path class="cls-3" d="M212.27,5.13h1.39v15.77h-1.39V5.13Z"/>
        </g>
        <g>
          <path class="cls-3" d="M221.02,5.13h1.68l9.19,13.34h.04V5.13h1.5v15.77h-1.68l-9.19-13.34h-.04v13.34h-1.5V5.13Z"/>
          <path class="cls-3" d="M236.2,12.99c.13-2.67,2.01-3.82,4.62-3.82,2.01,0,4.2.62,4.2,3.67v6.05c0,.53.26.84.82.84.15,0,.33-.04.44-.09v1.17c-.31.07-.53.09-.91.09-1.41,0-1.63-.79-1.63-1.99h-.04c-.97,1.48-1.96,2.32-4.15,2.32s-3.82-1.04-3.82-3.34c0-3.2,3.12-3.31,6.12-3.67,1.15-.13,1.79-.29,1.79-1.55,0-1.88-1.35-2.34-2.98-2.34-1.72,0-3,.79-3.05,2.65h-1.39ZM243.62,14.67h-.04c-.18.33-.8.44-1.17.51-2.36.42-5.3.4-5.3,2.63,0,1.39,1.24,2.25,2.54,2.25,2.12,0,4-1.35,3.98-3.58v-1.81Z"/>
          <path class="cls-3" d="M250,9.5h2.32v1.17h-2.32v7.69c0,.91.13,1.44,1.12,1.5.4,0,.8-.02,1.19-.07v1.19c-.42,0-.82.04-1.24.04-1.86,0-2.5-.62-2.47-2.56v-7.8h-1.99v-1.17h1.99v-3.42h1.39v3.42Z"/>
          <path class="cls-3" d="M254.35,5.13h1.39v2.23h-1.39v-2.23ZM254.35,9.5h1.39v11.4h-1.39v-11.4Z"/>
          <path class="cls-3" d="M268.62,15.2c0,3.27-1.9,6.03-5.39,6.03s-5.39-2.76-5.39-6.03c0-3.27,1.9-6.03,5.39-6.03s5.39,2.76,5.39,6.03ZM259.24,15.2c0,2.43,1.32,4.86,4,4.86s4-2.43,4-4.86-1.32-4.86-4-4.86-4,2.43-4,4.86Z"/>
          <path class="cls-3" d="M270.68,9.5h1.39v1.97h.04c.51-1.37,2.03-2.3,3.64-2.3,3.2,0,4.17,1.68,4.17,4.4v7.33h-1.39v-7.11c0-1.97-.64-3.45-2.89-3.45s-3.53,1.68-3.58,3.91v6.65h-1.39v-11.4Z"/>
          <path class="cls-3" d="M282.43,12.99c.13-2.67,2.01-3.82,4.62-3.82,2.01,0,4.2.62,4.2,3.67v6.05c0,.53.26.84.82.84.15,0,.33-.04.44-.09v1.17c-.31.07-.53.09-.9.09-1.41,0-1.63-.79-1.63-1.99h-.04c-.97,1.48-1.97,2.32-4.15,2.32s-3.82-1.04-3.82-3.34c0-3.2,3.11-3.31,6.12-3.67,1.15-.13,1.79-.29,1.79-1.55,0-1.88-1.35-2.34-2.98-2.34-1.72,0-3,.79-3.05,2.65h-1.39ZM289.85,14.67h-.04c-.18.33-.79.44-1.17.51-2.36.42-5.3.4-5.3,2.63,0,1.39,1.24,2.25,2.54,2.25,2.12,0,4-1.35,3.98-3.58v-1.81Z"/>
          <path class="cls-3" d="M294.05,5.13h1.39v15.77h-1.39V5.13Z"/>
        </g>
        <g>
          <path class="cls-3" d="M300.96,5.13h1.5v9.76c-.02,3.67,1.72,5.06,4.62,5.06s4.66-1.39,4.64-5.06V5.13h1.5v10.1c0,3.25-1.75,6.01-6.14,6.01s-6.12-2.76-6.12-6.01V5.13Z"/>
          <path class="cls-3" d="M315.96,9.5h1.39v1.97h.04c.51-1.37,2.03-2.3,3.64-2.3,3.2,0,4.17,1.68,4.17,4.4v7.33h-1.39v-7.11c0-1.97-.64-3.45-2.89-3.45s-3.53,1.68-3.58,3.91v6.65h-1.39v-11.4Z"/>
          <path class="cls-3" d="M327.87,5.13h1.39v2.23h-1.39v-2.23ZM327.87,9.5h1.39v11.4h-1.39v-11.4Z"/>
          <path class="cls-3" d="M330.65,9.5h1.55l3.58,10.01h.04l3.53-10.01h1.44l-4.26,11.4h-1.48l-4.4-11.4Z"/>
          <path class="cls-3" d="M342.98,15.57c.02,2.03,1.08,4.48,3.76,4.48,2.03,0,3.14-1.19,3.58-2.92h1.39c-.6,2.58-2.1,4.09-4.97,4.09-3.62,0-5.15-2.78-5.15-6.03,0-3,1.52-6.03,5.15-6.03s5.12,3.2,5.01,6.41h-8.77ZM350.35,14.4c-.07-2.1-1.37-4.06-3.62-4.06s-3.53,1.99-3.76,4.06h7.38Z"/>
          <path class="cls-3" d="M353.62,9.5h1.28v2.67h.04c.71-1.83,2.25-2.92,4.31-2.83v1.39c-2.52-.13-4.24,1.72-4.24,4.09v6.07h-1.39v-11.4Z"/>
          <path class="cls-3" d="M367.41,12.83c-.07-1.72-1.39-2.5-2.98-2.5-1.24,0-2.69.49-2.69,1.97,0,1.24,1.41,1.68,2.36,1.92l1.86.42c1.59.24,3.25,1.17,3.25,3.16,0,2.47-2.45,3.42-4.57,3.42-2.65,0-4.46-1.24-4.68-4.02h1.39c.11,1.88,1.5,2.85,3.36,2.85,1.3,0,3.11-.57,3.11-2.16,0-1.33-1.24-1.77-2.5-2.08l-1.79-.4c-1.81-.49-3.18-1.11-3.18-3.05,0-2.32,2.27-3.2,4.29-3.2,2.28,0,4.09,1.19,4.18,3.67h-1.39Z"/>
          <path class="cls-3" d="M371.23,5.13h1.39v2.23h-1.39v-2.23ZM371.23,9.5h1.39v11.4h-1.39v-11.4Z"/>
          <path class="cls-3" d="M377.5,9.5h2.32v1.17h-2.32v7.69c0,.91.13,1.44,1.13,1.5.4,0,.79-.02,1.19-.07v1.19c-.42,0-.82.04-1.24.04-1.86,0-2.5-.62-2.47-2.56v-7.8h-1.99v-1.17h1.99v-3.42h1.39v3.42Z"/>
          <path class="cls-3" d="M380.55,9.5h1.48l3.76,9.72,3.51-9.72h1.39l-4.95,13.14c-.8,1.92-1.26,2.47-3.01,2.47-.55-.02-.84-.02-1.06-.11v-1.17c.33.07.64.11.95.11,1.24,0,1.52-.73,1.99-1.79l.48-1.3-4.55-11.35Z"/>
        </g>
        <path class="cls-3" d="M163.75,31.3h7.51l5.67,18.3h.07l5.37-18.3h7.51v26.6h-4.99v-18.85h-.07l-5.95,18.85h-4.11l-5.95-18.67h-.07v18.67h-4.99v-26.6Z"/>
        <path class="cls-3" d="M194.57,31.3h18.15v4.92h-12.81v5.7h11.76v4.55h-11.76v6.52h13.08v4.92h-18.42v-26.6Z"/>
        <path class="cls-3" d="M223.66,36.22h-7.27v-4.92h19.88v4.92h-7.27v21.68h-5.33v-21.68Z"/>
        <path class="cls-3" d="M244.87,31.3h5.47l9.07,26.6h-5.54l-1.84-5.92h-9.07l-1.9,5.92h-5.4l9.21-26.6ZM244.35,47.63h6.29l-3.06-9.76h-.07l-3.16,9.76Z"/>
        <path class="cls-3" d="M263.21,31.3h5.34v21.69h11.83v4.92h-17.16v-26.6Z"/>
        <path class="cls-3" d="M305.73,57.91h-5.3l-4.11-18.11h-.07l-4.04,18.11h-5.4l-6.42-26.6h5.33l3.84,18.11h.07l4.21-18.11h4.99l4.15,18.33h.07l3.98-18.33h5.23l-6.52,26.6Z"/>
        <path class="cls-3" d="M325.57,30.04c7.51,0,11.93,6.15,11.93,14.05s-4.42,13.82-11.93,13.82-11.93-6.15-11.93-13.82,4.42-14.05,11.93-14.05ZM325.57,52.99c4.79,0,6.59-4.47,6.59-8.91,0-4.66-1.8-9.13-6.59-9.13s-6.59,4.47-6.59,9.13,1.8,8.91,6.59,8.91Z"/>
        <path class="cls-3" d="M341.14,31.3h13.08c4.35,0,7.1,3.32,7.1,7.34,0,3.13-1.16,5.48-3.84,6.67v.07c2.62.74,3.37,3.54,3.53,6.22.1,1.68.07,4.81,1.02,6.3h-5.34c-.65-1.68-.58-4.25-.85-6.37-.37-2.79-1.36-4.02-4.04-4.02h-5.33v10.4h-5.34v-26.6ZM346.47,43.34h5.84c2.38,0,3.67-1.12,3.67-3.8s-1.29-3.69-3.67-3.69h-5.84v7.49Z"/>
        <path class="cls-3" d="M365.67,31.3h5.33v11.03l9.48-11.03h6.66l-9.48,10.51,10.4,16.1h-6.7l-7.31-11.96-3.06,3.39v8.57h-5.33v-26.6Z"/>
        <g>
          <path class="cls-3" d="M111.51,22.13v32.65c0,4.48,3.56,8.11,7.95,8.11s7.95-3.63,7.95-8.11V22.13"/>
          <g>
            <g>
              <path class="cls-3" d="M97.45,0h-7.79v19.73h7.79s.57-5.04,6.42-5.04V5.04c-5.84,0-6.42-5.04-6.42-5.04Z"/>
              <path class="cls-3" d="M110.31,0s-.57,5.04-6.42,5.04v9.64c5.84,0,6.42,5.04,6.42,5.04h16.07V0h-16.07Z"/>
            </g>
            <path class="cls-3" d="M89.66,0s-3.44,7.93,0,19.73V0Z"/>
          </g>
          <g>
            <g>
              <path class="cls-3" d="M141.29,0h7.79v19.73h-7.79s-.57-5.04-6.42-5.04V5.04c5.85,0,6.42-5.04,6.42-5.04Z"/>
              <path class="cls-3" d="M128.44,0s.57,5.04,6.42,5.04v9.64c-5.85,0-6.42,5.04-6.42,5.04h-6.69V0h6.69Z"/>
            </g>
            <path class="cls-3" d="M149.08,0s3.44,7.93,0,19.73V0Z"/>
          </g>
        </g>
      </g>
      <g class="cls-1">
        <g>
          <g>
            <path class="cls-3" d="M283.35,317.47c.21,0,.94.06,1.6.06.39,0,.5-.02,1.07-.02.23,0,.31.07.31.15,0,.1-.11.21-.31.26-.51.11-.41.28-.21.65.18.32,1.21,2.05,1.84,3.08.04.04.12.03.14-.03.41-.56,1.47-2.32,1.82-2.89.3-.51.14-.68-.41-.8-.21-.05-.29-.18-.29-.28s.17-.13.32-.13c.36,0,.59.01.91.01.53,0,1.34-.05,1.56-.05.16,0,.3.05.3.14,0,.11-.13.18-.36.25-.67.17-1.07.52-1.53,1.09-.66.83-1.39,2.07-1.87,2.75-.15.23-.35.68-.35.86,0,.79.03,2.53.09,2.98.06.3.21.47,1,.66.28.07.38.15.38.25,0,.11-.15.15-.42.15-.21,0-.9-.05-1.22-.05-.84,0-1.75.08-1.97.08-.23,0-.35-.07-.35-.15s.1-.2.39-.25c.76-.17.91-.48.92-.68.04-.58.04-2.1.04-2.91,0-.07-.09-.39-.12-.51-.25-.51-1.12-1.92-1.8-2.95-.67-.98-.83-1.18-1.45-1.33-.25-.05-.39-.16-.39-.26s.14-.15.38-.15"/>
            <path class="cls-3" d="M297.01,317.53c.46,0,1.07-.01,1.29-.04.04-.01.1.09.13.16,0,.65.02,1.05.02,1.33,0,.2-.09.37-.21.37s-.2-.2-.22-.34c-.18-.75-.5-.89-.94-.96-.37-.06-1.38-.08-2-.06-.03,0-.18.07-.21.4-.03.35-.08,3-.05,3.21.02.05.04.14.11.14h.91c1.32,0,1.38-.06,1.63-.7.08-.21.17-.29.25-.29.09,0,.12.2.12.31-.04.4-.05.68-.05,1.02,0,.38.02.57.05.86,0,.25-.06.41-.16.41s-.2-.16-.24-.31c-.19-.65-.24-.69-1.11-.74-.45-.03-1.01-.03-1.39-.03-.06,0-.12.1-.12.13-.06.3-.04,1.6-.04,2.21,0,.4.05.94.13,1.16.06.17.17.28.28.31.23.04.72.1,1.28.1.17,0,1.02-.02,1.34-.1.45-.11.83-.38,1.16-1.04.16-.31.24-.39.32-.39.1,0,.14.22.12.38-.02.11-.4,1.38-.5,1.51-.05.06-.17.17-.24.17-.15,0-2.28-.11-4.57-.11-.75,0-1.05.07-1.58.07-.27,0-.42-.03-.42-.18,0-.1.16-.17.39-.23.7-.17.97-.26,1.03-1.03.04-.58.12-2.25.12-3.99s0-1.97-.02-2.38c-.02-.62-.16-.79-.79-.93-.29-.07-.4-.12-.4-.23,0-.13.2-.2.39-.2.66,0,1.22.05,2.15.05h2.07ZM297.58,315.05c.13.05.4.26.4.45,0,.1-.14.28-.27.37-.6.32-1.52.79-2.11,1.01-.12.04-.36.13-.48,0-.01,0-.06-.15.16-.34.48-.41,1.4-1.08,1.91-1.42.18-.13.32-.1.39-.07"/>
            <path class="cls-3" d="M310,321.94c0,1.97-.97,3.34-2,4.08-.88.62-2.05.82-2.77.82-1.43,0-2.8-.62-3.65-1.6-.75-.83-1.17-1.97-1.17-3.18,0-1.72.75-2.92,1.83-3.78.68-.56,1.9-.98,2.89-.98,2.7,0,4.88,1.98,4.88,4.66M302.86,318.55c-.61.6-1.09,1.66-1.09,3.3,0,2.1,1.55,4.5,3.79,4.5,1.17,0,1.71-.5,1.86-.67.55-.51,1.19-1.65,1.19-3.32,0-1.53-.66-3.01-1.71-3.86-.57-.46-1.46-.76-2.11-.76-.59,0-1.44.31-1.94.8"/>
            <path class="cls-3" d="M311.88,317.5c.38,0,.62.03,1.04.03.55,0,1.51-.04,1.83-.04.26,0,.36.06.36.15s-.12.18-.32.24c-.83.19-.91.34-.95.55-.08.64-.08,2.05-.08,4.13,0,1.1.04,2.45.09,2.92.03.19.37.51.49.53.36.06.87.07,1.34.07.4,0,.79-.02,1.01-.04.1-.02.29-.02.55-.27.2-.19.43-.41.81-.94.15-.25.28-.31.35-.31s.11.15.05.38c-.22.68-.32.98-.43,1.51-.02.16-.29.24-.34.24-.16,0-1.45-.08-4.3-.08-.96,0-1.62.07-1.81.07-.27,0-.41-.03-.41-.15,0-.1.11-.22.34-.25.77-.16.97-.42,1.04-.97.02-.35.07-2.59.07-4.63,0-.56,0-1.53-.02-2,0-.31-.09-.57-.74-.7-.28-.06-.39-.17-.39-.27,0-.1.12-.17.43-.17"/>
            <path class="cls-3" d="M283.92,337.57c.34,0,.93.04,1.38.04s.97-.03,1.32-.03c.23,0,.37.05.37.17,0,.11-.19.18-.4.24-.49.1-.65.23-.67.78-.06.53-.06,2.82-.02,3.02.02.05.05.1.11.1s.19-.1.21-.1c.45-.34,2.69-2.53,3.13-3.02.37-.41.31-.64-.15-.76-.17-.05-.33-.1-.33-.21,0-.13.16-.19.38-.19.27,0,.28.02.53.02.34,0,1.68-.07,2.08-.07.24,0,.36.05.36.17,0,.08-.16.2-.38.25-.8.17-1.13.39-2.04,1.08-.66.52-2.48,2.2-2.66,2.46-.02.08-.04.1,0,.14.31.4,2.7,2.83,3.75,3.91.65.65.98.68,1.47.77.16.04.29.14.29.19,0,.14-.2.21-.35.21-.38,0-1.68-.11-2.05-.11-.5,0-.66.01-.98.01-.2,0-.3-.15-.3-.25,0-.07.06-.12.61-.24.06-.01.1-.1.07-.14-.43-.54-2.31-2.52-3.04-3.26-.38-.41-.52-.59-.62-.59-.08,0-.06.18-.08.3-.03.26.02,2.54.02,3.06.02.37.22.58.85.74.26.05.32.15.32.25,0,.12-.15.19-.37.19-.3,0-1.29-.05-1.73-.05s-.91.05-1.36.05c-.15,0-.33-.09-.33-.19,0-.13.11-.16.42-.24.68-.14.95-.34.99-1.17.01-.47.04-1.8.04-3.31,0-2.26-.03-2.51-.06-3.01-.03-.5-.21-.65-.77-.79-.32-.08-.37-.17-.37-.24,0-.12.17-.18.38-.18"/>
            <path class="cls-3" d="M298.66,343.84c0,1.17-.71,2.08-1.23,2.42-.56.41-1.1.56-1.74.56s-1.35-.3-1.87-.73c-.6-.49-1.04-1.45-1.04-2.15,0-1.07.46-1.74.99-2.19.44-.38,1.13-.78,2.08-.78,1.4,0,2.82,1.1,2.82,2.87M294.66,341.8c-.37.34-.68,1.07-.68,1.8,0,.47.05.9.16,1.25.35,1.06,1.16,1.56,1.83,1.56.16,0,.46-.07.86-.46.35-.38.63-1.26.63-1.86,0-.73-.17-1.53-.71-2.15-.31-.33-.81-.55-1.18-.55-.3,0-.62.16-.91.41"/>
            <path class="cls-3" d="M299.95,341.46c.46-.15.9-.37,1.04-.45.17-.11.23-.16.28-.16.06,0,.12.12.12.16,0,.25-.02.51-.02.78,0,.05.08.07.1.05.55-.51,1.17-.87,1.61-.87.58,0,.7.36.7.48,0,.04-.04.13-.09.2-.15.23-.5.6-.58.65-.02.01-.15-.01-.18-.04-.16-.15-.5-.31-.78-.31-.24,0-.49.04-.62.2-.1.11-.14.24-.14.31,0,.29.06,2.83.08,3.04.03.4.12.68.36.71.19.04.45.11.65.17.23.07.26.16.26.22,0,.07-.14.13-.34.13-.36,0-.85-.07-1.66-.07-.43,0-.59.05-.93.05-.15,0-.3-.05-.3-.17,0-.08.17-.14.28-.18.55-.18.59-.32.61-1.16v-2.68c0-.14,0-.33-.15-.42-.34-.27-.48-.32-.48-.38,0-.04.02-.19.19-.24"/>
            <path class="cls-3" d="M308.33,341.51c.31.3.49.69.49,1.18,0,.09-.11.24-.27.24s-2.57,0-3.21-.02c-.04,0-.09.07-.1.11-.05.12-.07.35-.07.49,0,.55.22,1.19.53,1.6.3.42.89.78,1.58.78.61,0,1.03-.16,1.27-.51.06-.09.13-.17.19-.17.08,0,.11.1.11.17,0,.11-.05.26-.09.33-.5.72-1.24,1.06-2.04,1.06-1.52,0-2.53-1.15-2.53-2.8,0-1.12.59-2.25,1.69-2.75.36-.17.82-.25,1.06-.25.49,0,1.04.18,1.39.53M305.38,342.39c-.04.07.02.16.06.16.37.01,1.11.01,1.81,0,.34,0,.48-.07.48-.35,0-.39-.42-.84-.93-.84-.63,0-1.17.39-1.42,1.04"/>
            <path class="cls-3" d="M313.41,341.63c.21.29.29.58.29,1.16,0,.55-.06,2.32-.06,2.47,0,.65.45.71.57.71.05,0,.37-.1.53-.21.05-.03.06,0,.08.04.04.04.04.13.04.14,0,.26-.63.87-1.26.87-.33,0-.73-.18-.89-.7,0-.01-.06-.07-.09-.06-.52.36-1.12.61-1.26.65-.16.06-.49.08-.57.08-.5,0-.97-.6-.97-1.31,0-.26.1-.52.26-.71.14-.19.36-.25.57-.35.21-.08,1.33-.4,1.65-.49.31-.1.4-.16.4-.25.01-.12.03-.98.03-1.15,0-.35-.41-.94-1.1-.94-.3,0-.48.08-.58.16-.08.04-.13.29-.1.58,0,.04-.05.13-.08.16-.14.11-.84.46-.91.46-.08,0-.17-.11-.17-.18,0-.41.4-.8,1.06-1.24.41-.29,1.04-.53,1.31-.53.71,0,1.06.35,1.26.67M312.48,345.82c.08-.06.17-.32.17-.35.03-.34.03-.81.03-1.1,0-.04-.06-.11-.12-.11-.39,0-1.06.23-1.44.42-.14.1-.28.19-.28.53,0,.62.59.84.89.84.21,0,.49-.1.75-.24"/>
            <path class="cls-3" d="M315.74,341.36c.23-.08.75-.26.93-.4.14-.09.28-.16.35-.16.06,0,.13.16.13.21,0,.24-.05.58-.05.71,0,.07.07.04.09.04.55-.38,1.28-.77,1.88-.77.68,0,1.08.31,1.26.53.32.37.5,1.02.5,1.72,0,.27.03,2.36.04,2.56.04.21.17.39.52.49.27.07.35.14.35.23s-.2.16-.42.16c-.32,0-.65-.02-1.04-.02-.36,0-.78.02-.97.02-.12,0-.33-.05-.33-.17,0-.09.17-.18.33-.24.34-.13.41-.24.43-.7.03-.47.04-2.16.04-2.57,0-.51-.25-.91-.42-1.04-.14-.12-.58-.27-.9-.27-.61,0-.98.21-1.25.45-.03.04-.14.21-.14.33,0,.18,0,3.2.02,3.37,0,.2.07.31.51.44.14.04.26.13.26.21,0,.1-.15.17-.35.17-.17,0-.57-.01-.86-.01-.53,0-.93.04-1.18.04-.21,0-.35-.06-.35-.19,0-.09.14-.17.29-.2.46-.14.54-.29.6-.79.04-.43.07-1.64.07-3.08,0-.15-.03-.3-.34-.55-.17-.12-.27-.2-.27-.24,0-.1.16-.24.26-.29"/>
            <path class="cls-3" d="M328,341.77c.83,0,2.74-.04,5.23-.04.08,0,.12-.08.16-.37,0-.18,0-2.02-.04-2.57-.04-.52-.13-.63-.76-.8-.2-.06-.35-.14-.35-.27,0-.09.14-.15.43-.15.18,0,1.09.03,1.44.03.47,0,1.12-.04,1.27-.04.24,0,.4.05.4.16,0,.07-.12.17-.41.24-.59.14-.71.4-.74.8-.07.72-.11,2.25-.11,4.64,0,.61.06,1.87.06,2.08.03.54.17.6.8.78.2.06.33.17.33.26,0,.12-.12.16-.39.16-.23,0-.74-.04-1.17-.04-.3,0-1.36.08-1.65.08-.22,0-.36-.03-.36-.15s.18-.21.33-.25c.75-.23.82-.38.86-1.38.02-.59.06-1.56.06-2.26,0-.25-.06-.3-.17-.3-2.18,0-4.95-.04-5.23-.02-.04,0-.16.13-.16.24-.02.36,0,2.16,0,2.57.02.66.17.91.77,1.1.31.09.4.14.43.28,0,.11-.23.14-.41.14-.1,0-.97-.05-1.46-.05-.33,0-.92.05-1.4.05-.31,0-.42-.05-.42-.14,0-.14.17-.23.32-.26.72-.19.83-.32.88-.88.04-.58.14-2.16.14-4.45,0-.25.02-1.55,0-2.17-.03-.48-.11-.67-.7-.8-.3-.05-.4-.15-.4-.26,0-.1.18-.16.4-.16.4,0,.92.03,1.29.03.58,0,1-.03,1.33-.03.29,0,.45.07.45.16,0,.14-.11.21-.41.26-.67.13-.7.34-.75.93-.04.46-.06,2.32-.04,2.56.02.27.06.28.16.28"/>
            <path class="cls-3" d="M340.56,341.51c.3.3.49.69.49,1.18,0,.09-.1.24-.26.24s-2.56,0-3.21-.02c-.05,0-.1.07-.11.11-.04.12-.07.35-.07.49,0,.55.23,1.19.53,1.6.31.42.9.78,1.58.78.61,0,1.03-.16,1.27-.51.05-.09.12-.17.18-.17.08,0,.11.1.11.17,0,.11-.05.26-.09.33-.49.72-1.24,1.06-2.03,1.06-1.52,0-2.53-1.15-2.53-2.8,0-1.12.59-2.25,1.69-2.75.35-.17.82-.25,1.06-.25.49,0,1.05.18,1.4.53M337.6,342.39c-.02.07.03.16.06.16.37.01,1.12.01,1.81,0,.33,0,.48-.07.48-.35,0-.39-.42-.84-.92-.84-.64,0-1.17.39-1.43,1.04"/>
            <path class="cls-3" d="M342.21,341.46c.46-.15.91-.37,1.04-.45.17-.11.25-.16.29-.16.06,0,.12.12.12.16,0,.25-.02.51-.02.78,0,.05.07.07.09.05.55-.51,1.17-.87,1.61-.87.58,0,.7.36.7.48,0,.04-.04.13-.09.2-.14.23-.49.6-.57.65-.03.01-.16-.01-.19-.04-.16-.15-.49-.31-.77-.31-.25,0-.49.04-.63.2-.1.11-.14.24-.14.31,0,.29.07,2.83.08,3.04.04.4.12.68.37.71.19.04.44.11.65.17.23.07.25.16.25.22,0,.07-.12.13-.33.13-.35,0-.84-.07-1.66-.07-.42,0-.6.05-.93.05-.15,0-.3-.05-.3-.17,0-.08.17-.14.29-.18.54-.18.59-.32.6-1.16v-2.68c0-.14,0-.33-.15-.42-.33-.27-.47-.32-.47-.38,0-.04.03-.19.17-.24"/>
            <path class="cls-3" d="M346.89,341.39c.52-.11,1.19-.42,1.4-.48.05,0,.12.14.12.16,0,.16-.08,1.99-.08,2.78s.01,1.37.03,1.87c0,.45.32.48.67.59.23.07.31.14.31.24,0,.08-.16.14-.32.14-.1,0-.8-.04-1.09-.04-.46,0-.95.05-1.19.05-.22,0-.37-.05-.37-.15,0-.09.1-.15.34-.22.31-.09.53-.25.56-.4.04-.2.06-1.04.06-1.45,0-.03.02-2.02-.02-2.19,0-.1-.17-.21-.57-.51-.08-.06-.1-.1-.1-.15,0-.1.12-.21.27-.24M348.5,338.8c0,.38-.38.69-.67.69-.09,0-.33-.06-.45-.17-.12-.13-.21-.28-.21-.52,0-.13.05-.35.16-.51.14-.13.35-.18.55-.18.38,0,.61.43.61.69"/>
            <path class="cls-3" d="M353.57,341.11s.16.07.16.11c0-.05.04.35.04.53,0,.12-.26.15-.36.15h-1.54c-.08,0-.13.07-.13.1,0,.29-.03,2.35-.03,3.03,0,.35.08.53.24.69.28.24.57.26.87.26.19,0,.47-.08.69-.21.12-.07.14-.08.19-.08.03,0,.09.03.09.15,0,.12-.1.25-.19.35-.38.36-.87.62-1.51.62-.57,0-1.07-.35-1.24-.66-.15-.24-.18-.53-.18-.93,0-.52.06-2.63.06-3.12,0-.1-.26-.2-.53-.28-.12-.04-.2-.11-.2-.15,0-.06.04-.11.08-.16.49-.39.92-.73,1.12-.97.18-.19.27-.31.32-.31.08,0,.21.13.21.16v.66s.06.11.1.11c.32,0,1.68-.06,1.74-.06"/>
            <path class="cls-3" d="M358.11,341.63c.22.29.28.58.28,1.16,0,.55-.06,2.32-.06,2.47,0,.65.45.71.57.71.06,0,.38-.1.54-.21.04-.03.05,0,.08.04.04.04.04.13.04.14,0,.26-.63.87-1.27.87-.32,0-.72-.18-.89-.7,0-.01-.06-.07-.08-.06-.51.36-1.13.61-1.27.65-.16.06-.5.08-.56.08-.49,0-.97-.6-.97-1.31,0-.26.11-.52.27-.71.14-.19.36-.25.57-.35.21-.08,1.34-.4,1.64-.49.33-.1.41-.16.41-.25.02-.12.03-.98.03-1.15,0-.35-.41-.94-1.09-.94-.3,0-.48.08-.57.16-.08.04-.13.29-.11.58,0,.04-.05.13-.08.16-.14.11-.84.46-.91.46-.09,0-.16-.11-.16-.18,0-.41.39-.8,1.05-1.24.41-.29,1.04-.53,1.32-.53.7,0,1.06.35,1.26.67M357.18,345.82c.09-.06.17-.32.17-.35.03-.34.03-.81.03-1.1,0-.04-.06-.11-.11-.11-.4,0-1.07.23-1.45.42-.14.1-.29.19-.29.53,0,.62.59.84.89.84.21,0,.49-.1.75-.24"/>
            <path class="cls-3" d="M363.77,341.08c.15.03.29.07.4.08.3.02,1.33.04,1.63.11.08.02.13.1.13.15,0,.2-.2.45-.26.45-.08,0-.59,0-.94-.03-.06,0-.1.07-.09.11.07.21.12.46.12.7,0,.77-.25,1.35-.79,1.77-.62.48-1.2.54-1.53.54-.09,0-.4-.02-.5-.02-.08-.02-.14-.02-.2.02-.14.07-.45.36-.45.47,0,.37.41.62.57.63.62.03,2.14.04,2.59.11.12.01.43.14.67.34.4.34.6.88.6,1.24,0,1.05-.72,1.77-1.33,2.16-.78.5-1.52.61-2.02.61s-1.17-.08-1.76-.52c-.39-.31-.64-.83-.64-1.22,0-.62.27-.79.4-.89.36-.3.79-.6.99-.76.02-.03,0-.07-.06-.1-.09-.06-.35-.14-.54-.28-.28-.2-.49-.59-.49-1.04,0-.03.05-.1.08-.12.22-.17.81-.51,1.04-.73.03-.03-.01-.08-.05-.12-.4-.23-1.07-.76-1.07-1.78,0-.69.3-1.2.85-1.61.4-.29.88-.45,1.44-.45s.81.07,1.22.17M363.99,349.7c.57-.37.78-.9.78-1.31,0-.18-.02-.5-.19-.73-.14-.19-.41-.37-.75-.44-.37-.07-.83-.07-1.42-.07-.45,0-.67.08-.76.14-.45.31-.62.83-.62,1.15,0,.45.18.82.49,1.07.37.3.85.44,1.37.44.55,0,.96-.17,1.11-.25M361.73,341.6c-.21.22-.37.59-.37,1.25,0,.7.47,1.75,1.39,1.75.09,0,.27-.07.47-.2.35-.22.53-.91.53-1.49,0-.25-.09-.71-.3-1.05-.28-.4-.61-.62-1.02-.62-.26,0-.58.18-.7.35"/>
            <path class="cls-3" d="M370.43,341.51c.32.3.5.69.5,1.18,0,.09-.11.24-.26.24-.16,0-2.57,0-3.21-.02-.05,0-.1.07-.11.11-.04.12-.07.35-.07.49,0,.55.23,1.19.55,1.6.3.42.89.78,1.56.78.62,0,1.04-.16,1.29-.51.04-.09.12-.17.17-.17.09,0,.12.1.12.17,0,.11-.05.26-.11.33-.49.72-1.24,1.06-2.03,1.06-1.52,0-2.52-1.15-2.52-2.8,0-1.12.58-2.25,1.68-2.75.37-.17.83-.25,1.07-.25.48,0,1.04.18,1.38.53M367.47,342.39c-.02.07.04.16.06.16.37.01,1.11.01,1.81,0,.35,0,.49-.07.49-.35,0-.39-.43-.84-.94-.84-.64,0-1.17.39-1.42,1.04"/>
            <path class="cls-3" d="M286.51,357.98c-.16,0-.3.06-.42.13-.04.04-.12.21-.12.55-.02.3-.02,2.04-.04,3.66,0,1.28.04,2.46.04,2.81,0,.91.12,1.02.83,1.24.27.07.38.14.38.27,0,.12-.26.17-.46.17-.35,0-.85-.06-1.48-.06-.4,0-.98.06-1.42.06-.24,0-.4-.07-.4-.2,0-.1.14-.18.28-.22.79-.19.94-.45.99-1.04.04-.68.06-1.84.06-2.54,0-.47-.02-3.44-.04-3.9-.01-.5,0-.7-.78-.81-.28-.04-.43-.13-.43-.21,0-.11.14-.18.32-.19.1-.02.34,0,.47,0,.56,0,1.64-.11,2.35-.11,1.27,0,2.1.33,2.62.83.68.65.82,1.45.82,1.91,0,1.25-.58,1.83-.99,2.18-.36.31-1.01.62-1.62.62-.15,0-.5-.02-.74-.1-.17-.07-.24-.14-.24-.23,0-.06.06-.12.17-.12h.35c.76,0,1.79-.66,1.79-2.28,0-1.28-.97-2.39-2.29-2.39"/>
            <path class="cls-3" d="M291.11,361.54c.47-.16.9-.37,1.04-.46.17-.11.24-.17.28-.17.06,0,.12.13.12.17,0,.25-.02.51-.02.78,0,.05.07.06.11.05.54-.52,1.17-.87,1.6-.87.58,0,.7.35.7.48,0,.03-.04.12-.09.2-.14.22-.49.6-.57.65-.02.01-.15-.02-.2-.04-.15-.15-.5-.31-.77-.31-.24,0-.48.04-.61.2-.1.11-.14.24-.14.31,0,.28.06,2.82.09,3.04.02.41.12.68.36.72.19.04.44.11.65.17.23.07.25.16.25.22,0,.07-.13.13-.34.13-.36,0-.84-.07-1.66-.07-.42,0-.59.06-.93.06-.16,0-.3-.06-.3-.17,0-.09.18-.14.29-.18.54-.18.59-.32.6-1.16v-2.68c0-.14,0-.33-.15-.42-.33-.26-.48-.32-.48-.38,0-.04.03-.19.18-.24"/>
            <path class="cls-3" d="M299.49,361.59c.31.3.49.69.49,1.18,0,.08-.12.24-.27.24s-2.56,0-3.21-.02c-.05,0-.09.07-.11.12-.04.11-.08.35-.08.49,0,.55.23,1.2.55,1.6.3.42.89.78,1.56.78.62,0,1.05-.15,1.29-.51.06-.09.12-.17.18-.17.08,0,.11.1.11.17,0,.11-.06.26-.09.33-.5.72-1.25,1.06-2.05,1.06-1.51,0-2.53-1.15-2.53-2.8,0-1.12.59-2.25,1.69-2.75.37-.17.83-.25,1.06-.25.5,0,1.04.18,1.4.53M296.54,362.46c-.04.07.02.16.06.16.36.02,1.1.02,1.8,0,.35,0,.47-.07.47-.35,0-.39-.42-.84-.92-.84-.63,0-1.17.4-1.42,1.04"/>
            <path class="cls-3" d="M303.7,361.13c.16.03.43.14.46.15.03.01.11.11.11.19,0,.26.04.74.04.83,0,.13-.06.25-.17.25-.06,0-.14-.08-.21-.24-.31-.66-.66-.94-1.13-.94-.57,0-.85.58-.85.87,0,.48.45.84,1.4,1.36.79.46,1.1.94,1.1,1.57s-.47,1.13-.82,1.38c-.25.17-.74.32-1.17.32s-1.13-.11-1.37-.31c-.04-.07-.21-.66-.21-1.07,0-.15.02-.29.11-.29.12,0,.21.17.3.32.4.71.77,1,1.28,1,.18,0,.4-.09.56-.21.21-.17.32-.51.32-.78,0-.38-.2-.68-.63-.94-.34-.24-.42-.31-.86-.59-.42-.26-.87-.76-.87-1.42,0-.48.24-.94.78-1.27.26-.17.64-.29,1.12-.29.27,0,.57.04.72.08"/>
            <path class="cls-3" d="M309.51,361.59c.31.3.49.69.49,1.18,0,.08-.11.24-.27.24s-2.55,0-3.2-.02c-.05,0-.11.07-.12.12-.05.11-.07.35-.07.49,0,.55.22,1.2.53,1.6.31.42.9.78,1.57.78.61,0,1.04-.15,1.28-.51.06-.09.13-.17.19-.17.08,0,.11.1.11.17,0,.11-.05.26-.09.33-.49.72-1.24,1.06-2.04,1.06-1.52,0-2.53-1.15-2.53-2.8,0-1.12.58-2.25,1.69-2.75.37-.17.83-.25,1.06-.25.5,0,1.03.18,1.39.53M306.55,362.46c-.02.07.04.16.06.16.36.02,1.11.02,1.81,0,.34,0,.48-.07.48-.35,0-.39-.42-.84-.93-.84-.63,0-1.17.4-1.42,1.04"/>
            <path class="cls-3" d="M311.16,361.54c.46-.16.9-.37,1.04-.46.17-.11.24-.17.28-.17.06,0,.13.13.13.17,0,.25-.02.51-.02.78,0,.05.06.06.09.05.55-.52,1.17-.87,1.6-.87.58,0,.71.35.71.48,0,.03-.05.12-.08.2-.16.22-.5.6-.59.65-.03.01-.16-.02-.2-.04-.16-.15-.49-.31-.77-.31-.24,0-.48.04-.62.2-.1.11-.15.24-.15.31,0,.28.08,2.82.09,3.04.03.41.11.68.36.72.19.04.45.11.66.17.22.07.25.16.25.22,0,.07-.12.13-.33.13-.36,0-.85-.07-1.67-.07-.42,0-.59.06-.92.06-.16,0-.3-.06-.3-.17,0-.09.17-.14.28-.18.55-.18.59-.32.61-1.16v-2.68c0-.14,0-.33-.16-.42-.33-.26-.48-.32-.48-.38,0-.04.03-.19.19-.24"/>
            <path class="cls-3" d="M315.88,361.17c.25,0,1,.07,1.17.07.36,0,.72-.03.87-.03.22,0,.32.05.32.15,0,.09-.12.15-.3.21-.41.11-.37.31-.32.48.41,1.21,1.15,2.88,1.26,2.96.03.04.09,0,.11-.05.18-.44.95-2.4,1.07-2.83.11-.36-.02-.45-.44-.6-.1-.04-.22-.1-.22-.19,0-.09.1-.15.28-.15.29,0,.41.04.76.04.25,0,.68-.07.96-.07.14,0,.28.07.28.15,0,.08-.08.13-.29.22-.33.12-.49.29-.7.54-.19.31-.74,1.68-1.15,2.66-.4,1-.4,1.14-.64,1.89-.06.22-.22.36-.33.36-.06,0-.14-.09-.2-.25-.14-.46-.17-.61-.49-1.43-.34-.9-1.09-2.63-1.47-3.3-.1-.18-.24-.37-.59-.46-.21-.07-.27-.13-.27-.22,0-.1.2-.15.33-.15"/>
            <path class="cls-3" d="M325.63,361.7c.21.3.28.58.28,1.17,0,.55-.06,2.32-.06,2.47,0,.65.45.71.57.71.06,0,.38-.1.53-.21.05-.03.06,0,.08.04.05.04.05.13.05.14,0,.27-.64.87-1.26.87-.33,0-.74-.18-.91-.7,0-.01-.06-.07-.09-.06-.52.36-1.12.61-1.26.65-.15.06-.5.08-.56.08-.5,0-.97-.61-.97-1.31,0-.26.11-.52.26-.72.14-.18.35-.25.57-.35.2-.08,1.34-.4,1.64-.49.32-.1.41-.16.41-.25.01-.12.04-.99.04-1.15,0-.35-.42-.94-1.1-.94-.3,0-.49.09-.58.16-.09.04-.12.3-.1.58,0,.04-.06.13-.08.16-.14.11-.84.46-.91.46-.09,0-.18-.11-.18-.18,0-.41.4-.8,1.06-1.24.41-.29,1.03-.53,1.3-.53.71,0,1.05.35,1.27.66M324.69,365.89c.09-.06.17-.32.17-.35.03-.34.03-.81.03-1.1,0-.04-.05-.11-.1-.11-.4,0-1.08.24-1.46.42-.14.1-.27.19-.27.53,0,.62.59.85.88.85.22,0,.5-.1.76-.24"/>
            <path class="cls-3" d="M330.92,361.18s.16.07.16.11c0-.04.04.35.04.54,0,.13-.27.15-.36.15h-1.53c-.08,0-.13.07-.13.1-.01.29-.02,2.35-.02,3.02,0,.36.07.54.23.69.27.24.57.26.86.26.17,0,.48-.08.69-.21.13-.07.16-.08.21-.08.02,0,.08.03.08.15,0,.11-.09.25-.18.35-.39.37-.88.62-1.52.62-.58,0-1.07-.35-1.23-.66-.16-.24-.19-.54-.19-.93,0-.52.06-2.63.06-3.12,0-.1-.26-.2-.54-.29-.11-.04-.2-.11-.2-.15,0-.06.05-.11.09-.16.49-.39.93-.73,1.11-.97.18-.19.28-.3.32-.3.08,0,.2.13.2.16v.66s.06.11.11.11c.32,0,1.68-.05,1.74-.05"/>
            <path class="cls-3" d="M332.16,361.46c.52-.11,1.18-.42,1.39-.48.06,0,.13.14.13.15,0,.15-.08,1.98-.08,2.78s.02,1.38.02,1.87c.02.45.33.48.67.6.22.07.31.14.31.24,0,.08-.17.14-.32.14-.1,0-.8-.05-1.1-.05-.47,0-.97.06-1.2.06-.22,0-.37-.06-.37-.15,0-.09.11-.15.34-.23.32-.08.53-.25.55-.39.05-.2.07-1.04.07-1.45,0-.03.01-2.03-.02-2.19-.01-.1-.17-.21-.58-.51-.09-.06-.11-.1-.11-.16,0-.1.12-.21.28-.24M333.78,358.88c0,.38-.4.69-.68.69-.11,0-.33-.06-.45-.17-.11-.12-.21-.28-.21-.52,0-.13.06-.35.17-.51.14-.13.36-.18.55-.18.38,0,.63.43.63.69"/>
            <path class="cls-3" d="M341.13,363.91c0,1.17-.71,2.08-1.23,2.42-.56.41-1.1.56-1.74.56s-1.35-.3-1.87-.73c-.6-.49-1.04-1.45-1.04-2.15,0-1.07.45-1.74.98-2.19.44-.38,1.14-.77,2.08-.77,1.4,0,2.82,1.09,2.82,2.87M337.14,361.87c-.37.34-.69,1.07-.69,1.8,0,.46.04.9.16,1.25.34,1.06,1.15,1.56,1.82,1.56.16,0,.46-.07.87-.47.34-.38.62-1.25.62-1.85,0-.73-.18-1.53-.7-2.15-.3-.34-.81-.55-1.18-.55-.3,0-.62.15-.9.41"/>
            <path class="cls-3" d="M342.51,361.43c.24-.08.74-.26.94-.41.14-.09.26-.16.33-.16s.14.16.14.21c0,.24-.05.58-.05.7,0,.07.07.04.08.04.55-.38,1.29-.77,1.88-.77.69,0,1.08.31,1.29.53.3.37.49,1.02.49,1.72,0,.26.04,2.36.04,2.56.03.21.17.39.52.49.27.07.35.14.35.24s-.2.15-.41.15c-.34,0-.66-.03-1.05-.03-.35,0-.79.03-.97.03-.12,0-.32-.05-.32-.17,0-.1.16-.18.32-.24.35-.12.41-.24.44-.7.03-.47.04-2.16.04-2.57,0-.51-.25-.91-.42-1.04-.16-.12-.59-.27-.89-.27-.63,0-.99.21-1.25.45-.05.03-.15.21-.15.33,0,.18,0,3.2.02,3.37.01.2.07.31.51.44.14.04.25.13.25.21,0,.09-.14.17-.34.17-.17,0-.57-.02-.86-.02-.51,0-.92.05-1.16.05-.21,0-.37-.06-.37-.19,0-.1.13-.17.3-.21.46-.14.55-.29.58-.79.04-.43.07-1.64.07-3.08,0-.16-.03-.3-.33-.55-.19-.13-.27-.2-.27-.24,0-.1.15-.24.25-.29"/>
            <path class="cls-3" d="M357.15,357.68c.09.03.17.24.17.27.03.26.14,1.08.14,1.13,0,.24,0,.38-.1.38s-.28-.1-.33-.29c-.19-.51-.55-.93-.69-1.02-.26-.2-.59-.32-1.01-.32-.94,0-1.61.7-1.61,1.65,0,1,.71,1.44,1.95,2.26,1.09.73,1.94,1.46,1.94,2.73,0,.7-.4,1.49-1.15,1.98-.45.29-1.28.51-1.92.51-.45,0-1.4-.15-1.84-.36-.14-.08-.32-.4-.32-.45-.07-.48-.22-1.1-.22-1.32,0-.06.14-.27.21-.27.1,0,.32.36.52.8.36.77,1.28,1.12,1.82,1.12.98,0,1.71-.69,1.71-1.7,0-.59-.28-1.22-1.76-2.16-1.2-.77-2.03-1.59-2.03-2.78,0-.66.29-1.3.77-1.72.43-.4,1.09-.69,2.07-.69.7,0,1.42.21,1.67.25"/>
            <path class="cls-3" d="M364.77,363.91c0,1.17-.71,2.08-1.22,2.42-.55.41-1.11.56-1.75.56s-1.36-.3-1.86-.73c-.62-.49-1.04-1.45-1.04-2.15,0-1.07.45-1.74.98-2.19.45-.38,1.15-.77,2.09-.77,1.39,0,2.81,1.09,2.81,2.87M360.78,361.87c-.37.34-.7,1.07-.7,1.8,0,.46.06.9.17,1.25.35,1.06,1.15,1.56,1.82,1.56.16,0,.47-.07.86-.47.35-.38.64-1.25.64-1.85,0-.73-.17-1.53-.7-2.15-.31-.34-.82-.55-1.18-.55-.29,0-.63.15-.91.41"/>
            <path class="cls-3" d="M370.31,361.41c.13.1.21.34.21.42,0,.22-.41.56-.47.56-.08,0-.32-.11-.54-.26-.46-.34-.7-.55-1.19-.55-.22,0-.65.2-.86.48-.38.42-.59,1-.59,1.62,0,.82.3,1.32.36,1.41.35.59,1.03.94,1.77.94.52,0,.88-.17,1.26-.42.14-.11.26-.07.26,0,0,.15-.08.29-.19.41-.49.55-1.29.87-2.02.87-.88,0-1.64-.46-2.09-1.13-.24-.39-.44-1.05-.44-1.64,0-1.03.55-1.89,1.38-2.43.55-.39,1.45-.59,1.84-.59.42,0,1.04.12,1.31.32"/>
            <path class="cls-3" d="M371.76,361.46c.52-.11,1.18-.42,1.4-.48.06,0,.12.14.12.15,0,.15-.09,1.98-.09,2.78s.02,1.38.03,1.87c.01.45.32.48.67.6.23.07.31.14.31.24,0,.08-.16.14-.32.14-.11,0-.81-.05-1.1-.05-.46,0-.95.06-1.2.06-.22,0-.35-.06-.35-.15,0-.09.1-.15.33-.23.33-.08.55-.25.57-.39.04-.2.06-1.04.06-1.45,0-.03.01-2.03-.02-2.19-.01-.1-.16-.21-.58-.51-.08-.06-.1-.1-.1-.16,0-.1.13-.21.28-.24M373.38,358.88c0,.38-.4.69-.67.69-.11,0-.34-.06-.46-.17-.11-.12-.2-.28-.2-.52,0-.13.06-.35.16-.51.14-.13.36-.18.55-.18.37,0,.62.43.62.69"/>
            <path class="cls-3" d="M379.01,361.59c.31.3.5.69.5,1.18,0,.08-.12.24-.28.24-.16,0-2.55,0-3.2-.02-.05,0-.11.07-.12.12-.05.11-.07.35-.07.49,0,.55.22,1.2.53,1.6.3.42.9.78,1.57.78.62,0,1.04-.15,1.28-.51.06-.09.13-.17.18-.17.09,0,.11.1.11.17,0,.11-.05.26-.09.33-.49.72-1.24,1.06-2.04,1.06-1.52,0-2.53-1.15-2.53-2.8,0-1.12.6-2.25,1.69-2.75.37-.17.83-.25,1.07-.25.48,0,1.04.18,1.39.53M376.06,362.46c-.02.07.03.16.06.16.36.02,1.11.02,1.81,0,.34,0,.47-.07.47-.35,0-.39-.42-.84-.93-.84-.63,0-1.16.4-1.42,1.04"/>
            <path class="cls-3" d="M383.94,361.18s.15.07.15.11c0-.04.04.35.04.54,0,.13-.26.15-.37.15h-1.52c-.07,0-.13.07-.13.1-.02.29-.03,2.35-.03,3.02,0,.36.09.54.24.69.27.24.57.26.85.26.18,0,.47-.08.69-.21.13-.07.15-.08.21-.08.01,0,.09.03.09.15,0,.11-.11.25-.21.35-.38.37-.87.62-1.5.62-.58,0-1.07-.35-1.23-.66-.16-.24-.19-.54-.19-.93,0-.52.06-2.63.06-3.12,0-.1-.24-.2-.53-.29-.12-.04-.2-.11-.2-.15,0-.06.04-.11.08-.16.5-.39.93-.73,1.14-.97.16-.19.26-.3.32-.3.07,0,.2.13.2.16v.66s.05.11.11.11c.31,0,1.67-.05,1.73-.05"/>
            <path class="cls-3" d="M384.95,361.19c.36,0,.69.06,1.1.06s.82-.02.98-.02c.12,0,.31.04.31.15,0,.1-.1.19-.32.24-.39.12-.44.18-.29.55.21.67,1.11,2.87,1.22,3.03.03.03.08.03.12-.05.17-.38,1.04-2.65,1.11-2.87.12-.39,0-.56-.53-.69-.17-.04-.29-.14-.29-.19,0-.13.18-.17.34-.17.27,0,.65.02.83.02.2,0,.52-.06.88-.06.19,0,.28.03.28.13,0,.13-.12.19-.31.24-.29.1-.46.26-.69.73-.46,1.06-1.22,2.93-1.54,3.74-.49,1.28-1.01,2.73-1.47,3.92-.05.18-.32.39-.73.39-.47,0-.62-.39-.62-.69,0-.24.22-.62.62-.62.06,0,.36.02.5.02.12,0,.14-.1.2-.24.14-.22.58-1.46.68-1.82.04-.2.09-.38.04-.51-.04-.1-.16-.42-.2-.58-.3-.83-1.17-2.9-1.61-3.79-.12-.25-.19-.39-.65-.55-.2-.07-.28-.12-.28-.21,0-.06.04-.17.33-.17"/>
          </g>
          <g>
            <path class="cls-2" d="M251.28,323.46c-1.28,2.2-5.64.89-7.02,2.49-1.59.16-2.61-.25-3.17-1.13,2.85-1.34,7.02-1.37,10.2-1.36Z"/>
            <path class="cls-2" d="M213.9,326.63c-.6,0-1.29.09-1.59-.23.04-.79,1.9-1.1,1.59.23Z"/>
            <path class="cls-2" d="M253.31,379.87c.93-.1,1.19.48,1.59.91-.33.5-.6,1.06-1.59.91.04-.7-.53-1.28,0-1.81Z"/>
            <path class="cls-2" d="M236.78,326.18c-.68-.29-1.27,1.44-2.72,1.13-1.02,1.7-3.68,1.76-3.63,4.53-1.14-.2-1.85,1.09-1.58,2.94-1.14.37-1.33.68-2.72.45-.39-.66-.53-1.58-.45-2.72,1.81-.53,1.78-2.9,3.62-3.4-.19-.26-.3-.6-.22-1.13,1.1-.26,1.62-1.1,2.04-2.04,1.31-.12,2.02-.85,3.17-1.13,1.3.58,1.91.35,3.4.23,3.08,2.4,4.36,8.75,2.27,13.14v1.81c-1.09.49-2.18.99-3.17,1.58-3.29.31-4.87-.89-7.7-.23-.6-1.06-1.59-1.73-2.04-2.94,2.49.07,6.57.38,9.29.68.65.07.95.13,1.36.45.29-.08.35-.4.68-.45-.1-2.37-.86-4.8-1.13-7.7-.18-1.93.33-3.72-.91-4.76-.08-.39.18-.43.45-.45ZM234.96,325.95c-.56.29-.94-.66-1.13,0,.67-.06.84.91,1.13,0ZM238.59,327.54c-.69,0-.22-1.14-.9-1.13-.28,1.27.58,1.55.9,1.13ZM231.57,327.31c.3.3.84.3.91-.23-.3-.29-.84-.3-.91.23ZM230.21,329.12c-.22-.63,1.24-.69.68-.9-.5-.1-1.25.68-.68.9ZM239.04,329.12c-.6-.12-.77,1.31-.45,1.36-.11-.72.7-.52.45-1.36ZM239.04,330.26h.45v-.45h-.45v.45ZM228.39,331.62c.73.11,1.22-1.18.68-1.59-.27.49-.24,1.26-.68,1.59ZM238.81,332.29c-.1-.89.48-1.17-.23-1.58-.02.76-.45,1.2.23,1.58ZM239.49,332.75c-.33.5-.55-.28-.68.23.75.08-.59.99.23,1.13.11-.56.26-1.55.91-.91-.32-.65.61-1.15,0-1.36-.41,1.33-.4-1.03-.46-.91-.53.53.04,1.11,0,1.81ZM227.71,333.43c.22-.19.49-1.45,0-1.58,0,.4-.61,1.32,0,1.58ZM239.72,334.79c.04-.16-.08-1.32-.23-.68-.2.86.12,1.14.23.68ZM239.04,337.28c.12-.36.87-1.21.23-1.58.2.67-.71,1.38-.23,1.58ZM230.43,340c-.45-1.05-1.47.27,0,0h0ZM234.06,340.67c-.07-.6,1.27.21.9-.68-.47.13-1.49-.28-1.58.23.44-.07.45.3.68.45ZM236.32,340c-.34.04-.84-.08-.9.23.3.29.84.3.9-.23Z"/>
            <path class="cls-2" d="M256.03,318.93c-.47,8.1.22,12.68,0,19.71-1.41-.07-1.37,2.3-3.17,2.5-.22-.31-.61-.46-.91-.68.2-2.79.66-5.84-.23-7.7-2.26,1.18-5.41,1.21-7.48,2.04-.98-.23-1.23-1.19-1.36-2.27,1.1-.14,2.12-.17,2.49.91,1-2.35,4.09.32,4.76-1.81.74.39,1.98.28,2.72.68-1.15-5.79.12-10.86-1.36-15.4,1.4-1.66,3.55,1.09,4.53,2.04ZM253.09,319.38c0-.33.08-1.85-.23-1.13,0,.33-.09,1.85.23,1.13ZM254.45,320.06c.05-.35.87-1.06.23-1.36-.23,1.27-.44-.34-.68-.45-.33.7.21,1.11.45,1.81ZM254.9,320.74c-.27-.04-.64.04-.68-.23,0-.14-.03-.27-.22-.23-.19,1.49.28.9.91.45ZM254.22,327.31c1.23.06.22-1.21.23-1.81,0-1.12.42-2.17.23-2.95-.64,1.41-.75,3.17-.68,4.53.04-.34-.08-.84.22-.9.74.49.12.5,0,1.13ZM253.77,328.22c.07.82-.04,1.47-.23,2.04.42.22,1.11,1.85.23,2.49,1.1-.11.38,1.58,1.36,1.58-1.06-1.75-.37-3.96-.68-6.34-.13.47-.35.48-.68.23ZM253.99,333.65c-.3,0-.21-.39-.45-.45-.05.27-.25.14-.45,0,.04.34-.08.84.23.91.03-.28.07-.53.45-.45,0,.12.18.25.23,0ZM253.31,337.5c.88-.5.99-2,.45-3.17.4,1.58-.32,1.7-.45,3.17ZM253.31,335.46c.04-.16-.08-1.32-.23-.68-.2.86.12,1.13.23.68ZM255.13,335.24c-.27-.04-.51-.4-.68,0,.26.03.51.4.68,0ZM254.9,337.5c.07-.13-.17-2.06-.23-.45-.01.4.08.72.23.45ZM253.31,338.87c.06-.31-.14-.89-.23-.46-.06.31.14.89.23.46ZM254.22,338.87c.02-.39-.17-.58-.45-.68-.01.39.17.58.45.68Z"/>
            <path class="cls-2" d="M265.77,315.53c1.37,2.14.15,5.72.23,9.29.05,2.54,1.04,5.57-.23,8.15.91,1.81.59,4.85.68,7.48-.65.33-.28,1.68-1.58,1.36.17,2.82-1.2,4.09-2.72,5.21-1.96-.9-.55-2.63-.45-3.85.25-2.98-.23-6.78.23-10.42.23-1.9.7-3.59.68-5.44-.04-3.76.15-8.99-.68-12.46,1.15-.47,2.72.4,3.85.68ZM263.96,318.7c.16.56.68-.75,1.13,0-.21-.7.14-2.93-.9-2.49,1.04.47.23,2.11-.23,2.49ZM263.51,317.12c-.24,1.32.98.1,0,0h0ZM264.19,319.61c-.29.89.62.59.9.91-.24-.58.69-1.08,0-1.36.11.71-.57.81-.9.45ZM264.41,324.82c-.06-.59.08-.97.68-.9-.26-1.25.53-2.53-.22-2.95-.06,1.37-.97-.59-1.14.23.88.77.31,2.93.68,3.62ZM265.32,329.35c-.19-1.64.12-3.16-.91-4.3.7,1.04-.04,3.51.91,4.3ZM263.73,327.31c.44-.42-.19-.76-.45-1.13.12.4.12.94.45,1.13ZM263.96,328.67c-1.45.65.86-.39,0,0h0ZM264.87,331.84c.14-.25.19-1.87-.45-2.04-.02.81-.47,1.68.45,2.04ZM264.19,334.33c.05-.17.19-.26.45-.23-.16.69.23.83.23,1.36.39.9.43-2.64-.23-2.49.51.99-1.07,1.01-.45,1.36ZM263.05,334.11c.04-.15-.08-1.32-.23-.68-.2.86.12,1.13.23.68ZM264.87,339.54c.11-.61,1.06-3.09,0-2.72,0,.09.42,1.07,0,1.36-1.17.04-.26-2-1.14-2.27.04,1.55.26,2.91,1.14,3.62ZM262.6,343.17c.71-1.45-.15-2.88.91-4.53-.72.11-.17-1.04-.68-1.13.3,2.16-.73,5.14-.23,5.67ZM263.96,341.81c.03-.3.03-1.64-.23-.91-.03.3-.03,1.64.23.91ZM263.05,342.71c.17.05.45,0,.45.23-.08,1.68.65-.55,0-.68,0,.3-.4.2-.45.45Z"/>
            <path class="cls-2" d="M214.35,325.95c1.32,1.13,3.02.57,3.63,2.49,1.04-1.05,1.73,1.17,2.72,1.59.07,2.2-.17,4.21-2.49,4.53-.68-1.29-1.67-2.26-2.72-3.17-.47-1.41-.31-3.46-1.36-4.3-.07-.52.04-.87.23-1.13ZM216.62,329.12c-.11-.51-.58-1.82-.91-1.36.38.38.42,1.09.91,1.36ZM217.29,330.71c-.79-.06.57-.84-.23-.9-.42.12-.23,1.76.23.9ZM217.29,332.52c.9.22.1-1.27.91-1.13.62-.1.21.85.68.9,0-1.2-.03-2.02-.23-2.49-.26.03-.64-.04-.68.23.87.38-.82,1.4-.68,2.49Z"/>
            <path class="cls-2" d="M260.11,365.14c1.47.34,1.79,1.84,3.17,2.27.32,2.01.8,4.85.23,7.02-.91.15-1.35.77-2.04,1.13-1.6-.55-3.77-.26-5.66-.23.66,1.6,0,3.14.68,4.76,3.26.21,6.21-.26,8.61,0,1.22-.65,2.74-1.11,4.53-.68.59-.09.68-.67,1.36-.68,1.26,1.04,4.79,1.84,3.17,4.3-.93-.06-1.54-.43-2.27-.68-1.03.22-2.86.43-3.4-.45-.25.06-.16.45-.45.45-2.62-.56-6.33-.02-8.61-.91-1.18.41-2.2.85-3.62.45.33-1.55-.92-1.5-.91-2.72-1.12-.3-1.11.55-2.04.45-.13-2.27-1-3.46-.68-5.66-.76.56-.35,1.43-.68,2.04-1.94.28-2.84-.49-4.53-.45-.58-.41-.3-1.66-1.13-1.81-.83.51.8,1.05,0,1.59-2.16-.08-3.44-1.55-4.98-1.59-.13-1.86.36-3.11.68-4.53,1.99-.27,2.06-2.48,4.08-2.72.32-.29.14-1.07.46-1.36,2.27-.53,3.55-2.04,4.75-3.62,1.62-.2,3.32-.54,4.99-.23,2.08.39,3.04,1.32,4.3,2.49v1.36ZM251.5,362.42c0,.53.39.66.23,1.36.8.35.14-.77.68-.68.23,0,.27.18.45.23-.01-.94-.71-1.19-1.36-.9ZM253.54,362.65c-.2.47.59,1.02.68.45-.62.06.4-1.35-.22-.68-.05.17-.19.26-.45.23ZM255.81,364.01c-2.2.37-3.52,1.62-5.89,1.81-.38-.03-.08-1.85-.45-1.14.2,1.86-.81,2.51-2.27,2.72-.07,1.25-1.1,1.57-1.36,2.04-.52,1.02-.75,2.1-.45,3.4,2.61-.08,7.04.58,9.74,0,2.34-.5,3.58-1.42,5.66-1.58.4-.83-.48-1.35-.68-2.04-.1-.33.15-.83,0-1.13-.53-1.15-1.81-1.95-2.49-2.95-.09-.14.12-.57,0-.68-.6-.62-1.46-.94-.91-2.04-.27.03-.64-.04-.68.23.65.3-.17,1.01-.22,1.36ZM254.67,362.65c-.24,1.31.98.09,0,0h0ZM250.59,364.69c.21-.19.48-1.44,0-1.58-.28.58-.23,1.24,0,1.58ZM258.98,365.37c.19-1.09-.29-1.52-1.13-1.58.1.81.82.99,1.13,1.58ZM251.95,364.23c-.61.16,1.19-.29,0,0h0ZM246.97,365.82v.45c.29.01.31.29.68.23-.38-.74,1.09-1.09,0-1.13.03.41-.22.53-.68.45ZM260.79,367.41c-.38-2.07-.74.24,0,0h0ZM245.38,367.18c-.03.57.12.94.45,1.13-.35-.75,1.07-.86.23-1.36-.04.26-.36.24-.68.23ZM261.47,371.49c.41-.09.41-1.64.23-2.27.05-.18.19-.26.45-.23-.08-.53-.23-.97-.68-1.13-.99.69.5,2,0,3.62ZM244.02,368.54c1.17.63.56-1.08,0,0h0ZM242.21,370.8c.04-.33.55-.21.9-.23v-.9c-.8-.26-1.19,1.05-.9,1.13ZM244.02,373.75c.53-.67-.05-1.52,0-2.26.03-.4,1.15-1.54,0-1.59-.39,1.14-.02,2.69,0,3.85ZM262.37,371.03c-.07.63.04,3.31.23,1.58-.19-1.01.55-2.75-.45-2.04.18.05.27.19.23.46ZM241.99,372.84c-.03-.37.13-2.05-.23-1.36.03.38-.12,2.05.23,1.36ZM243.34,372.39c.23-.64-.35-1.57-.68-.91.6-.07-.21,1.27.68.91ZM259.66,372.84c.41-.68.69.65,1.59.23.09-.69-.82-.39-.91-.91.04.38-1.61.16-.68.68ZM257.39,374.2h-.45c0-.31.11-.5.23-.68-.34.04-.83-.08-.9.22.61-.15.44.47.68.68.47-.13,1.49.28,1.59-.23-.99-.11-.47-.86-1.13-.91-.22.42.68.76,0,.91ZM260.34,373.98c.26.55,1.07-.25.45-.45,0,.3-.39.2-.45.45ZM249.69,374.43c.39.09-.04.29,0,.68.55.14.85-1.08.45-1.13,0,.3-.4.21-.45.45ZM253.09,376.01c-.31-.67-.33-1.64.23-2.04-1-.26-.91,2-.23,2.04ZM254.67,376.47c.02.85-.83.83-.91,1.58.3.1.58.13,1.13.45.23-1.34.14-2.97-.23-4.3-.1,1.13-.49-.09-.68-.23-.9.51.42,1.73.68,2.49ZM256.48,374.2c-.39.02-.7-.05-.91-.23-.36.63.98.63.91.23ZM271.21,381c-.27.04-.64-.04-.68.23.43.43.57.02,1.13,0,.04.27-.04.64.23.68-.07-.76.3-1.97-.68-1.81v.91ZM266.22,381.22c.19-.66.73.14,1.14,0,.39-.9-2.18-.43-1.14,0ZM268.49,381.68c-.03-.23.98-.46.23-.68-.13.65-.35-.35-.68-.23.03.42.15.76.45.91Z"/>
            <path class="cls-2" d="M251.95,381c.47,1.51-2.16,2.13-2.72,1.13-1.19.77-3.8,1.58-4.76.23-.31.07-.19.56-.23.9-1.22-.16-1.86.26-2.72.45-.42-.89-.85-.4-.91-1.36-.94-.19-.11,1.39-.68,1.58-.41.03-.48-.28-.91-.23-.18-.78.42-.96,0-1.36-.83.17.02.72-.23,1.58-.55.09-.49-.42-1.13-.23-.3-.56.5-1.1,0-1.13-.92-.21.28,1.23-.45,1.59-2.55-.47-3.17,1.45-5.66.91-.29-.54-.83-.84-.68-1.81-.23.15-.24.52-.68.45-.08-.75-.26-1.4-1.36-1.13.19-.64-.32-.59-.23-1.13,1.76-.74,3.75.3,5.89.23,1.12-.04,2.98.17,4.3,0,.43-.06.92-.44,1.36-.45,1.19-.03,2.41.49,3.62.45.39-.01.76-.38,1.13-.45,2.23-.42,4.83-.23,7.02-.23ZM232.02,383.94c.09-.59.73-.64.45-1.58-.65-.1-.7,1.54-.45,1.58ZM233.83,383.72c.9.14.29-1.08,0-1.13.03.56.43.7,0,1.13ZM235.42,383.72c.03-.56-.12-.94-.46-1.13-.03.56-.04,1.1.46,1.13ZM236.32,383.26c.03-.27.4-.51,0-.68-.03.27-.4.52,0,.68Z"/>
            <path class="cls-2" d="M216.38,388.7c.53-.4-1.09-.56-1.36-.9-.03-1.86-1.77-2.01-2.04-3.62.32.02.64.03.68-.23,1.97,1.51,5.49,1.46,6.35,4.08h.91c.65,1.93-.55,3.37-2.04,3.85-1.32-.8-2.83-1.4-2.95-3.4.26-.03.4.05.46.23ZM217.05,387.8c-.29-.56.51-1.1,0-1.13-.15.45-.78.96,0,1.13ZM217.73,389.61v-1.36c-.27.03-.64-.04-.68.22.46.15.15,1.06.68,1.14ZM219.09,389.15c.17.24.2,1.73.45,1.13-.23-.91.35-1,.68-1.36-.55-.09-.49.41-1.13.23Z"/>
            <path class="cls-2" d="M261.7,395.95c-4.11-.22-6.74-.53-10.65-.91-.88-.12-.93.58-1.58.68-2.03-.38-4.09.95-5.44-.68-1,1.19-.19,4.19-.45,6.12,1.27-.26,4.24-.01,5.21-.91,1.05-.22,1.37.29,2.04.45,1.85-.39,3.01-.14,4.3-.9,3.51.69,6.31-.87,10.65-.45.71,1.5.06,3.15-1.13,3.62-.8.32-1.54-.19-2.72-.23-1.04-.03-2.39.4-3.4.23-.5-.08-.68-.43-1.13-.45-2.61-.11-4.84.57-6.12-.23-1.35.65-3.47,1.32-5.21.68-1.16,1.26-4.22.61-6.12,1.13-.61-2.42-.85-5.66-.91-9.51,5.7-.91,12.66-.17,18.12-2.27.29.31,1.07.14,1.36.45.47-1.62.32-3.89.45-6.34-.55-.09-.49.42-1.13.23.14.46,1.15.06.91.9-1.39.58-3.56.14-5.21.91-.45-.3-1.62.11-1.36-.91-.42.04-.14.77-.45.91-4-.28-8.96,1.7-12.69,1.14-.04-.95-.08-1.89.45-2.27.67.29,1.57.06,2.49.22,1.09.19,2.02.44,3.62.23.96-.13,1.96-.77,2.95-.91.92-.12,1.86.16,2.72,0,.58-.11,1.23-.58,1.81-.68.65-.12,1.37.08,2.04,0,2.33-.28,4.73-1.48,7.25-.91.31.67.69,1.27,1.59,1.36-.02.32-.04.64.23.68-.92,2.77-.88,6.52-2.49,8.61ZM261.7,388.93c-1.11.37-.48,1.66,0,2.49.05.43-.25.5-.23.9-.03,2.42.54-.63.45-1.58.17-.05.45,0,.45-.23-1,.32-.61-.75-.68-1.36.27-.03.64.04.68-.23-1.01.04-.58-.8-.23-1.13-1.55.57-.48-1.49-1.13-1.81-.47.88.38,2.11.68,2.95ZM260.79,391.65c-1.04-1.66.55-3.35-.9-4.76.55,2.06-.73,4.55.9,4.76ZM260.34,393.68c-.39.02-.71-.05-.91-.23.06.69-.04,1.55.68,1.58,0-.28.89-2.64.23-2.72v1.36ZM256.26,394.82c1.11-.07.3-.76.68-1.36h-.68c.11.71-.49.89,0,1.36ZM258.07,394.82h.68c-.2-.4-.08-1.13-.45-1.36-.43.35.32.88-.23,1.36ZM261.24,394.37c-.59,1.81.68-1.51,0,0h0ZM242.21,395.5c.03.27-.04.65.23.68v-.91c-.27.03-.64-.04-.68.22h.45ZM239.95,396.18c-.07.59.08.97.68.91-.06-.4.64-1.13,0-1.36.03.41-.23.53-.68.45ZM241.53,397.31c.52-.07.85.05.91.45-.27.11-.52.24-.68.46.43.02.16.75.68.68-.38-.76.14-.78.23-1.58-1.3-.08-1.46-2.41-1.13,0ZM239.95,397.99c.52.5.6.2,1.13.45.09-.73-.96-1.3-1.13-.45ZM240.4,399.8c.05-.27.25-.14.45,0,.23-.3.22-.84.45-1.13-.61-.02-.46.38-.91,0,.29.56-.66.94,0,1.13ZM241.08,400.94c-.16.69.24.83.23,1.36.34,1.86,0-1.25.45-1.36.62-.17.46.45.91.45-.61-.96-.06-1.71-.23-2.27-.13.47-.35.48-.68.23-.03.73.22,1.73-.68,1.59ZM262.37,400.94c-.05-.18,0-.45-.23-.45.07.53.36.85.23,1.59.77-.22.63-1.34,1.13-1.81-.78-.17-.29.92-1.13.68ZM264.87,400.94c.54-.55-.74-.59-.68-.23,0-.02.77.14.68.23ZM255.81,401.61v-.68c-.27.03-.64-.04-.68.23.32.05.38.37.68.45ZM257.39,401.84c.29-.3.3-.85-.23-.91.04.34-.08.84.23.91ZM258.3,401.84h.68c-.03-.43-.15-.76-.45-.91-.07.3-.32.43-.23.91ZM259.66,401.84c.47.2,1.02-.59.45-.68-.02.36-.58.18-.45.68ZM263.51,402.07c.23-.06.03-1.57-.23-.68-.06.19.04.73.23.68ZM248.78,402.29c-.11-.43.7-.98-.23-.91.04.34-.08.84.23.91ZM251.28,401.61c-.4.13-1.33-.27-1.36.23.4-.13,1.33.28,1.36-.23ZM244.25,402.97c.07-.61.95-.4,1.13-.9-.31,0-.49-.11-.68-.23.01.42-1.16.77-.45,1.13ZM242.89,403.2c-.17-.7.62-.44.45-1.13-.55-.15-.85,1.08-.45,1.13ZM246.97,402.52c.39,0,.58-.17.68-.45-.35.02-.78-.03-.68.45Z"/>
          </g>
        </g>
      </g>
      <g id="oXd3Xh.tif" class="cls-1">
        <g>
          <path class="cls-3" d="M56.18,432.16v9.5c7.22-2.91,14.96-4.48,22.75-4.86-5.97,11-11.9,22.55-22.75,29.54v21.66H0v-55.84h56.18ZM47.12,440.04H9.05v40.08h38.07v-9.5c-4.01,1.43-8.29,2.05-12.53,2.2,6.1-6.74,13.09-12.63,20.08-18.41,3.4-2.81,7.34-5.51,10.56-8.46.3-.28.39-.4-.12-.35-12.13,6.88-23.16,15.62-32.51,25.94l-6.38,7.76c2.44-13.33,9.56-25.32,20.89-32.9v-6.37Z"/>
          <path class="cls-3" d="M329.87,453.94v18.07h-4.18c-.06,0,.04-.97,0-1.16-4.49,3.74-8.42.49-8.6-4.74-.17-5.21,3.31-9.04,8.6-6.85v-4.98s.32-.35.35-.35h3.83ZM325.66,462.08c-.46-.54-2.57-.2-3.21.33-1.27,1.05-1.45,5.73.04,6.42.69.32,2.89.35,3.16-.45.11-.33.22-6.07.01-6.31Z"/>
          <path class="cls-3" d="M78.46,466.45v5.56h-4.64v-17.14h8.94c.49,0,2.55,1.05,2.98,1.43,2.12,1.86,1.96,5.74.27,7.85-1.9,2.39-4.73,2.44-7.55,2.31ZM78.46,463.21c5.68.57,5.78-5.94,0-5.1v5.1Z"/>
          <path class="cls-3" d="M179.21,455.8v4.4c-1.49-.34-2.28-1.88-3.93-2.21-8.06-1.65-7.76,12.84.18,10.86,1.54-.39,2.33-1.72,3.76-2.16v4.05c-6.28,3.76-14.1,1.3-14.4-6.71-.34-8.73,7.18-11.57,14.4-8.24Z"/>
          <path class="cls-3" d="M344.26,472.01h-4.18c-.06,0,.04-.97,0-1.16-3.62,3.26-9.36,1.22-7.96-4.13.78-2.97,5.47-3.1,7.96-3.29-.96-3.33-4.89-1.26-7.2-.93v-3.24c2.93-.74,9.27-1.51,10.85,1.8.09.19.52,1.48.52,1.56v9.38ZM340.08,465.99c-1.32.22-3.96.12-3.96,1.97,0,2.23,3.66,1.78,3.95.23.12-.66-.07-1.5,0-2.2Z"/>
          <path class="cls-3" d="M126.51,466.45h-8.82c.43,2.79,2.98,3.13,5.4,2.73,1.17-.2,2.04-1.18,3.19-1.34v3.36c0,.56-4.32,1.28-4.99,1.29-5.73.11-9.13-4.11-7.33-9.64,1.52-4.69,9.09-5.95,11.68-1.9.19.29.87,1.71.87,1.91v3.59ZM118.04,463.9c.77.19,3.18,0,4.18,0,.56,0-.01-1.54-.24-1.85-.59-.84-1.96-.88-2.84-.52-.71.29-1.88,2.18-1.1,2.37Z"/>
          <path class="cls-3" d="M250.71,466.45h-8.82c.35,2.84,3.02,3.12,5.4,2.73,1.17-.2,2.04-1.18,3.19-1.34v3.36c-6.43,3.29-15.05,0-12.32-8.35,1.32-4.03,6.91-5.55,10.3-3.31.87.57,2.24,2.55,2.24,3.55v3.36ZM246.53,463.9c.18-1.63-.51-2.62-2.21-2.57-2.02.06-2.9,2.57-2.09,2.57h4.29Z"/>
          <path class="cls-3" d="M217.51,459.04v8.69c0,1.66,3.71,1.22,3.71.46v-9.15h4.41v12.97h-4.41c-.07,0,.15-1.04-.11-1.16-1.68,1.68-4.82,2.33-6.62.51-.38-.38-1.16-1.77-1.16-2.25v-10.08h4.18Z"/>
          <path class="cls-3" d="M368.58,458.64c5.85-.68,9.02,3.75,7.65,9.25-1.61,6.46-12.27,6.06-13.15-.65-.55-4.16.91-8.07,5.5-8.6ZM369.28,461.63c-3.52.5-2.33,10.34,1.8,7.37,1.71-1.23,1.84-7.89-1.8-7.37Z"/>
          <path class="cls-3" d="M277.81,458.64c3.52-.48,7.34,1.17,7.89,4.98.8,5.54-1.95,9.61-7.89,8.8-7.39-1.01-7.38-12.79,0-13.78ZM278.74,461.63c-2.83.41-2.78,6.94-.37,7.68,4.28,1.31,4.39-8.26.37-7.68Z"/>
          <path class="cls-3" d="M156,472.01h-4.41v-8.69c0-1.66-3.71-1.22-3.71-.46v9.15h-4.18v-12.97h4.18c.06,0-.04.97,0,1.16,2.16-1.91,6.28-2.49,7.54.7.18.46.58,2.03.58,2.43v8.69Z"/>
          <path class="cls-3" d="M271.37,454.87v3.24h-6.85c-.52,0-.52,3.24,0,3.24h6.38v3.24h-6.38s-.35.32-.35.35v7.07h-4.41v-17.14h11.61Z"/>
          <path class="cls-3" d="M185.48,459.04v8.46c0,2.19,3.95,1.32,3.95.46v-8.92h4.18v12.97h-4.18c.11-2.05-.31-.91-1.23-.42-1.47.79-2.96,1.22-4.57.53-.89-.38-2.32-2.09-2.32-3.01v-10.08h4.18Z"/>
          <path class="cls-3" d="M93.32,459.04v8.46c0,2.19,3.95,1.32,3.95.46v-8.92h4.18v12.97h-4.18c.11-2.05-.31-.91-1.23-.42-1.47.79-2.96,1.22-4.57.53-.89-.38-2.32-2.09-2.32-3.01v-10.08h4.18Z"/>
          <path class="cls-3" d="M132.55,459.04v7.53c0,.09.34,1.56.4,1.69.61,1.35,3.55.24,3.55.05v-9.27h4.18v12.97h-4.18c-.06,0,.04-.98,0-1.16-1.92,1.7-5.67,2.47-7.3-.01-.19-.29-.82-1.95-.82-2.19v-9.61h4.18Z"/>
          <path class="cls-3" d="M390.69,472.01h-4.18v-8.46c0-2.19-3.95-1.32-3.95-.46v8.92h-4.18v-12.97h4.18c.06,0-.14,1.17.12,1.16,2.15-1.62,5.35-2.62,7.18.01.17.24.83,1.57.83,1.72v10.08Z"/>
          <path class="cls-3" d="M315.24,472.01h-4.18v-7.53c0-.09-.34-1.56-.4-1.69-.59-1.29-3.55-.24-3.55-.05v9.27s-4.18,0-4.18,0v-12.97h4.18c.06,0-.04.97,0,1.16,1.97-1.34,4.5-2.42,6.62-.7.57.47,1.51,2.23,1.51,2.9v9.61Z"/>
          <path class="cls-3" d="M292.03,459.04v8.69c0,1.66,3.71,1.22,3.71.46v-9.15h4.18v12.97h-4.18c-.07,0,.15-1.04-.11-1.16-1.71,1.71-4.91,2.33-6.71.44-.25-.27-1.07-1.68-1.07-1.95v-10.31h4.18Z"/>
          <path class="cls-3" d="M351.45,455.33v3.71h3.95c-.06.52.22,3.01-.35,3.01h-3.6v6.14c0,1.5,3,1,3.95.81-.13,2.12.78,2.98-1.74,3.24-1.86.19-4.73.21-5.81-1.6-1.1-1.84-.25-8.29-.56-8.59-.09-.08-1.05.15-1.41-.1-.29-.2-.32-2.81-.22-2.91.08-.08,1.31.06,1.63,0v-3.71h4.18Z"/>
          <path class="cls-3" d="M207.99,455.33v3.71h3.95c-.06.52.22,3.01-.35,3.01h-3.6v6.14c0,1.5,3,1,3.95.81-.13,2.12.78,2.98-1.74,3.24-2.04.21-4.93.2-5.97-1.92-.83-1.7-.11-7.99-.41-8.28-.09-.08-1.05.15-1.41-.1-.29-.2-.32-2.81-.22-2.91.08-.08,1.31.06,1.63,0v-3.71h4.18Z"/>
          <path class="cls-3" d="M200.57,453.94v18.07h-4.18v-17.72s.32-.35.35-.35h3.83Z"/>
          <path class="cls-3" d="M232.6,459.04c.08.08-.06,1.31,0,1.62,1.5-.98,2.69-1.96,4.64-1.62v3.94c-.7-.35-4.64-.13-4.64.58v8.46h-4.18v-12.97c.6.11,4.03-.15,4.18,0Z"/>
          <path class="cls-3" d="M108.41,459.04c.08.08-.06,1.31,0,1.62,1.5-.98,2.69-1.96,4.64-1.62v3.94c-.7-.42-4.64-.09-4.64.58v8.46h-4.18v-12.97c.6.11,4.03-.15,4.18,0Z"/>
          <rect class="cls-3" x="356.79" y="459.04" width="4.18" height="12.97"/>
          <path class="cls-3" d="M356.94,453.98c.36-.12,3.82-.09,4.04.07.32.22.33,2.85.12,3.16-.22.31-4,.34-4.32.12-.34-.23-.45-3.14.16-3.34Z"/>
        </g>
      </g>
      <g class="cls-1">
        <path class="cls-3" d="M63.22,130.42c-.07-3.46-4.2-3.89-4.63-.2-.48,4.12-.51,16.63.05,20.66.5,3.57,4.08,3.13,4.57.8.45-2.11-.33-5.57,0-7.85,6.21,6.02,13.84,1.47,13.84-6.7s-7.59-12.67-13.83-6.71ZM69.15,142.67c-7.27,1.41-7.34-10.7-1.81-11.41,6.16-.79,5.95,10.6,1.81,11.41Z"/>
        <path class="cls-3" d="M96.41,136.93c1.92-4.35-2.99-8.9-7.27-9.2-13.57-.96-13.41,17.71-2.31,18.77,2.97.28,9.47-.9,9.43-4.8-.04-4.23-4.5.59-5.78,1.16-3.65,1.62-6.49-.69-6.92-4.4h9.79c.73,0,2.71-.76,3.06-1.54ZM83.56,135.4c.78-5.82,7.99-6.15,8.45,0h-8.45Z"/>
        <path class="cls-3" d="M43.54,128.22c1.46,1.45-.84,12.92,2.01,14.27,1.28.61,3.58.24,4.58-.79,2.78-2.9-.53-12.92,2.6-13.87,2.82-.86,3.34,1.25,3.57,3.57.21,2.08.35,13.87-1.02,14.77-1.87,1.22-3.72-.38-3.78-2.33-3.63,4.15-11.42,3.78-12.1-2.49-.23-2.18-.36-9.91.01-11.86.33-1.78,3.02-2.35,4.12-1.26Z"/>
        <path class="cls-3" d="M26.26,127.83c2.71-.45,6.49-.32,8.68,1.5,3.02,2.52.89,5.91-2.04,3.94-1.06-.71-1.17-2.06-2.59-2.39-1.8-.41-5.61-.02-3.98,2.43,1.51,2.27,11.13,1.46,11.16,7.24.04,7.62-14.12,7.51-15.83,2.39-.53-1.6-.59-3.26,1.43-3.38,2.37-.14,2.04,3.28,5.47,3.78,2.48.36,5.59-1.56,3.56-3.57-.79-.77-6.01-1.72-7.71-2.65-5.11-2.79-2.84-8.53,1.84-9.31Z"/>
        <g>
          <path class="cls-3" d="M365.89,124.71l-2.84-2.52c7.98-1.71,8-12.66-.58-13.59-4.14-.45-9.02.34-13.24,0v23.55c0,.94,4.12.48,4.99.57v-9.95c3.2-.32,3.99-.02,5.92,2.33,1.11,1.35,4.17,6.95,5.22,7.43,1.33.6,3.87-.02,5.37.19l-4.83-8.01ZM354.21,118.55v-5.75h7.87c2.48,0,2.17,5.75,0,5.75h-7.87Z"/>
          <path class="cls-3" d="M267.99,125.86c-.98-1.53-2.19-2.57-3.6-3.67,1.25-.81,2.59-.86,3.8-1.94,3.28-2.9,2.52-9.24-1.68-10.91-.32-.12-2.57-.75-2.71-.75h-13.25v23.55c0,.85,4.99.85,4.99,0v-9.38c1.03.05,2.16-.15,3.18.08,2.61.58,7.09,9.87,7.75,9.87h5.57l-4.07-6.85ZM255.55,118.55v-5.75h7.87c2.27,0,2.27,5.75,0,5.75h-7.87Z"/>
          <path class="cls-3" d="M187.98,132.72c-1.04-.19-4.17.54-4.55-.63.25-2.75-.65-22.66.31-23.33.56-.39,4.23-.33,4.83.21l9.4,15.32v-15.7s4.61,0,4.61,0v24.12c-1.62-.18-3.7.51-5.02-.54-3.34-4.82-5.91-10.2-9.57-14.77v15.32Z"/>
          <path class="cls-3" d="M307.29,108.31c-11.73,1.6-12.64,21.08-1.45,24.22,6.93,1.95,14.25-1.38,15.27-8.91,1.28-9.46-3.69-16.69-13.82-15.32ZM316.18,122.93c-.71,5.23-6.89,8.05-10.97,4.3-3.43-3.15-2.98-13.6,2.44-14.71,7.17-1.46,9.34,4.37,8.52,10.41Z"/>
          <path class="cls-3" d="M166.1,112.81v5.36h11.9v3.83h-11.9v6.51h12.86c.85,0,.85,4.21,0,4.21h-17.28s-.58-.53-.58-.57v-23.55h17.47c.85,0,.85,4.21,0,4.21h-12.48Z"/>
          <path class="cls-3" d="M245.95,108.6v4.21h-13.05c.11.83-.39,5.36.58,5.36h11.71v3.83h-11.71s-.58.53-.58.57v5.94h13.44v4.21h-18.04v-24.12h17.66Z"/>
          <path class="cls-3" d="M330.03,108.6v17.42c0,.11.94,1.68,1.17,1.89,1.22,1.14,4.23,1.27,5.76.81.64-.19,2.28-1.79,2.28-2.32v-17.81h4.99v17.04c0,.36-.83,3.04-1.07,3.52-2.76,5.42-14.5,5.29-17.12-.31-.24-.52-1-2.84-1-3.22v-17.04h4.99Z"/>
          <path class="cls-3" d="M290.11,123.91c.17-.13,3.51.9,4.06,1.12.44.18.62-.26.53.58-.45,4.2-5.41,7.41-9.39,7.52-14.84.4-15.39-24-1.17-24.93,2.83-.18,6.15.5,8.23,2.54.62.61,3,3.93,1.97,4.56-.17.11-3.78.97-3.98.92-.6-.17-1.47-2.87-3.04-3.5-2.28-.92-5.43-.32-6.91,1.72-3.76,5.14-.56,18.05,6.98,13.85,2.07-1.15,2.51-4.22,2.73-4.37Z"/>
          <path class="cls-3" d="M151.91,116.24c-.28-.24-.52-3.08-2.99-3.72-10.78-2.76-10.36,18.6-.45,16.2,3.2-.78,3.4-4.5,3.82-4.81.29-.22,3.79,1.28,4.6,1.15-1.58,9.97-15.76,10.7-19.65,1.79-1.63-3.73-1.52-9.27.25-12.91,3.84-7.92,16.85-7.88,19.4.96-.09.43-4.71,1.56-4.97,1.33Z"/>
          <path class="cls-3" d="M217.93,112.81v19.91c-.86-.09-4.99.36-4.99-.57v-19.34h-6.91v-4.21h18.62c.85,0,.85,4.21,0,4.21h-6.72Z"/>
          <path class="cls-3" d="M390.69,108.6v4.21h-6.91v19.91c-.86-.09-4.99.36-4.99-.57v-19.34h-6.91v-4.21h18.81Z"/>
        </g>
        <path class="cls-3" d="M125.4,128.13c2.29.18,6.47-.97,6.12,2.48-.29,2.85-4.11,1.44-6.12,1.73,1.1,7.96-5.98,8.56-4.6,0-8.34,1.35-8.22-5.52,0-4.21-1.23-8.39,5.59-7.99,4.6,0Z"/>
        <path class="cls-3" d="M103.14,130.04c.94-.34,1.69-1.96,2.57-2.22,1.88-.55,6.26.17,5.88,2.77-.44,3.01-3.5.96-4.81.97-4.79.01-2.68,10.28-3.34,13.14-.54,2.35-3.92,2.49-4.51.07.47-4.71-.68-10.75.02-15.28.44-2.88,4.65-2.32,4.2.55Z"/>
      </g>
    </g>
  </g>
</svg>