<?xml version="1.0" encoding="UTF-8"?>
<svg id="_레이어_2" data-name="레이어 2" xmlns="http://www.w3.org/2000/svg" viewBox="0 0 55.14 55.14">
  <defs>
    <style>
      .cls-1 {
        fill: #fff;
      }

      .cls-2 {
        fill: #0d00b4;
      }
    </style>
  </defs>
  <g id="_레이어_1-2" data-name="레이어 1">
    <g>
      <rect class="cls-2" y="0" width="55.14" height="55.14"/>
      <path class="cls-1" d="M13.67,27.3c0-2.29.31-4.54.97-6.66.62-2.07,1.63-3.88,3-5.47,1.32-1.54,3-2.78,5.12-3.75,2.03-.88,4.5-1.37,7.37-1.37,2.03,0,3.93.35,5.73.97,1.76.71,3.49,1.63,5.16,2.87l-4.1,5.38c-.97-.84-2.07-1.59-3.26-2.21-1.24-.57-2.43-.88-3.62-.88-1.59,0-2.91.31-4.01.88-1.15.62-2.12,1.41-2.82,2.38-.79,1.06-1.32,2.21-1.68,3.53-.4,1.37-.57,2.82-.57,4.32s.18,2.96.57,4.28c.35,1.37.88,2.56,1.68,3.53.71,1.06,1.68,1.85,2.82,2.43,1.1.62,2.43.93,4.01.93,1.81,0,3.53-.26,5.16-.84v-7.59h-8.21v-6.13h15.4v16.32c-.79.75-1.63,1.37-2.6,1.94-1.01.53-2.07.97-3.13,1.37-1.1.35-2.21.62-3.31.79-1.15.18-2.25.26-3.22.26-2.87,0-5.34-.48-7.37-1.37-2.12-.97-3.79-2.21-5.12-3.79-1.37-1.54-2.38-3.35-3-5.47-.66-2.07-.97-4.28-.97-6.66Z"/>
    </g>
  </g>
</svg>