<?xml version="1.0" encoding="UTF-8"?>
<svg id="_레이어_2" data-name="레이어 2" xmlns="http://www.w3.org/2000/svg" viewBox="0 0 55.14 55.14">
  <defs>
    <style>
      .cls-1 {
        fill: #fff;
      }

      .cls-2 {
        fill: #0d00b4;
      }
    </style>
  </defs>
  <g id="_레이어_1-2" data-name="레이어 1">
    <rect class="cls-2" width="55.14" height="55.14"/>
    <path class="cls-1" d="M16.72,22.34c.03-1.56.3-3.01.82-4.35.51-1.34,1.24-2.5,2.18-3.48.94-.98,2.07-1.74,3.38-2.27s2.76-.79,4.35-.79c1.97,0,3.67.26,5.09.79,1.43.53,2.57,1.23,3.44,2.1.87.87,1.49,1.79,1.87,2.76.38.97.57,1.93.57,2.87,0,1.91-.32,3.4-.97,4.48-.65,1.07-1.56,2.07-2.74,2.98-.24.18-.47.34-.71.49-1.09.79-1.93,1.52-2.51,2.16-.59.65-.96,1.49-1.1,2.51v1.68h-5.96v-1.99c.12-1.73.51-3.11,1.17-4.12.66-1.01,1.55-1.95,2.67-2.8.09-.06.21-.15.35-.26,1-.79,1.73-1.49,2.18-2.1.46-.6.68-1.4.68-2.4,0-1.32-.32-2.32-.97-2.98-.65-.66-1.57-.99-2.78-.99-1.5,0-2.62.54-3.38,1.61-.75,1.07-1.14,2.45-1.17,4.12h-6.48ZM23.82,36.9h6.93v6.79h-6.93v-6.79Z"/>
  </g>
</svg>