<?xml version="1.0" encoding="UTF-8"?>
<svg id="_레이어_2" data-name="레이어 2" xmlns="http://www.w3.org/2000/svg" viewBox="0 0 55.14 55.14">
  <defs>
    <style>
      .cls-1 {
        fill: #fff;
      }

      .cls-2 {
        fill: #0d00b4;
      }
    </style>
  </defs>
  <g id="_레이어_1-2" data-name="레이어 1">
    <g>
      <rect class="cls-2" width="55.14" height="55.14"/>
      <path class="cls-1" d="M27.19,44.55c-1.85,0-3.53-.26-5.07-.75-1.59-.53-3-1.37-4.15-2.47-1.24-1.1-2.16-2.56-2.82-4.32-.71-1.76-1.01-3.88-1.01-6.4V10.32h7.32v20.91c0,2.65.53,4.46,1.59,5.51,1.06,1.1,2.43,1.63,4.15,1.63s3.09-.53,4.15-1.63c1.06-1.06,1.59-2.87,1.59-5.51V10.32h7.32v20.29c0,2.51-.35,4.63-1.01,6.4-.71,1.76-1.63,3.22-2.78,4.32-1.24,1.1-2.6,1.94-4.19,2.47-1.59.49-3.31.75-5.07.75Z"/>
    </g>
  </g>
</svg>