<?xml version="1.0" encoding="UTF-8"?>
<svg id="_레이어_2" data-name="레이어 2" xmlns="http://www.w3.org/2000/svg" viewBox="0 0 55.14 55.14">
  <defs>
    <style>
      .cls-1 {
        fill: #fff;
      }

      .cls-2 {
        fill: #0d00b4;
      }
    </style>
  </defs>
  <g id="_레이어_1-2" data-name="레이어 1">
    <g>
      <rect class="cls-2" y="0" width="55.14" height="55.14"/>
      <path class="cls-1" d="M26.82,10.32c2.74,0,5.12.4,7.1,1.19,1.94.79,3.53,1.94,4.81,3.35,1.23,1.5,2.16,3.26,2.78,5.29.57,2.12.88,4.46.88,7.01s-.31,4.94-.88,7.01c-.62,2.12-1.54,3.88-2.78,5.34-1.28,1.5-2.87,2.6-4.81,3.4-1.99.79-4.37,1.19-7.1,1.19h-11.69V10.32h11.69ZM27.13,37.93c1.06,0,2.12-.18,3.09-.53.93-.31,1.76-.88,2.47-1.72.71-.79,1.24-1.85,1.68-3.26.35-1.37.57-3.13.57-5.25s-.22-3.79-.62-5.21c-.44-1.32-1.06-2.43-1.76-3.26-.75-.79-1.63-1.37-2.6-1.72-1.06-.31-2.12-.48-3.26-.48h-4.28v21.44h4.72Z"/>
    </g>
  </g>
</svg>