<?xml version="1.0" encoding="UTF-8"?>
<svg id="_레이어_2" data-name="레이어 2" xmlns="http://www.w3.org/2000/svg" viewBox="0 0 55.14 55.14">
  <defs>
    <style>
      .cls-1 {
        fill: #fff;
      }

      .cls-2 {
        fill: #0d00b4;
      }
    </style>
  </defs>
  <g id="_레이어_1-2" data-name="레이어 1">
    <g>
      <rect class="cls-2" y="0" width="55.14" height="55.14"/>
      <path class="cls-1" d="M26.81,10.32c3.66,0,6.53.75,8.56,2.16,1.98,1.5,3,3.84,3,7.01,0,1.37-.22,2.56-.66,3.62-.49,1.06-1.28,2.07-2.34,2.96,1.41.84,2.56,1.9,3.35,3.18.75,1.32,1.15,2.78,1.15,4.37,0,3.66-.97,6.31-2.91,7.98-1.94,1.68-4.81,2.51-8.56,2.51h-12.26V10.32h10.67ZM26.41,23.68c1.37,0,2.51-.26,3.44-.88.88-.57,1.37-1.63,1.37-3.18,0-1.19-.44-2.03-1.28-2.51-.88-.44-1.9-.66-3.13-.66h-3.48v7.23h3.09ZM27.91,37.97c1.41,0,2.6-.31,3.49-.97.88-.62,1.32-1.76,1.32-3.48,0-1.41-.49-2.43-1.46-3-1.01-.53-2.29-.84-3.79-.84h-4.15v8.29h4.59Z"/>
    </g>
  </g>
</svg>