<?xml version="1.0" encoding="UTF-8"?>
<svg id="_레이어_2" data-name="레이어 2" xmlns="http://www.w3.org/2000/svg" viewBox="0 0 55.14 55.14">
  <defs>
    <style>
      .cls-1 {
        fill: #fff;
      }

      .cls-2 {
        fill: #0d00b4;
      }
    </style>
  </defs>
  <g id="_레이어_1-2" data-name="레이어 1">
    <g>
      <rect class="cls-2" y="0" width="55.14" height="55.14"/>
      <path class="cls-1" d="M28.25,45.64c-2.29,0-4.37-.4-6.22-1.1-1.9-.79-3.53-1.9-4.85-3.31-1.41-1.41-2.47-3.22-3.18-5.34-.79-2.12-1.15-4.54-1.15-7.32s.35-5.34,1.15-7.54c.71-2.16,1.76-3.97,3.13-5.47,1.32-1.46,2.96-2.56,4.85-3.35,1.85-.75,3.97-1.15,6.26-1.15s4.37.4,6.26,1.15c1.85.79,3.49,1.9,4.85,3.35,1.32,1.5,2.38,3.31,3.18,5.47.71,2.21,1.1,4.72,1.1,7.54s-.4,5.21-1.1,7.32c-.79,2.12-1.85,3.93-3.18,5.34-1.41,1.41-3.04,2.51-4.9,3.31-1.9.71-3.97,1.1-6.22,1.1ZM28.25,17.01c-1.37,0-2.56.31-3.53.84-1.06.62-1.9,1.41-2.51,2.43-.71,1.06-1.19,2.25-1.5,3.66-.35,1.41-.53,2.96-.53,4.63s.18,3.18.53,4.5c.35,1.41.84,2.56,1.54,3.53.66.97,1.5,1.72,2.56,2.25.97.53,2.12.79,3.44.79s2.43-.26,3.44-.79c.97-.53,1.85-1.28,2.56-2.25.66-.97,1.19-2.12,1.54-3.53.35-1.32.53-2.82.53-4.5s-.18-3.22-.49-4.63c-.35-1.41-.88-2.6-1.5-3.66-.71-1.01-1.54-1.81-2.51-2.43-1.06-.53-2.25-.84-3.57-.84Z"/>
    </g>
  </g>
</svg>