<?xml version="1.0" encoding="UTF-8"?>
<svg id="_레이어_2" data-name="레이어 2" xmlns="http://www.w3.org/2000/svg" viewBox="0 0 55.14 55.14">
  <defs>
    <style>
      .cls-1 {
        fill: #fff;
      }

      .cls-2 {
        fill: #0d00b4;
      }
    </style>
  </defs>
  <g id="_레이어_1-2" data-name="레이어 1">
    <g>
      <rect class="cls-2" y="0" width="55.14" height="55.14"/>
      <path class="cls-1" d="M34.03,9.32v22.15c0,2.38-.31,4.32-.88,5.87-.62,1.59-1.41,2.82-2.38,3.79-1.06.88-2.25,1.54-3.57,1.94-1.41.35-2.87.57-4.41.57-.97,0-2.03-.09-3.18-.26-1.15-.22-2.16-.49-2.96-.75l1.01-6.04c.84.26,1.72.44,2.6.57.88.18,1.59.26,2.21.26s1.24-.09,1.76-.26c.53-.13.97-.44,1.37-.88.35-.44.62-1.06.84-1.85.18-.79.26-1.81.26-3.13V9.32h7.32Z"/>
    </g>
  </g>
</svg>