<?xml version="1.0" encoding="UTF-8"?>
<svg id="_레이어_2" data-name="레이어 2" xmlns="http://www.w3.org/2000/svg" viewBox="0 0 55.14 55.14">
  <defs>
    <style>
      .cls-1 {
        fill: #fff;
      }

      .cls-2 {
        fill: #0d00b4;
      }
    </style>
  </defs>
  <g id="_레이어_1-2" data-name="레이어 1">
    <g>
      <rect class="cls-2" y="0" width="55.14" height="55.14"/>
      <path class="cls-1" d="M13.63,27.34c0-2.29.31-4.54.97-6.66.62-2.07,1.59-3.93,2.96-5.51,1.32-1.59,3-2.82,5.07-3.79,2.03-.88,4.46-1.37,7.28-1.37,1.85,0,3.66.35,5.51.97,1.76.66,3.48,1.59,5.16,2.82l-3.79,5.29c-1.15-.84-2.25-1.54-3.35-2.16-1.15-.53-2.34-.84-3.57-.84-1.54,0-2.87.31-3.97.88-1.15.62-2.07,1.46-2.78,2.47-.75,1.06-1.28,2.25-1.63,3.57-.35,1.41-.53,2.82-.53,4.32s.18,2.82.53,4.15c.35,1.37.88,2.56,1.63,3.57.71,1.06,1.63,1.9,2.78,2.51,1.1.62,2.43.93,3.97.93,2.51,0,4.98-1.1,7.41-3.35l4.06,4.68c-1.68,1.59-3.49,2.78-5.43,3.57-1.99.79-3.97,1.19-6,1.19-2.82,0-5.25-.48-7.28-1.41-2.07-.97-3.75-2.25-5.07-3.84-1.37-1.59-2.34-3.4-2.96-5.51-.66-2.03-.97-4.19-.97-6.48Z"/>
    </g>
  </g>
</svg>