<?xml version="1.0" encoding="UTF-8"?>
<svg id="_레이어_2" data-name="레이어 2" xmlns="http://www.w3.org/2000/svg" viewBox="0 0 66.86 66.84">
  <defs>
    <style>
      .cls-1 {
        fill: #a4a4a4;
      }
    </style>
  </defs>
  <g id="_레이어_1-2" data-name="레이어 1">
    <g>
      <path class="cls-1" d="M66.59,19.04c-.54-11.05-7.14-17.84-18.11-18.64-4.11-.3-8.59-.4-13.08-.4s-8.76.1-12.84.22c-4.66.13-9.56.46-13.58,2.8C-.1,8.29-.01,18.42.07,28.21c.01,1.33.02,2.65,0,3.93l-.03,2.22c-.07,5.16-.13,10.49.35,15.64.51,5.48,3.61,10.78,7.9,13.49,4.58,2.9,9.57,2.98,14.85,3.06.63,0,1.26.02,1.89.03l3.02.08c6.92.18,14.09.36,20.74-.18,12.23-.99,18.55-9.1,17.78-22.85.36-9.23.37-17.26,0-24.59ZM61.5,39.09l-.02.91c-.01.8-.01,1.63-.01,2.47,0,5.57.02,11.87-4.6,15.82-3.89,3.32-9.61,3.35-14.66,3.39-.72,0-1.42,0-2.09.02-3.76.08-7.46.15-11.13.15-1.48,0-2.95-.01-4.41-.04h-.72c-4.41-.08-9.9-.17-13.39-2.97-4.75-3.81-4.9-8.49-5.07-13.91v-.13c-.24-7.57-.42-16.4,0-24.52.19-3.76.69-8.04,4.11-11.21,3.69-3.43,8.5-3.55,13.15-3.66l1.27-.03c6.23-.19,12.71-.19,19.26,0l1.15.03c5.19.13,10.1.25,13.9,4.71,2.72,3.2,2.9,6.5,3.11,10.31l.04.72c.34,5.95.23,12.03.12,17.92Z"/>
      <path class="cls-1" d="M29.44,17.11c-6.34,1.51-11.01,6.23-12.47,12.61h0c-1.34,5.85.41,11.82,4.7,15.97,4.3,4.16,10.35,5.72,16.18,4.18,5.53-1.47,9.89-5.68,11.67-11.26,1.76-5.52.65-11.4-2.96-15.74-4.22-5.06-10.78-7.27-17.13-5.75ZM41.3,42.17c-2.19,2-4.98,3.07-7.88,3.07-.74,0-1.48-.07-2.22-.21-3.64-.69-6.67-2.98-8.29-6.29-1.73-3.53-1.57-7.71.43-11.18,1.97-3.4,5.28-5.49,9.1-5.75,5.14-.34,9.73,2.48,11.73,7.18,2,4.68.89,9.73-2.88,13.17Z"/>
      <path class="cls-1" d="M51.02,11.91c-1.72.19-2.67,1.47-2.98,2.6-.41,1.48.09,3.01,1.26,3.89,1.27.96,3.48.82,4.62-.29,1.4-1.35,1.33-3.04.8-4.17-.53-1.12-1.79-2.24-3.69-2.04Z"/>
    </g>
  </g>
</svg>