<?xml version="1.0" encoding="UTF-8"?>
<svg id="_레이어_2" data-name="레이어 2" xmlns="http://www.w3.org/2000/svg" viewBox="0 0 55.14 55.14">
  <defs>
    <style>
      .cls-1 {
        fill: #fff;
      }

      .cls-2 {
        fill: #0d00b4;
      }
    </style>
  </defs>
  <g id="_레이어_1-2" data-name="레이어 1">
    <g>
      <rect class="cls-2" width="55.14" height="55.14"/>
      <path class="cls-1" d="M18.28,35.2c1.72,1.24,3.22,2.07,4.46,2.56,1.19.53,2.38.79,3.62.79,1.5,0,2.69-.35,3.66-1.06.88-.66,1.37-1.63,1.37-2.96,0-1.1-.49-1.98-1.46-2.65-1.01-.62-2.34-1.28-3.97-1.94-1.41-.53-2.74-1.15-3.88-1.85-1.24-.66-2.25-1.41-3.13-2.29-.88-.84-1.59-1.81-2.07-2.91-.53-1.06-.75-2.25-.75-3.62,0-1.5.26-2.87.88-4.06.57-1.15,1.37-2.07,2.43-2.87,1.01-.75,2.25-1.32,3.71-1.72,1.41-.35,3-.57,4.72-.57,2.03,0,3.93.35,5.69,1.06,1.76.71,3.4,1.63,4.94,2.73l-3.44,5.25c-2.82-2.03-5.25-3.04-7.28-3.04-1.59,0-2.69.31-3.35.88-.71.62-1.06,1.37-1.06,2.29,0,.62.13,1.1.44,1.54.26.49.71.93,1.28,1.28.53.4,1.15.75,1.9,1.06.71.35,1.54.71,2.43,1.06,1.37.57,2.65,1.19,3.79,1.81,1.1.71,2.07,1.46,2.91,2.25.79.88,1.46,1.81,1.9,2.82.44,1.06.66,2.29.66,3.62,0,1.41-.26,2.69-.75,3.88-.53,1.24-1.32,2.29-2.29,3.18-1.06.88-2.34,1.63-3.84,2.16-1.59.49-3.35.75-5.38.75s-3.84-.31-5.69-.93c-1.85-.66-3.75-1.72-5.69-3.18l3.26-5.34Z"/>
    </g>
  </g>
</svg>