<?xml version="1.0" encoding="UTF-8"?>
<svg id="_레이어_2" data-name="레이어 2" xmlns="http://www.w3.org/2000/svg" viewBox="0 0 187.99 258.73">
  <defs>
    <style>
      .cls-1 {
        fill: #fff;
      }
    </style>
  </defs>
  <g id="_레이어_1-2" data-name="레이어 1">
    <g>
      <path class="cls-1" d="M71.67,258.55c-22.89-1.86-40.81-19.48-55.23-35.85-10.15-11.52-15.11-24.23-15.9-39.63-1.7-33.15,1.34-67.74,0-101.04,1.68-25.79,34.08-20.77,39.62,1.28,3.44,13.71,3.74,29.29,6.88,43.1.13.56.19,1.53.68,1.84L120.08,55.79c11.4-11.24,29.94-6.87,34.81,8.34,1.74-.57,3.13-1.73,4.91-2.4,20.18-7.69,36.78,15.86,23.32,32.43l-41.34,41.43,8.39,5.47c5.98,6.53,7.6,14.6,4.3,22.89-.39.98-2.61,4.13-2.11,4.7,15.29,3.92,19.39,23.98,8.09,34.61-23.94,17.99-46.25,52.47-78.19,55.28-2.89.25-7.69.24-10.59,0ZM131.35,181.62c-5.94-5.95,8.27-15.19,11.68-19.52,6.54-8.3-1.66-18.95-10.99-15.55-5.47,1.99-13.33,14.59-17.81,15.03-5.23.52-7.94-6.52-3.75-9.85l64.57-64.63c7.11-9.74-4.31-20.92-13.86-13.87-22.53,22.01-44.13,45.17-67.21,66.52-5.01,1.31-9.07-3.79-6.19-8.21,18.64-19.35,38.8-37.42,56.44-57.61,3.38-8.66-5.65-17.3-13.93-12.43-28.49,27.33-55.43,56.42-84.25,83.29-2.56,1.36-5.32.38-6.89-1.93-4.35-17.7-5.16-36.82-9.03-54.59-.88-4.03-1.54-7.01-4.88-9.76-3.8-3.13-10.69-5.08-13.4.23l-.25,107.86c1.27,19.47,17.93,35.7,31.79,47.96,17.83,15.76,43.09,18.01,62.51,3.49,16.34-12.22,30.93-29.95,47.19-42.63,7.19-7.01.87-18.94-8.85-16.94-4.23.87-8.29,7.76-12.91,3.14Z"/>
      <path class="cls-1" d="M61.08,0c3.11,1.5,4.99,3.94,3.76,7.55s-11.14,10.35-13.34,14.16h96.08c1.5,0,3.82,3.55,3.75,5.26-.08,1.88-2.4,5.34-4.26,5.34H51.49c3.28,4.38,8.52,7.93,11.86,12.11,4.9,6.14-1.37,12.55-8.09,7.09-4.73-3.86-17.05-15.99-20.68-20.7-2.26-2.93-2.3-4.88-.07-7.92L58.55,0h2.52Z"/>
    </g>
  </g>
</svg>